<svg width="60" height="60" viewBox="0 0 60 60" fill="none" xmlns="http://www.w3.org/2000/svg">
<path d="M45.8203 58.125C45.8203 55.2125 43.4593 52.8516 40.5469 52.8516H19.4531C16.5407 52.8516 14.1797 55.2125 14.1797 58.125V60H45.8203V58.125Z" fill="#1CD681"/>
<path d="M56.4844 14.1797V10.6641H34.9496C34.4186 9.17484 33.247 8.00332 31.7578 7.47223V0H28.2422V7.47223C26.753 8.00332 25.5814 9.17484 25.0504 10.6641H3.51562V14.1797H7.91062L0 33.5156C0 38.3617 3.94301 42.3047 8.78906 42.3047H12.3047C17.1507 42.3047 21.0938 38.3617 21.0938 33.5156L13.1474 14.1797H25.0505C25.5816 15.6689 26.7531 16.8404 28.2423 17.3715V42.4973C24.807 43.2004 22.0894 45.8993 21.3889 49.3359H38.6113C37.9109 45.8993 35.1933 43.2004 31.7579 42.4973V17.3715C33.2472 16.8404 34.4187 15.6689 34.9498 14.1797H46.817L38.9062 33.5156C38.9062 38.3617 42.8493 42.3047 47.6953 42.3047H51.2109C56.057 42.3047 60 38.3617 60 33.5156L52.0536 14.1797H56.4844ZM16.6987 31.7578H4.395L10.5469 16.9915L16.6987 31.7578ZM55.605 31.7578H43.3013L49.4531 16.9915L55.605 31.7578Z" fill="#1CD681"/>
</svg>
