<svg width="62" height="47" viewBox="0 0 62 47" fill="none" xmlns="http://www.w3.org/2000/svg">
<path d="M10.3344 15.4999C14.6146 15.4999 18.0844 12.0301 18.0844 7.74994C18.0844 3.46977 14.6146 0 10.3344 0C6.05424 0 2.58447 3.46977 2.58447 7.74994C2.58447 12.0301 6.05424 15.4999 10.3344 15.4999Z" fill="#D02E27"/>
<path d="M18.8324 20.8462C16.2322 22.4687 14.0878 24.7262 12.6009 27.4062C11.1141 30.0861 10.3337 33.1004 10.3333 36.1652H5.16663C3.79761 36.1611 2.48583 35.6155 1.51779 34.6474C0.549741 33.6794 0.00408868 32.3676 0 30.9986L0 25.832C0.00613302 23.7784 0.824612 21.8108 2.27668 20.3587C3.72875 18.9066 5.69642 18.0882 7.74994 18.082H12.9166C14.0444 18.0846 15.158 18.3332 16.1798 18.8107C17.2016 19.2881 18.1068 19.9827 18.8324 20.8462Z" fill="#D02E27"/>
<path d="M51.665 15.4999C55.9452 15.4999 59.4149 12.0301 59.4149 7.74994C59.4149 3.46977 55.9452 0 51.665 0C47.3848 0 43.915 3.46977 43.915 7.74994C43.915 12.0301 47.3848 15.4999 51.665 15.4999Z" fill="#D02E27"/>
<path d="M61.9998 25.832V30.9986C61.9958 32.3676 61.4501 33.6794 60.4821 34.6474C59.514 35.6155 58.2022 36.1611 56.8332 36.1652H51.6666C51.6661 33.1004 50.8858 30.0861 49.3989 27.4062C47.912 24.7262 45.7676 22.4687 43.1675 20.8462C43.893 19.9827 44.7983 19.2881 45.8201 18.8107C46.8418 18.3332 47.9555 18.0846 49.0833 18.082H54.2499C56.3034 18.0882 58.2711 18.9066 59.7232 20.3587C61.1752 21.8108 61.9937 23.7784 61.9998 25.832Z" fill="#D02E27"/>
<path d="M30.9988 20.6665C36.7057 20.6665 41.332 16.0402 41.332 10.3333C41.332 4.62636 36.7057 0 30.9988 0C25.2919 0 20.6655 4.62636 20.6655 10.3333C20.6655 16.0402 25.2919 20.6665 30.9988 20.6665Z" fill="#D02E27"/>
<path d="M46.4998 36.1666V38.7499C46.4936 40.8034 45.6752 42.7711 44.2231 44.2231C42.771 45.6752 40.8033 46.4937 38.7498 46.4998H23.2499C21.1964 46.4937 19.2287 45.6752 17.7767 44.2231C16.3246 42.7711 15.5061 40.8034 15.5 38.7499V36.1666C15.5 32.7409 16.8608 29.4555 19.2832 27.0332C21.7055 24.6108 24.9909 23.25 28.4166 23.25H33.5832C37.0089 23.25 40.2943 24.6108 42.7166 27.0332C45.1389 29.4555 46.4998 32.7409 46.4998 36.1666Z" fill="#D02E27"/>
</svg>
