<svg width="69" height="54" viewBox="0 0 69 54" fill="none" xmlns="http://www.w3.org/2000/svg">
<path d="M54.8095 18.2302V13.6033H57.5965V7.75074H54.8095V3.57031H47.8422V7.75074H44.7765V13.6033H47.8422V18.1806C39.76 19.7525 33.4668 26.9774 33.4668 35.6317C33.4668 45.4311 41.4626 53.4038 51.262 53.4038C61.0618 53.4038 68.9996 45.4314 68.9996 35.6317C68.9996 27.071 62.8917 19.9057 54.8095 18.2302ZM51.2854 46.4361C45.3278 46.4361 40.4807 41.5891 40.4807 35.6314C40.4807 29.6734 45.3278 24.8264 51.2854 24.8264C57.2434 24.8264 62.0905 29.6734 62.0905 35.6314C62.0902 41.5893 57.2434 46.4361 51.2854 46.4361Z" fill="#006EB5"/>
<path d="M35.5562 17.7721C35.5562 7.97263 27.607 0 17.8072 0C8.00747 0 0 7.97263 0 17.7721C0 26.4306 6.3169 33.6586 14.3991 35.2254V43.0261L12.1182 41.0593L8.36392 45.5293L17.9218 53.5961L27.7695 45.5611L24.0246 41.0273L21.3667 43.1615V35.1702C29.4486 33.4905 35.5562 26.3283 35.5562 17.7721ZM7.02534 17.7721C7.02534 11.8144 11.8724 6.96738 17.8304 6.96738C23.7883 6.96738 28.6354 11.8144 28.6354 17.7721C28.6354 23.73 23.7883 28.5771 17.8304 28.5771C11.8724 28.5771 7.02534 23.73 7.02534 17.7721Z" fill="#006EB5"/>
</svg>
