<svg width="50" height="50" viewBox="0 0 50 50" fill="none" xmlns="http://www.w3.org/2000/svg">
<g clip-path="url(#clip0_1433_310)">
<path d="M30.3965 10.5234C28.9453 11.9164 27.0116 12.6943 25 12.6943C22.9884 12.6943 21.0547 11.9164 19.6035 10.5234C18.4036 11.3815 17.4256 12.5133 16.7507 13.825C16.0758 15.1366 15.7233 16.5903 15.7227 18.0654V19.042C15.7227 19.4305 15.877 19.8031 16.1517 20.0778C16.4264 20.3525 16.799 20.5068 17.1875 20.5068H32.8125C33.201 20.5068 33.5736 20.3525 33.8483 20.0778C34.123 19.8031 34.2773 19.4305 34.2773 19.042V18.0654C34.2767 16.5903 33.9242 15.1366 33.2493 13.825C32.5744 12.5133 31.5964 11.3815 30.3965 10.5234Z" fill="#FD97BE"/>
<path d="M25 9.76563C24.0343 9.76563 23.0902 9.47925 22.2873 8.94273C21.4843 8.40619 20.8584 7.6436 20.4889 6.75139C20.1193 5.85917 20.0226 4.8774 20.211 3.93023C20.3994 2.98305 20.8645 2.11302 21.5473 1.43014C22.2302 0.747271 23.1002 0.282228 24.0474 0.0938241C24.9946 -0.0945803 25.9764 0.00211564 26.8686 0.371684C27.7608 0.741253 28.5234 1.3671 29.0599 2.17007C29.5964 2.97304 29.8828 3.91709 29.8828 4.88281C29.8813 6.17734 29.3663 7.4184 28.451 8.33377C27.5356 9.24914 26.2945 9.76408 25 9.76563Z" fill="#FD97BE"/>
<path d="M29.0039 44.1406C28.6154 44.1406 28.2428 44.295 27.9681 44.5697C27.6934 44.8444 27.5391 45.217 27.5391 45.6055V48.5352C27.5391 48.9237 27.6934 49.2962 27.9681 49.571C28.2428 49.8457 28.6154 50 29.0039 50H44.6289C45.0174 50 45.39 49.8457 45.6647 49.571C45.9394 49.2962 46.0938 48.9237 46.0938 48.5352V45.6055C46.0938 45.217 45.9394 44.8444 45.6647 44.5697C45.39 44.295 45.0174 44.1406 44.6289 44.1406H29.0039Z" fill="#FD97BE"/>
<path d="M48.5352 11.9141H48.0469C46.6224 11.9141 45.2562 12.4799 44.249 13.4872C43.2417 14.4945 42.6758 15.8607 42.6758 17.2852V20.1504C43.5571 20.6523 44.3107 21.3508 44.8778 22.1916C45.4449 23.0325 45.8103 23.9929 45.9454 24.998C46.0806 26.0032 45.9819 27.026 45.657 27.9867C45.3321 28.9475 44.7898 29.8203 44.0723 30.5371L39.7666 34.8428C39.4918 35.1174 39.1192 35.2717 38.7306 35.2716C38.3421 35.2715 37.9695 35.1171 37.6948 34.8423C37.4202 34.5675 37.2659 34.1948 37.266 33.8063C37.2661 33.4178 37.4205 33.0452 37.6953 32.7705L42.001 28.4648C42.6479 27.7706 43 26.8524 42.9833 25.9037C42.9666 24.955 42.5822 24.0498 41.9113 23.3788C41.2403 22.7078 40.3351 22.3235 39.3864 22.3068C38.4376 22.29 37.5194 22.6422 36.8252 23.2891L31.6406 28.4707C30.9581 29.1485 30.4167 29.9549 30.0479 30.8434C29.6792 31.7318 29.4903 32.6846 29.4922 33.6465V41.2109H44.1406V40.1611L49.7822 31.0156C49.9248 30.7843 50.0002 30.5178 50 30.2461V13.3789C50 12.9904 49.8457 12.6178 49.571 12.3431C49.2963 12.0684 48.9237 11.9141 48.5352 11.9141Z" fill="#FD97BE"/>
<path d="M20.9961 44.1406C21.3846 44.1406 21.7572 44.295 22.0319 44.5697C22.3066 44.8444 22.4609 45.217 22.4609 45.6055V48.5352C22.4609 48.9237 22.3066 49.2962 22.0319 49.571C21.7572 49.8457 21.3846 50 20.9961 50H5.37109C4.98259 50 4.61 49.8457 4.33529 49.571C4.06058 49.2962 3.90625 48.9237 3.90625 48.5352V45.6055C3.90625 45.217 4.06058 44.8444 4.33529 44.5697C4.61 44.295 4.98259 44.1406 5.37109 44.1406H20.9961Z" fill="#FD97BE"/>
<path d="M20.5078 33.6494C20.5097 32.6875 20.3209 31.7347 19.9521 30.8463C19.5833 29.9579 19.0419 29.1514 18.3594 28.4736L13.1836 23.2861C12.4894 22.6393 11.5712 22.2871 10.6224 22.3038C9.67371 22.3206 8.76851 22.7049 8.09755 23.3759C7.42659 24.0468 7.04225 24.952 7.02551 25.9008C7.00877 26.8495 7.36094 27.7677 8.00781 28.4619L12.3047 32.7705C12.5795 33.0452 12.7339 33.4178 12.734 33.8063C12.7341 34.1948 12.5798 34.5675 12.3052 34.8423C12.0305 35.1171 11.6579 35.2715 11.2694 35.2716C10.8809 35.2717 10.5082 35.1174 10.2334 34.8428L5.92773 30.5371C5.21026 29.8203 4.66796 28.9475 4.34305 27.9867C4.01815 27.026 3.91943 26.0032 4.05457 24.998C4.18972 23.9929 4.55508 23.0325 5.1222 22.1916C5.68932 21.3508 6.44289 20.6523 7.32422 20.1504V17.2852C7.32422 15.8607 6.75834 14.4945 5.75106 13.4872C4.74379 12.4799 3.37763 11.9141 1.95313 11.9141H1.46484C1.07634 11.9141 0.703755 12.0684 0.429043 12.3431C0.154332 12.6178 3.67029e-07 12.9904 3.67029e-07 13.3789V30.2461C-0.000191966 30.5178 0.0752096 30.7843 0.217774 31.0156L5.85938 40.1611V41.2109H20.5078V33.6494Z" fill="#FD97BE"/>
</g>
<defs>
<clipPath id="clip0_1433_310">
<rect width="50" height="50" fill="white"/>
</clipPath>
</defs>
</svg>
