<svg width="48" height="67" viewBox="0 0 48 67" fill="none" xmlns="http://www.w3.org/2000/svg">
<path d="M34.6808 46.7932L37.734 41.8387L43.244 39.9596L43.8545 34.1725L48 30.0914L46.029 24.6134L48 19.1354L43.8546 15.0543L43.2442 9.2673L37.7342 7.38813L34.6809 2.43354L28.9058 3.13083L24 0L19.0942 3.13109L13.3192 2.4338L10.266 7.38826L4.75597 9.26743L4.14554 15.0544L0 19.1355L1.97098 24.6136L0 30.0916L4.14541 34.1726L4.75584 39.9597L10.2658 41.8389L13.3191 46.7933L19.0942 46.0962L24 49.2271L28.9058 46.0962L34.6808 46.7932ZM7.12144 24.6136C7.12144 15.3068 14.6932 7.73501 24 7.73501C33.3068 7.73501 40.8786 15.3068 40.8786 24.6136C40.8786 33.9204 33.3068 41.4921 24 41.4921C14.6932 41.4921 7.12144 33.9204 7.12144 24.6136Z" fill="#23C3E2"/>
<path d="M24.0005 11.6484C16.8522 11.6484 11.0366 17.464 11.0366 24.6123C11.0366 31.7606 16.8522 37.5761 24.0005 37.5761C31.1488 37.5761 36.9643 31.7606 36.9643 24.6123C36.9643 17.464 31.1488 11.6484 24.0005 11.6484Z" fill="#23C3E2"/>
<path d="M18.1696 50.1494L11.2997 50.9788L7.67002 45.0887L6.4361 44.668L1.11377 61.3036L10.6955 60.7766L18.192 66.7675L22.6034 52.9793L18.1696 50.1494Z" fill="#23C3E2"/>
<path d="M40.3294 45.0888L36.6996 50.9788L29.8299 50.1494L25.396 52.9793L29.8074 66.7675L37.3039 60.7766L46.8856 61.3036L41.5633 44.668L40.3294 45.0888Z" fill="#23C3E2"/>
</svg>
