<svg width="49" height="49" viewBox="0 0 49 49" fill="none" xmlns="http://www.w3.org/2000/svg">
<path d="M25.2171 0.19396C24.9982 0.0669146 24.7496 0 24.4965 0C24.2434 0 23.9949 0.0669146 23.776 0.19396L1.05273 13.399H47.9403L25.2171 0.19396Z" fill="#FA5915"/>
<path d="M0 16.2695V20.0971C0 20.6047 0.20163 21.0914 0.560533 21.4503C0.919436 21.8092 1.40621 22.0109 1.91378 22.0109H2.87067V24.8815H12.4396V22.0109H19.7119V24.8815H29.2808V22.0109H36.5532V24.8815H46.1221V22.0109H47.0789C47.5865 22.0109 48.0733 21.8092 48.4322 21.4503C48.7911 21.0914 48.9927 20.6047 48.9927 20.0971V16.2695H0Z" fill="#FA5915"/>
<path d="M47.0789 42.2964H46.1221V39.4258H36.5532V42.2964H29.2808V39.4258H19.7119V42.2964H12.4396V39.4258H2.87067V42.2964H1.91378C1.40621 42.2964 0.919436 42.4981 0.560533 42.857C0.20163 43.2159 0 43.7027 0 44.2102L0 48.9947H48.9927V44.2102C48.9927 43.7027 48.7911 43.2159 48.4322 42.857C48.0733 42.4981 47.5865 42.2964 47.0789 42.2964Z" fill="#FA5915"/>
<path d="M21.147 27.7539H27.8452V36.5573H21.147V27.7539Z" fill="#FA5915"/>
<path d="M37.9883 27.7539H44.6865V36.5573H37.9883V27.7539Z" fill="#FA5915"/>
<path d="M4.30566 27.7539H11.0039V36.5573H4.30566V27.7539Z" fill="#FA5915"/>
</svg>
