<svg width="67" height="44" viewBox="0 0 67 44" fill="none" xmlns="http://www.w3.org/2000/svg">
<path d="M23.911 6.37109H13.5747L8.49902 23.118C16.7205 32.3836 27.5722 40.5919 31.868 43.6849C32.5025 44.1474 33.3616 44.0814 33.9167 43.5262C34.2208 43.2222 34.3794 42.8257 34.3794 42.4027C34.3794 41.9665 34.2208 41.57 33.9167 41.266L31.141 38.4902L27.9687 35.318C27.4533 34.8025 27.4533 33.9698 27.9687 33.4543C28.4843 32.9388 29.317 32.9388 29.8325 33.4543L37.2212 40.843C38.0275 41.636 39.3361 41.636 40.1291 40.843C40.9222 40.05 40.9354 38.7546 40.1556 37.9483L33.626 31.1941C33.1237 30.6653 33.1369 29.8326 33.6657 29.3172C34.1811 28.8149 35.0271 28.828 35.5293 29.3568L36.5735 30.4274L42.0589 36.111L43.5261 37.6179C44.3323 38.4506 45.6409 38.5034 46.5133 37.7236C46.9627 37.3271 47.227 36.7719 47.2402 36.164C47.2402 35.5559 47.0156 34.9876 46.5794 34.5646L41.6888 29.8194L38.4636 26.7C37.935 26.1977 37.9217 25.365 38.4373 24.8363C38.9395 24.3076 39.7723 24.2944 40.3009 24.8099L49.7649 33.9698C50.5711 34.7364 51.8004 34.7364 52.5803 33.9565C52.99 33.5732 53.2015 33.0445 53.1882 32.4894C53.175 31.9343 52.9503 31.4187 52.5273 31.0355L34.6041 14.6322C31.6301 15.2005 29.0262 17.9895 28.9998 18.0159C28.9337 18.0952 28.8412 18.1745 28.7486 18.2275C23.8317 21.4129 20.937 18.8354 20.818 18.7297C18.2141 16.3637 19.4566 12.6363 20.5933 10.7991C21.6639 9.0411 22.7874 7.58718 23.911 6.37109Z" fill="#E1A305"/>
<path d="M36.8512 3.58106C35.4501 3.02594 33.93 2.98625 32.5819 3.48853C29.9779 4.42702 26.1977 6.71366 22.8404 12.1858C22.8139 12.2254 20.9634 15.292 22.6024 16.7723C22.6421 16.812 24.1622 18.0016 27.189 16.0851C27.8631 15.3845 31.0882 12.2784 34.9213 11.9215C35.2915 11.8818 35.6615 12.014 35.9391 12.2651L54.3118 29.0913C54.325 29.0913 54.325 29.0913 54.325 29.1045C55.8186 28.7345 56.8761 27.4655 57.3519 26.765L50.8752 9.15899L36.8512 3.58106Z" fill="#E1A305"/>
<path d="M64.6354 3.45015C62.1505 3.62198 57.0484 4.15064 53.8365 5.49888C53.1227 5.80286 52.7658 6.66205 53.0434 7.40224L60.8683 28.6564C61.0931 29.2379 61.6614 29.6477 62.2959 29.6477H64.728C65.4813 29.6477 66.0894 29.0397 66.0894 28.2863V4.7983C66.0894 4.00527 65.4285 3.38399 64.6354 3.45015Z" fill="#E1A305"/>
<path d="M1.36147 26.2645H3.66134C4.33546 26.2645 4.91705 25.8416 5.11526 25.1939L11.5259 3.99261C11.7506 3.26565 11.4069 2.48577 10.7196 2.16856C7.07146 0.5428 3.63488 0.0933609 1.41431 0.000827028C0.634426 -0.0255536 0 0.582411 0 1.36229V24.9031C0 25.6565 0.608046 26.2645 1.36147 26.2645Z" fill="#E1A305"/>
</svg>
