<svg width="904" height="406" viewBox="0 0 904 406" fill="none" xmlns="http://www.w3.org/2000/svg">
<path d="M13.9024 19.292H26.7724L36.9364 35H51.7864L40.3024 17.906C46.7704 15.596 50.7304 10.448 50.7304 3.452C50.7304 -6.712 43.1404 -12.388 31.5904 -12.388H0.966422V35H13.9024V19.292ZM13.9024 9.062V-1.564H30.9304C35.4844 -1.564 37.9924 0.415997 37.9924 3.782C37.9924 6.95 35.4844 9.062 30.9304 9.062H13.9024ZM55.4293 -12.388V35H101.497V24.044H68.1013V16.322H97.7353V5.63H68.1013V-1.432H101.497V-12.388H55.4293ZM102.828 27.278C107.91 32.492 120.12 35.792 130.416 35.792C145.2 35.792 155.76 30.578 155.76 19.556C155.76 8.996 144.672 6.884 133.716 5.63C122.562 4.442 119.13 3.914 119.13 1.406C119.13 -1.102 122.628 -2.554 128.766 -2.554C136.356 -2.554 143.418 -0.112 147.378 3.65L154.968 -5.392C150.084 -9.88 140.514 -13.18 129.756 -13.18C115.632 -13.18 106.062 -7.306 106.062 2.726C106.062 12.494 115.632 15.002 126.324 16.124C138.138 17.444 141.966 17.708 141.966 20.942C141.966 23.648 137.544 25.034 131.208 25.034C124.476 25.034 116.094 23.054 110.418 17.51L102.828 27.278ZM183.936 35.726C200.172 35.726 209.082 27.476 209.082 13.88V-12.388H196.146V12.626C196.146 20.216 192.186 24.506 183.936 24.506C175.686 24.506 171.726 20.216 171.726 12.626V-12.388H158.79V13.88C158.79 27.476 167.7 35.726 183.936 35.726ZM214.629 35H257.661V24.044H227.565V-12.388H214.629V35ZM299.541 -1.432V-12.388H246.741V-1.432H266.673V35H279.609V-1.432H299.541ZM297.863 27.278C302.945 32.492 315.155 35.792 325.451 35.792C340.235 35.792 350.795 30.578 350.795 19.556C350.795 8.996 339.707 6.884 328.751 5.63C317.597 4.442 314.165 3.914 314.165 1.406C314.165 -1.102 317.663 -2.554 323.801 -2.554C331.391 -2.554 338.453 -0.112 342.413 3.65L350.003 -5.392C345.119 -9.88 335.549 -13.18 324.791 -13.18C310.667 -13.18 301.097 -7.306 301.097 2.726C301.097 12.494 310.667 15.002 321.359 16.124C333.173 17.444 337.001 17.708 337.001 20.942C337.001 23.648 332.579 25.034 326.243 25.034C319.511 25.034 311.129 23.054 305.453 17.51L297.863 27.278ZM386.371 35V18.434H415.741V7.742H386.371V-1.432H419.503V-12.388H373.699V35H386.371ZM436.908 19.292H449.778L459.942 35H474.792L463.308 17.906C469.776 15.596 473.736 10.448 473.736 3.452C473.736 -6.712 466.146 -12.388 454.596 -12.388H423.972V35H436.908V19.292ZM436.908 9.062V-1.564H453.936C458.49 -1.564 460.998 0.415997 460.998 3.782C460.998 6.95 458.49 9.062 453.936 9.062H436.908ZM497.905 -12.388L474.607 35H488.335L492.625 26.09H517.507L521.797 35H535.987L512.755 -12.388H497.905ZM505.165 0.283998L512.557 15.728H497.707L505.165 0.283998ZM576.056 35L590.51 0.943998V35H603.05V-12.388H584.042L570.974 19.16L557.906 -12.388H538.634V35H551.24V0.943998L565.628 35H576.056ZM609.533 -12.388V35H655.601V24.044H622.205V16.322H651.839V5.63H622.205V-1.432H655.601V-12.388H609.533ZM690.149 -12.388L680.513 18.83L670.151 -12.388H656.687L672.659 35H686.519L696.155 3.98L705.725 35H719.651L735.623 -12.388H722.555L712.127 18.83L702.557 -12.388H690.149ZM761.681 -13.18C745.115 -13.18 733.169 -2.818 733.169 11.306C733.169 25.43 745.115 35.792 761.681 35.792C778.247 35.792 790.127 25.43 790.127 11.306C790.127 -2.818 778.247 -13.18 761.681 -13.18ZM761.681 -1.96C770.393 -1.96 776.927 3.188 776.927 11.306C776.927 19.424 770.393 24.572 761.681 24.572C752.969 24.572 746.435 19.424 746.435 11.306C746.435 3.188 752.969 -1.96 761.681 -1.96ZM807.449 19.292H820.319L830.483 35H845.333L833.849 17.906C840.317 15.596 844.277 10.448 844.277 3.452C844.277 -6.712 836.687 -12.388 825.137 -12.388H794.513V35H807.449V19.292ZM807.449 9.062V-1.564H824.477C829.031 -1.564 831.539 0.415997 831.539 3.782C831.539 6.95 829.031 9.062 824.477 9.062H807.449ZM861.912 -12.388H848.976V35H861.912V23.186L870.36 15.596L886.794 35H903.228L879.666 7.28L901.578 -12.388H883.956L861.912 7.61V-12.388Z" fill="#E1A305"/>
<path d="M13.9024 75.292H26.7724L36.9364 91H51.7864L40.3024 73.906C46.7704 71.596 50.7304 66.448 50.7304 59.452C50.7304 49.288 43.1404 43.612 31.5904 43.612H0.966422V91H13.9024V75.292ZM13.9024 65.062V54.436H30.9304C35.4844 54.436 37.9924 56.416 37.9924 59.782C37.9924 62.95 35.4844 65.062 30.9304 65.062H13.9024ZM55.4293 43.612V91H101.497V80.044H68.1013V72.322H97.7353V61.63H68.1013V54.568H101.497V43.612H55.4293ZM102.828 83.278C107.91 88.492 120.12 91.792 130.416 91.792C145.2 91.792 155.76 86.578 155.76 75.556C155.76 64.996 144.672 62.884 133.716 61.63C122.562 60.442 119.13 59.914 119.13 57.406C119.13 54.898 122.628 53.446 128.766 53.446C136.356 53.446 143.418 55.888 147.378 59.65L154.968 50.608C150.084 46.12 140.514 42.82 129.756 42.82C115.632 42.82 106.062 48.694 106.062 58.726C106.062 68.494 115.632 71.002 126.324 72.124C138.138 73.444 141.966 73.708 141.966 76.942C141.966 79.648 137.544 81.034 131.208 81.034C124.476 81.034 116.094 79.054 110.418 73.51L102.828 83.278ZM183.936 91.726C200.172 91.726 209.082 83.476 209.082 69.88V43.612H196.146V68.626C196.146 76.216 192.186 80.506 183.936 80.506C175.686 80.506 171.726 76.216 171.726 68.626V43.612H158.79V69.88C158.79 83.476 167.7 91.726 183.936 91.726ZM214.629 91H257.661V80.044H227.565V43.612H214.629V91ZM299.541 54.568V43.612H246.741V54.568H266.673V91H279.609V54.568H299.541ZM297.863 83.278C302.945 88.492 315.155 91.792 325.451 91.792C340.235 91.792 350.795 86.578 350.795 75.556C350.795 64.996 339.707 62.884 328.751 61.63C317.597 60.442 314.165 59.914 314.165 57.406C314.165 54.898 317.663 53.446 323.801 53.446C331.391 53.446 338.453 55.888 342.413 59.65L350.003 50.608C345.119 46.12 335.549 42.82 324.791 42.82C310.667 42.82 301.097 48.694 301.097 58.726C301.097 68.494 310.667 71.002 321.359 72.124C333.173 73.444 337.001 73.708 337.001 76.942C337.001 79.648 332.579 81.034 326.243 81.034C319.511 81.034 311.129 79.054 305.453 73.51L297.863 83.278ZM386.371 91V74.434H415.741V63.742H386.371V54.568H419.503V43.612H373.699V91H386.371ZM436.908 75.292H449.778L459.942 91H474.792L463.308 73.906C469.776 71.596 473.736 66.448 473.736 59.452C473.736 49.288 466.146 43.612 454.596 43.612H423.972V91H436.908V75.292ZM436.908 65.062V54.436H453.936C458.49 54.436 460.998 56.416 460.998 59.782C460.998 62.95 458.49 65.062 453.936 65.062H436.908ZM497.905 43.612L474.607 91H488.335L492.625 82.09H517.507L521.797 91H535.987L512.755 43.612H497.905ZM505.165 56.284L512.557 71.728H497.707L505.165 56.284ZM576.056 91L590.51 56.944V91H603.05V43.612H584.042L570.974 75.16L557.906 43.612H538.634V91H551.24V56.944L565.628 91H576.056ZM609.533 43.612V91H655.601V80.044H622.205V72.322H651.839V61.63H622.205V54.568H655.601V43.612H609.533ZM690.149 43.612L680.513 74.83L670.151 43.612H656.687L672.659 91H686.519L696.155 59.98L705.725 91H719.651L735.623 43.612H722.555L712.127 74.83L702.557 43.612H690.149ZM761.681 42.82C745.115 42.82 733.169 53.182 733.169 67.306C733.169 81.43 745.115 91.792 761.681 91.792C778.247 91.792 790.127 81.43 790.127 67.306C790.127 53.182 778.247 42.82 761.681 42.82ZM761.681 54.04C770.393 54.04 776.927 59.188 776.927 67.306C776.927 75.424 770.393 80.572 761.681 80.572C752.969 80.572 746.435 75.424 746.435 67.306C746.435 59.188 752.969 54.04 761.681 54.04ZM807.449 75.292H820.319L830.483 91H845.333L833.849 73.906C840.317 71.596 844.277 66.448 844.277 59.452C844.277 49.288 836.687 43.612 825.137 43.612H794.513V91H807.449V75.292ZM807.449 65.062V54.436H824.477C829.031 54.436 831.539 56.416 831.539 59.782C831.539 62.95 829.031 65.062 824.477 65.062H807.449ZM861.912 43.612H848.976V91H861.912V79.186L870.36 71.596L886.794 91H903.228L879.666 63.28L901.578 43.612H883.956L861.912 63.61V43.612Z" fill="#FA5915"/>
<path d="M13.9024 131.292H26.7724L36.9364 147H51.7864L40.3024 129.906C46.7704 127.596 50.7304 122.448 50.7304 115.452C50.7304 105.288 43.1404 99.612 31.5904 99.612H0.966422V147H13.9024V131.292ZM13.9024 121.062V110.436H30.9304C35.4844 110.436 37.9924 112.416 37.9924 115.782C37.9924 118.95 35.4844 121.062 30.9304 121.062H13.9024ZM55.4293 99.612V147H101.497V136.044H68.1013V128.322H97.7353V117.63H68.1013V110.568H101.497V99.612H55.4293ZM102.828 139.278C107.91 144.492 120.12 147.792 130.416 147.792C145.2 147.792 155.76 142.578 155.76 131.556C155.76 120.996 144.672 118.884 133.716 117.63C122.562 116.442 119.13 115.914 119.13 113.406C119.13 110.898 122.628 109.446 128.766 109.446C136.356 109.446 143.418 111.888 147.378 115.65L154.968 106.608C150.084 102.12 140.514 98.82 129.756 98.82C115.632 98.82 106.062 104.694 106.062 114.726C106.062 124.494 115.632 127.002 126.324 128.124C138.138 129.444 141.966 129.708 141.966 132.942C141.966 135.648 137.544 137.034 131.208 137.034C124.476 137.034 116.094 135.054 110.418 129.51L102.828 139.278ZM183.936 147.726C200.172 147.726 209.082 139.476 209.082 125.88V99.612H196.146V124.626C196.146 132.216 192.186 136.506 183.936 136.506C175.686 136.506 171.726 132.216 171.726 124.626V99.612H158.79V125.88C158.79 139.476 167.7 147.726 183.936 147.726ZM214.629 147H257.661V136.044H227.565V99.612H214.629V147ZM299.541 110.568V99.612H246.741V110.568H266.673V147H279.609V110.568H299.541ZM297.863 139.278C302.945 144.492 315.155 147.792 325.451 147.792C340.235 147.792 350.795 142.578 350.795 131.556C350.795 120.996 339.707 118.884 328.751 117.63C317.597 116.442 314.165 115.914 314.165 113.406C314.165 110.898 317.663 109.446 323.801 109.446C331.391 109.446 338.453 111.888 342.413 115.65L350.003 106.608C345.119 102.12 335.549 98.82 324.791 98.82C310.667 98.82 301.097 104.694 301.097 114.726C301.097 124.494 310.667 127.002 321.359 128.124C333.173 129.444 337.001 129.708 337.001 132.942C337.001 135.648 332.579 137.034 326.243 137.034C319.511 137.034 311.129 135.054 305.453 129.51L297.863 139.278ZM386.371 147V130.434H415.741V119.742H386.371V110.568H419.503V99.612H373.699V147H386.371ZM436.908 131.292H449.778L459.942 147H474.792L463.308 129.906C469.776 127.596 473.736 122.448 473.736 115.452C473.736 105.288 466.146 99.612 454.596 99.612H423.972V147H436.908V131.292ZM436.908 121.062V110.436H453.936C458.49 110.436 460.998 112.416 460.998 115.782C460.998 118.95 458.49 121.062 453.936 121.062H436.908ZM497.905 99.612L474.607 147H488.335L492.625 138.09H517.507L521.797 147H535.987L512.755 99.612H497.905ZM505.165 112.284L512.557 127.728H497.707L505.165 112.284ZM576.056 147L590.51 112.944V147H603.05V99.612H584.042L570.974 131.16L557.906 99.612H538.634V147H551.24V112.944L565.628 147H576.056ZM609.533 99.612V147H655.601V136.044H622.205V128.322H651.839V117.63H622.205V110.568H655.601V99.612H609.533ZM690.149 99.612L680.513 130.83L670.151 99.612H656.687L672.659 147H686.519L696.155 115.98L705.725 147H719.651L735.623 99.612H722.555L712.127 130.83L702.557 99.612H690.149ZM761.681 98.82C745.115 98.82 733.169 109.182 733.169 123.306C733.169 137.43 745.115 147.792 761.681 147.792C778.247 147.792 790.127 137.43 790.127 123.306C790.127 109.182 778.247 98.82 761.681 98.82ZM761.681 110.04C770.393 110.04 776.927 115.188 776.927 123.306C776.927 131.424 770.393 136.572 761.681 136.572C752.969 136.572 746.435 131.424 746.435 123.306C746.435 115.188 752.969 110.04 761.681 110.04ZM807.449 131.292H820.319L830.483 147H845.333L833.849 129.906C840.317 127.596 844.277 122.448 844.277 115.452C844.277 105.288 836.687 99.612 825.137 99.612H794.513V147H807.449V131.292ZM807.449 121.062V110.436H824.477C829.031 110.436 831.539 112.416 831.539 115.782C831.539 118.95 829.031 121.062 824.477 121.062H807.449ZM861.912 99.612H848.976V147H861.912V135.186L870.36 127.596L886.794 147H903.228L879.666 119.28L901.578 99.612H883.956L861.912 119.61V99.612Z" fill="#D02E27"/>
<path d="M13.9024 187.292H26.7724L36.9364 203H51.7864L40.3024 185.906C46.7704 183.596 50.7304 178.448 50.7304 171.452C50.7304 161.288 43.1404 155.612 31.5904 155.612H0.966422V203H13.9024V187.292ZM13.9024 177.062V166.436H30.9304C35.4844 166.436 37.9924 168.416 37.9924 171.782C37.9924 174.95 35.4844 177.062 30.9304 177.062H13.9024ZM55.4293 155.612V203H101.497V192.044H68.1013V184.322H97.7353V173.63H68.1013V166.568H101.497V155.612H55.4293ZM102.828 195.278C107.91 200.492 120.12 203.792 130.416 203.792C145.2 203.792 155.76 198.578 155.76 187.556C155.76 176.996 144.672 174.884 133.716 173.63C122.562 172.442 119.13 171.914 119.13 169.406C119.13 166.898 122.628 165.446 128.766 165.446C136.356 165.446 143.418 167.888 147.378 171.65L154.968 162.608C150.084 158.12 140.514 154.82 129.756 154.82C115.632 154.82 106.062 160.694 106.062 170.726C106.062 180.494 115.632 183.002 126.324 184.124C138.138 185.444 141.966 185.708 141.966 188.942C141.966 191.648 137.544 193.034 131.208 193.034C124.476 193.034 116.094 191.054 110.418 185.51L102.828 195.278ZM183.936 203.726C200.172 203.726 209.082 195.476 209.082 181.88V155.612H196.146V180.626C196.146 188.216 192.186 192.506 183.936 192.506C175.686 192.506 171.726 188.216 171.726 180.626V155.612H158.79V181.88C158.79 195.476 167.7 203.726 183.936 203.726ZM214.629 203H257.661V192.044H227.565V155.612H214.629V203ZM299.541 166.568V155.612H246.741V166.568H266.673V203H279.609V166.568H299.541ZM297.863 195.278C302.945 200.492 315.155 203.792 325.451 203.792C340.235 203.792 350.795 198.578 350.795 187.556C350.795 176.996 339.707 174.884 328.751 173.63C317.597 172.442 314.165 171.914 314.165 169.406C314.165 166.898 317.663 165.446 323.801 165.446C331.391 165.446 338.453 167.888 342.413 171.65L350.003 162.608C345.119 158.12 335.549 154.82 324.791 154.82C310.667 154.82 301.097 160.694 301.097 170.726C301.097 180.494 310.667 183.002 321.359 184.124C333.173 185.444 337.001 185.708 337.001 188.942C337.001 191.648 332.579 193.034 326.243 193.034C319.511 193.034 311.129 191.054 305.453 185.51L297.863 195.278ZM386.371 203V186.434H415.741V175.742H386.371V166.568H419.503V155.612H373.699V203H386.371ZM436.908 187.292H449.778L459.942 203H474.792L463.308 185.906C469.776 183.596 473.736 178.448 473.736 171.452C473.736 161.288 466.146 155.612 454.596 155.612H423.972V203H436.908V187.292ZM436.908 177.062V166.436H453.936C458.49 166.436 460.998 168.416 460.998 171.782C460.998 174.95 458.49 177.062 453.936 177.062H436.908ZM497.905 155.612L474.607 203H488.335L492.625 194.09H517.507L521.797 203H535.987L512.755 155.612H497.905ZM505.165 168.284L512.557 183.728H497.707L505.165 168.284ZM576.056 203L590.51 168.944V203H603.05V155.612H584.042L570.974 187.16L557.906 155.612H538.634V203H551.24V168.944L565.628 203H576.056ZM609.533 155.612V203H655.601V192.044H622.205V184.322H651.839V173.63H622.205V166.568H655.601V155.612H609.533ZM690.149 155.612L680.513 186.83L670.151 155.612H656.687L672.659 203H686.519L696.155 171.98L705.725 203H719.651L735.623 155.612H722.555L712.127 186.83L702.557 155.612H690.149ZM761.681 154.82C745.115 154.82 733.169 165.182 733.169 179.306C733.169 193.43 745.115 203.792 761.681 203.792C778.247 203.792 790.127 193.43 790.127 179.306C790.127 165.182 778.247 154.82 761.681 154.82ZM761.681 166.04C770.393 166.04 776.927 171.188 776.927 179.306C776.927 187.424 770.393 192.572 761.681 192.572C752.969 192.572 746.435 187.424 746.435 179.306C746.435 171.188 752.969 166.04 761.681 166.04ZM807.449 187.292H820.319L830.483 203H845.333L833.849 185.906C840.317 183.596 844.277 178.448 844.277 171.452C844.277 161.288 836.687 155.612 825.137 155.612H794.513V203H807.449V187.292ZM807.449 177.062V166.436H824.477C829.031 166.436 831.539 168.416 831.539 171.782C831.539 174.95 829.031 177.062 824.477 177.062H807.449ZM861.912 155.612H848.976V203H861.912V191.186L870.36 183.596L886.794 203H903.228L879.666 175.28L901.578 155.612H883.956L861.912 175.61V155.612Z" fill="#FD97BE"/>
<path d="M13.9024 243.292H26.7724L36.9364 259H51.7864L40.3024 241.906C46.7704 239.596 50.7304 234.448 50.7304 227.452C50.7304 217.288 43.1404 211.612 31.5904 211.612H0.966422V259H13.9024V243.292ZM13.9024 233.062V222.436H30.9304C35.4844 222.436 37.9924 224.416 37.9924 227.782C37.9924 230.95 35.4844 233.062 30.9304 233.062H13.9024ZM55.4293 211.612V259H101.497V248.044H68.1013V240.322H97.7353V229.63H68.1013V222.568H101.497V211.612H55.4293ZM102.828 251.278C107.91 256.492 120.12 259.792 130.416 259.792C145.2 259.792 155.76 254.578 155.76 243.556C155.76 232.996 144.672 230.884 133.716 229.63C122.562 228.442 119.13 227.914 119.13 225.406C119.13 222.898 122.628 221.446 128.766 221.446C136.356 221.446 143.418 223.888 147.378 227.65L154.968 218.608C150.084 214.12 140.514 210.82 129.756 210.82C115.632 210.82 106.062 216.694 106.062 226.726C106.062 236.494 115.632 239.002 126.324 240.124C138.138 241.444 141.966 241.708 141.966 244.942C141.966 247.648 137.544 249.034 131.208 249.034C124.476 249.034 116.094 247.054 110.418 241.51L102.828 251.278ZM183.936 259.726C200.172 259.726 209.082 251.476 209.082 237.88V211.612H196.146V236.626C196.146 244.216 192.186 248.506 183.936 248.506C175.686 248.506 171.726 244.216 171.726 236.626V211.612H158.79V237.88C158.79 251.476 167.7 259.726 183.936 259.726ZM214.629 259H257.661V248.044H227.565V211.612H214.629V259ZM299.541 222.568V211.612H246.741V222.568H266.673V259H279.609V222.568H299.541ZM297.863 251.278C302.945 256.492 315.155 259.792 325.451 259.792C340.235 259.792 350.795 254.578 350.795 243.556C350.795 232.996 339.707 230.884 328.751 229.63C317.597 228.442 314.165 227.914 314.165 225.406C314.165 222.898 317.663 221.446 323.801 221.446C331.391 221.446 338.453 223.888 342.413 227.65L350.003 218.608C345.119 214.12 335.549 210.82 324.791 210.82C310.667 210.82 301.097 216.694 301.097 226.726C301.097 236.494 310.667 239.002 321.359 240.124C333.173 241.444 337.001 241.708 337.001 244.942C337.001 247.648 332.579 249.034 326.243 249.034C319.511 249.034 311.129 247.054 305.453 241.51L297.863 251.278ZM386.371 259V242.434H415.741V231.742H386.371V222.568H419.503V211.612H373.699V259H386.371ZM436.908 243.292H449.778L459.942 259H474.792L463.308 241.906C469.776 239.596 473.736 234.448 473.736 227.452C473.736 217.288 466.146 211.612 454.596 211.612H423.972V259H436.908V243.292ZM436.908 233.062V222.436H453.936C458.49 222.436 460.998 224.416 460.998 227.782C460.998 230.95 458.49 233.062 453.936 233.062H436.908ZM497.905 211.612L474.607 259H488.335L492.625 250.09H517.507L521.797 259H535.987L512.755 211.612H497.905ZM505.165 224.284L512.557 239.728H497.707L505.165 224.284ZM576.056 259L590.51 224.944V259H603.05V211.612H584.042L570.974 243.16L557.906 211.612H538.634V259H551.24V224.944L565.628 259H576.056ZM609.533 211.612V259H655.601V248.044H622.205V240.322H651.839V229.63H622.205V222.568H655.601V211.612H609.533ZM690.149 211.612L680.513 242.83L670.151 211.612H656.687L672.659 259H686.519L696.155 227.98L705.725 259H719.651L735.623 211.612H722.555L712.127 242.83L702.557 211.612H690.149ZM761.681 210.82C745.115 210.82 733.169 221.182 733.169 235.306C733.169 249.43 745.115 259.792 761.681 259.792C778.247 259.792 790.127 249.43 790.127 235.306C790.127 221.182 778.247 210.82 761.681 210.82ZM761.681 222.04C770.393 222.04 776.927 227.188 776.927 235.306C776.927 243.424 770.393 248.572 761.681 248.572C752.969 248.572 746.435 243.424 746.435 235.306C746.435 227.188 752.969 222.04 761.681 222.04ZM807.449 243.292H820.319L830.483 259H845.333L833.849 241.906C840.317 239.596 844.277 234.448 844.277 227.452C844.277 217.288 836.687 211.612 825.137 211.612H794.513V259H807.449V243.292ZM807.449 233.062V222.436H824.477C829.031 222.436 831.539 224.416 831.539 227.782C831.539 230.95 829.031 233.062 824.477 233.062H807.449ZM861.912 211.612H848.976V259H861.912V247.186L870.36 239.596L886.794 259H903.228L879.666 231.28L901.578 211.612H883.956L861.912 231.61V211.612Z" fill="#1CD681"/>
<path d="M13.9024 299.292H26.7724L36.9364 315H51.7864L40.3024 297.906C46.7704 295.596 50.7304 290.448 50.7304 283.452C50.7304 273.288 43.1404 267.612 31.5904 267.612H0.966422V315H13.9024V299.292ZM13.9024 289.062V278.436H30.9304C35.4844 278.436 37.9924 280.416 37.9924 283.782C37.9924 286.95 35.4844 289.062 30.9304 289.062H13.9024ZM55.4293 267.612V315H101.497V304.044H68.1013V296.322H97.7353V285.63H68.1013V278.568H101.497V267.612H55.4293ZM102.828 307.278C107.91 312.492 120.12 315.792 130.416 315.792C145.2 315.792 155.76 310.578 155.76 299.556C155.76 288.996 144.672 286.884 133.716 285.63C122.562 284.442 119.13 283.914 119.13 281.406C119.13 278.898 122.628 277.446 128.766 277.446C136.356 277.446 143.418 279.888 147.378 283.65L154.968 274.608C150.084 270.12 140.514 266.82 129.756 266.82C115.632 266.82 106.062 272.694 106.062 282.726C106.062 292.494 115.632 295.002 126.324 296.124C138.138 297.444 141.966 297.708 141.966 300.942C141.966 303.648 137.544 305.034 131.208 305.034C124.476 305.034 116.094 303.054 110.418 297.51L102.828 307.278ZM183.936 315.726C200.172 315.726 209.082 307.476 209.082 293.88V267.612H196.146V292.626C196.146 300.216 192.186 304.506 183.936 304.506C175.686 304.506 171.726 300.216 171.726 292.626V267.612H158.79V293.88C158.79 307.476 167.7 315.726 183.936 315.726ZM214.629 315H257.661V304.044H227.565V267.612H214.629V315ZM299.541 278.568V267.612H246.741V278.568H266.673V315H279.609V278.568H299.541ZM297.863 307.278C302.945 312.492 315.155 315.792 325.451 315.792C340.235 315.792 350.795 310.578 350.795 299.556C350.795 288.996 339.707 286.884 328.751 285.63C317.597 284.442 314.165 283.914 314.165 281.406C314.165 278.898 317.663 277.446 323.801 277.446C331.391 277.446 338.453 279.888 342.413 283.65L350.003 274.608C345.119 270.12 335.549 266.82 324.791 266.82C310.667 266.82 301.097 272.694 301.097 282.726C301.097 292.494 310.667 295.002 321.359 296.124C333.173 297.444 337.001 297.708 337.001 300.942C337.001 303.648 332.579 305.034 326.243 305.034C319.511 305.034 311.129 303.054 305.453 297.51L297.863 307.278ZM386.371 315V298.434H415.741V287.742H386.371V278.568H419.503V267.612H373.699V315H386.371ZM436.908 299.292H449.778L459.942 315H474.792L463.308 297.906C469.776 295.596 473.736 290.448 473.736 283.452C473.736 273.288 466.146 267.612 454.596 267.612H423.972V315H436.908V299.292ZM436.908 289.062V278.436H453.936C458.49 278.436 460.998 280.416 460.998 283.782C460.998 286.95 458.49 289.062 453.936 289.062H436.908ZM497.905 267.612L474.607 315H488.335L492.625 306.09H517.507L521.797 315H535.987L512.755 267.612H497.905ZM505.165 280.284L512.557 295.728H497.707L505.165 280.284ZM576.056 315L590.51 280.944V315H603.05V267.612H584.042L570.974 299.16L557.906 267.612H538.634V315H551.24V280.944L565.628 315H576.056ZM609.533 267.612V315H655.601V304.044H622.205V296.322H651.839V285.63H622.205V278.568H655.601V267.612H609.533ZM690.149 267.612L680.513 298.83L670.151 267.612H656.687L672.659 315H686.519L696.155 283.98L705.725 315H719.651L735.623 267.612H722.555L712.127 298.83L702.557 267.612H690.149ZM761.681 266.82C745.115 266.82 733.169 277.182 733.169 291.306C733.169 305.43 745.115 315.792 761.681 315.792C778.247 315.792 790.127 305.43 790.127 291.306C790.127 277.182 778.247 266.82 761.681 266.82ZM761.681 278.04C770.393 278.04 776.927 283.188 776.927 291.306C776.927 299.424 770.393 304.572 761.681 304.572C752.969 304.572 746.435 299.424 746.435 291.306C746.435 283.188 752.969 278.04 761.681 278.04ZM807.449 299.292H820.319L830.483 315H845.333L833.849 297.906C840.317 295.596 844.277 290.448 844.277 283.452C844.277 273.288 836.687 267.612 825.137 267.612H794.513V315H807.449V299.292ZM807.449 289.062V278.436H824.477C829.031 278.436 831.539 280.416 831.539 283.782C831.539 286.95 829.031 289.062 824.477 289.062H807.449ZM861.912 267.612H848.976V315H861.912V303.186L870.36 295.596L886.794 315H903.228L879.666 287.28L901.578 267.612H883.956L861.912 287.61V267.612Z" fill="#009A54"/>
<path d="M13.9024 355.292H26.7724L36.9364 371H51.7864L40.3024 353.906C46.7704 351.596 50.7304 346.448 50.7304 339.452C50.7304 329.288 43.1404 323.612 31.5904 323.612H0.966422V371H13.9024V355.292ZM13.9024 345.062V334.436H30.9304C35.4844 334.436 37.9924 336.416 37.9924 339.782C37.9924 342.95 35.4844 345.062 30.9304 345.062H13.9024ZM55.4293 323.612V371H101.497V360.044H68.1013V352.322H97.7353V341.63H68.1013V334.568H101.497V323.612H55.4293ZM102.828 363.278C107.91 368.492 120.12 371.792 130.416 371.792C145.2 371.792 155.76 366.578 155.76 355.556C155.76 344.996 144.672 342.884 133.716 341.63C122.562 340.442 119.13 339.914 119.13 337.406C119.13 334.898 122.628 333.446 128.766 333.446C136.356 333.446 143.418 335.888 147.378 339.65L154.968 330.608C150.084 326.12 140.514 322.82 129.756 322.82C115.632 322.82 106.062 328.694 106.062 338.726C106.062 348.494 115.632 351.002 126.324 352.124C138.138 353.444 141.966 353.708 141.966 356.942C141.966 359.648 137.544 361.034 131.208 361.034C124.476 361.034 116.094 359.054 110.418 353.51L102.828 363.278ZM183.936 371.726C200.172 371.726 209.082 363.476 209.082 349.88V323.612H196.146V348.626C196.146 356.216 192.186 360.506 183.936 360.506C175.686 360.506 171.726 356.216 171.726 348.626V323.612H158.79V349.88C158.79 363.476 167.7 371.726 183.936 371.726ZM214.629 371H257.661V360.044H227.565V323.612H214.629V371ZM299.541 334.568V323.612H246.741V334.568H266.673V371H279.609V334.568H299.541ZM297.863 363.278C302.945 368.492 315.155 371.792 325.451 371.792C340.235 371.792 350.795 366.578 350.795 355.556C350.795 344.996 339.707 342.884 328.751 341.63C317.597 340.442 314.165 339.914 314.165 337.406C314.165 334.898 317.663 333.446 323.801 333.446C331.391 333.446 338.453 335.888 342.413 339.65L350.003 330.608C345.119 326.12 335.549 322.82 324.791 322.82C310.667 322.82 301.097 328.694 301.097 338.726C301.097 348.494 310.667 351.002 321.359 352.124C333.173 353.444 337.001 353.708 337.001 356.942C337.001 359.648 332.579 361.034 326.243 361.034C319.511 361.034 311.129 359.054 305.453 353.51L297.863 363.278ZM386.371 371V354.434H415.741V343.742H386.371V334.568H419.503V323.612H373.699V371H386.371ZM436.908 355.292H449.778L459.942 371H474.792L463.308 353.906C469.776 351.596 473.736 346.448 473.736 339.452C473.736 329.288 466.146 323.612 454.596 323.612H423.972V371H436.908V355.292ZM436.908 345.062V334.436H453.936C458.49 334.436 460.998 336.416 460.998 339.782C460.998 342.95 458.49 345.062 453.936 345.062H436.908ZM497.905 323.612L474.607 371H488.335L492.625 362.09H517.507L521.797 371H535.987L512.755 323.612H497.905ZM505.165 336.284L512.557 351.728H497.707L505.165 336.284ZM576.056 371L590.51 336.944V371H603.05V323.612H584.042L570.974 355.16L557.906 323.612H538.634V371H551.24V336.944L565.628 371H576.056ZM609.533 323.612V371H655.601V360.044H622.205V352.322H651.839V341.63H622.205V334.568H655.601V323.612H609.533ZM690.149 323.612L680.513 354.83L670.151 323.612H656.687L672.659 371H686.519L696.155 339.98L705.725 371H719.651L735.623 323.612H722.555L712.127 354.83L702.557 323.612H690.149ZM761.681 322.82C745.115 322.82 733.169 333.182 733.169 347.306C733.169 361.43 745.115 371.792 761.681 371.792C778.247 371.792 790.127 361.43 790.127 347.306C790.127 333.182 778.247 322.82 761.681 322.82ZM761.681 334.04C770.393 334.04 776.927 339.188 776.927 347.306C776.927 355.424 770.393 360.572 761.681 360.572C752.969 360.572 746.435 355.424 746.435 347.306C746.435 339.188 752.969 334.04 761.681 334.04ZM807.449 355.292H820.319L830.483 371H845.333L833.849 353.906C840.317 351.596 844.277 346.448 844.277 339.452C844.277 329.288 836.687 323.612 825.137 323.612H794.513V371H807.449V355.292ZM807.449 345.062V334.436H824.477C829.031 334.436 831.539 336.416 831.539 339.782C831.539 342.95 829.031 345.062 824.477 345.062H807.449ZM861.912 323.612H848.976V371H861.912V359.186L870.36 351.596L886.794 371H903.228L879.666 343.28L901.578 323.612H883.956L861.912 343.61V323.612Z" fill="#006EB5"/>
<path d="M13.9024 411.292H26.7724L36.9364 427H51.7864L40.3024 409.906C46.7704 407.596 50.7304 402.448 50.7304 395.452C50.7304 385.288 43.1404 379.612 31.5904 379.612H0.966422V427H13.9024V411.292ZM13.9024 401.062V390.436H30.9304C35.4844 390.436 37.9924 392.416 37.9924 395.782C37.9924 398.95 35.4844 401.062 30.9304 401.062H13.9024ZM55.4293 379.612V427H101.497V416.044H68.1013V408.322H97.7353V397.63H68.1013V390.568H101.497V379.612H55.4293ZM102.828 419.278C107.91 424.492 120.12 427.792 130.416 427.792C145.2 427.792 155.76 422.578 155.76 411.556C155.76 400.996 144.672 398.884 133.716 397.63C122.562 396.442 119.13 395.914 119.13 393.406C119.13 390.898 122.628 389.446 128.766 389.446C136.356 389.446 143.418 391.888 147.378 395.65L154.968 386.608C150.084 382.12 140.514 378.82 129.756 378.82C115.632 378.82 106.062 384.694 106.062 394.726C106.062 404.494 115.632 407.002 126.324 408.124C138.138 409.444 141.966 409.708 141.966 412.942C141.966 415.648 137.544 417.034 131.208 417.034C124.476 417.034 116.094 415.054 110.418 409.51L102.828 419.278ZM183.936 427.726C200.172 427.726 209.082 419.476 209.082 405.88V379.612H196.146V404.626C196.146 412.216 192.186 416.506 183.936 416.506C175.686 416.506 171.726 412.216 171.726 404.626V379.612H158.79V405.88C158.79 419.476 167.7 427.726 183.936 427.726ZM214.629 427H257.661V416.044H227.565V379.612H214.629V427ZM299.541 390.568V379.612H246.741V390.568H266.673V427H279.609V390.568H299.541ZM297.863 419.278C302.945 424.492 315.155 427.792 325.451 427.792C340.235 427.792 350.795 422.578 350.795 411.556C350.795 400.996 339.707 398.884 328.751 397.63C317.597 396.442 314.165 395.914 314.165 393.406C314.165 390.898 317.663 389.446 323.801 389.446C331.391 389.446 338.453 391.888 342.413 395.65L350.003 386.608C345.119 382.12 335.549 378.82 324.791 378.82C310.667 378.82 301.097 384.694 301.097 394.726C301.097 404.494 310.667 407.002 321.359 408.124C333.173 409.444 337.001 409.708 337.001 412.942C337.001 415.648 332.579 417.034 326.243 417.034C319.511 417.034 311.129 415.054 305.453 409.51L297.863 419.278ZM386.371 427V410.434H415.741V399.742H386.371V390.568H419.503V379.612H373.699V427H386.371ZM436.908 411.292H449.778L459.942 427H474.792L463.308 409.906C469.776 407.596 473.736 402.448 473.736 395.452C473.736 385.288 466.146 379.612 454.596 379.612H423.972V427H436.908V411.292ZM436.908 401.062V390.436H453.936C458.49 390.436 460.998 392.416 460.998 395.782C460.998 398.95 458.49 401.062 453.936 401.062H436.908ZM497.905 379.612L474.607 427H488.335L492.625 418.09H517.507L521.797 427H535.987L512.755 379.612H497.905ZM505.165 392.284L512.557 407.728H497.707L505.165 392.284ZM576.056 427L590.51 392.944V427H603.05V379.612H584.042L570.974 411.16L557.906 379.612H538.634V427H551.24V392.944L565.628 427H576.056ZM609.533 379.612V427H655.601V416.044H622.205V408.322H651.839V397.63H622.205V390.568H655.601V379.612H609.533ZM690.149 379.612L680.513 410.83L670.151 379.612H656.687L672.659 427H686.519L696.155 395.98L705.725 427H719.651L735.623 379.612H722.555L712.127 410.83L702.557 379.612H690.149ZM761.681 378.82C745.115 378.82 733.169 389.182 733.169 403.306C733.169 417.43 745.115 427.792 761.681 427.792C778.247 427.792 790.127 417.43 790.127 403.306C790.127 389.182 778.247 378.82 761.681 378.82ZM761.681 390.04C770.393 390.04 776.927 395.188 776.927 403.306C776.927 411.424 770.393 416.572 761.681 416.572C752.969 416.572 746.435 411.424 746.435 403.306C746.435 395.188 752.969 390.04 761.681 390.04ZM807.449 411.292H820.319L830.483 427H845.333L833.849 409.906C840.317 407.596 844.277 402.448 844.277 395.452C844.277 385.288 836.687 379.612 825.137 379.612H794.513V427H807.449V411.292ZM807.449 401.062V390.436H824.477C829.031 390.436 831.539 392.416 831.539 395.782C831.539 398.95 829.031 401.062 824.477 401.062H807.449ZM861.912 379.612H848.976V427H861.912V415.186L870.36 407.596L886.794 427H903.228L879.666 399.28L901.578 379.612H883.956L861.912 399.61V379.612Z" fill="#23C3E2"/>
</svg>
