<svg width="60" height="60" viewBox="0 0 60 60" fill="none" xmlns="http://www.w3.org/2000/svg">
<path d="M25.9636 0.789292C25.628 0.280933 25.0531 -0.016841 24.4439 0.000737155C23.8349 0.0190184 23.2789 0.351362 22.9743 0.879058C22.9743 0.879058 21.3852 3.63203 19.208 7.40242C19.0661 7.64816 18.9286 7.89625 18.7949 8.14609L36.7475 17.1223L25.9636 0.789292Z" fill="#009A54"/>
<path d="M58.2422 18.8281H57.0875L54.3411 16.0813C51.8204 13.5608 47.7188 13.5612 45.1977 16.0814L39.067 22.2126L2.54391 3.95123C1.99898 3.67876 1.35199 3.70783 0.833672 4.02822C0.315469 4.34837 0 4.91416 0 5.52341V13.0547C0 26.2752 9.7357 37.1117 22.2843 38.9956L4.28051 56.9992C3.77777 57.5019 3.62742 58.258 3.89941 58.9149C4.17152 59.5717 4.81254 60 5.5234 60H16.8203C17.2866 60 17.7335 59.8147 18.0632 59.4851L25.0796 52.4687H30.9414C43.8497 52.4687 54.3516 41.967 54.3516 29.0585V25.0795L57.0875 22.3436H58.2422C59.213 22.3436 60 21.5565 60 20.5858C60 19.615 59.213 18.8281 58.2422 18.8281Z" fill="#009A54"/>
</svg>
