<svg width="241" height="241" viewBox="0 0 241 241" fill="none" xmlns="http://www.w3.org/2000/svg">
<path d="M120.5 0L139.35 1.48356L157.737 5.89769L175.206 13.1337L191.328 23.0135L205.706 35.2936L217.987 49.6719L227.866 65.7941L235.102 83.2635L239.516 101.65L241 120.5L239.516 139.35L235.102 157.737L227.866 175.206L217.987 191.328L205.706 205.706L191.328 217.987L175.206 227.866L157.737 235.102L139.35 239.516L120.5 241L101.65 239.516L83.2635 235.102L65.7941 227.866L49.6719 217.987L35.2936 205.706L23.0135 191.328L13.1337 175.206L5.89769 157.737L1.48356 139.35L0 120.5L1.48356 101.65L5.89769 83.2635L13.1337 65.7941L23.0135 49.6719L35.2936 35.2936L49.6719 23.0135L65.7941 13.1337L83.2635 5.89769L101.65 1.48356L120.5 0Z" fill="#046FB5"/>
<path d="M99.8852 93.5762H76.4148L64.8896 131.603C83.558 152.642 108.199 171.281 117.953 178.304C119.394 179.354 121.345 179.204 122.605 177.944C123.296 177.253 123.656 176.353 123.656 175.392C123.656 174.402 123.296 173.502 122.605 172.811L116.302 166.508L109.099 159.305C107.929 158.135 107.929 156.244 109.099 155.073C110.27 153.903 112.161 153.903 113.331 155.073L130.108 171.851C131.939 173.652 134.911 173.652 136.711 171.851C138.512 170.05 138.542 167.109 136.771 165.278L121.945 149.941C120.804 148.741 120.834 146.85 122.035 145.679C123.205 144.539 125.126 144.569 126.267 145.769L128.638 148.2L141.093 161.106L144.425 164.528C146.256 166.418 149.227 166.538 151.208 164.768C152.228 163.867 152.828 162.607 152.859 161.226C152.859 159.846 152.348 158.555 151.358 157.595L140.253 146.82L132.93 139.737C131.729 138.596 131.699 136.705 132.87 135.505C134.01 134.304 135.901 134.274 137.102 135.445L158.591 156.244C160.422 157.985 163.213 157.985 164.984 156.214C165.914 155.344 166.395 154.143 166.364 152.882C166.334 151.622 165.824 150.451 164.864 149.581L124.166 112.334C117.413 113.625 111.5 119.958 111.44 120.018C111.29 120.198 111.08 120.378 110.87 120.498C99.7051 127.731 93.1322 121.879 92.862 121.639C86.9495 116.266 89.7708 107.802 92.3519 103.631C94.7829 99.6389 97.334 96.3375 99.8852 93.5762Z" fill="#F68520"/>
<path d="M129.266 87.2433C126.085 85.9828 122.633 85.8927 119.572 87.0332C113.659 89.1642 105.076 94.3565 97.4522 106.782C97.3922 106.872 93.1902 113.835 96.9118 117.197C97.002 117.287 100.454 119.988 107.327 115.636C108.857 114.045 116.18 106.992 124.884 106.182C125.725 106.092 126.565 106.392 127.195 106.962L168.914 145.169C168.944 145.169 168.944 145.169 168.944 145.199C172.335 144.359 174.736 141.477 175.817 139.887L161.11 99.909L129.266 87.2433Z" fill="#F68520"/>
<path d="M192.355 86.9426C186.712 87.3328 175.127 88.5332 167.834 91.5946C166.213 92.2849 165.402 94.2358 166.033 95.9166L183.801 144.178C184.311 145.498 185.602 146.429 187.042 146.429H192.565C194.275 146.429 195.656 145.048 195.656 143.337V90.0038C195.656 88.2031 194.155 86.7924 192.355 86.9426Z" fill="#F68520"/>
<path d="M48.6818 138.746H53.9041C55.4348 138.746 56.7554 137.785 57.2055 136.315L71.762 88.1734C72.2722 86.5227 71.4918 84.7518 69.931 84.0315C61.6474 80.3399 53.844 79.3194 48.8018 79.1093C47.0309 79.0494 45.5903 80.4299 45.5903 82.2008V135.654C45.5903 137.365 46.971 138.746 48.6818 138.746Z" fill="#F68520"/>
</svg>
