<svg width="117" height="117" viewBox="0 0 117 117" fill="none" xmlns="http://www.w3.org/2000/svg">
<path d="M58.5 0L63.9817 2.8433L69.9128 1.12406L74.7345 4.98215L80.887 4.45305L84.8633 9.17767L91.0009 9.85903L93.9791 15.2686L99.8657 17.1343L101.731 23.0209L107.141 25.9991L107.822 32.1367L112.547 36.113L112.018 42.2655L115.876 47.0872L114.157 53.0183L117 58.5L114.157 63.9817L115.876 69.9128L112.018 74.7345L112.547 80.887L107.822 84.8633L107.141 91.0009L101.731 93.9791L99.8657 99.8657L93.9791 101.731L91.0009 107.141L84.8633 107.822L80.887 112.547L74.7345 112.018L69.9128 115.876L63.9817 114.157L58.5 117L53.0183 114.157L47.0872 115.876L42.2655 112.018L36.113 112.547L32.1367 107.822L25.9991 107.141L23.0209 101.731L17.1343 99.8657L15.2686 93.9791L9.85903 91.0009L9.17767 84.8633L4.45305 80.887L4.98215 74.7345L1.12406 69.9128L2.8433 63.9817L0 58.5L2.8433 53.0183L1.12406 47.0872L4.98215 42.2655L4.45305 36.113L9.17767 32.1367L9.85903 25.9991L15.2686 23.0209L17.1343 17.1343L23.0209 15.2686L25.9991 9.85903L32.1367 9.17767L36.113 4.45305L42.2655 4.98215L47.0872 1.12406L53.0183 2.8433L58.5 0Z" fill="#23C3E2"/>
</svg>
