<svg width="117" height="117" viewBox="0 0 117 117" fill="none" xmlns="http://www.w3.org/2000/svg">
<path d="M58.5 0L67.1938 3.60922L76.5775 2.86319L83.7305 8.98231L92.8854 11.1725L97.7975 19.2025L105.827 24.1146L108.018 33.2695L114.137 40.4225L113.391 49.8062L117 58.5L113.391 67.1938L114.137 76.5775L108.018 83.7305L105.827 92.8854L97.7975 97.7975L92.8854 105.827L83.7305 108.018L76.5775 114.137L67.1938 113.391L58.5 117L49.8062 113.391L40.4225 114.137L33.2695 108.018L24.1146 105.827L19.2025 97.7975L11.1725 92.8854L8.98231 83.7305L2.86319 76.5775L3.60922 67.1938L0 58.5L3.60922 49.8062L2.86319 40.4225L8.98231 33.2695L11.1725 24.1146L19.2025 19.2025L24.1146 11.1725L33.2695 8.98231L40.4225 2.86319L49.8062 3.60922L58.5 0Z" fill="#6720C1"/>
</svg>
