<svg width="115" height="117" viewBox="0 0 115 117" fill="none" xmlns="http://www.w3.org/2000/svg">
<path d="M57.5 0L69.9447 3.97618L82.8822 5.79332L92.3693 14.7753L103.237 22.0258L107.888 34.2346L114.533 45.4825L113.426 58.5L114.533 71.5175L107.888 82.7654L103.237 94.9742L92.3693 102.225L82.8822 111.207L69.9447 113.024L57.5 117L45.0553 113.024L32.1178 111.207L22.6307 102.225L11.7629 94.9742L7.11242 82.7654L0.466717 71.5175L1.574 58.5L0.466717 45.4825L7.11242 34.2346L11.7629 22.0258L22.6307 14.7753L32.1178 5.79332L45.0553 3.97618L57.5 0Z" fill="#FBC412"/>
</svg>
