<svg width="109" height="108" viewBox="0 0 109 108" fill="none" xmlns="http://www.w3.org/2000/svg">
<path d="M50.9897 2.42495C52.5065 -0.35128 56.4935 -0.351275 58.0103 2.42496L61.2182 8.2966C62.393 10.4468 65.2074 11.0451 67.1552 9.55854L72.474 5.49933C74.9889 3.58005 78.6312 5.20169 78.8876 8.35484L79.43 15.0236C79.6286 17.4658 81.9564 19.157 84.3405 18.5913L90.8505 17.0464C93.9285 16.3159 96.5963 19.2788 95.5481 22.2636L93.3312 28.5765C92.5193 30.8883 93.958 33.3801 96.366 33.833L102.942 35.0695C106.051 35.6541 107.283 39.4459 105.111 41.7464L100.518 46.6118C98.8361 48.3935 99.1369 51.255 101.153 52.6482L106.657 56.4523C109.259 58.251 108.842 62.2161 105.923 63.4344L99.7481 66.011C97.4868 66.9546 96.5977 69.691 97.8724 71.7836L101.353 77.4975C102.999 80.1992 101.006 83.652 97.8432 83.5775L91.1542 83.4199C88.7046 83.3621 86.7794 85.5004 87.0928 87.9305L87.9488 94.5663C88.3535 97.7039 85.128 100.047 82.2691 98.6929L76.2225 95.8282C74.0082 94.7791 71.3797 95.9494 70.6776 98.297L68.7606 104.707C67.8541 107.738 63.9543 108.567 61.8935 106.167L57.5348 101.091C55.9386 99.2315 53.0614 99.2315 51.4652 101.091L47.1065 106.167C45.0457 108.567 41.1459 107.738 40.2394 104.707L38.3224 98.297C37.6203 95.9494 34.9918 94.7791 32.7775 95.8282L26.7309 98.6929C23.872 100.047 20.6465 97.7039 21.0512 94.5663L21.9072 87.9305C22.2206 85.5004 20.2954 83.3621 17.8458 83.4199L11.1568 83.5775C7.99413 83.652 6.00067 80.1992 7.64656 77.4975L11.1276 71.7836C12.4023 69.691 11.5132 66.9546 9.25195 66.011L3.07715 63.4344C0.157577 62.2161 -0.259168 58.251 2.34331 56.4523L7.84746 52.6482C9.86313 51.255 10.1639 48.3935 8.48191 46.6118L3.88896 41.7464C1.71732 39.4459 2.94935 35.6541 6.05842 35.0695L12.634 33.833C15.042 33.3801 16.4807 30.8883 15.6688 28.5765L13.4519 22.2636C12.4037 19.2788 15.0715 16.3159 18.1495 17.0464L24.6595 18.5913C27.0436 19.157 29.3713 17.4658 29.57 15.0236L30.1124 8.35483C30.3688 5.20168 34.0111 3.58005 36.526 5.49933L41.8448 9.55854C43.7926 11.0451 46.607 10.4468 47.7818 8.29659L50.9897 2.42495Z" fill="#FF8743"/>
</svg>
