<svg width="87" height="91" viewBox="0 0 87 91" fill="none" xmlns="http://www.w3.org/2000/svg">
<path d="M64.9854 41.4169C65.1366 41.4169 65.2871 41.419 65.4383 41.4218L65.4772 41.4225C66.3255 41.4377 67.1669 41.4924 68 41.5831V10.707C68 4.80343 63.1874 0 57.2727 0H10.728C4.81255 0 0 4.80343 0 10.707V72.2923C0 78.1966 4.81255 83 10.7273 83H41.8029C39.1212 78.6985 37.7145 73.7857 37.7145 68.6513C37.7145 53.6339 49.9477 41.4169 64.9854 41.4169ZM38.4727 17.4822H54.3698C55.841 17.4822 57.0334 18.6723 57.0334 20.1407C57.0334 21.6092 55.841 22.7993 54.3698 22.7993H38.4727C37.0021 22.7993 35.809 21.6092 35.809 20.1407C35.809 18.6723 37.0021 17.4822 38.4727 17.4822ZM38.4727 28.1171H54.3698C55.841 28.1171 57.0334 29.3073 57.0334 30.7757C57.0334 32.2442 55.841 33.4343 54.3698 33.4343H38.4727C37.0021 33.4343 35.809 32.2442 35.809 30.7757C35.809 29.3073 37.0021 28.1171 38.4727 28.1171ZM29.5273 65.5171H13.6302C12.159 65.5171 10.9666 64.327 10.9666 62.8586C10.9666 61.3908 12.159 60.2 13.6302 60.2H29.5273C30.9979 60.2 32.191 61.3908 32.191 62.8586C32.191 64.327 30.9979 65.5171 29.5273 65.5171ZM29.5273 54.7042H13.6302C12.159 54.7042 10.9666 53.5141 10.9666 52.0457C10.9666 50.5772 12.159 49.3871 13.6302 49.3871H29.5273C30.9979 49.3871 32.191 50.5772 32.191 52.0457C32.191 53.5141 30.9979 54.7042 29.5273 54.7042ZM29.5273 44.0693H13.6302C12.159 44.0693 10.9666 42.8791 10.9666 41.4107C10.9666 39.9422 12.159 38.7521 13.6302 38.7521H29.5273C30.9979 38.7521 32.191 39.9422 32.191 41.4107C32.191 42.8791 30.9979 44.0693 29.5273 44.0693ZM29.5273 33.4343H13.6302C12.159 33.4343 10.9666 32.2442 10.9666 30.7757C10.9666 29.3073 12.159 28.1171 13.6302 28.1171H29.5273C30.9979 28.1171 32.191 29.3073 32.191 30.7757C32.191 32.2442 30.9979 33.4343 29.5273 33.4343ZM29.5273 22.7993H13.6302C12.159 22.7993 10.9666 21.6092 10.9666 20.1407C10.9666 18.6723 12.159 17.4822 13.6302 17.4822H29.5273C30.9979 17.4822 32.191 18.6723 32.191 20.1407C32.191 21.6092 30.9979 22.7993 29.5273 22.7993ZM35.809 41.4107C35.809 39.9422 37.0021 38.7521 38.4727 38.7521H46.1292C47.6004 38.7521 48.7928 39.9422 48.7928 41.4107C48.7928 42.8791 47.6004 44.0693 46.1292 44.0693H38.4727C37.0021 44.0693 35.809 42.8791 35.809 41.4107Z" fill="white"/>
<path d="M80.6865 52.7254C76.6205 48.4966 71.19 46.1093 65.396 46.0049L65.358 46.0042C65.2387 46.0021 65.1193 46 65 46C52.869 46 43 56.0934 43 68.5C43 73.4275 44.5301 78.1069 47.424 82.0333C51.6245 87.7321 58.0304 91 65 91C77.131 91 87 80.9066 87 68.5C87 62.5607 84.758 56.9585 80.6865 52.7254ZM74.3999 64.8422L65.9989 75.5455C65.4767 76.2103 64.7082 76.5593 63.9307 76.5593C63.3906 76.5593 62.847 76.3908 62.3779 76.0439L56.112 71.4041C54.9275 70.527 54.6626 68.8342 55.5215 67.6229C56.3796 66.4124 58.036 66.1416 59.2204 67.0194L63.4444 70.147L70.2677 61.4538C71.1831 60.2877 72.8498 60.1008 73.9915 61.0364C75.1325 61.972 75.3153 63.6761 74.3999 64.8422Z" fill="white"/>
</svg>
