<svg width="126" height="74" viewBox="0 0 126 74" fill="none" xmlns="http://www.w3.org/2000/svg">
<path d="M30.4498 5.77506C26.2498 1.57499 8.39989 0.525162 2.62483 0C2.09991 0 1.57475 8.21424e-07 1.04983 0.524917C0.524916 1.05008 0 2.10016 0 2.62507V49.8749C0 51.4499 1.05008 52.5 2.62507 52.5H18.375C19.4251 52.5 20.4749 51.9751 21.0001 50.925C21.0001 49.35 30.4501 21.525 31.5001 7.87522C31.4999 7.35006 31.4999 6.30022 30.4498 5.77506Z" fill="white"/>
<path d="M86.6244 18.3733C81.3745 16.7984 76.6496 14.6984 72.4495 13.1234C62.9995 8.92338 58.7994 11.0235 50.3996 19.4234C46.7247 23.0983 44.0996 28.3485 44.6245 30.4484C44.6245 30.9733 44.6245 30.9733 45.6746 31.4985C48.2996 32.5486 51.9745 33.0735 55.6495 27.2984C56.1744 26.7735 56.6995 26.2483 57.7494 26.2483C59.3244 26.2483 59.8493 25.7234 61.4243 25.1982C62.4744 24.6733 63.5242 24.1482 65.0992 23.6233C65.6241 23.6233 65.6241 23.6233 66.1493 23.6233C66.6742 23.6233 67.7243 24.1482 68.2492 24.1482C70.8745 26.7735 75.5995 30.4484 80.3245 34.6485C87.6745 40.4235 95.0243 46.7235 98.6995 51.4485H99.2244C95.5495 40.9484 89.2495 23.0983 86.6244 18.3733Z" fill="white"/>
<path d="M123.375 5.25C102.9 5.25 91.3502 10.4999 90.825 10.4999C90.3001 11.0248 89.7749 11.55 89.25 12.0749C89.25 12.5998 89.25 13.6499 89.7749 14.1748C92.9249 19.4247 103.425 48.2998 105 55.6496C105.525 56.6997 106.575 57.7495 107.625 57.7495H123.375C124.95 57.7495 126 56.6994 126 55.1244V7.87458C126 6.30008 124.95 5.25 123.375 5.25Z" fill="white"/>
<path d="M95.0243 56.6999C92.9244 51.9749 83.9994 45.15 76.1244 38.85C71.9246 35.1749 67.7245 32.0249 64.5745 29.3998C64.0496 29.9247 62.9995 29.9247 62.9995 30.4499C61.4245 30.9748 60.8996 31.4999 58.7995 31.4999C54.5996 36.7499 49.3495 38.8498 43.5747 36.7498C40.9496 36.2249 39.3746 34.1248 38.8497 32.0249C37.7996 26.775 42.5246 19.4249 46.1997 15.75H35.6997C33.5998 26.25 29.9246 39.8998 27.2998 47.2499C29.3997 49.3498 31.4999 51.9749 33.0749 53.025C43.0498 61.4249 54.5999 69.825 56.6998 71.4C58.2748 72.4501 61.4248 73.4999 62.9998 73.4999C63.5247 73.4999 64.0499 73.4999 64.5748 73.4999L56.1746 65.0998C55.1246 64.0497 55.1246 62.4747 56.1746 61.4249C57.2247 60.375 58.7997 60.3748 59.8495 61.4249L70.3496 71.9249C71.3997 72.975 72.4495 72.4498 73.4996 72.4498C75.0746 71.9249 75.5995 70.8748 76.1247 69.2998L64.0496 57.2248C62.9995 56.1747 62.9995 54.5997 64.0496 53.5499C65.0997 52.5 66.6747 52.4998 67.7245 53.5499L80.8494 66.6748C81.3743 67.1997 83.4745 67.1997 85.0495 66.6748C85.5744 66.1498 86.6245 65.6247 87.1494 64.5748L72.4495 49.8747C71.3994 48.8246 71.3994 47.2496 72.4495 46.1998C73.4996 45.15 75.0746 45.1497 76.1244 46.1998L91.3494 61.4249C92.3995 61.9498 93.4494 61.4249 94.4994 60.8999C95.0243 60.3748 96.0744 58.7998 95.0243 56.6999Z" fill="white"/>
</svg>
