<svg width="101" height="101" viewBox="0 0 101 101" fill="none" xmlns="http://www.w3.org/2000/svg">
<path d="M2.95898 101H56.6152C58.2496 101 59.5742 99.6754 59.5742 98.041V94.8847C59.5742 91.616 56.9249 88.9668 53.6562 88.9668V85.4291C53.6562 80.7448 49.845 76.9336 45.1607 76.9336H14.4135C9.72919 76.9336 5.91796 80.7448 5.91796 85.4291V88.9668C2.64921 88.9668 0 91.616 0 94.8847V98.041C0 99.6746 1.32538 101 2.95898 101Z" fill="white"/>
<path d="M37.0337 65.1665C39.0001 67.7764 42.7112 68.2981 45.3211 66.3308C47.9318 64.3643 48.4527 60.6533 46.4862 58.0426L28.6784 34.4116C26.7111 31.8009 23.0008 31.28 20.3909 33.2465C17.7802 35.2138 17.2586 38.924 19.2258 41.5347L37.0337 65.1665Z" fill="white"/>
<path d="M79.5696 33.1114C81.5368 35.7213 85.2471 36.243 87.8578 34.2757C90.4677 32.3092 90.9894 28.5989 89.0221 25.9883L71.2143 2.35724C69.2478 -0.253449 65.5367 -0.775124 62.9268 1.19214C60.3169 3.1594 59.7952 6.86968 61.7625 9.48037L79.5696 33.1114Z" fill="white"/>
<path d="M66.5892 50.3036C70.9629 47.0078 74.2463 42.9153 76.2999 38.6063L55.5793 11.1094C50.8711 11.8961 46.0327 13.9235 41.6582 17.22C37.2845 20.5157 34.0011 24.6082 31.9475 28.9164L52.6681 56.4149C57.3763 55.6282 62.2147 53.6 66.5892 50.3036Z" fill="white"/>
<path d="M74.5795 51.0742C73.2017 52.4782 71.7507 53.8244 70.151 55.0303C68.5505 56.2355 66.8561 57.2596 65.1277 58.1974L68.9859 63.3178L78.4385 56.1954L74.5795 51.0742Z" fill="white"/>
<path d="M82.0002 60.9219L72.5476 68.0442L90.3554 91.676C92.3227 94.2867 96.033 94.8076 98.6429 92.8411C101.254 90.8739 101.774 87.1636 99.808 84.5529L82.0002 60.9219Z" fill="white"/>
</svg>
