<svg width="92" height="92" viewBox="0 0 92 92" fill="none" xmlns="http://www.w3.org/2000/svg">
<g clip-path="url(#clip0_981_6179)">
<path d="M57.452 92.0003V54.2539H34.5479V92.0003H43.3046V59.6565H48.6952V92.0003H57.452Z" fill="white"/>
<path d="M30.53 31.0832C30.8249 31.3832 31.1771 31.6207 31.5656 31.7816C31.9542 31.9425 32.3712 32.0236 32.7917 32.02H59.2082C59.6287 32.0236 60.0457 31.9425 60.4343 31.7816C60.8228 31.6207 61.175 31.3832 61.4698 31.0832L63.0583 29.4948L54.0979 20.532C53.9876 20.4218 53.875 20.3164 53.76 20.2109C51.4639 21.7479 48.763 22.5684 45.9999 22.5684C43.2369 22.5684 40.536 21.7479 38.2398 20.2109C38.1248 20.3164 38.0122 20.4218 37.902 20.532L28.9392 29.4948L30.53 31.0832Z" fill="white"/>
<path d="M92.0001 92.0009V58.7539H69.0959V92.0009H77.8647V64.6477H83.2553V92.0009H92.0001Z" fill="white"/>
<path d="M69.0958 46.2639V53.3627H92V35.8252C92.0016 34.2427 91.6742 32.6771 91.0387 31.2278C90.4031 29.7785 89.4732 28.4771 88.308 27.4062C86.0118 28.9432 83.311 29.7637 80.5479 29.7637C77.7848 29.7637 75.084 28.9432 72.7878 27.4062C72.6728 27.5117 72.5602 27.6171 72.4476 27.7273L65.2817 34.8956C64.486 35.6957 63.5395 36.3301 62.497 36.7619C61.4545 37.1937 60.3366 37.4144 59.2082 37.4112H48.6953V48.8753H59.2082C62.6752 48.8798 66.0833 47.9797 69.0958 46.2639Z" fill="white"/>
<path d="M0 58.7539V92.0009H8.75677V64.6477H14.1474V92.0009H22.9042V58.7539H0Z" fill="white"/>
<path d="M32.7918 48.8753H43.3047V37.4232H32.7918C31.6634 37.4264 30.5456 37.2057 29.503 36.7739C28.4605 36.3421 27.514 35.7077 26.7183 34.9076L19.55 27.7273C19.4398 27.6171 19.3272 27.5117 19.2122 27.4062C16.916 28.9432 14.2152 29.7637 11.4521 29.7637C8.68901 29.7637 5.98816 28.9432 3.69199 27.4062C2.52678 28.4771 1.59689 29.7785 0.961326 31.2278C0.32576 32.6771 -0.0016039 34.2427 5.90839e-06 35.8252V53.3627H22.9042V46.2639C25.9167 47.9797 29.3248 48.8798 32.7918 48.8753Z" fill="white"/>
<path d="M20.0412 15.7838C20.0397 17.4822 19.5348 19.1421 18.5902 20.5536C17.6455 21.9651 16.3036 23.0649 14.734 23.7139C13.1644 24.3629 11.4377 24.5319 9.77206 24.1997C8.10642 23.8675 6.57666 23.0489 5.37618 21.8474C4.1757 20.6459 3.35838 19.1155 3.02755 17.4496C2.69672 15.7836 2.86723 14.057 3.51753 12.488C4.16783 10.919 5.26871 9.57798 6.68102 8.63452C8.09333 7.69106 9.75365 7.1875 11.4521 7.1875C13.7301 7.1875 15.9147 8.09242 17.5255 9.70318C19.1362 11.3139 20.0412 13.4986 20.0412 15.7766V15.7838Z" fill="white"/>
<path d="M89.1369 15.7838C89.1354 17.4822 88.6305 19.1421 87.6859 20.5536C86.7412 21.9651 85.3993 23.0649 83.8297 23.7139C82.2601 24.3629 80.5334 24.5319 78.8678 24.1997C77.2021 23.8675 75.6724 23.0489 74.4719 21.8474C73.2714 20.6459 72.4541 19.1155 72.1233 17.4496C71.7924 15.7836 71.9629 14.057 72.6132 12.488C73.2635 10.919 74.3644 9.57798 75.7767 8.63452C77.189 7.69106 78.8494 7.1875 80.5478 7.1875C82.8258 7.1875 85.0104 8.09242 86.6212 9.70318C88.2319 11.3139 89.1369 13.4986 89.1369 15.7766V15.7838Z" fill="white"/>
<path d="M54.589 8.58906C54.589 10.2878 54.0853 11.9484 53.1415 13.3609C52.1977 14.7734 50.8563 15.8742 49.2869 16.5243C47.7174 17.1744 45.9904 17.3445 44.3243 17.0131C42.6582 16.6817 41.1278 15.8636 39.9266 14.6624C38.7254 13.4612 37.9073 11.9308 37.5759 10.2647C37.2445 8.59859 37.4146 6.87162 38.0647 5.30217C38.7148 3.73272 39.8157 2.3913 41.2281 1.44752C42.6406 0.50374 44.3012 0 46 0C47.1279 0 48.2448 0.222163 49.2869 0.653804C50.3289 1.08544 51.2758 1.71811 52.0733 2.51568C52.8709 3.31325 53.5036 4.2601 53.9352 5.30217C54.3669 6.34424 54.589 7.46113 54.589 8.58906Z" fill="white"/>
</g>
<defs>
<clipPath id="clip0_981_6179">
<rect width="92" height="92" fill="white"/>
</clipPath>
</defs>
</svg>
