<svg width="100" height="100" viewBox="0 0 100 100" fill="none" xmlns="http://www.w3.org/2000/svg">
<path d="M76.3672 96.875C76.3672 92.0209 72.4322 88.0859 67.5781 88.0859H32.4219C27.5678 88.0859 23.6328 92.0209 23.6328 96.875V100H76.3672V96.875Z" fill="white"/>
<path d="M94.1406 23.6328V17.7734H58.2494C57.3643 15.2914 55.4117 13.3389 52.9297 12.4537V0H47.0703V12.4537C44.5883 13.3389 42.6357 15.2914 41.7506 17.7734H5.85938V23.6328H13.1844L0 55.8594C0 63.9361 6.57168 70.5078 14.6484 70.5078H20.5078C28.5846 70.5078 35.1562 63.9361 35.1562 55.8594L21.9123 23.6328H41.7508C42.6359 26.1148 44.5885 28.0674 47.0705 28.9525V70.8289C41.3449 72.0006 36.8156 76.4988 35.6482 82.2266H64.3521C63.1848 76.4988 58.6555 72.0006 52.9299 70.8289V28.9525C55.4119 28.0674 57.3645 26.1148 58.2496 23.6328H78.0283L64.8438 55.8594C64.8438 63.9361 71.4154 70.5078 79.4922 70.5078H85.3516C93.4283 70.5078 100 63.9361 100 55.8594L86.7561 23.6328H94.1406ZM27.8313 52.9297H7.325L17.5781 28.3191L27.8313 52.9297ZM92.675 52.9297H72.1687L82.4219 28.3191L92.675 52.9297Z" fill="white"/>
</svg>
