<svg width="96" height="96" viewBox="0 0 96 96" fill="none" xmlns="http://www.w3.org/2000/svg">
<path d="M86.6001 76.5482C92.7021 68.334 96 58.4207 96 48.0005C96 35.1791 91.0072 23.1252 81.9412 14.0589C72.8751 4.99299 60.8212 0 48 0V5.62506C59.3188 5.62506 69.9602 10.0329 77.9636 18.0366C85.9673 26.0403 90.375 36.6816 90.375 48.0005C90.375 57.1437 87.4974 65.8438 82.1734 73.0695L81.5286 65.699L75.9249 66.1891L77.3957 83L94.2066 81.5292L93.7164 75.9256L86.6001 76.5482Z" fill="white"/>
<path d="M5.625 47.9995C5.625 38.8563 8.50256 30.1562 13.8266 22.9305L14.4714 30.301L20.0751 29.8109L18.6043 13L1.79344 14.4706L2.28356 20.0743L9.39975 19.4518C3.29794 27.666 0 37.5793 0 47.9995C0 60.8209 4.99275 72.8748 14.0588 81.9411C23.1249 91.007 35.1787 96 48 96V90.3749C36.6812 90.3749 26.0398 85.9671 18.0364 77.9634C10.0328 69.9597 5.625 59.3184 5.625 47.9995Z" fill="white"/>
<path d="M48 37C41.9345 37 37 41.9345 37 48C37 54.0655 41.9345 59 48 59C54.0655 59 59 54.0655 59 48C59 41.9345 54.0655 37 48 37ZM48 53.5902C44.9177 53.5902 42.4098 51.0823 42.4098 48C42.4098 44.9177 44.9177 42.4098 48 42.4098C51.0823 42.4098 53.5902 44.9177 53.5902 48C53.5902 51.0823 51.0823 53.5902 48 53.5902Z" fill="white"/>
<path d="M74.2489 36.7023L68.6895 38.4757C67.4481 35.8869 65.7174 33.5674 63.6146 31.6326L67.0559 26.9824L62.4717 23.7125L59.0345 28.3572C56.5463 27.0045 53.7758 26.094 50.8331 25.7352V20H45.1669V25.7352C42.2242 26.094 39.4537 27.0046 36.9655 28.3572L33.5283 23.7125L28.9441 26.9824L32.3854 31.6326C30.2826 33.5674 28.5518 35.8868 27.3105 38.4757L21.7511 36.7023L20 41.9928L25.556 43.7651C25.288 45.1371 25.1459 46.5525 25.1459 48C25.1459 49.4475 25.288 50.8629 25.556 52.2349L20 54.0072L21.7511 59.2977L27.3105 57.5243C28.552 60.1131 30.2826 62.4326 32.3854 64.3674L28.9441 69.0176L33.5283 72.2875L36.9655 67.6428C39.4537 68.9956 42.2242 69.906 45.1669 70.2648V76H50.8331V70.2648C53.7758 69.906 56.5463 68.9954 59.0345 67.6428L62.4717 72.2875L67.0559 69.0176L63.6146 64.3674C65.7174 62.4326 67.4482 60.1132 68.6895 57.5243L74.2489 59.2977L76 54.0072L70.444 52.2349C70.712 50.8629 70.8541 49.4475 70.8541 48C70.8541 46.5525 70.712 45.1371 70.444 43.7651L76 41.9928L74.2489 36.7023ZM48 64.8742C38.5226 64.8742 30.8122 57.3045 30.8122 48C30.8122 38.6955 38.5226 31.1258 48 31.1258C57.4774 31.1258 65.1878 38.6955 65.1878 48C65.1878 57.3045 57.4774 64.8742 48 64.8742Z" fill="white"/>
</svg>
