<svg width="63" height="98" viewBox="0 0 63 98" fill="none" xmlns="http://www.w3.org/2000/svg">
<path d="M57.2729 51.5461C54.11 51.5461 51.5457 54.1103 51.5457 57.2733C51.5457 54.1103 48.9814 51.5461 45.8184 51.5461C42.6555 51.5461 40.0912 54.1103 40.0912 57.2733C40.0912 54.1103 37.5269 51.5461 34.3639 51.5461C31.201 51.5461 28.6367 54.1103 28.6367 57.2733V31.5007C28.6367 28.3377 26.0724 25.7734 22.9094 25.7734C19.7465 25.7734 17.1822 28.3377 17.1822 31.5007V51.5461V65.8642H16.8414L11.455 58.6824C9.99794 56.2852 6.64063 55.7103 4.14756 57.3724C1.77838 58.9518 0.956142 62.0481 2.2295 64.5948L14.8079 92.6152C16.263 95.5256 19.2377 97.364 22.4916 97.364H54.4093C59.154 97.364 63.0002 93.5178 63.0002 88.7732V60.1369V57.2733C63.0002 54.1103 60.4359 51.5461 57.2729 51.5461V51.5461Z" fill="white"/>
<path d="M5.72725 22.909C5.72725 13.435 13.435 5.72725 22.909 5.72725C32.383 5.72725 40.0907 13.435 40.0907 22.909C40.0907 27.8694 37.91 32.4951 34.3635 35.6939V42.7417C36.9986 41.2138 39.3361 39.1648 41.1833 36.7256C44.2151 32.7213 45.818 27.9436 45.818 22.909C45.818 10.277 35.541 0 22.909 0C10.277 0 0 10.277 0 22.909C0 27.9436 1.60268 32.7213 4.63468 36.7256C6.48191 39.1646 8.81939 41.2138 11.4545 42.7417V35.6939C7.90799 32.4951 5.72725 27.8694 5.72725 22.909Z" fill="white"/>
<path d="M30.9901 14.79C28.8273 12.6368 25.9597 11.4531 22.9093 11.4531C22.892 11.4531 22.8742 11.4531 22.857 11.4531C16.7753 11.4804 11.7729 16.2548 11.4692 22.3227C11.385 24.005 11.6807 25.6643 12.2979 27.1912C13.2885 24.7602 15.0897 22.7433 17.3659 21.4791C18.0108 19.0373 20.2813 17.1922 22.8824 17.1804H22.909C24.4341 17.1804 25.8684 17.7724 26.9497 18.8487C27.6918 19.5875 28.2059 20.4936 28.4579 21.4825C30.737 22.7503 32.5393 24.7726 33.5275 27.2101C34.0729 25.8627 34.3633 24.4066 34.3633 22.9076C34.3633 19.8384 33.1653 16.9555 30.9901 14.79V14.79Z" fill="white"/>
</svg>
