<svg width="67" height="137" viewBox="0 0 67 137" fill="none" xmlns="http://www.w3.org/2000/svg">
<path d="M66.3427 0.667969H0.692383V66.3846H66.3427V0.667969Z" fill="white"/>
<path d="M32.1243 69.4609H0.412109V101.205H32.1243V69.4609Z" fill="white"/>
<path d="M66.4609 69.4609H34.7488V101.205H66.4609V69.4609Z" fill="white"/>
<path d="M32.1243 104.117H0.412109V135.861H32.1243V104.117Z" fill="white"/>
<path d="M66.4609 104.117H34.7488V135.861H66.4609V104.117Z" fill="white"/>
<path d="M0.0351562 69.0859V101.585H32.501V69.0859H0.0351562ZM24.2542 87.0964C24.2542 93.7549 20.7442 96.4613 16.0555 96.4613C11.6166 96.4613 8.26883 93.9523 8.26883 87.1885V74.4066H11.1039V87.285C11.1039 92.1144 13.2555 94.1804 16.152 94.1804C19.3332 94.1804 21.4234 92.053 21.4234 87.285V74.4066H24.2542V87.0964Z" fill="#0968B1"/>
<path d="M34.4995 69.0859V101.585H66.961V69.0859H34.4995ZM58.8763 96.1893H56.0455L49.1615 85.1795C47.6497 82.7626 46.2081 80.2843 45.1433 77.9376L45.0425 77.9683C45.209 80.7054 45.2397 83.3109 45.2397 86.9165V96.1893H42.5973V74.4856H45.6866L52.6013 85.4646C54.1788 88.0044 55.4627 90.259 56.4574 92.5135L56.5582 92.4828C56.2997 89.5834 56.2383 86.9429 56.2383 83.5961V74.4856H58.8763V96.1893Z" fill="#0968B1"/>
<path d="M50.1991 111.102C48.9765 111.102 48.0476 111.229 47.5656 111.33V119.765C48.1703 119.927 48.9765 119.988 49.8792 119.988C53.2884 119.988 55.3172 118.317 55.3172 115.387C55.3172 112.488 53.2884 111.102 50.1991 111.102Z" fill="#0968B1"/>
<path d="M34.4995 103.574V136.073H66.961V103.574H34.4995ZM56.4399 119.734C54.9588 121.304 52.5487 122.111 49.8188 122.111C48.9775 122.111 48.2106 122.08 47.5665 121.918V130.607H44.7664V109.198C46.1204 108.939 47.8864 108.746 50.1387 108.746C52.9081 108.746 54.9325 109.391 56.2164 110.549C57.4039 111.579 58.1445 113.154 58.1445 115.088C58.1445 117.054 57.5661 118.602 56.4399 119.734Z" fill="#0968B1"/>
<path d="M14.1756 110.949C12.7296 110.949 11.6385 111.076 10.8979 111.239V128.398C11.5991 128.525 12.6288 128.525 13.7287 128.525C19.71 128.556 22.9615 125.179 22.9615 119.318C22.9921 114.134 20.0913 110.949 14.1756 110.949Z" fill="#0968B1"/>
<path d="M0 103.605V136.104H32.4658V103.605H0ZM22.7993 127.656C20.7397 129.687 17.3919 130.779 13.1809 130.779C11.1564 130.779 9.5132 130.718 8.06716 130.525V109.181C9.80679 108.917 11.8313 108.729 14.0485 108.729C18.0711 108.729 20.9282 109.632 22.8343 111.4C24.793 113.172 25.9192 115.716 25.9192 119.225C25.9148 122.756 24.7887 125.66 22.7993 127.656Z" fill="#0968B1"/>
<path d="M40.73 24.1289L40.6861 24.2342C39.8667 25.0895 38.964 25.9756 38.1753 26.8528C38.2279 26.9581 38.3199 27.059 38.4163 27.1116C38.4514 26.8967 38.5653 26.7081 38.5872 26.4844C38.8019 26.1905 39.1218 26.3791 39.4022 26.4405C39.8317 26.3396 40.2304 26.537 40.6686 26.5283C40.9929 26.6862 41.0192 27.0985 41.3128 27.2608C41.3916 27.3748 41.3303 27.5108 41.2207 27.6029C41.3128 28.274 41.6326 27.4231 41.9744 27.5854C42.1147 27.638 42.2943 27.6205 42.3995 27.774C42.4521 28.0503 42.7939 27.9977 42.8114 28.2653C42.7851 28.3968 42.6405 28.4363 42.5529 28.5065C42.6317 28.7741 42.2768 28.9451 42.4039 29.2303C42.9209 29.3268 42.9385 28.7302 43.1795 28.4626C43.0436 27.9977 42.9472 27.524 42.6799 27.1116C42.3863 27.0502 42.2067 26.6993 41.9131 26.6379C41.3391 26.4142 42.0007 26.0589 41.9306 25.7168C41.6239 25.1509 41.1419 24.6377 40.73 24.1289Z" fill="#0968B1"/>
<path d="M44.069 33.629C43.6922 34.8265 43.254 35.9976 42.5047 37.0416C42.2111 37.4188 41.9263 37.9364 41.5406 38.1338L42.3513 38.8488C42.3951 38.8049 42.3732 38.7303 42.3776 38.6689C42.3776 38.5637 42.4302 38.4364 42.566 38.454C42.9604 38.4452 42.9692 38.8663 43.1883 39.0769C43.1444 39.419 43.438 39.6866 43.3416 39.998C45.5896 37.6206 46.7157 34.708 46.9217 31.4797L47.0444 31.3349C46.2425 31.4139 45.3968 31.3612 44.5642 31.37L44.367 31.3086C44.4196 31.8525 44.275 32.3833 44.2399 32.9184L44.5335 33.2386C44.6124 33.3658 44.5861 33.55 44.4722 33.6509C44.3539 33.7343 44.1961 33.7255 44.069 33.629Z" fill="#0968B1"/>
<path d="M40.945 42.1285L41.0721 41.9574C41.6067 41.5363 42.1895 41.1459 42.6627 40.6283H42.7241C42.6189 40.5932 42.4831 40.6985 42.356 40.6459C42.1062 40.5318 42.0624 40.3081 42.0624 40.0493L40.9625 38.9133L40.9012 38.7422C40.8223 38.9571 40.6602 39.0887 40.498 39.251C40.5112 39.3914 40.4542 39.6063 40.6251 39.7072C40.9801 39.8256 41.4445 40.0581 41.5234 40.4748C41.3832 40.8696 40.6295 41.2249 41.094 41.6547C41.2474 41.8697 40.8837 41.953 40.945 42.1285Z" fill="#0968B1"/>
<path d="M34.5336 37.4132C34.7659 37.4571 34.6037 37.7071 34.7746 37.7992C35.1427 37.6852 35.4188 38.1106 35.7124 37.8431C35.6948 37.422 36.1681 37.4615 36.4266 37.3518C36.8298 37.1106 37.2855 36.7903 37.2373 36.2508L37.1759 36.1719C36.8999 36.1719 36.7553 36.3868 36.5493 36.5535C36.2995 36.6982 36.1725 36.2859 35.9709 36.3824C35.9797 36.4263 36.0235 36.4438 36.0629 36.4614C36.1155 36.5228 36.133 36.6588 36.0629 36.7202C35.7562 36.9965 35.616 36.5842 35.3311 36.6149V36.7202C35.3399 36.7816 35.3136 36.8825 35.2216 36.8474C35.0419 36.5535 34.6782 36.6588 34.4986 36.4C34.3846 36.3386 34.2751 36.4175 34.1962 36.4877C34.1349 36.6237 33.85 36.4701 33.9201 36.7026C33.6967 36.7816 33.6704 37.0228 33.5126 37.1676C33.2366 37.1237 33.1139 37.4351 32.851 37.4264C32.8772 37.479 32.851 37.5711 32.9342 37.5799C33.0963 37.6501 33.2541 37.6676 33.4513 37.6413C33.7142 37.2158 34.1612 37.5711 34.5336 37.4132Z" fill="#0968B1"/>
<path d="M32.9257 45.3475L33.0134 45.2116L32.7373 45.2818C29.2536 45.0405 26.1731 43.8079 23.6316 41.3516L23.6053 41.4612L21.7649 43.3123C24.5518 45.7248 27.6937 47.2819 31.2825 47.7688C31.8521 47.8697 32.505 47.8127 33.0572 47.9838L32.9257 47.7688V45.3475Z" fill="#0968B1"/>
<path d="M34.5603 27.6261C34.7662 27.7401 34.8802 27.5296 35.0511 27.4813C35.3008 27.5076 35.498 27.7226 35.6514 27.8849C35.8091 27.955 35.9625 27.8585 36.1071 27.8059C36.2079 27.0646 37.1325 27.1699 37.4085 26.4724L37.2376 26.5338C37.1675 26.433 36.9879 26.4812 36.9966 26.3189C37.1456 26.1785 37.3428 25.9548 37.5312 25.889C36.7293 25.389 35.8968 24.9591 34.9853 24.7267C34.6304 24.6477 34.2535 24.6345 33.9117 24.5117C34.0826 25.0205 33.9293 25.7706 34.0388 26.3628L34.6786 26.5777C34.867 26.2663 35.2789 26.2005 35.4542 25.9066C35.5725 25.8101 35.704 25.9066 35.796 26.0162C35.8223 26.2575 35.7609 26.4988 35.6908 26.7312C35.4542 27.2137 34.8802 27.2751 34.5603 27.6261Z" fill="#0968B1"/>
<path d="M40.3005 36.6597C40.3356 36.9536 39.9807 37.0896 40.0245 37.3835C39.9062 37.5151 39.7134 37.5326 39.5337 37.5326C38.8282 37.2651 38.0877 37.094 37.3033 37.0238C37.2332 37.0501 37.1894 37.1159 37.1981 37.1949C37.518 37.3659 37.9124 37.3747 38.2498 37.5151C38.5521 37.594 38.7581 37.9713 39.1437 37.8572C39.4636 37.6774 39.9982 37.9625 40.2129 37.6247C40.1779 37.2958 40.4627 37.0545 40.6073 36.7694L40.7125 36.7431C40.8921 36.9317 40.8833 37.208 40.9622 37.4142C41.212 37.1466 41.4092 36.8527 41.6327 36.572C42.2198 35.7123 42.7238 34.7955 42.9341 33.8086C42.6931 33.8174 42.4521 33.8612 42.2286 33.9358C41.9701 33.9183 41.6589 34.0718 41.4355 33.8919C41.3522 33.8218 41.2996 33.927 41.3084 34.0016C41.2164 34.1332 41.1287 34.3043 40.9228 34.2428C40.7607 34.1727 40.7606 34.0016 40.7081 33.8744C40.7168 33.9753 40.6818 34.063 40.6642 34.1507C40.4758 34.3481 40.4145 34.5367 40.283 34.7517C40.0946 34.9578 39.7922 34.8833 39.5951 35.0543C39.56 35.4842 39.0867 35.3921 38.8194 35.528C38.7975 35.5807 38.8633 35.5895 38.8896 35.6333C39.0123 35.6684 39.1831 35.6684 39.2708 35.5456C39.6476 35.6421 39.5688 35.1684 39.7791 35.0105C39.9675 34.9841 40.1472 34.8218 40.34 34.9491C40.5372 35.1903 40.581 35.5368 40.5503 35.8526C40.3444 36.0588 40.4539 36.4097 40.3005 36.6597Z" fill="#0968B1"/>
<path d="M36.1689 35.7415C36.3836 35.5178 36.8349 35.5265 36.8568 35.2063C36.5457 35.1625 36.3836 35.3291 36.1689 35.5002C36.1426 35.5704 36.0418 35.6976 36.1689 35.7415Z" fill="#0968B1"/>
<path d="M33.9647 44.3803C34.6264 44.1566 35.3932 44.1917 36.1075 44.0776C35.9629 44.025 35.8226 43.9855 35.7131 43.8452C35.2924 43.8188 35.0952 43.3802 34.9638 43.0512C34.9024 42.81 35.0602 42.6126 35.161 42.4064C34.9813 42.038 34.4292 42.3099 34.1049 42.174C34.0173 42.1038 33.9559 41.9941 33.8289 41.9766L33.9647 42.174C33.9647 42.9065 34.0523 43.6565 33.9647 44.3803Z" fill="#0968B1"/>
<path d="M43.4077 41.1602C43.1579 41.6514 42.6058 41.9629 42.1851 42.3401C41.6067 42.9235 40.6602 43.0463 40.3622 43.8885C40.0511 44.1736 39.9415 44.621 39.5033 44.7833C39.3412 45.2132 38.8855 45.1869 38.627 45.4983C37.8776 46.1694 37.3956 45.0684 36.7164 44.9368L35.3493 45.1781C34.876 45.1781 34.4028 45.3491 33.9558 45.1956C34.0172 46.108 34.0172 47.0905 33.9558 48.0029L34.1267 47.8932C38.4298 47.7046 42.1413 46.0729 45.3313 43.1735L43.4471 41.3795L43.4077 41.1602Z" fill="#0968B1"/>
<path d="M41.8479 31.2539L42.124 31.5303C42.4 31.7189 42.2116 32.1224 42.5052 32.2803C42.8514 32.4602 42.9784 32.8637 43.1318 33.1664C43.1844 33.0874 43.1844 32.9865 43.2107 32.9076C43.3334 32.4163 43.3159 31.8636 43.4692 31.3811C42.9346 31.4074 42.3212 31.4601 41.8479 31.2539Z" fill="#0968B1"/>
<path d="M36.7646 21.5863C35.8619 21.2661 34.876 21.1301 33.89 20.9766L33.9777 21.1739L33.9601 23.5952L34.1924 23.5514C35.6779 23.7575 37.0319 24.2312 38.2019 25.1875L38.2632 25.3761C38.6663 24.8146 39.271 24.3278 39.7443 23.7926L40.1913 23.5338L39.9765 23.4461C38.9994 22.6215 37.9258 21.9942 36.7646 21.5863Z" fill="#0968B1"/>
<path d="M32.5443 37.1971C32.6057 36.9558 32.5093 36.6531 32.632 36.447C32.7196 36.2496 32.9606 36.2584 33.1403 36.2935C33.2454 36.2847 33.3112 36.1487 33.2454 36.061C32.9869 36.0084 33.1052 35.7232 33.0132 35.5609C33.022 35.4732 33.1753 35.4908 33.1359 35.3723C32.9562 35.2276 33.2279 35.0697 33.0745 34.9161C33.1184 34.8854 33.1534 34.8372 33.1929 34.8021C32.6539 35.0302 32.0755 34.7012 31.5978 34.4863C31.3656 34.3503 31.0282 34.2187 30.9712 33.9336C30.5856 34.5608 29.8538 35.1311 29.3192 35.7101C30.2832 36.4996 31.3568 36.9909 32.5443 37.1971Z" fill="#0968B1"/>
<path d="M20.161 31.5544L20.3539 33.1992C20.4371 33.8353 20.7132 34.4406 20.6913 35.0678C20.7921 34.9319 20.7263 34.6687 20.9673 34.638C20.8665 34.4406 21.1558 34.2739 20.9936 34.1028C21.0725 33.673 21.1251 33.2343 21.5019 32.9229C21.9576 32.9054 21.9927 32.3044 22.4484 32.2781C22.6807 32.2693 22.8253 32.5808 22.9217 32.6904C22.6369 32.3439 22.6544 31.7693 22.7245 31.3789L22.5273 31.4666C21.6991 31.4491 20.8315 31.5193 20.0471 31.4052L20.161 31.5544Z" fill="#0968B1"/>
<path d="M30.4281 33.3371L30.1258 33.1836C30.0732 33.4073 29.9198 33.6047 29.7577 33.7626L29.784 33.7801C29.9987 33.631 30.1521 33.3547 30.4281 33.3371Z" fill="#0968B1"/>
<path d="M23.071 40.7048C22.7687 40.4899 22.5014 40.1434 22.2429 39.8451C21.9493 39.7661 21.6425 39.56 21.4935 39.2749C21.4059 39.174 21.4848 38.9985 21.3884 38.9239L21.2788 39.0599C20.9677 39.2134 20.8494 38.8889 20.6391 38.7573C20.363 38.6037 20.4945 38.0774 20.122 38.1783C19.9774 38.1695 19.9336 38.0072 19.8459 37.9195C19.4998 37.9546 19.4121 37.5686 19.2237 37.3843C19.1886 37.4633 19.2237 37.5729 19.1142 37.6256C18.7592 37.7045 18.6321 37.2659 18.3911 37.0904C18.3298 37.1168 18.286 37.1869 18.1939 37.1694C17.9792 36.9808 17.839 36.7132 17.8259 36.4193C17.5323 36.086 17.6637 35.5596 17.7207 35.1604C17.7733 35.0508 17.9266 34.9894 17.9004 34.8578C17.9792 34.6692 18.1764 34.6516 18.3648 34.6429C18.435 34.6779 18.5094 34.7525 18.5445 34.8139C18.6584 34.7437 18.917 34.8227 18.8206 34.5639C18.9739 34.4279 19.1974 34.384 19.399 34.349C19.5392 34.5288 19.6137 34.735 19.8021 34.9016L19.6794 34.7043C19.4647 33.827 19.2938 32.9322 19.25 31.9847C19.2588 31.9321 19.1317 31.9058 19.2062 31.8487L19.2237 31.875C19.2325 31.6777 19.2149 31.5066 19.25 31.375L19.009 31.4627L16.5288 31.4452C16.6734 34.3051 17.4315 36.9062 18.7154 39.2924C19.3508 40.4723 20.2797 41.5338 21.0904 42.6348L22.8695 40.7925L23.071 40.7048Z" fill="#0968B1"/>
<path d="M32.7154 41.8656C30.5463 41.7559 28.6446 40.962 26.9575 39.7031C27.0101 39.9181 27.2949 40.054 27.216 40.3216C27.0627 40.5629 26.7515 40.5716 26.5018 40.5629C25.9935 40.4839 25.6166 40.8655 25.1346 40.9182C24.6964 41.0541 24.5474 40.5146 24.1443 40.5629C26.6245 42.7341 29.464 44.0939 32.7855 44.2693L33.0353 44.4404L32.9257 44.1377V41.7779L32.7154 41.8656Z" fill="#0968B1"/>
<path d="M25.928 19.8375C25.3759 20.2235 24.8632 20.7235 24.2936 21.0613C24.9553 21.4823 25.4986 22.1798 26.0946 22.7325L26.1559 22.9035C27.6721 21.4473 29.5212 20.5963 31.515 20.1884C31.9883 20.1445 32.4615 19.9822 32.926 20.0787C32.891 19.2278 32.8165 18.3461 32.9085 17.5039C30.3231 17.6574 28.0007 18.447 25.928 19.8375Z" fill="#0968B1"/>
<path d="M28.4125 32.924C28.3249 32.8801 28.3117 32.8889 28.2416 32.9678C28.1978 32.9678 28.1452 32.9766 28.1102 32.9503C28.1102 32.4415 27.5405 32.7441 27.3258 32.4766C27.5756 32.9415 27.7114 33.4679 27.97 33.9328C28.1321 34.3451 28.487 34.6654 28.6492 35.0689C28.8201 34.7487 29.1575 34.4899 29.3985 34.1916C29.416 34.0556 29.3897 33.9416 29.3196 33.8451C29.2363 33.6565 29.3108 33.3889 29.1662 33.231C28.934 33.31 29.2495 33.5424 29.1487 33.6784C29.0523 33.7398 28.9428 33.6609 28.934 33.5688C28.728 33.5337 28.5659 33.3538 28.5046 33.1652C28.6711 33.0556 28.4564 33.0117 28.4125 32.924Z" fill="#0968B1"/>
<path d="M23.8028 29.171C23.7021 29.6008 23.759 30.1009 23.5881 30.5044C23.8993 30.3597 24.355 30.4167 24.7055 30.4606C24.4996 30.3553 24.6705 30.0921 24.5522 29.9517C24.5259 29.728 24.4908 29.4517 24.7055 29.3069C24.6792 28.9385 25.0692 28.7543 25.1087 28.4209C25.2051 28.0481 25.6345 28.2981 25.8405 28.1007C25.9719 28.0305 25.858 27.9033 25.858 27.8068C26.0376 27.5655 26.3137 27.5743 26.5284 27.4383C26.6818 27.2059 26.8746 26.9558 27.1287 26.8111C27.6633 26.8286 27.6721 26.0786 28.1804 26.061C27.4837 25.5347 26.8264 24.8285 26.2085 24.2188C24.9728 25.697 24.1359 27.3243 23.8028 29.171Z" fill="#0968B1"/>
<path d="M23.6358 21.8195L22.6717 23.0433C21.0899 25.2146 20.3405 27.7279 20.1171 30.4607L22.5622 30.4168L22.7944 30.5045C22.698 30.4431 22.7243 30.3335 22.6849 30.2457C22.8821 27.6972 23.776 25.4295 25.5332 23.5346C24.854 22.9468 24.223 22.3196 23.6489 21.6484L23.6358 21.8195Z" fill="#0968B1"/>
<path d="M24.145 32.8C24.1713 32.6377 23.9303 32.5939 23.9566 32.4316C24.1275 32.1026 23.9653 31.5631 24.4035 31.4227C24.0924 31.4753 23.812 31.5411 23.5447 31.3438L23.6805 31.5587C23.698 32.1508 23.9303 32.7123 23.8076 33.3088C23.904 33.1378 23.9303 32.9053 24.145 32.8Z" fill="#0968B1"/>
<path d="M25.0693 31.4231L24.9992 31.8968C24.8896 32.1732 24.5434 31.967 24.3813 32.1556C24.2674 32.3355 24.3901 32.5241 24.4909 32.6645C24.2411 33.2391 25.0517 33.4145 25.0474 33.9321C25.2971 34.2523 25.0123 34.7173 25.3672 35.0068C25.4461 35.5858 25.2884 36.3753 25.7967 36.8315L25.8843 37.3842C25.9895 37.7658 25.4286 37.6693 25.4987 38.007C25.6039 37.9544 25.6345 38.0948 25.6433 38.1299V38.1123C26.3313 37.3184 27.1244 36.4762 27.9394 35.77L27.5977 35.4322C26.9623 34.4848 26.4627 33.4759 26.2217 32.3662L25.9632 32.2302C25.9544 32.5153 25.8186 32.739 25.8405 33.0241L25.7485 33.1338C25.56 33.125 25.4461 32.9715 25.284 32.875C25.2489 32.7785 25.1482 32.6162 25.3015 32.5372C25.3935 32.5285 25.4549 32.5548 25.5162 32.5987C25.5951 32.5022 25.56 32.3574 25.6039 32.2346C25.6302 32.0197 25.4417 31.8223 25.5776 31.638C25.7485 31.6205 25.8755 31.8267 25.9457 31.9407C26.1166 31.9933 26.248 31.853 26.3926 31.7872C26.3926 31.6337 26.6073 31.4319 26.3751 31.3398C26.5022 30.9932 26.4101 30.6248 26.3576 30.287C26.2612 29.9932 25.9281 30.0458 25.6871 30.0721C24.9641 30.3046 25.8011 30.8485 25.6258 31.2959C25.525 31.5547 25.2577 31.3134 25.0693 31.4231Z" fill="#0968B1"/>
<path d="M31.1773 38.5278C31.3745 38.3173 31.6024 38.1813 31.8478 38.0892C31.059 38.2515 30.3535 37.6769 29.6787 37.3654C29.2931 37.0803 28.7935 36.8478 28.5613 36.418C28.0355 37.0628 27.4089 37.7339 26.7866 38.2427C27.0627 38.2602 27.2161 38.5629 27.4439 38.6989C28.7848 39.8174 30.4543 40.3525 32.0055 40.7385L31.5761 40.5412C31.2562 40.1727 30.8005 39.7472 30.783 39.2384C31.1072 39.1244 31.0678 38.7647 31.1773 38.5278Z" fill="#0968B1"/>
<path d="M43.6835 21.0012C43.8719 21.0451 43.9245 21.2688 44.0516 21.4048C44.7045 21.7513 44.871 22.4487 45.445 22.8435C45.7649 23.5146 46.5054 24.0322 46.5361 24.7998C47.3117 26.5149 47.8376 28.3308 47.8901 30.3486L47.82 30.4538C47.9033 30.4538 47.9734 30.4187 48.0347 30.3749L50.607 30.331C50.4361 30.081 50.5106 29.7125 50.4667 29.4099C50.1249 25.4358 48.4291 22.0276 45.7693 19.0273C45.2785 19.6897 44.6081 20.3038 43.9946 20.9398L43.6835 21.0012Z" fill="#0968B1"/>
<path d="M19.2631 30.4856L19.2017 30.1391C19.3726 27.288 20.2841 24.7483 21.8791 22.4805C22.2779 22.0243 22.5714 21.4541 23.0754 21.112C22.4969 20.5681 21.8879 19.932 21.2788 19.3311L21.2174 19.0898C18.6715 21.9234 17.1028 25.1562 16.647 28.8495C16.5463 29.3847 16.612 29.9417 16.5024 30.4856C17.3964 30.4155 18.3692 30.4155 19.2631 30.4856Z" fill="#0968B1"/>
<path d="M23.7585 20.4424L23.8023 20.3195C26.4096 17.9421 29.4419 16.635 32.9255 16.4771L32.8423 16.2622L32.816 14.1172L32.8905 13.8672C29.3017 14.0119 26.116 15.2357 23.2853 17.271C22.7419 17.6439 22.2555 18.2185 21.7034 18.5387H21.7822C22.4921 19.0563 23.1626 19.7976 23.7585 20.4424Z" fill="#0968B1"/>
<path d="M32.9263 24.5859C31.489 24.7746 30.1657 25.2658 29.114 26.38H29.3112C29.5259 26.5949 29.8721 26.551 30.0342 26.8361C30.1131 26.9984 29.8808 26.9765 29.8896 27.1125C29.9334 27.1476 29.9948 27.1564 30.0342 27.2178C30.2007 27.2792 30.1657 27.1213 30.227 27.0467C30.4505 26.823 30.4856 27.2616 30.7003 27.2616C30.8536 27.1651 31.064 27.1564 31.1735 27.323C31.3137 27.1958 31.6205 27.3143 31.6643 27.0818C31.9404 26.7879 31.7914 26.3317 32.1989 26.1431C32.3391 26.2221 32.1901 26.358 32.2427 26.4852C32.5188 26.6037 32.8299 26.2528 33.0534 26.5291C32.8562 25.9545 32.9088 25.2307 32.9263 24.5859Z" fill="#0968B1"/>
<path d="M0.0351562 0V67.0457H67.0001V0H0.0351562ZM57.4869 34.9155C56.5491 36.249 55.4142 37.4903 54.5509 38.8501C54.6474 37.7754 54.7744 36.4551 54.3538 35.4375C53.6307 33.2487 52.9954 31.0248 52.7938 28.6211L52.8201 27.6999C53.3634 30.1563 55.7735 31.845 55.6245 34.5997C55.6771 35.2664 55.4712 35.8323 55.3485 36.42L55.3923 36.4639L55.4974 36.3411C55.8568 34.9901 56.032 33.5689 56.5886 32.31C57.3817 30.494 58.3632 28.6649 57.9645 26.4761C59.1651 29.0553 58.7971 32.503 57.4869 34.9155ZM56.0058 21.0019C57.5876 23.1469 57.9338 26.5595 56.7814 29.0158C56.3519 30.0598 56.0496 31.1695 55.8787 32.3232C55.7998 32.1258 55.7823 31.8582 55.7122 31.6345C55.0855 29.2308 52.8069 27.5157 51.8736 25.2436C51.58 24.5023 51.3302 23.7347 51.1856 22.9276C52.1847 24.7786 54.6474 25.7348 55.3178 27.7701C55.5939 28.2877 55.5763 28.9325 55.7472 29.4852C55.7823 29.4852 55.8173 29.4589 55.8173 29.4238C55.5237 27.3227 55.6114 25.1251 55.8962 23.0504C55.8787 21.9231 55.7735 20.8353 55.1469 19.9668C55.55 20.208 55.7297 20.6554 56.0058 21.0019ZM54.8884 20.594C55.309 22.4714 54.6999 24.3049 55.0855 26.1954L55.068 26.213C54.047 24.204 51.8823 23.2565 50.3925 21.6467C49.5249 20.6905 49.1524 19.5281 48.9377 18.2956C49.7965 20.3615 52.0971 20.8133 53.4204 22.5503C53.8674 22.9539 54.012 23.5066 54.2968 23.9627L54.3406 23.9189C53.5825 22.2915 53.324 20.4624 52.7982 18.7254C52.5309 17.9753 52.005 17.2341 51.2952 16.7603C53.0216 17.1156 54.5334 18.9316 54.8884 20.594ZM50.2479 16.2866C51.5581 17.4578 52.1496 18.9754 52.5309 20.5458L52.7456 21.0458C50.8438 19.6773 49.1217 17.8394 47.9079 15.9006L46.4268 14.4005C47.7283 14.9531 49.1305 15.2821 50.2479 16.2866ZM25.411 14.8303C27.8824 13.6065 30.5905 12.953 33.5351 12.9003C40.2658 12.9091 46.6941 16.87 49.6213 23.1074C51.4792 26.6911 52.005 31.6257 50.8 35.67C49.5774 40.4511 45.5592 45.2849 40.8837 47.25C35.6166 49.8336 28.1322 49.1888 23.4391 45.82C16.9144 41.3415 14.2458 33.6303 16.2177 26.02C17.414 21.4932 21.0115 16.927 25.411 14.8303ZM20.2535 14.6505C18.9389 15.8041 18.0318 17.2604 17.0546 18.6201C16.1826 19.7036 15.0652 20.4142 14.0749 21.3485C14.6095 20.2387 14.627 18.9184 15.3851 17.9008C16.4675 16.0059 18.4656 15.3479 20.2535 14.6505ZM13.0714 18.6596C13.7068 17.8657 14.5175 17.3086 15.4289 17.0805C13.663 18.2956 13.7769 20.4756 13.216 22.2915C13.0364 22.9627 12.7253 23.5767 12.5719 24.2654L12.6201 24.3005C12.9137 23.5241 13.4308 22.7916 14.0749 22.1556C15.3325 20.9932 17.1905 20.2694 17.8039 18.5543C17.7777 20.9405 15.7882 22.8179 13.8865 24.1557C13.1021 24.8444 12.344 25.6296 11.9146 26.5156C11.8708 25.9147 12.0023 25.3094 11.9584 24.6646C11.7525 22.5854 11.5991 20.208 13.0714 18.6596ZM9.49578 25.7831C9.44319 23.6732 10.3152 21.9494 11.5465 20.3747C11.5816 20.3571 11.6079 20.3221 11.6561 20.3308C10.2977 22.3968 11.4238 24.9979 11.3625 27.3446L11.1828 29.7484C11.2091 29.7659 11.2091 29.8361 11.2705 29.8098C11.3493 29.5422 11.3713 29.2571 11.4238 28.9808C11.7437 27.042 13.422 25.6647 14.8943 24.3268C15.2055 23.9803 15.4815 23.6206 15.6436 23.2083C15.5253 24.1733 15.223 25.1471 14.8242 26.0419C13.6805 28.2745 11.5641 30.108 11.1784 32.6653C10.9944 30.2177 9.32488 28.3842 9.49578 25.7831ZM8.46602 28.7878C8.61939 28.1254 8.73332 27.4455 9.01815 26.8402C8.47478 29.6299 10.3503 31.6389 10.9637 34.0602C11.2223 34.9638 11.2836 35.9375 11.6517 36.7841C11.6867 36.8016 11.713 36.7666 11.7393 36.7402C10.8191 34.1654 12.1425 31.7793 13.4702 29.7703C13.7945 29.2264 13.9785 28.6167 14.1406 27.9938C14.2809 29.1562 13.9917 30.494 13.8208 31.7047C13.4965 33.2399 13.0145 34.6962 12.5982 36.1919C12.3221 37.1219 12.3922 38.1746 12.5368 39.1484L12.401 39.0431C11.4282 37.2491 9.50016 35.8454 8.92612 33.8759C8.45725 32.3056 8.14614 30.494 8.46602 28.7878ZM8.37838 34.24C8.59309 37.1964 11.77 38.7624 13.2423 41.2099C13.5929 41.71 13.8952 42.2627 14.3597 42.6838C14.2896 42.3723 13.996 42.1048 13.8865 41.7802C13.3694 40.7538 13.181 39.53 13.3081 38.2886C13.4527 36.7797 14.0837 35.3761 13.8427 33.7838C15.1397 36.5823 14.7453 40.0651 15.4684 43.0961C15.6568 43.7584 16.038 44.3462 16.2878 44.9822C13.628 43.1663 10.0041 41.4424 8.82534 38.1219C8.3258 36.9727 8.26883 35.5515 8.37838 34.24ZM9.96464 41.0301C11.4457 44.3901 15.1616 44.6664 17.6506 46.7148C18.1063 47.1184 18.5883 47.4649 19.1054 47.7062L19.1317 47.6798C18.5576 47.1623 17.9003 46.5701 17.4972 45.899C16.0424 43.8725 16.5507 41.0301 15.464 38.8501C16.4543 40.0388 17.357 41.2714 17.9529 42.6224C18.8468 44.8199 19.1843 47.307 21.2482 48.9694C19.0177 48.2369 16.4017 48.4431 14.4386 47.0658C12.2871 45.7367 10.3678 43.4953 9.96464 41.0301ZM13.7769 47.2938C16.152 50.0002 20.0344 49.0966 23.2025 49.8029C23.6495 49.8643 24.0614 50.0441 24.5346 49.9739C24.1578 49.7327 23.6319 49.759 23.2244 49.544C20.7399 48.6668 20.3761 45.9779 19.0265 44.1664C20.7486 45.3112 22.1947 46.8552 23.7853 48.3466C24.929 49.3467 26.3005 49.8116 27.751 50.1055C27.4004 50.2283 26.9491 50.1932 26.5722 50.2941C23.9737 50.9345 21.0816 51.9829 18.321 51.0442C16.5288 50.4827 14.6796 49.0616 13.7769 47.2938ZM46.0412 53.6014C43.3638 54.6015 40.5682 53.5576 38.478 51.9653C37.6279 51.4302 36.8786 50.6538 35.7831 50.724C35.3887 50.7152 35.0075 50.7328 34.6657 50.8293C36.7033 51.7767 38.5831 53.0795 40.3184 54.7507C40.0248 55.084 39.6479 55.3955 39.293 55.6806C37.6323 53.8866 35.7831 52.1583 33.7236 51.1495C33.3204 51.2021 32.9392 51.4434 32.5711 51.6407C30.8928 52.7022 29.2321 54.0708 27.9832 55.742L26.9096 54.8559C28.623 53.1233 30.516 51.7723 32.5886 50.8073C30.5554 50.1625 29.2233 51.8688 27.6765 52.7373C25.8755 53.9962 23.2858 54.5884 21.1079 53.7199C19.938 53.2725 18.803 52.6189 17.9573 51.5574C19.6707 52.7373 22.2253 52.8602 24.1709 52.0925C26.7869 50.9565 29.4994 49.5177 32.6544 50.2064C33.1451 50.2152 33.6272 50.7064 34.0916 50.2853C36.4316 49.6756 39.0827 50.0967 41.0984 51.1714L43.1798 52.0048C45.1078 52.7198 47.6056 52.5224 49.2576 51.3425C48.4075 52.4127 47.2462 53.1716 46.0412 53.6014ZM48.9158 50.8336C45.9054 51.9697 42.8818 50.5749 39.9985 50.1099L39.4464 50.0397V50.0222C40.8223 49.7107 42.1588 49.2984 43.2587 48.3071C44.8756 46.7543 46.3129 45.1533 48.1051 43.9295C46.773 45.6358 46.6328 48.0658 44.4374 49.1668C43.8941 49.5221 43.2061 49.5879 42.6452 49.8555C43.4471 49.873 44.1789 49.5879 44.972 49.509C47.9167 49.044 51.2908 49.5177 53.3547 47.0087C52.5878 48.7501 50.6685 50.2152 48.9158 50.8336ZM50.5853 47.7676C49.0516 48.1799 47.4084 48.3115 45.9185 48.8203C48.4469 46.649 48.3023 43.2891 49.9893 40.7318C50.5283 40.0081 50.9709 39.2492 51.5931 38.5606C50.5678 40.6266 51.0147 43.2979 49.836 45.298C49.3802 46.092 48.7273 46.864 48.0131 47.4868C48.2453 47.4781 48.4513 47.2719 48.6572 47.1403C50.5765 45.2279 53.0742 44.6927 55.1469 43.1356C55.9795 42.4732 56.7375 41.6091 57.1012 40.6704C56.7069 43.8462 53.5562 46.8201 50.5853 47.7676ZM54.38 42.3592C53.1925 43.1356 51.9875 43.8593 50.8438 44.7454V44.6401C52.5922 41.7275 51.7377 37.7316 52.8157 34.5339L53.2188 33.4592C52.9954 35.4506 53.863 37.1438 53.8016 39.144C53.7403 40.3502 53.3459 41.4205 52.7149 42.3855H52.8201C53.6789 41.2582 54.345 40.0607 55.3485 38.9904C56.8997 37.4903 58.4815 35.9507 58.6875 33.8716C59.209 37.3456 57.2634 40.3941 54.38 42.3592Z" fill="#0968B1"/>
<path d="M47.9513 31.3792L47.7979 31.2695L47.8856 31.5108C47.7454 34.4847 46.7507 37.1122 45.0548 39.4457C44.7262 39.8405 44.4151 40.323 44.0032 40.5993C44.6824 41.1345 45.4317 41.9416 45.9926 42.5557L46.0627 42.4197C48.7926 39.301 50.3482 35.691 50.5191 31.5064L50.6243 31.2915L50.4885 31.3529L47.9513 31.3792Z" fill="#0968B1"/>
<path d="M32.8028 21.0452C30.5374 21.2075 28.5699 22.155 26.8478 23.5762C27.527 24.0499 28.1317 24.8087 28.7495 25.3527C28.7934 25.2912 28.8372 25.2254 28.8854 25.1553C29.7355 24.5456 30.6075 23.9929 31.6066 23.7429C32.0535 23.699 32.4917 23.4841 32.9562 23.5893C32.8598 22.7472 32.8598 21.8216 32.9562 20.9531L32.8028 21.0452Z" fill="#0968B1"/>
<path d="M33.9166 16.2391C33.9166 16.1601 33.9516 16.0855 33.9998 16.0241C34.1225 15.9539 34.2321 16.0592 34.2847 16.1469C34.2934 16.2698 34.346 16.4847 34.2408 16.5593C34.346 16.5768 34.3986 16.4978 34.4994 16.4978C36.5457 16.6514 38.4387 17.2479 40.1345 18.2129V18.1691C40.4807 17.998 40.9277 17.7743 41.2826 18.0813C41.712 17.919 41.7909 18.4498 42.1415 18.5112C42.5621 18.7612 43.0354 19.2262 43.088 19.7174C43.1669 19.8797 43.4166 19.9938 43.4561 20.1648C43.7409 19.5551 44.3149 19.1297 44.8057 18.5989L45.1081 18.4717C42.4132 15.8969 39.21 14.4757 35.6343 13.9845C35.0603 13.8836 34.438 13.9406 33.8947 13.7695C33.9998 14.4801 33.9735 15.4451 33.9166 16.2391ZM41.9531 17.4365C42.1327 17.4892 42.2948 17.5725 42.3562 17.7611C42.3124 17.9673 42.5446 18.134 42.4 18.2963C41.918 18.4235 41.8742 17.8752 41.4973 17.7436C41.4447 17.6734 41.4272 17.5813 41.436 17.4848C41.6069 17.2786 41.7646 17.6164 41.9531 17.4365ZM34.2847 15.8136C34.3548 15.6688 34.5607 15.7215 34.6703 15.7697L35.9542 15.217C36.4712 15.2609 37.0453 15.3267 37.3476 15.7522V15.818C37.0277 16.0855 36.6158 16.3005 36.1864 16.1206C35.5992 16.2391 34.7754 16.5768 34.3022 15.9715C34.2846 15.9188 34.2321 15.8574 34.2847 15.8136Z" fill="#0968B1"/>
<path d="M33.9164 20.08C34.2581 19.9616 34.6043 20.1063 34.9461 20.1151C36.6945 20.4002 38.3465 20.9661 39.7487 22.0451C39.5822 21.8653 39.3763 21.6591 39.3368 21.4003C39.3631 21.3652 39.4026 21.3565 39.4464 21.3652C39.4639 21.0889 39.1703 20.9441 39.1265 20.6941C39.1703 20.6415 39.236 20.5888 39.3237 20.6152C39.626 20.9003 39.8846 21.2161 40.108 21.5363C40.3052 21.4573 40.463 21.5802 40.6076 21.6898C40.8661 21.8433 40.704 22.1723 40.9012 22.3522C40.9362 22.8785 41.5804 23.1724 41.5409 23.7032C41.5497 23.826 41.7031 23.7295 41.7557 23.7909L42.2903 24.4532C42.1895 24.5804 42.2683 24.7296 42.3779 24.8217C42.6189 24.927 42.7547 24.6243 42.9958 24.6682C43.3419 24.8655 42.9432 25.098 42.9782 25.313C43.1141 25.3217 43.2806 25.2077 43.3901 25.3393C43.4339 25.5367 43.2324 25.6595 43.1491 25.7867C43.1491 25.9841 43.3069 25.9402 43.4515 25.9841C43.6136 25.9753 43.71 26.1727 43.6662 26.3043C44.1131 26.7692 43.5347 27.2693 43.7451 27.7606C43.8897 28.0808 43.71 28.3922 43.5128 28.6378C43.5216 29.0326 43.1623 29.2739 43.022 29.6028L42.5663 29.6906C42.3253 29.9318 42.7723 30.2301 42.5313 30.3792L43.5303 30.3968L43.4208 30.2871C43.2762 29.8923 43.3113 29.366 43.5523 29.0194C43.7012 28.6992 43.7407 28.3132 44.0255 28.0369C44.0869 28.0193 44.2052 27.9009 44.2578 28.0369C44.2753 28.3396 44.249 28.6905 44.1044 28.958C44.3892 29.3704 44.3542 29.9055 44.3804 30.4143C45.2656 30.3617 46.1288 30.3441 46.9965 30.3529L46.9176 30.1818C46.7818 28.5282 46.4443 26.9622 45.7564 25.5542C45.5723 25.563 45.4365 25.7165 45.2218 25.6595C45.1517 25.6332 45.1079 25.563 45.1122 25.4796C44.7529 25.1419 44.5338 24.6945 44.1307 24.3918C43.675 24.4357 43.469 23.9093 43.0615 23.8567C42.6978 23.7032 42.9476 23.1154 42.4173 23.2777C42.1588 23.1724 41.909 22.975 41.8564 22.6811C41.8564 22.2162 41.7688 21.7161 41.3481 21.4135C41.0283 21.295 40.8924 21.7249 40.5725 21.6547C40.3929 21.567 40.4718 21.3345 40.4192 21.181C40.3578 21.045 40.2044 20.9485 40.2351 20.7687C40.6558 20.216 39.7268 20.2248 39.9284 19.6765C39.8758 19.2817 39.4727 19.1326 39.2667 18.8167C37.8864 18.1895 36.5017 17.764 34.9373 17.5754C34.5517 17.5228 34.1968 17.6017 33.8638 17.4219L33.9558 17.5929C33.947 18.422 33.9996 19.3036 33.9164 20.08Z" fill="#0968B1"/>
<path d="M33.018 28.5884C32.7507 29.0358 32.3037 29.1323 31.883 29.2595C31.7647 29.4043 31.7954 29.7157 31.5193 29.6894C31.4273 29.8868 31.125 30.0008 31.2433 30.2859C31.0987 30.5886 31.1732 30.9834 31.0899 31.3123C30.5641 31.6457 30.7174 30.8737 30.4458 30.7158L30.3581 30.8693C30.253 30.8956 30.1785 30.8342 30.1083 30.764C30.0251 30.7377 29.8936 30.7114 29.8235 30.7816C29.7052 30.979 29.5256 31.1369 29.5738 31.4088C29.5212 31.5711 29.2539 31.5141 29.2889 31.6852C29.5825 31.6764 29.9068 31.6238 30.1916 31.558C30.3976 31.6106 30.5685 31.4615 30.7744 31.4483C30.8445 31.4834 30.9278 31.558 30.8971 31.6633H30.9672C31.1074 31.5536 31.1732 31.3957 31.1074 31.2334C31.125 31.0448 31.3309 31.0448 31.458 30.9921C31.5719 31.0448 31.5018 31.1632 31.5193 31.2509C31.9181 31.4045 31.4229 31.6983 31.366 31.9133C31.2564 32.0844 31.366 32.466 31.0286 32.4133C30.9672 32.3958 30.919 32.3344 30.9409 32.2598H30.8971C30.8883 32.4046 30.9979 32.5976 31.1381 32.6633C31.3879 32.4572 31.3966 32.1107 31.7516 32.0624C31.94 31.865 31.6727 31.5624 31.9488 31.4001C32.4133 31.3913 32.9128 31.1939 33.2809 31.5711C33.2502 31.7334 33.1889 31.8036 33.3247 31.9396C33.2371 32.1458 33.1757 32.3695 33.0048 32.5405C33.0486 32.6546 33.0136 32.7993 32.9128 32.8783C32.7901 33.4222 32.1635 33.1634 31.7998 33.352C32.3607 33.7819 33.0399 33.9398 33.7716 33.8871C34.1573 33.8696 33.9864 33.3959 34.1836 33.1809C34.3062 32.5537 34.8803 32.9836 35.2265 32.8169C35.3579 32.5493 35.4938 32.2905 35.5288 31.9835C35.3053 31.8431 35.2177 31.5711 35.2878 31.3123C35.1388 31.1062 35.1563 30.7333 34.8233 30.6983C34.7707 30.6281 34.8146 30.536 34.8584 30.4833C34.8496 30.2859 35.0468 30.2245 35.0994 30.071C34.8934 29.9394 34.9504 29.6411 34.9679 29.4745C34.6174 29.571 34.5823 29.1148 34.3238 29.0183C34.2624 28.8121 34.039 28.777 33.8593 28.7419C33.4299 28.9481 33.3554 28.4173 33.0355 28.2945C33.0004 28.198 32.9259 28.0533 33.0355 27.9743C33.1932 27.8383 33.408 27.9568 33.5964 27.948L33.4474 27.869C33.3028 27.7068 32.9917 27.8076 32.8076 27.869C32.9829 28.0445 32.9084 28.3647 33.018 28.5884Z" fill="#0968B1"/>
</svg>
