<svg width="52" height="52" viewBox="0 0 52 52" fill="none" xmlns="http://www.w3.org/2000/svg">
<path d="M26 6.25928L30.8841 7.77404L35.8704 8.90422L39.3427 12.6573L43.0958 16.1296L44.226 21.1167L45.7407 26L44.226 30.8841L43.0958 35.8704L39.3427 39.3427L35.8704 43.0958L30.8841 44.226L26 45.7408L21.1167 44.226L16.1296 43.0958L12.6573 39.3427L8.90419 35.8704L7.77401 30.8841L6.25925 26L7.77401 21.1167L8.90419 16.1296L12.6573 12.6573L16.1296 8.90422L21.1167 7.77404L26 6.25928Z" fill="#E1A305"/>
<path d="M26 28.3825C25.9105 28.3821 25.8221 28.3636 25.74 28.328C25.6579 28.2924 25.5839 28.2404 25.5225 28.1753L20.9026 23.3358C20.8135 23.2423 20.7538 23.1247 20.7308 22.9976C20.7078 22.8705 20.7226 22.7394 20.7733 22.6206C20.824 22.5018 20.9084 22.4005 21.016 22.3291C21.1237 22.2578 21.2499 22.2195 21.3791 22.2191H23.803V17.1569C23.8033 16.8651 23.9192 16.5854 24.1254 16.379C24.3316 16.1726 24.6113 16.0563 24.9031 16.0558H27.1043C27.3962 16.0561 27.6761 16.1722 27.8826 16.3786C28.089 16.585 28.2051 16.865 28.2054 17.1569V22.2191H30.6262C30.7554 22.2193 30.8818 22.2574 30.9896 22.3287C31.0974 22.4 31.182 22.5013 31.2328 22.6202C31.2836 22.739 31.2985 22.8701 31.2755 22.9973C31.2526 23.1245 31.1928 23.2422 31.1037 23.3358L26.4807 28.1784C26.4188 28.2435 26.3442 28.2953 26.2616 28.3304C26.1789 28.3655 26.0899 28.3832 26 28.3825Z" fill="white"/>
<path d="M35.0243 33.6653H16.9745C16.5662 33.6648 16.1747 33.5023 15.886 33.2136C15.5972 32.9248 15.4348 32.5334 15.4342 32.125V31.6848C15.4345 31.2763 15.5968 30.8845 15.8856 30.5956C16.1744 30.3066 16.566 30.144 16.9745 30.1434H35.0243C35.4329 30.144 35.8247 30.3066 36.1136 30.5955C36.4026 30.8844 36.5651 31.2762 36.5657 31.6848V32.125C36.5651 32.5336 36.4025 32.9252 36.1136 33.214C35.8246 33.5027 35.4328 33.6651 35.0243 33.6653Z" fill="white"/>
</svg>
