<svg id="Layer_1" data-name="Layer 1" xmlns="http://www.w3.org/2000/svg" viewBox="0 0 747.19 1517.05"><defs><style>.cls-1{fill:#0063ac;}</style></defs><path class="cls-1" d="M362.26,769.31H0v362.25H362.26ZM270.45,970.62c0,74.11-39.27,104.53-91.81,104.53-49.22,0-86.83-28.2-86.83-103.42V829l31.52.55V972.83c0,53.65,23.78,76.88,56.41,76.88,35.4,0,58.63-23.78,58.63-76.88V829.59h31.52v141Z"/><path class="cls-1" d="M384.93,1131.56H747.19V769.31H384.93Zm90.15-301.41h34.84s109,175.87,120,200.76l1.1-.56c-2.76-32.63-3.32-200.76-3.32-200.76H657v241.69H625.51S516,893.75,503.84,867.75l-1.11.56c1.66,30.41,2.22,203,2.22,203H475.63V830.15Z"/><path class="cls-1" d="M384.93,1516.49H747.19v-362.8H384.93Zm114.49-299.76a363.63,363.63,0,0,1,59.73-5c31,0,53.64,7.19,68,19.91h0a65.34,65.34,0,0,1,21.57,50.88c0,21.57-6.08,39.27-18.8,51.43-16.59,17.15-43.14,26.55-74.11,26.55-8.3.55-17.15-.55-25.44-2.21v96.78h-31Z"/><path class="cls-1" d="M616.66,1285.87c0-32.63-22.67-47.57-57-47.57a131.67,131.67,0,0,0-29.31,2.77v94c8.29,2.21,17.14,2.77,26,2.77C594.54,1336.75,617.22,1318.5,616.66,1285.87Z"/><path class="cls-1" d="M.55,1154.79h0L0,1517.05H362.26v-361.7H.55Zm89.6,61.39a448.47,448.47,0,0,1,66.92-5c44.8,0,76.88,10,97.89,29.87h0c21.57,19.91,34.29,48.12,34.29,87.38s-12.72,71.9-34.84,94c-23.23,22.68-60.28,34.85-107.29,34.85a393.88,393.88,0,0,1-57-2.77Z"/><path class="cls-1" d="M153.2,1431.88h0c66.92.55,102.87-37.06,102.87-102.87.55-57.52-31.53-92.92-97.89-92.92-12.17,0-24.34.56-36.51,3.32v191.36A200.31,200.31,0,0,0,153.2,1431.88Z"/><path class="cls-1" d="M747.19,0H0V747.19H747.19ZM641,388.8h0c-10.51,14.93-23.23,28.76-32.63,43.69,1.1-12.16,2.76-26.54-2.21-38.16A320.57,320.57,0,0,1,589,318.56l.56-10.51c6.08,27.1,33.18,46.46,31,76.88a60.2,60.2,0,0,1-3.32,19.91l.55.55,1.11-1.1c3.87-14.94,6.08-31,12.16-44.8,8.85-19.91,19.92-40.37,15.49-65.26C659.8,323.54,655.93,361.7,641,388.8ZM625,233.94h0a92.74,92.74,0,0,1,8.85,89.6,141.13,141.13,0,0,0-10,37.06c-.55-2.22-1.65-5-1.65-7.75-7.19-26.54-32.63-45.9-42.59-71.34a140.67,140.67,0,0,1-7.74-26c11.06,20.47,38.71,31,46.45,54.2,3.32,5.53,2.77,12.72,5,19.36a2,2,0,0,0,1.11-.55c-2.77-23.78-2.77-47.56,1.1-71.35-.55-12.72-1.1-24.33-8.29-34.29C619.43,225.1,621.64,230.07,625,233.94Zm-12.72-5h0c5,21-2.21,41.48,2.21,62.49l-.55.56c-11.06-22.13-35.4-33.19-52-50.89a71.85,71.85,0,0,1-16-37.6c9.4,23.23,35.4,28.2,49.78,47.56a73.68,73.68,0,0,1,10,15.49l.56-.56C597.86,247.77,595.1,227.86,589,208a47.14,47.14,0,0,0-16.59-22.12C591.22,190.25,608.37,210.72,612.24,229ZM560.8,181.4c14.39,12.72,21,29.87,25.45,47.57L589,234.5A206.89,206.89,0,0,1,534.81,177l-16.59-17.15C532.05,166.47,548.08,169.79,560.8,181.4ZM283.17,164.81h0a214.57,214.57,0,0,1,90.7-21.57c111.17,1.11,200.21,91.81,199.66,203a193.64,193.64,0,0,1-6.64,50.32c-13.27,53.1-58.63,107.3-110.61,128.87-58.63,28.76-142.14,21.57-194.13-16-72.45-49.78-102.31-136-80.75-220.67C194.68,239.48,234.5,188.59,283.17,164.81Zm-57.52-1.66h0c-14.93,12.72-24.89,28.76-35.39,44.25-10,12.17-22.13,19.91-33.19,30.42,6.09-12.17,6.09-27.1,14.93-38.17C183.62,178.09,206.29,170.9,225.65,163.15ZM146,208h0a47.1,47.1,0,0,1,26-17.7c-19.35,13.28-18.8,37.61-24.33,58.07-1.66,7.75-5.53,14.38-7.19,22.13l.55.55c3.87-8.85,8.85-17.14,16-23.78,14.38-12.72,34.84-21,41.48-40.37-.55,26.54-22.68,47.56-43.69,62.49a90.74,90.74,0,0,0-22.12,26c-.56-6.63,1.1-13.27.55-20.46C131.08,251.64,129.42,225.1,146,208ZM106.19,287h0c-.55-23.78,8.85-42.59,23.23-60.28.55-.56.55-.56,1.1-.56-14.93,23.23-2.76,52-3.32,78l-1.66,26.55c.56.55.56,1.11,1.11.55.55-2.76,1.11-6.08,1.66-8.85,3.32-21.56,22.12-37.05,38.71-52a47.35,47.35,0,0,0,8.3-12.17,121,121,0,0,1-8.85,31.52c-12.72,24.89-36.5,45.35-40.37,73.56C122.78,336.26,104,315.8,106.19,287ZM94.57,320.78h0a96,96,0,0,1,6.09-21.57c-6.09,31,14.93,53.64,21.57,80.74,2.76,10,3.32,21,7.74,30.42.55.55.55-.55,1.11-.55-10.51-28.76,4.42-55.31,19.35-77.43a78,78,0,0,0,7.74-19.91c1.66,12.72-1.65,28.21-3.31,41.48-3.32,17.14-8.85,33.18-13.28,49.77a74.85,74.85,0,0,0-.55,33.19l-1.66-1.11c-11.06-19.91-32.63-35.39-38.71-57.52A115.13,115.13,0,0,1,94.57,320.78Zm-1.1,60.83h0c2.76,33.19,37.61,50.33,54.2,77.43a91.58,91.58,0,0,0,12.17,16.59c-1.11-3.32-3.88-6.63-5.54-9.95a78.75,78.75,0,0,1-6.63-39.27c1.66-16.59,8.85-32.63,6.08-50.33,14.38,31,10,70.24,18.25,104,2.22,7.19,6.09,13.82,8.85,21-29.31-19.91-70.24-39.26-83.51-76.32C93.47,410.37,91.81,396,93.47,381.61Zm17.7,75.22h0c16.59,37.61,58.07,40.37,85.72,63.05a67.2,67.2,0,0,0,16.59,11.06l.56-.55a78.5,78.5,0,0,1-18.26-19.91c-16.59-22.68-10.5-54.2-22.67-78.54a190.52,190.52,0,0,1,27.65,42c10,24.34,13.83,52,37.06,70.8-24.89-8.3-54.2-6.09-76.33-21C137.16,509.37,115.59,484.48,111.17,456.83Zm42.58,69.68h0c26.55,30.42,69.69,19.91,105.08,28.21a34.7,34.7,0,0,0,14.94,1.66c-3.87-2.77-10-2.77-14.94-5-27.65-9.95-31.52-39.82-47-59.73,19.36,12.72,35.4,29.87,53.1,46.46a86.7,86.7,0,0,0,44.24,19.36c-3.87,1.1-8.85,1.1-13.27,2.21-28.76,7.19-61.39,18.8-91.81,8.29-21.57-6.63-39.27-21.57-50.33-41.48Zm360,70.24h0c-29.86,11.06-60.83-.55-84.06-18.25-9.4-6.08-17.7-14.93-30.42-13.82-4.42,0-8.29,0-12.72,1.1a247.51,247.51,0,0,1,63.05,43.69A99,99,0,0,1,438.58,620c-18.81-19.91-39.27-39.27-62.5-50.33a37.34,37.34,0,0,0-12.72,5.53,202.29,202.29,0,0,0-51.43,45.36l-12.17-10a218.61,218.61,0,0,1,63.05-44.8c-22.68-7.19-37.61,12.17-54.76,21.57-19.91,14.38-49.22,21-73.55,11.06a83.11,83.11,0,0,1-35.4-24.33c19.36,13.27,47.57,14.38,69.13,6.08,29.32-12.72,59.18-28.76,94.58-21,5.53,0,11.06,5.53,16,1.1a109.07,109.07,0,0,1,78,10l23.23,8.85a77.78,77.78,0,0,0,68-7.19A67.64,67.64,0,0,1,513.79,596.75Zm32.08-31h0c-33.73,12.72-67.47-2.76-99.55-8.29l-6.08-1.11v-.55a93.68,93.68,0,0,0,42.58-19.36c17.7-17.15,33.74-35.4,54.2-48.67-14.93,19.36-16.59,46.46-40.92,58.07-6.09,3.87-13.83,5-19.91,7.74,8.85.56,17.14-3.31,26-3.87,32.63-5,70.24,0,93.47-28.2C586.8,542.55,565.23,559.15,545.87,565.78ZM564.12,532h0c-17.14,5-35.39,6.09-52,11.62,28.2-24.34,26.54-61.39,45.35-90.15,5.53-8.3,11.61-16.59,17.7-24.33-11.07,23.22-6.64,53.09-19.36,75.21a87.25,87.25,0,0,1-20.47,24.34c2.77,0,5-2.77,7.19-3.88,21.57-21.56,49.23-27.1,72.46-44.79,9.4-7.19,17.14-16.59,21.57-27.1C632.7,488.35,597.31,521.54,564.12,532Zm42.59-60.28h0c-13.27,8.85-26.55,16.59-39.27,26.55V497.2c19.36-32.63,10-76.87,22.12-112.82L594,372.21c-2.77,22.12,7.19,40.93,6.64,63.05a70,70,0,0,1-12.17,35.95h1.1a391.79,391.79,0,0,1,28.21-37.61c17.15-16.59,34.84-33.74,37.06-57C660.36,415.9,638.79,450.19,606.71,471.76Z"/><path class="cls-1" d="M456.83,469h0l1.1-1.66a149,149,0,0,0,17.7-14.94c-1.1,0-2.21,1.11-3.32.56-2.76-1.11-3.32-3.87-3.32-6.64L456.83,433.6l-.56-1.66a21.54,21.54,0,0,1-4.42,5.53c0,1.66-.55,3.87,1.11,5,3.87,1.11,8.84,3.87,10,8.29-1.66,4.43-10,8.3-5,13.28C460.15,466.23,456.28,467.34,456.83,469Z"/><path class="cls-1" d="M385.48,307.5h0c2.22,1.11,3.32-1.1,5.54-1.66a11.06,11.06,0,0,1,6.63,4.43c1.66.55,3.32,0,5-1.11,1.1-8.29,11.06-7.19,14.38-14.93l-1.66.55c-.55-1.1-2.77-.55-2.77-2.76a17.19,17.19,0,0,1,6.09-5,92.3,92.3,0,0,0-28.21-12.72c-3.87-.55-8.29-1.11-12.17-2.77,1.66,5.53.56,14.38,1.66,21l7.19,2.76c2.22-3.31,6.64-3.87,8.85-7.74,1.11-1.1,2.77,0,3.87,1.11,0,2.76,0,5.53-1.1,7.74C395.44,303.08,389.36,303.63,385.48,307.5Z"/><path class="cls-1" d="M474,412.58a55.3,55.3,0,0,1-10.5,12.17l8.85,7.74a2,2,0,0,0,.55-1.65,3,3,0,0,1,1.66-2.77h.55c4.43,0,4.43,5,7.19,7.19-.55,3.87,2.77,7.19,1.66,10.51a146.12,146.12,0,0,0,39.82-95.13l1.11-1.66c-9.4.56-18.25.56-27.65.56L495,349c0,6.09-.55,12.17-1.1,17.7l3.32,3.32c1.1,1.66.55,3.32-.56,5a2.92,2.92,0,0,1-4.42-.56h0C487.8,388.25,482.27,401,474,412.58Z"/><path class="cls-1" d="M454.62,268.79l-.56,1.1c-8.85,9.41-19.35,19.36-28.2,29.32a6.67,6.67,0,0,0,2.76,2.76c.56-2.76,1.66-4.42,1.66-7.19,2.21-3.32,6.09-1.1,8.85-.55,5-1.11,8.85,1.11,14.38,1.11,3.32,1.65,3.87,6.08,7.19,8.29a2.9,2.9,0,0,1-1.1,3.87h0c1.1,7.75,5-1.66,8.29-.55,1.66.55,3.32.55,5,2.21.55,3.32,4.42,2.77,5,5.53-.56,1.66-1.66,1.66-2.77,2.77,1.11,2.76-3.32,5-1.66,8.29,5.53,1.11,6.09-5.53,8.85-8.29a59.84,59.84,0,0,0-5.53-14.93c-3.32-.56-5.53-5-8.3-5.54-7.19-2.76,0-6.63-.55-10.5h0A134.37,134.37,0,0,0,454.62,268.79Z"/><path class="cls-1" d="M398.21,488.35c-5-.55-7.19-5-8.3-8.85-.55-2.76,1.11-5,2.21-7.19-1.66-3.87-8.29-1.1-11.61-2.76-.56-1.11-1.66-1.66-3.32-2.21l1.66,2.21a176,176,0,0,1-.56,24.33,175.12,175.12,0,0,1,23.79-3.31C401,490.57,399.31,489.46,398.21,488.35Z"/><path class="cls-1" d="M385.48,416.46h0c2.77.55.56,3.31,2.77,4.42,3.87-1.11,7.19,3.32,10.51.55-.56-5,5-4.42,7.74-5.53,4.42-2.76,9.4-6.08,8.85-12.17l-.55-1.1c-3.32,0-5,2.76-7.19,4.42-2.77,1.66-4.43-2.76-6.64-1.66,0,.56.55.56,1.11,1.11a2.47,2.47,0,0,1,0,2.76c-3.32,3.32-5-1.65-8.3-1.1v1.1c0,.56-.55,1.66-1.11,1.11-1.66-3.32-6.08-2.21-8.29-5-1.11-.55-2.77.56-3.32,1.11-.55,1.66-3.87-.55-3.32,2.76-2.77,1.11-2.77,3.32-4.43,5-3.31-.55-4.42,2.77-7.74,2.77.56.55,0,1.66,1.11,1.66,1.66,1.1,3.87,1.1,6.08.55C376.08,414.24,381.06,418.67,385.48,416.46Z"/><path class="cls-1" d="M417,378.29c-.55-.55.55-1.1.55-1.66-1.1-1.1-1.66,0-2.76,1.11a6.28,6.28,0,0,0,1.66,4.43c3.87-.56,2.21,5,5.53,4.42,1.66-.55,0-2.21.55-3.32C422,380,419.22,380,417,378.29Z"/><path class="cls-1" d="M378.85,262.7l2.76-.55c16,1.66,31.53,8.3,44.8,18.25l.56,2.21c4.42-6.08,11.06-11.61,16.59-17.69l5-2.77L445.77,261a100.23,100.23,0,0,0-35.4-21h0a157.4,157.4,0,0,0-32.07-6.64l1.1,2.21Z"/><path class="cls-1" d="M225.1,351.75,227.31,370a127.72,127.72,0,0,1,3.87,21c1.11-1.65.55-4.42,3.32-5-1.11-2.22,2.21-3.87.55-6.09,0-5,2.21-9.4,5.53-13.27,5-.55,5.53-7.19,10.51-7.19,2.77,0,3.87,3.32,5.53,5a18.78,18.78,0,0,1-2.21-14.38l-2.21,1.1c-9.4,0-18.25,0-27.66-.55Z"/><path class="cls-1" d="M403.74,398.2c2.76-2.76,7.19-2.76,7.74-6.08-3.32-.55-5.53,1.11-7.74,3.32C403.18,396,402.08,397.65,403.74,398.2Z"/><path class="cls-1" d="M466.78,347.88h0l3.32,3.31c3.32,2.22,1.11,6.64,4.43,8.3,3.87,1.66,5.53,6.64,7.19,9.95.55-1.1.55-1.65,1.1-2.76,1.11-5.53,1.11-11.61,2.77-17.15A53.24,53.24,0,0,1,466.78,347.88Z"/><path class="cls-1" d="M414.8,414.8c3.87,1.1,7.74,1.66,11.61,3.31h0c3.32,1.11,5.53,5,10,3.88,3.32-1.66,9.4,1.1,12.16-2.77-.55-3.87,2.77-6.08,4.43-9.4l1.11-.55c1.65,2.21,1.65,5.53,2.76,7.74,2.77-2.77,5-6.09,7.74-9.4a93,93,0,0,0,14.38-31,32.79,32.79,0,0,0-7.74,1.11c-2.76-.55-6.08,1.66-8.85-.55-1.1-.55-1.66.55-1.1,1.1-1.11,1.66-1.66,3.32-4.43,2.77-1.66-1.11-1.66-2.77-2.76-3.87a7,7,0,0,1-.56,3.32,45.47,45.47,0,0,0-4.42,6.63c-2.21,2.22-5.53,1.66-7.75,3.32-.55,5-5.53,3.87-8.85,5.53-.55.55.56.55.56,1.11a4.29,4.29,0,0,0,4.42-1.11c3.87,1.11,3.32-3.87,5.53-6.08,2.22-.55,3.88-2.21,6.09-.55,2.21,2.76,2.76,6.63,2.76,9.95-2.76,2.77-1.1,6.08-2.76,8.85.55,3.32-3.32,5-3.32,8.3a9.38,9.38,0,0,1-5.53,1.65,95.92,95.92,0,0,0-24.89-5.53C415.35,413.14,414.8,413.69,414.8,414.8Z"/><path class="cls-1" d="M367.23,504.94h0l1.11-1.65-3.32,1.1A156.37,156.37,0,0,1,263.26,460.7l-.56,1.11-20.46,21A199.55,199.55,0,0,0,348.43,532.6c6.64.55,13.27,1.1,19.91,2.76l-1.66-2.76V504.94Z"/><path class="cls-1" d="M327.41,397.65c10.51,8.3,22.68,14.38,35.95,16.59.56-2.76-.55-6.08,1.11-8.29,1.1-2.22,3.87-2.22,5.53-1.66a1.78,1.78,0,0,0,1.66-1.66v-.55c-2.77-.56-1.66-3.88-2.77-5.53,0-1.11,1.66-.56,1.11-2.22-1.66-1.66,1.1-3.32-.55-5l1.1-1.11c-6.08,2.76-12.72-1.11-17.7-3.32-2.76-1.66-6.08-2.76-7.19-6.08-5.53,6.08-11.61,12.72-18.25,18.8Z"/><path class="cls-1" d="M316.91,366.68h0c-1.11-.55-1.11-.55-1.66.55a2,2,0,0,1-1.66-.55c0-5.53-6.09-2.21-8.85-5.53,2.76,5,4.42,11.06,7.19,16,1.66,5,5.53,8.29,7.74,12.72,2.21-3.32,5.53-6.64,8.3-10,.55-1.1,0-2.76-1.11-3.87-1.11-2.21,0-5-1.66-7.19-2.77,1.11,1.11,3.32-.55,5-1.11.55-2.22-.55-2.77-1.11a7.86,7.86,0,0,1-5-4.42C319.67,368.34,317.46,367.79,316.91,366.68Z"/><path class="cls-1" d="M335.71,369.44a13.24,13.24,0,0,1-3.87,6.64l.55.55c2.77-1.65,3.87-5,7.19-5Z"/><path class="cls-1" d="M367.23,465.12l-2.76,1.11a113.39,113.39,0,0,1-64.16-24.33c.56,2.76,3.87,3.87,2.77,7.19-1.66,2.76-5,2.76-7.74,2.76-5.54-1.11-10,3.32-14.94,3.87-5,1.66-6.63-4.42-11.06-3.87,27.65,24.34,59.18,39.27,96.23,41.48l2.77,1.66-1.11-3.32Z"/><path class="cls-1" d="M257.17,453.51a76.57,76.57,0,0,1-9.4-9.4c-3.32-1.11-6.63-3.32-8.29-6.09-1.11-1.1,0-3.31-1.11-3.87l-1.1,1.66c-3.32,1.66-5-1.66-7.19-3.32-3.32-1.66-1.66-7.74-5.54-6.63-1.65,0-2.21-1.66-3.31-2.77-3.88.55-5-3.87-7.19-6.08-.56,1.1,0,2.21-1.11,2.76-3.87,1.11-5.53-3.87-8.3-6.08a2.87,2.87,0,0,1-2.21,1.11,11.79,11.79,0,0,1-3.87-8.3c-3.32-3.87-1.66-9.4-1.1-14.38.55-1.11,2.21-1.66,1.65-3.32,1.11-2.21,3.32-2.21,5.54-2.76,1.1.55,1.65,1.1,1.65,1.66,1.11-1.11,3.88,0,3.32-2.77a17,17,0,0,1,6.64-2.76,24.91,24.91,0,0,0,4.42,6.08l-1.1-2.21a139.36,139.36,0,0,1-5-30.42c0-.55-1.1-1.11-.55-1.66l.55.55a18.59,18.59,0,0,1,.56-5.53l-2.77,1.11-27.65-.55a211.14,211.14,0,0,0,24.33,87.38A250.4,250.4,0,0,0,235.61,474l19.91-20.46Z"/><path class="cls-1" d="M289.25,221.22c-6.08,4.43-12.16,10-18.25,13.28a127.3,127.3,0,0,1,19.91,18.8l.56,1.66a121.13,121.13,0,0,1,59.73-30.42,48.77,48.77,0,0,1,15.48-1.1,248.62,248.62,0,0,1-.55-28.76A151.29,151.29,0,0,0,289.25,221.22Z"/><path class="cls-1" d="M265.47,324.65h0a71.35,71.35,0,0,1-2.76,14.93,32.21,32.21,0,0,1,12.72-.55c-2.22-1.11-.56-3.87-1.66-5.53-.56-2.77-.56-5.53,1.66-7.19-.56-3.88,3.87-6.09,4.42-10,1.11-3.87,6.09-1.1,8.3-3.32,1.66-1.1.55-2.21.55-3.32,1.66-2.76,5-2.76,7.74-3.87a27.22,27.22,0,0,1,6.64-7.19c6.08.56,6.08-8.29,11.61-8.29-7.74-6.64-14.93-13.28-22.12-20.47A113.83,113.83,0,0,0,265.47,324.65Z"/><path class="cls-1" d="M272.11,350.09a11.16,11.16,0,0,1-9.4-1.11l1.1,2.77c.55,6.63,2.77,12.72,1.66,19.35,1.11-1.66,1.66-5,3.87-5.53h0c.56-1.66-2.76-2.21-2.21-3.87C268.79,357.28,267.13,351.75,272.11,350.09Z"/><polygon class="cls-1" points="297 436.92 296.44 436.37 297 437.47 297 436.92"/><path class="cls-1" d="M263.81,242.79,253.3,256.62a159.42,159.42,0,0,0-28.76,83l27.1-.55,2.77,1.1c-1.11-.55-1.11-1.66-1.11-2.76a121.25,121.25,0,0,1,31.53-74.67c-7.74-6.63-14.38-13.82-21-21Z"/><path class="cls-1" d="M357.28,453.51l-5-2.21c-3.32-3.87-8.85-8.85-8.85-14.38,3.32-1.11,3.32-5,4.43-7.74h0a18.58,18.58,0,0,1,7.74-5c-8.85,1.66-16.59-5-24.34-8.3a39.25,39.25,0,0,1-12.72-10.51,174.23,174.23,0,0,1-19.91,20.47c3.32.55,5,3.32,7.19,5A134.38,134.38,0,0,0,357.28,453.51Z"/><path class="cls-1" d="M311.38,398.2l-3.88-3.87A112.85,112.85,0,0,1,292,360l-2.77-1.66a48.78,48.78,0,0,0-1.1,8.85L287,368.34c-2.21,0-3.32-1.66-5-2.77-.55-1.1-1.66-2.76.56-3.87a5,5,0,0,1,2.76.55c1.11-1.1.56-2.76,1.11-3.87.55-2.76-1.66-5-.55-6.63,1.65-.56,3.31,2.21,3.87,3.31,1.66.56,3.32-1.1,5-1.65,0-1.66,2.77-3.88-.55-5a16.82,16.82,0,0,0-.55-11.62c-1.11-3.31-5-2.76-7.75-2.76-8.29,2.76,1.11,8.85-.55,13.27-1.11,3.32-3.87.55-6.08,1.66l-.56,5.53c-1.1,3.32-5,.55-7.19,2.77-1.1,1.66,0,3.87,1.11,5.53-2.77,6.08,6.08,8.29,6.08,14.38,2.77,3.32-.55,8.85,3.32,12.16,1.11,6.64-1.1,14.94,5,20.47l1.1,6.08c1.11,4.43-5,3.32-4.42,7.19,1.11-.55,1.66,1.11,1.66,1.11v-.56C293.68,415.35,302.53,406.5,311.38,398.2Z"/><path class="cls-1" d="M534.81,349.53l-1.66-1.1,1.11,2.76a160.67,160.67,0,0,1-31.53,88.49,51.35,51.35,0,0,1-11.61,12.72A204.85,204.85,0,0,1,513.24,474l.55-1.66a190.33,190.33,0,0,0,49.78-121.67l1.11-2.76-1.66.55Z"/><path class="cls-1" d="M264.92,227.31h0l.55-1.11a158,158,0,0,1,101.76-42.58l-1.1-2.77-.56-23.78,1.11-2.77a191.21,191.21,0,0,0-106.74,38.17c-6.09,3.87-11.06,10.5-17.7,14.38h1.11A152.15,152.15,0,0,1,264.92,227.31Z"/><path class="cls-1" d="M365.57,234.5a119.24,119.24,0,0,0-66.36,28.2,236.15,236.15,0,0,1,21,19.91c.56-.55,1.11-1.65,1.66-2.21,8.85-7.19,19.36-12.17,30.42-15.48a34.52,34.52,0,0,1,14.93-1.66,130.66,130.66,0,0,1,0-29.32Z"/><path class="cls-1" d="M367.23,273.77h0a69.59,69.59,0,0,0-42.58,19.91h2.21c2.77,2.76,6.08,1.65,8.3,5,1.1,1.66-1.66,1.66-1.66,3.32.55,0,1.1.55,1.66,1.11,1.66.55,1.66-1.11,2.21-1.66,2.76-2.77,2.76,2.76,5.53,2.76,1.66-1.1,3.87-1.1,5,.56h0c1.66-1.11,5,0,5.54-2.77,3.31-3.32,1.1-8.29,6.08-10.51,1.66,1.11,0,2.77.55,3.87,3.32,1.11,6.64-2.76,8.85.56A73.47,73.47,0,0,1,367.23,273.77Z"/><path class="cls-1" d="M368.34,318.56h0c-2.77,5-7.74,6.09-12.72,7.75-1.11,1.66-1.11,5-3.87,5-1.11,2.22-4.43,3.32-3.32,6.64A41.13,41.13,0,0,0,346.77,349c-6.09,3.87-3.87-5-7.19-6.63L338.47,344c-1.1.56-1.66-.55-2.76-1.1s-2.77-.55-3.32.55c-1.11,2.21-3.32,3.87-2.77,7.19-.55,1.66-3.32,1.11-3.32,3.32a60.26,60.26,0,0,0,10-1.11c2.21.56,3.87-1.1,6.64-1.1.55.55,1.66,1.1,1.1,2.76h1.11q2.49-1.65,1.66-5c.55-2.21,2.76-2.21,3.87-2.76,1.1.55.55,1.66.55,2.76,4.43,1.66-1.1,5-1.66,7.19-1.1,1.66,0,6.09-3.87,5.53-.55-.55-1.1-1.1-1.1-1.65H344a5.66,5.66,0,0,0,2.77,4.42c2.76-2.21,2.76-6.08,7.19-6.64,1.66-2.21-1.11-5.53,2.21-7.19,5,0,10.51-2.21,14.93,1.66-.55,1.66-1.1,2.77.56,3.87a18.73,18.73,0,0,1-3.32,6.64c.55,1.11,0,2.77-1.11,3.87-1.11,6.09-8.3,3.32-12.17,5.53a34.48,34.48,0,0,0,22.13,6.09c4.42-.56,2.76-5.53,5-7.75,1.11-7.19,7.75-2.21,11.62-3.87a29,29,0,0,0,3.32-8.85,8.13,8.13,0,0,1-2.77-7.74c-1.66-2.21-1.66-6.64-5.53-7.19-.55-.55,0-1.66.55-2.76,0-2.22,2.22-2.77,2.77-5-2.21-1.66-1.66-5-1.66-6.64-3.87,1.11-4.42-3.87-7.19-5-.55-2.21-3.32-2.76-5-3.32-5,2.22-5.53-3.31-8.85-5-.55-1.11-1.1-2.77,0-3.32,1.66-1.66,3.87-.55,6.09-.55l-1.66-1.11c-1.66-1.66-5-.55-7.19,0C367.79,311.93,367.23,315.8,368.34,318.56Z"/><path class="cls-1" d="M215.14,339.58h0l-.55-3.87a163.27,163.27,0,0,1,29.86-85.17,85.64,85.64,0,0,1,13.28-14.94c-6.64-6.08-13.28-13.27-19.92-19.91l-.55-2.76a192.16,192.16,0,0,0-50.88,109c-1.11,6.09-.55,12.17-1.66,18.25C194.13,338.47,204.63,338.47,215.14,339.58Z"/><path class="cls-1" d="M483.93,458.49c-2.77,5.53-8.85,8.85-13.27,13.27-6.64,6.64-17.15,7.74-20.47,17.15-3.31,3.31-5,8.29-9.4,9.95-1.66,5-7.19,4.43-10,7.74-8.3,7.75-13.83-5-21.57-6.08l-14.93,2.77a48.87,48.87,0,0,1-15.49.55,290.8,290.8,0,0,1,0,31l1.66-1.11a196,196,0,0,0,125-52.54l-21-19.91Z"/><path class="cls-1" d="M379.4,178.64c1.11-1.11,2.77.55,3.32,1.1,0,1.11.55,3.88-.55,5,1.1.56,1.66-.55,2.76-.55A149.86,149.86,0,0,1,448,203.53V203c3.87-1.66,8.85-4.42,12.72-1.1,5-1.66,5.53,3.87,9.4,5a19.38,19.38,0,0,1,10.51,13.27c1.11,1.66,3.87,3.32,3.87,5A55.86,55.86,0,0,1,499.41,208l3.32-1.1c-28.76-27.66-65.81-44.8-105.63-49.78-6.64-.55-13.28-1.11-19.36-2.77a222.92,222.92,0,0,1,0,27.11A5.86,5.86,0,0,1,379.4,178.64Zm88.49,15.48h0c2.21.56,3.87,1.66,4.43,3.88-.56,2.21,2.21,3.87.55,6.08-5.53,1.11-6.09-5-10-6.08a5,5,0,0,1-.55-2.77C464,192.47,465.68,196.34,467.89,194.12Zm-85.17-18.25c1.11-1.66,3.32-1.1,4.42-.55l14.38-6.08c5.53.55,12.17,1.1,15.49,6.08v1.11c-3.32,3.31-8.3,5-12.72,3.31-6.64,1.11-15.49,5-21-1.65-.55-1.11-1.1-1.66-.55-2.22Z"/><path class="cls-1" d="M389.91,224a119.71,119.71,0,0,1,53.65,21.57,21,21,0,0,1-5-7.19c.55-.55.55-.55,1.11-.55.55-3.32-3.32-5-3.32-7.75a2.86,2.86,0,0,1,2.21-1.1c3.32,3.32,6.08,6.63,8.85,9.95,2.21-1.1,3.87.56,5.53,1.66,2.76,1.66,1.1,5.53,3.32,7.19.55,6.08,7.74,8.85,7.19,14.93,0,1.11,1.66.56,2.76,1.11l6.09,7.19c-1.11,1.66-.56,3.32,1.1,3.87,2.77,1.11,3.87-2.21,7.19-1.66,3.87,2.21-.55,5-.55,7.19,1.66,0,3.32-1.1,5,.56.55,2.21-1.66,3.31-2.77,5,0,2.22,1.66,1.66,3.32,2.22,1.66,0,2.76,1.65,2.76,3.31V292c5,5-1.65,10.5,1.11,16.59a9.88,9.88,0,0,1-2.76,9.95c0,4.43-3.88,7.19-5.54,10.51l-5,1.11c-2.77,2.76,2.21,6.08-.56,7.74l11.07.55-1.11-1.1A16.48,16.48,0,0,1,487.25,323a29.54,29.54,0,0,1,5.53-11.06c.55-.56,1.66-1.66,2.76,0a17.65,17.65,0,0,1-1.65,10.5A40.47,40.47,0,0,1,497.2,339c10-.56,19.36-.56,29.32-.56l-1.11-1.66a149.5,149.5,0,0,0-12.72-51.43c-2.21,0-3.32,1.66-6.08,1.11-.56-.56-1.11-1.11-1.11-1.66-3.87-3.87-6.64-8.85-11.06-12.17-5,.55-7.74-5.53-12.17-6.08-3.87-1.66-1.1-8.3-7.19-6.64-2.76-1.11-5.53-3.32-6.08-6.64a17.64,17.64,0,0,0-5.53-14.38c-3.32-1.1-5,3.32-8.85,2.77-1.66-1.11-1.11-3.32-1.66-5.53-.56-1.66-2.77-2.77-2.21-5,5-6.08-5.53-6.08-3.32-12.17-.56-4.42-5-6.08-7.19-9.4a164.09,164.09,0,0,0-48.67-13.83,46.33,46.33,0,0,1-12.17-1.65l1.11,1.65c-.56,10,0,19.91-1.11,28.21C382.17,222.88,386,222.88,389.91,224Z"/><path class="cls-1" d="M487.25,233.94c2.21.56,2.76,2.77,3.87,4.43,7.19,3.87,8.85,11.61,15.48,16,3.32,7.74,12.17,13.27,12.17,21.57a150,150,0,0,1,14.93,61.94l-.55,1.11c1.11,0,1.66-.56,2.77-1.11l28.75-.55c-1.65-2.77-1.1-7.19-1.65-10.51-3.88-44.25-22.68-81.85-52-115.59-5.53,7.19-12.72,14.38-19.91,21.57Z"/></svg>