<svg width="95" height="186" viewBox="0 0 95 186" fill="none" xmlns="http://www.w3.org/2000/svg">
<rect y="-4" width="95" height="190" fill="white"/>
<path d="M91.5764 1.64551H3.47119V89.8397H91.5764V1.64551Z" fill="white"/>
<path d="M45.6536 93.9722H3.09473V136.574H45.6536V93.9722Z" fill="white"/>
<path d="M91.7352 93.9722H49.1763V136.574H91.7352V93.9722Z" fill="white"/>
<path d="M45.6536 140.477H3.09473V183.079H45.6536V140.477Z" fill="white"/>
<path d="M91.7352 140.477H49.1763V183.079H91.7352V140.477Z" fill="white"/>
<path d="M2.58887 93.4658V137.08H46.1592V93.4658H2.58887ZM35.0917 117.637C35.0917 126.572 30.3812 130.205 24.0888 130.205C18.1317 130.205 13.6388 126.837 13.6388 117.76V100.606H17.4436V117.89C17.4436 124.371 20.331 127.143 24.2182 127.143C28.4876 127.143 31.2927 124.288 31.2927 117.89V100.606H35.0917V117.637Z" fill="#006EB5"/>
<path d="M48.8408 93.4658V137.08H92.4053V93.4658H48.8408ZM81.5554 129.84H77.7564L68.5178 115.064C66.4889 111.82 64.5541 108.495 63.1251 105.345L62.9899 105.386C63.2133 109.06 63.2545 112.556 63.2545 117.395V129.84H59.7084V100.712H63.8543L73.1341 115.447C75.2512 118.855 76.9743 121.881 78.3092 124.907L78.4444 124.865C78.0975 120.974 78.0151 117.43 78.0151 112.939V100.712H81.5554V129.84Z" fill="#006EB5"/>
<path d="M69.9113 149.854C68.2705 149.854 67.0238 150.025 66.377 150.16V161.48C67.1885 161.698 68.2705 161.781 69.482 161.781C74.0572 161.781 76.78 159.538 76.78 155.606C76.78 151.714 74.0572 149.854 69.9113 149.854Z" fill="#006EB5"/>
<path d="M48.8408 139.753V183.367H92.4053V139.753H48.8408ZM78.2857 161.439C76.298 163.547 73.0636 164.63 69.3999 164.63C68.2708 164.63 67.2416 164.589 66.3772 164.371V176.032H62.6194V147.299C64.4365 146.952 66.8065 146.693 69.8292 146.693C73.5458 146.693 76.2627 147.558 77.9857 149.112C79.5794 150.496 80.5733 152.609 80.5733 155.205C80.5733 157.842 79.797 159.92 78.2857 161.439Z" fill="#006EB5"/>
<path d="M21.5658 149.648C19.6251 149.648 18.1608 149.819 17.167 150.037V173.065C18.1079 173.236 19.4899 173.236 20.966 173.236C28.9932 173.277 33.3567 168.745 33.3567 160.88C33.3978 153.922 29.5048 149.648 21.5658 149.648Z" fill="#006EB5"/>
<path d="M2.54199 139.794V183.409H46.1124V139.794H2.54199ZM33.1395 172.071C30.3755 174.796 25.8826 176.262 20.2312 176.262C17.5143 176.262 15.3091 176.18 13.3684 175.921V147.276C15.7031 146.923 18.42 146.67 21.3956 146.67C26.7941 146.67 30.6284 147.882 33.1865 150.255C35.8152 152.633 37.3265 156.047 37.3265 160.757C37.3207 165.495 35.8093 169.392 33.1395 172.071Z" fill="#006EB5"/>
<path d="M57.2034 33.1333L57.1446 33.2746C56.0449 34.4225 54.8334 35.6116 53.7749 36.7889C53.8455 36.9302 53.969 37.0656 54.0983 37.1362C54.1454 36.8478 54.2983 36.5947 54.3277 36.2944C54.6158 35.9 55.0451 36.1532 55.4215 36.2356C55.9978 36.1002 56.533 36.3651 57.121 36.3533C57.5562 36.5652 57.5915 37.1186 57.9855 37.3364C58.0914 37.4894 58.009 37.6719 57.862 37.7955C57.9855 38.6962 58.4148 37.5542 58.8735 37.772C59.0617 37.8426 59.3028 37.8191 59.4439 38.0251C59.5145 38.396 59.9732 38.3253 59.9967 38.6844C59.9614 38.861 59.7674 38.914 59.6497 39.0082C59.7556 39.3673 59.2793 39.5969 59.4498 39.9795C60.1437 40.109 60.1672 39.3084 60.4907 38.9493C60.3084 38.3253 60.179 37.6896 59.8203 37.1362C59.4263 37.0538 59.1852 36.5829 58.7912 36.5005C58.0208 36.2003 58.9088 35.7234 58.8147 35.2643C58.403 34.5049 57.7562 33.8162 57.2034 33.1333Z" fill="#006EB5"/>
<path d="M61.6842 45.8841C61.1785 47.4911 60.5904 49.0629 59.5848 50.4639C59.1908 50.9702 58.8085 51.6648 58.291 51.9297L59.379 52.8892C59.4378 52.8304 59.4084 52.7303 59.4142 52.6479C59.4142 52.5066 59.4848 52.3359 59.6671 52.3594C60.1964 52.3476 60.2081 52.9128 60.5022 53.1953C60.4434 53.6545 60.8374 54.0136 60.708 54.4315C63.7248 51.2409 65.2362 47.3322 65.5126 42.9996L65.6772 42.8053C64.6011 42.9113 63.4661 42.8407 62.3487 42.8524L62.0841 42.77C62.1547 43.5 61.9606 44.2123 61.9136 44.9304L62.3076 45.3602C62.4134 45.5309 62.3781 45.7781 62.2252 45.9135C62.0665 46.0254 61.8547 46.0136 61.6842 45.8841Z" fill="#006EB5"/>
<path d="M57.4914 57.2867L57.662 57.0571C58.3794 56.492 59.1616 55.9681 59.7967 55.2735H59.879C59.7379 55.2264 59.5556 55.3676 59.385 55.297C59.0498 55.1439 58.991 54.8437 58.991 54.4964L57.515 52.9718L57.4326 52.7422C57.3268 53.0306 57.1092 53.2072 56.8916 53.425C56.9092 53.6134 56.8328 53.9019 57.0621 54.0373C57.5385 54.1962 58.1618 54.5082 58.2677 55.0674C58.0795 55.5972 57.068 56.074 57.6914 56.6509C57.8972 56.9394 57.4091 57.0512 57.4914 57.2867Z" fill="#006EB5"/>
<path d="M48.8881 50.9584C49.1998 51.0173 48.9822 51.3528 49.2115 51.4764C49.7055 51.3234 50.076 51.8944 50.47 51.5353C50.4465 50.9702 51.0816 51.0232 51.4286 50.876C51.9696 50.5522 52.5812 50.1225 52.5165 49.3984L52.4342 49.2925C52.0637 49.2925 51.8696 49.5809 51.5932 49.8046C51.258 49.9989 51.0875 49.4455 50.817 49.575C50.8287 49.6339 50.8875 49.6575 50.9405 49.681C51.011 49.7634 51.0346 49.9459 50.9405 50.0283C50.5288 50.3992 50.3406 49.8458 49.9584 49.887V50.0283C49.9701 50.1107 49.9349 50.2461 49.8114 50.199C49.5703 49.8046 49.0821 49.9459 48.841 49.5986C48.6881 49.5162 48.5411 49.6221 48.4353 49.7163C48.3529 49.8988 47.9707 49.6928 48.0648 50.0048C47.7649 50.1107 47.7296 50.4345 47.5179 50.6288C47.1474 50.5699 46.9827 50.9878 46.6299 50.9761C46.6652 51.0467 46.6299 51.1703 46.7416 51.1821C46.9592 51.2763 47.1709 51.2998 47.4355 51.2645C47.7884 50.6935 48.3882 51.1703 48.8881 50.9584Z" fill="#006EB5"/>
<path d="M46.7297 61.6074L46.8473 61.4249L46.4768 61.5191C41.8016 61.1953 37.6675 59.5412 34.2567 56.2446L34.2214 56.3918L31.7515 58.876C35.4916 62.1136 39.7081 64.2034 44.5244 64.8568C45.2889 64.9922 46.1652 64.9157 46.9061 65.1453L46.7297 64.8568V61.6074Z" fill="#006EB5"/>
<path d="M48.9231 37.8251C49.1995 37.9781 49.3524 37.6956 49.5817 37.6308C49.9169 37.6661 50.1816 37.9546 50.3874 38.1724C50.5991 38.2666 50.8049 38.1371 50.999 38.0664C51.1342 37.0716 52.3751 37.2128 52.7456 36.2769L52.5162 36.3593C52.4221 36.2239 52.181 36.2886 52.1928 36.0708C52.3927 35.8824 52.6573 35.5822 52.9102 35.4939C51.834 34.8228 50.7167 34.246 49.4935 33.934C49.0172 33.828 48.5114 33.8103 48.0527 33.6455C48.2821 34.3284 48.0763 35.335 48.2233 36.1297L49.0819 36.4181C49.3347 36.0002 49.8875 35.9119 50.1228 35.5175C50.2815 35.388 50.458 35.5175 50.5815 35.6646C50.6167 35.9884 50.5344 36.3122 50.4403 36.6242C50.1228 37.2717 49.3524 37.3541 48.9231 37.8251Z" fill="#006EB5"/>
<path d="M56.627 49.9518C56.674 50.3462 56.1977 50.5287 56.2565 50.9231C56.0977 51.0997 55.8389 51.1233 55.5978 51.1233C54.651 50.7642 53.6572 50.5346 52.6045 50.4404C52.5105 50.4757 52.4516 50.564 52.4634 50.67C52.8927 50.8996 53.422 50.9113 53.8748 51.0997C54.2805 51.2057 54.5569 51.7119 55.0745 51.5589C55.5037 51.3175 56.2212 51.7002 56.5093 51.2469C56.4623 50.8054 56.8445 50.4816 57.0386 50.099L57.1798 50.0637C57.4209 50.3168 57.4091 50.6877 57.5149 50.9643C57.8502 50.6052 58.1148 50.2108 58.4147 49.8341C59.2027 48.6803 59.879 47.45 60.1613 46.1255C59.8378 46.1373 59.5144 46.1961 59.2145 46.2962C58.8675 46.2727 58.45 46.4787 58.1501 46.2373C58.0383 46.1431 57.9678 46.2844 57.9795 46.3845C57.856 46.5611 57.7384 46.7907 57.462 46.7083C57.2444 46.6141 57.2444 46.3845 57.1739 46.2138C57.1856 46.3492 57.1386 46.4669 57.1151 46.5846C56.8622 46.8495 56.7799 47.1027 56.6034 47.3911C56.3506 47.6678 55.9448 47.5677 55.6802 47.7973C55.6331 48.3742 54.998 48.2506 54.6393 48.4331C54.6099 48.5037 54.6981 48.5155 54.7334 48.5743C54.898 48.6214 55.1274 48.6214 55.245 48.4566C55.7507 48.5861 55.6449 47.9504 55.9272 47.7384C56.18 47.7031 56.4211 47.4853 56.6799 47.656C56.9445 47.9798 57.0033 48.4448 56.9622 48.8687C56.6858 49.1454 56.8328 49.6163 56.627 49.9518Z" fill="#006EB5"/>
<path d="M51.0813 48.7155C51.3695 48.4153 51.9752 48.4271 52.0046 47.9973C51.5871 47.9385 51.3695 48.1622 51.0813 48.3917C51.046 48.4859 50.9108 48.6566 51.0813 48.7155Z" fill="#006EB5"/>
<path d="M48.1232 60.3123C49.0112 60.0121 50.0403 60.0592 50.9989 59.9061C50.8048 59.8355 50.6167 59.7825 50.4696 59.5941C49.9051 59.5588 49.6404 58.9702 49.464 58.5287C49.3817 58.2049 49.5934 57.94 49.7287 57.6633C49.4876 57.1688 48.7466 57.5338 48.3114 57.3513C48.1938 57.2571 48.1115 57.11 47.9409 57.0864L48.1232 57.3513C48.1232 58.3344 48.2408 59.341 48.1232 60.3123Z" fill="#006EB5"/>
<path d="M60.7966 55.9912C60.4614 56.6505 59.7204 57.0685 59.1558 57.5747C58.3796 58.3577 57.1093 58.5225 56.7094 59.6527C56.2919 60.0354 56.1449 60.6358 55.5568 60.8536C55.3392 61.4305 54.7276 61.3952 54.3807 61.8131C53.3751 62.7138 52.7282 61.2362 51.8167 61.0596L49.9819 61.3834C49.3468 61.3834 48.7117 61.613 48.1118 61.407C48.1941 62.6314 48.1941 63.95 48.1118 65.1744L48.3412 65.0273C54.116 64.7741 59.097 62.5843 63.3782 58.6932L60.8495 56.2855L60.7966 55.9912Z" fill="#006EB5"/>
<path d="M58.7026 42.6934L59.0731 43.0642C59.4436 43.3174 59.1907 43.8589 59.5847 44.0708C60.0493 44.3122 60.2199 44.8538 60.4257 45.26C60.4963 45.154 60.4963 45.0186 60.5316 44.9126C60.6962 44.2533 60.6727 43.5116 60.8785 42.8641C60.1611 42.8994 59.3378 42.97 58.7026 42.6934Z" fill="#006EB5"/>
<path d="M51.8812 29.7191C50.6698 29.2894 49.3466 29.1069 48.0234 28.9009L48.1411 29.1658L48.1175 32.4152L48.4292 32.3564C50.4228 32.633 52.2399 33.2688 53.8101 34.5521L53.8924 34.8052C54.4334 34.0517 55.245 33.3983 55.8801 32.6801L56.4799 32.3328L56.1918 32.2151C54.8804 31.1084 53.4396 30.2666 51.8812 29.7191Z" fill="#006EB5"/>
<path d="M46.2179 50.6697C46.3002 50.346 46.1708 49.9398 46.3355 49.6631C46.4531 49.3982 46.7765 49.41 47.0176 49.4571C47.1588 49.4453 47.247 49.2628 47.1588 49.1451C46.8118 49.0744 46.9706 48.6918 46.8471 48.474C46.8589 48.3563 47.0647 48.3798 47.0118 48.2209C46.7707 48.0266 47.1353 47.8147 46.9294 47.6087C46.9882 47.5675 47.0353 47.5027 47.0882 47.4556C46.3649 47.7617 45.5886 47.3202 44.9476 47.0318C44.6359 46.8493 44.1831 46.6727 44.1067 46.29C43.5892 47.1318 42.6071 47.8971 41.8896 48.6741C43.1834 49.7337 44.6242 50.3931 46.2179 50.6697Z" fill="#006EB5"/>
<path d="M29.5992 43.0997L29.8579 45.3072C29.9697 46.1608 30.3402 46.9732 30.3108 47.8149C30.446 47.6325 30.3578 47.2793 30.6812 47.2381C30.546 46.9732 30.9341 46.7495 30.7165 46.5199C30.8224 45.943 30.893 45.3543 31.3987 44.9364C32.0103 44.9128 32.0573 44.1063 32.6689 44.071C32.9806 44.0592 33.1747 44.4772 33.3041 44.6244C32.9218 44.1593 32.9453 43.3882 33.0394 42.8643L32.7748 42.982C31.6633 42.9584 30.4989 43.0526 29.4463 42.8996L29.5992 43.0997Z" fill="#006EB5"/>
<path d="M43.3778 45.4892L42.972 45.2832C42.9014 45.5834 42.6956 45.8483 42.478 46.0602L42.5133 46.0838C42.8015 45.8836 43.0073 45.5128 43.3778 45.4892Z" fill="#006EB5"/>
<path d="M33.5041 55.3789C33.0983 55.0904 32.7396 54.6254 32.3926 54.2251C31.9986 54.1191 31.5869 53.8424 31.387 53.4598C31.2694 53.3244 31.3752 53.089 31.2458 52.9889L31.0988 53.1714C30.6813 53.3774 30.5225 52.9418 30.2402 52.7652C29.8698 52.5591 30.0462 51.8528 29.5463 51.9881C29.3523 51.9764 29.2934 51.7586 29.1758 51.6408C28.7113 51.6879 28.5936 51.1699 28.3408 50.9227C28.2937 51.0286 28.3408 51.1758 28.1937 51.2464C27.7174 51.3524 27.5469 50.7637 27.2234 50.5282C27.1411 50.5636 27.0823 50.6578 26.9588 50.6342C26.6706 50.3811 26.4825 50.022 26.4648 49.6276C26.0708 49.1802 26.2472 48.4738 26.3237 47.9381C26.3942 47.7909 26.6001 47.7085 26.5648 47.5319C26.6706 47.2788 26.9353 47.2553 27.1881 47.2435C27.2822 47.2906 27.3822 47.3907 27.4293 47.4731C27.5822 47.3789 27.9291 47.4848 27.7997 47.1375C28.0056 46.955 28.3055 46.8962 28.576 46.8491C28.7642 47.0904 28.8642 47.3671 29.117 47.5908L28.9524 47.3259C28.6642 46.1486 28.4349 44.9477 28.3761 43.6762C28.3878 43.6055 28.2173 43.5702 28.3172 43.4937L28.3408 43.529C28.3525 43.2641 28.329 43.0345 28.3761 42.8579L28.0526 42.9757L24.7241 42.9521C24.9182 46.7902 25.9356 50.281 27.6586 53.4834C28.5113 55.0669 29.758 56.4914 30.846 57.969L33.2335 55.4966L33.5041 55.3789Z" fill="#006EB5"/>
<path d="M46.4476 56.9392C43.5366 56.7921 40.9843 55.7266 38.7203 54.0371C38.7908 54.3256 39.1731 54.508 39.0672 54.8671C38.8614 55.1909 38.4439 55.2027 38.1087 55.1909C37.4265 55.0849 36.9208 55.5971 36.2739 55.6677C35.6858 55.8502 35.4859 55.1261 34.9448 55.1909C38.2733 58.1048 42.084 59.9297 46.5416 60.1651L46.8768 60.3947L46.7298 59.9885V56.8215L46.4476 56.9392Z" fill="#006EB5"/>
<path d="M37.338 27.3763C36.5971 27.8944 35.909 28.5654 35.1445 29.0187C36.0325 29.5838 36.7617 30.5198 37.5615 31.2615L37.6438 31.4911C39.6786 29.5367 42.1603 28.3947 44.836 27.8473C45.4711 27.7884 46.1062 27.5706 46.7296 27.7001C46.6825 26.5581 46.5826 25.3749 46.7061 24.2446C43.2364 24.4507 40.1196 25.5103 37.338 27.3763Z" fill="#006EB5"/>
<path d="M40.6723 44.9364C40.5547 44.8775 40.537 44.8893 40.4429 44.9952C40.3841 44.9952 40.3136 45.007 40.2665 44.9717C40.2665 44.2888 39.502 44.695 39.2139 44.3359C39.5491 44.9599 39.7314 45.6663 40.0783 46.2903C40.2959 46.8437 40.7723 47.2734 40.9899 47.8149C41.2192 47.3852 41.672 47.0379 41.9955 46.6376C42.019 46.4551 41.9837 46.3021 41.8896 46.1726C41.7779 45.9194 41.8779 45.5604 41.6838 45.3484C41.3721 45.4544 41.7955 45.7664 41.6603 45.9489C41.5309 46.0313 41.3839 45.9253 41.3721 45.8017C41.0957 45.7546 40.8781 45.5133 40.7958 45.2601C41.0193 45.113 40.7311 45.0541 40.6723 44.9364Z" fill="#006EB5"/>
<path d="M34.4859 39.897C34.3506 40.4739 34.4271 41.145 34.1978 41.6866C34.6153 41.4923 35.2269 41.5688 35.6973 41.6277C35.4209 41.4864 35.6503 41.1332 35.4915 40.9449C35.4562 40.6446 35.4092 40.2738 35.6973 40.0795C35.6621 39.585 36.1854 39.3378 36.2384 38.8904C36.3677 38.39 36.9441 38.7256 37.2205 38.4607C37.3969 38.3665 37.244 38.1958 37.244 38.0663C37.4851 37.7425 37.8556 37.7543 38.1437 37.5718C38.3495 37.2598 38.6083 36.9243 38.9494 36.73C39.6668 36.7535 39.6786 35.7469 40.3608 35.7234C39.4257 35.017 38.5436 34.0692 37.7144 33.251C36.0561 35.2348 34.9328 37.4187 34.4859 39.897Z" fill="#006EB5"/>
<path d="M34.2623 30.0313L32.9685 31.6737C30.8456 34.5876 29.84 37.9607 29.54 41.6281L32.8215 41.5692L33.1332 41.687C33.0038 41.6045 33.0391 41.4574 32.9862 41.3396C33.2508 37.9195 34.4505 34.8761 36.8086 32.333C35.8971 31.5442 35.0503 30.7024 34.2799 29.8018L34.2623 30.0313Z" fill="#006EB5"/>
<path d="M34.9448 44.7713C34.9801 44.5535 34.6567 44.4946 34.692 44.2768C34.9213 43.8353 34.7037 43.1112 35.2918 42.9229C34.8743 42.9935 34.4979 43.0818 34.1392 42.8169L34.3215 43.1053C34.345 43.9 34.6567 44.6535 34.492 45.4541C34.6214 45.2245 34.6567 44.9125 34.9448 44.7713Z" fill="#006EB5"/>
<path d="M36.1853 42.9228L36.0912 43.5585C35.9442 43.9294 35.4797 43.6527 35.2621 43.9058C35.1092 44.1472 35.2738 44.4003 35.4091 44.5887C35.0739 45.3599 36.1618 45.5953 36.1559 46.2899C36.4911 46.7197 36.1089 47.3437 36.5852 47.7322C36.6911 48.5092 36.4794 49.5688 37.1615 50.181L37.2792 50.9228C37.4203 51.4349 36.6676 51.3054 36.7617 51.7587C36.9028 51.688 36.944 51.8764 36.9557 51.9235V51.8999C37.879 50.8345 38.9434 49.7042 40.0372 48.7565L39.5785 48.3032C38.7258 47.0317 38.0554 45.6777 37.732 44.1884L37.385 44.0059C37.3733 44.3886 37.1909 44.6888 37.2204 45.0714L37.0969 45.2186C36.844 45.2068 36.6911 45.0008 36.4735 44.8713C36.4264 44.7417 36.2912 44.5239 36.497 44.418C36.6205 44.4062 36.7028 44.4415 36.7852 44.5004C36.891 44.3709 36.844 44.1766 36.9028 44.0118C36.9381 43.7234 36.6852 43.4585 36.8675 43.2112C37.0969 43.1877 37.2674 43.4643 37.3615 43.6174C37.5908 43.688 37.7673 43.4997 37.9613 43.4114C37.9613 43.2053 38.2495 42.9345 37.9378 42.8109C38.1083 42.3459 37.9848 41.8514 37.9143 41.3981C37.7849 41.0037 37.338 41.0744 37.0145 41.1097C36.0442 41.4217 37.1674 42.1516 36.9322 42.7521C36.7969 43.0994 36.4382 42.7756 36.1853 42.9228Z" fill="#006EB5"/>
<path d="M44.3832 52.4594C44.6478 52.1769 44.9536 51.9944 45.283 51.8708C44.2244 52.0886 43.2776 51.3174 42.372 50.8995C41.8545 50.5168 41.1841 50.2048 40.8724 49.6279C40.1667 50.4933 39.3258 51.3939 38.4907 52.0768C38.8612 52.1003 39.067 52.5065 39.3728 52.689C41.1723 54.1901 43.4129 54.9083 45.4947 55.4263L44.9184 55.1614C44.4891 54.6669 43.8775 54.0959 43.854 53.4131C44.2891 53.26 44.2362 52.7773 44.3832 52.4594Z" fill="#006EB5"/>
<path d="M61.167 28.9361C61.4199 28.995 61.4904 29.2952 61.661 29.4777C62.5372 29.9427 62.7607 30.8787 63.531 31.4085C63.9603 32.3092 64.9542 33.0038 64.9954 34.034C66.0362 36.3357 66.7419 38.7727 66.8125 41.4806L66.7184 41.6219C66.8302 41.6219 66.9242 41.5748 67.0066 41.5159L70.4586 41.4571C70.2292 41.1215 70.3292 40.627 70.2704 40.2209C69.8117 34.8875 67.5358 30.3136 63.9662 26.2871C63.3076 27.176 62.4078 28.0001 61.5845 28.8537L61.167 28.9361Z" fill="#006EB5"/>
<path d="M28.3933 41.6632L28.311 41.1982C28.5404 37.3718 29.7636 33.9634 31.9041 30.92C32.4393 30.3078 32.8333 29.5425 33.5096 29.0834C32.7333 28.3534 31.9159 27.4999 31.0985 26.6934L31.0162 26.3696C27.5994 30.1724 25.4941 34.5109 24.8825 39.4675C24.7473 40.1857 24.8355 40.9333 24.6885 41.6632C25.8881 41.569 27.1937 41.569 28.3933 41.6632Z" fill="#006EB5"/>
<path d="M34.427 28.1825L34.4858 28.0177C37.9849 24.8271 42.0543 23.0729 46.7295 22.861L46.6178 22.5725L46.5825 19.6939L46.6825 19.3584C41.8661 19.5527 37.5908 21.195 33.7919 23.9265C33.0627 24.4268 32.4099 25.198 31.6689 25.6277H31.7748C32.7275 26.3223 33.6272 27.3172 34.427 28.1825Z" fill="#006EB5"/>
<path d="M46.7295 33.7456C44.8006 33.9987 43.0247 34.658 41.6133 36.1533H41.8779C42.1661 36.4417 42.6306 36.3828 42.8482 36.7655C42.9541 36.9833 42.6424 36.9538 42.6542 37.1363C42.713 37.1834 42.7953 37.1952 42.8482 37.2776C43.0717 37.36 43.0247 37.1481 43.107 37.048C43.4069 36.7478 43.4539 37.3365 43.7421 37.3365C43.9479 37.207 44.2302 37.1952 44.3772 37.4189C44.5654 37.2482 44.9771 37.4071 45.0359 37.0951C45.4063 36.7007 45.2064 36.0885 45.7533 35.8354C45.9415 35.9413 45.7416 36.1238 45.8121 36.2945C46.1826 36.4535 46.6001 35.9825 46.9 36.3534C46.6354 35.5823 46.706 34.6109 46.7295 33.7456Z" fill="#006EB5"/>
<path d="M2.58887 0.750977V90.7288H92.4583V0.750977H2.58887ZM79.6912 47.6089C78.4327 49.3985 76.9096 51.0644 75.7511 52.8893C75.8805 51.447 76.051 49.6751 75.4865 48.3094C74.5162 45.372 73.6634 42.3874 73.3929 39.1615L73.4282 37.9253C74.1574 41.2219 77.3918 43.4882 77.1919 47.1851C77.2625 48.0798 76.9861 48.8392 76.8214 49.628L76.8802 49.6869L77.0213 49.5221C77.5036 47.709 77.7388 45.8017 78.4857 44.1122C79.5501 41.6751 80.8674 39.2204 80.3322 36.2829C81.9435 39.7443 81.4495 44.3712 79.6912 47.6089ZM77.7035 28.9364C79.8265 31.815 80.291 36.3948 78.7444 39.6913C78.1681 41.0924 77.7623 42.5817 77.533 44.1299C77.4271 43.865 77.4036 43.5059 77.3095 43.2057C76.4686 39.9798 73.4106 37.6781 72.158 34.6288C71.764 33.6339 71.4288 32.6038 71.2347 31.5206C72.5755 34.0048 75.8805 35.2881 76.7802 38.0195C77.1507 38.7141 77.1272 39.5795 77.3566 40.3212C77.4036 40.3212 77.4506 40.2859 77.4506 40.2388C77.0566 37.4191 77.1742 34.4698 77.5565 31.6855C77.533 30.1726 77.3918 28.7127 76.5509 27.5471C77.0919 27.8709 77.333 28.4713 77.7035 28.9364ZM76.2039 28.3889C76.7685 30.9084 75.951 33.369 76.4686 35.9062L76.445 35.9297C75.0748 33.2337 72.1697 31.9621 70.1703 29.8017C69.0059 28.5184 68.506 26.9585 68.2179 25.3043C69.3705 28.0769 72.4579 28.6832 74.2339 31.0144C74.8337 31.5559 75.0278 32.2977 75.41 32.9099L75.4688 32.851C74.4515 30.6671 74.1045 28.2123 73.3988 25.8812C73.0401 24.8746 72.3344 23.8797 71.3817 23.244C73.6987 23.7208 75.7276 26.1579 76.2039 28.3889ZM69.9762 22.6082C71.7346 24.1799 72.5285 26.2167 73.0401 28.3242L73.3282 28.9952C70.776 27.1586 68.4649 24.6921 66.8359 22.0902L64.8482 20.0769C66.5948 20.8187 68.4766 21.2602 69.9762 22.6082ZM36.6442 20.6538C39.961 19.0114 43.5952 18.1343 47.5471 18.0637C56.5799 18.0755 65.207 23.3911 69.1353 31.762C71.6287 36.5714 72.3344 43.1939 70.7172 48.6214C69.0765 55.0379 63.6838 61.525 57.4091 64.1622C50.3405 67.6295 40.2962 66.7641 33.9979 62.2432C25.2415 56.2329 21.6601 45.8841 24.3064 35.6707C25.9119 29.5957 30.74 23.4677 36.6442 20.6538ZM29.7226 20.4125C27.9584 21.9607 26.7411 23.915 25.4296 25.7399C24.2594 27.1939 22.7598 28.1476 21.4307 29.4014C22.1482 27.9121 22.1717 26.1402 23.1891 24.7745C24.6416 22.2315 27.3232 21.3485 29.7226 20.4125ZM20.0841 25.7929C20.9368 24.7274 22.0247 23.9798 23.2479 23.6737C20.878 25.3043 21.0309 28.23 20.2781 30.6671C20.037 31.5677 19.6195 32.3919 19.4137 33.3161L19.4783 33.3632C19.8723 32.3212 20.5663 31.3381 21.4307 30.4846C23.1185 28.9246 25.6119 27.9533 26.4353 25.6516C26.4 28.854 23.7301 31.3735 21.1779 33.1689C20.1252 34.0931 19.1079 35.1468 18.5315 36.3359C18.4727 35.5294 18.6492 34.7171 18.5904 33.8518C18.314 31.0615 18.1081 27.8709 20.0841 25.7929ZM15.2854 35.3528C15.2148 32.5214 16.3851 30.2079 18.0376 28.0946C18.0846 28.071 18.1199 28.0239 18.1846 28.0357C16.3616 30.8083 17.8729 34.2991 17.7906 37.4485L17.5495 40.6744C17.5847 40.698 17.5847 40.7921 17.6671 40.7568C17.7729 40.3977 17.8023 40.0151 17.8729 39.6442C18.3022 37.0423 20.5545 35.1939 22.5304 33.3985C22.948 32.9334 23.3185 32.4507 23.536 31.8974C23.3773 33.1924 22.9715 34.4993 22.4364 35.7002C20.9015 38.6965 18.0611 41.1571 17.5436 44.589C17.2966 41.3043 15.056 38.8436 15.2854 35.3528ZM13.9034 39.3852C14.1092 38.4963 14.2621 37.5839 14.6444 36.7715C13.9152 40.5155 16.4321 43.2116 17.2554 46.461C17.6024 47.6737 17.6847 48.9805 18.1787 50.1166C18.2257 50.1402 18.261 50.0931 18.2963 50.0578C17.0614 46.6023 18.8373 43.3999 20.6192 40.7038C21.0544 39.9739 21.3014 39.1556 21.519 38.3197C21.7071 39.8797 21.319 41.6751 21.0897 43.2999C20.6545 45.3602 20.0076 47.3146 19.4489 49.3219C19.0785 50.5699 19.1725 51.9827 19.3666 53.2895L19.1843 53.1483C17.8788 50.7406 15.2913 48.8569 14.5209 46.2138C13.8916 44.1063 13.4741 41.6751 13.9034 39.3852ZM13.7858 46.7024C14.0739 50.67 18.3375 52.7715 20.3134 56.0563C20.7839 56.7274 21.1896 57.4691 21.813 58.0342C21.7189 57.6163 21.3249 57.2572 21.1779 56.8216C20.4839 55.4441 20.2311 53.8017 20.4016 52.1358C20.5957 50.1107 21.4425 48.227 21.1191 46.0901C22.8598 49.8458 22.3305 54.5199 23.3008 58.5876C23.5537 59.4764 24.0653 60.2653 24.4005 61.1188C20.8309 58.6817 15.9675 56.3683 14.3856 51.9121C13.7152 50.3698 13.6388 48.4625 13.7858 46.7024ZM15.9146 55.8149C17.9023 60.3241 22.8892 60.695 26.2294 63.4441C26.841 63.9856 27.4879 64.4507 28.1818 64.7745L28.2171 64.7391C27.4467 64.0445 26.5646 63.2498 26.0236 62.3491C24.0712 59.6295 24.7534 55.8149 23.2949 52.8893C24.624 54.4845 25.8354 56.1387 26.6352 57.9518C27.8349 60.901 28.2877 64.2388 31.0575 66.4698C28.0642 65.4867 24.5534 65.7634 21.9188 63.915C19.0314 62.1313 16.4556 59.1232 15.9146 55.8149ZM21.0309 64.2211C24.2182 67.8532 29.4285 66.6405 33.6803 67.5883C34.2802 67.6707 34.833 67.912 35.4681 67.8179C34.9623 67.4941 34.2566 67.5294 33.7097 67.241C30.3753 66.0636 29.8872 62.4551 28.076 60.0239C30.3871 61.5603 32.3278 63.6324 34.4625 65.6339C35.9973 66.9761 37.838 67.6001 39.7845 67.9945C39.3141 68.1593 38.7084 68.1122 38.2026 68.2476C34.7153 69.107 30.834 70.514 27.1292 69.2542C24.724 68.5007 22.2423 66.5934 21.0309 64.2211ZM64.3307 72.6861C60.7376 74.0283 56.9857 72.6273 54.1806 70.4904C53.0397 69.7722 52.0341 68.7303 50.5639 68.8245C50.0347 68.8127 49.523 68.8363 49.0643 68.9658C51.7989 70.2373 54.3217 71.9856 56.6505 74.2285C56.2565 74.6758 55.7507 75.0938 55.2744 75.4764C53.0456 73.0688 50.5639 70.7494 47.8 69.3955C47.2589 69.4661 46.7473 69.7899 46.2533 70.0548C44.001 71.4794 41.7722 73.316 40.0962 75.5588L38.6554 74.3697C40.9548 72.0445 43.4953 70.2314 46.2769 68.9363C43.5482 68.071 41.7605 70.3609 39.6846 71.5265C37.2676 73.216 33.7921 74.0106 30.8693 72.8451C29.2992 72.2446 27.7761 71.3675 26.6411 69.943C28.9404 71.5265 32.3689 71.6913 34.98 70.6611C38.4908 69.1365 42.1309 67.2057 46.3651 68.1299C47.0237 68.1416 47.6706 68.8009 48.294 68.2358C51.4343 67.4176 54.9921 67.9827 57.6972 69.4249L60.4906 70.5434C63.0781 71.5029 66.4301 71.238 68.6472 69.6545C67.5063 71.0909 65.9479 72.1092 64.3307 72.6861ZM68.1885 68.9716C64.1484 70.4963 60.0907 68.6243 56.2212 68.0004L55.4802 67.9062V67.8826C57.3268 67.4647 59.1204 66.9113 60.5965 65.5809C62.7664 63.497 64.6953 61.3484 67.1005 59.706C65.3128 61.9959 65.1246 65.2572 62.1784 66.7347C61.4492 67.2115 60.5259 67.2998 59.7731 67.6589C60.8493 67.6825 61.8314 67.2998 62.8958 67.1939C66.8477 66.5699 71.3758 67.2056 74.1457 63.8385C73.1165 66.1755 70.5408 68.1416 68.1885 68.9716ZM70.429 64.8569C68.3708 65.4102 66.1655 65.5868 64.1661 66.2697C67.5592 63.3558 67.3652 58.8466 69.6293 55.4146C70.3526 54.4433 70.9466 53.4249 71.7816 52.5007C70.4055 55.2734 71.0054 58.8583 69.4234 61.5427C68.8118 62.6082 67.9356 63.6442 66.9771 64.4801C67.2887 64.4683 67.5651 64.1917 67.8415 64.0151C70.4173 61.4485 73.7693 60.7303 76.5509 58.6405C77.6682 57.7516 78.6856 56.592 79.1737 55.3322C78.6444 59.5942 74.4162 63.5853 70.429 64.8569ZM75.5218 57.5986C73.9281 58.6405 72.3109 59.6118 70.776 60.8009V60.6597C73.1224 56.7509 71.9757 51.3882 73.4223 47.0968L73.9634 45.6545C73.6634 48.3271 74.8278 50.5993 74.7455 53.2837C74.6632 54.9025 74.1339 56.3388 73.2871 57.6339H73.4282C74.5808 56.121 75.4747 54.514 76.8214 53.0776C78.9032 51.0644 81.0261 48.9982 81.3025 46.2079C82.0023 50.8701 79.3913 54.9614 75.5218 57.5986Z" fill="#006EB5"/>
<path d="M66.8947 42.864L66.6889 42.7168L66.8065 43.0406C66.6183 47.0317 65.2834 50.5578 63.0076 53.6896C62.5665 54.2194 62.149 54.8669 61.5962 55.2377C62.5077 55.9559 63.5133 57.0391 64.266 57.8632L64.3601 57.6807C68.0238 53.4953 70.1115 48.6506 70.3408 43.0347L70.482 42.7462L70.2997 42.8286L66.8947 42.864Z" fill="#006EB5"/>
<path d="M46.5652 28.9952C43.5248 29.213 40.8844 30.4845 38.5732 32.3918C39.4848 33.0276 40.2963 34.046 41.1255 34.7759C41.1843 34.6935 41.2431 34.6052 41.3078 34.511C42.4486 33.6928 43.6189 32.951 44.9597 32.6155C45.5596 32.5566 46.1476 32.2682 46.771 32.4095C46.6416 31.2792 46.6416 30.0371 46.771 28.8716L46.5652 28.9952Z" fill="#006EB5"/>
<path d="M48.0587 22.5432C48.0587 22.4372 48.1057 22.3372 48.1704 22.2547C48.3351 22.1606 48.4821 22.3018 48.5527 22.4196C48.5645 22.5844 48.635 22.8728 48.4939 22.9729C48.635 22.9965 48.7056 22.8905 48.8408 22.8905C51.5871 23.0965 54.1276 23.8971 56.4035 25.1922V25.1333C56.868 24.9037 57.4679 24.6035 57.9442 25.0156C58.5205 24.7978 58.6264 25.5101 59.0968 25.5925C59.6614 25.928 60.2965 26.552 60.3671 27.2113C60.4729 27.4291 60.8081 27.5822 60.8611 27.8118C61.2433 26.9935 62.0137 26.4225 62.6723 25.7102L63.0781 25.5395C59.4615 22.084 55.1626 20.1768 50.3639 19.5174C49.5936 19.3821 48.7585 19.4586 48.0293 19.229C48.1704 20.1826 48.1352 21.4777 48.0587 22.5432ZM58.844 24.1503C59.0851 24.2209 59.3027 24.3327 59.385 24.5859C59.3262 24.8625 59.6379 25.0862 59.4438 25.304C58.7969 25.4748 58.7381 24.7389 58.2324 24.5623C58.1618 24.4681 58.1383 24.3445 58.15 24.215C58.3794 23.9383 58.5911 24.3916 58.844 24.1503ZM48.5527 21.9722C48.6468 21.7779 48.9232 21.8486 49.0702 21.9133L50.7932 21.1716C51.4872 21.2305 52.2575 21.3188 52.6633 21.8898V21.9781C52.234 22.3372 51.6812 22.6256 51.1049 22.3843C50.3169 22.5432 49.2113 22.9965 48.5762 22.1841C48.5527 22.1135 48.4821 22.0311 48.5527 21.9722Z" fill="#006EB5"/>
<path d="M48.0588 27.7001C48.5175 27.5412 48.9821 27.7355 49.4408 27.7472C51.7872 28.1299 54.0043 28.8892 55.8861 30.3374C55.6626 30.096 55.3863 29.8193 55.3333 29.472C55.3686 29.4249 55.4215 29.4132 55.4803 29.4249C55.5039 29.0541 55.1099 28.8598 55.051 28.5243C55.1099 28.4536 55.1981 28.383 55.3157 28.4183C55.7215 28.8009 56.0684 29.2248 56.3683 29.6545C56.633 29.5486 56.8447 29.7134 57.0387 29.8606C57.3857 30.0666 57.1681 30.5081 57.4328 30.7494C57.4798 31.4558 58.3443 31.8502 58.2913 32.5625C58.3031 32.7274 58.5089 32.5979 58.5795 32.6803L59.2969 33.5692C59.1617 33.7399 59.2675 33.94 59.4146 34.0636C59.738 34.2049 59.9203 33.7987 60.2437 33.8576C60.7083 34.1225 60.1732 34.4345 60.2202 34.7229C60.4025 34.7347 60.626 34.5817 60.773 34.7583C60.8318 35.0232 60.5613 35.188 60.4496 35.3587C60.4496 35.6236 60.6613 35.5647 60.8553 35.6236C61.0729 35.6118 61.2023 35.8767 61.1435 36.0533C61.7433 36.6773 60.9671 37.3484 61.2494 38.0077C61.4434 38.4374 61.2023 38.8554 60.9377 39.185C60.9494 39.7148 60.4672 40.0386 60.279 40.4801L59.6674 40.5978C59.344 40.9216 59.9438 41.3219 59.6204 41.5221L60.9612 41.5456L60.8142 41.3984C60.6201 40.8686 60.6672 40.1622 60.9906 39.6972C61.1905 39.2675 61.2435 38.7494 61.6257 38.3786C61.7081 38.355 61.8668 38.1961 61.9374 38.3786C61.9609 38.7847 61.9256 39.2557 61.7316 39.6148C62.1138 40.1681 62.0668 40.8863 62.1021 41.5691C63.29 41.4985 64.4485 41.475 65.6129 41.4867L65.507 41.2572C65.3247 39.0379 64.8719 36.9363 63.9486 35.0467C63.7016 35.0585 63.5193 35.2645 63.2312 35.188C63.1371 35.1527 63.0783 35.0585 63.0841 34.9466C62.6019 34.4934 62.3079 33.8929 61.7669 33.4867C61.1553 33.5456 60.8789 32.8392 60.332 32.7686C59.8439 32.5625 60.1791 31.7737 59.4675 31.9915C59.1205 31.8502 58.7853 31.5853 58.7148 31.1909C58.7148 30.567 58.5971 29.8959 58.0326 29.4897C57.6033 29.3308 57.421 29.9076 56.9917 29.8135C56.7506 29.6957 56.8564 29.3837 56.7859 29.1777C56.7035 28.9952 56.4977 28.8657 56.5389 28.6243C57.1034 27.8826 55.8567 27.8944 56.1272 27.1586C56.0567 26.6288 55.5156 26.4286 55.2392 26.0048C53.3868 25.163 51.5285 24.592 49.4291 24.3388C48.9116 24.2682 48.4352 24.3742 47.9883 24.1328L48.1118 24.3624C48.1 25.475 48.1706 26.6582 48.0588 27.7001Z" fill="#006EB5"/>
<path d="M46.853 39.1199C46.4943 39.7203 45.8944 39.8498 45.3299 40.0205C45.1711 40.2148 45.2123 40.6327 44.8418 40.5974C44.7183 40.8623 44.3125 41.0154 44.4713 41.398C44.2772 41.8042 44.3772 42.334 44.2655 42.7755C43.5598 43.2229 43.7656 42.1868 43.401 41.9749L43.2834 42.1809C43.1422 42.2163 43.0423 42.1338 42.9482 42.0396C42.8364 42.0043 42.66 41.969 42.5659 42.0632C42.4071 42.3281 42.166 42.54 42.2307 42.905C42.1602 43.1228 41.8014 43.0463 41.8485 43.2759C42.2425 43.2641 42.6777 43.1934 43.0599 43.1051C43.3363 43.1758 43.5656 42.9756 43.842 42.958C43.9361 43.0051 44.0479 43.1051 44.0067 43.2464H44.1008C44.289 43.0993 44.3772 42.8873 44.289 42.6695C44.3125 42.4164 44.5889 42.4164 44.7594 42.3458C44.9123 42.4164 44.8182 42.5753 44.8418 42.6931C45.3769 42.8991 44.7124 43.2935 44.6359 43.582C44.4889 43.8115 44.6359 44.3237 44.1831 44.253C44.1008 44.2295 44.0361 44.1471 44.0655 44.047H44.0067C43.9949 44.2413 44.142 44.5003 44.3301 44.5886C44.6653 44.3119 44.6771 43.8469 45.1534 43.7821C45.4063 43.5172 45.0476 43.111 45.4181 42.8932C46.0414 42.8814 46.7118 42.6165 47.2058 43.1228C47.1647 43.3406 47.0823 43.4348 47.2646 43.6173C47.147 43.894 47.0647 44.1942 46.8353 44.4238C46.8941 44.5768 46.8471 44.7711 46.7118 44.877C46.5472 45.607 45.7062 45.2597 45.2181 45.5128C45.9709 46.0897 46.8824 46.3016 47.8645 46.231C48.382 46.2074 48.1526 45.5717 48.4173 45.2832C48.5819 44.4414 49.3523 45.0183 49.8169 44.7946C49.9933 44.4355 50.1756 44.0882 50.2226 43.6761C49.9227 43.4878 49.8051 43.1228 49.8992 42.7755C49.6993 42.4988 49.7228 41.9984 49.2758 41.9514C49.2053 41.8572 49.2641 41.7335 49.3229 41.6629C49.3111 41.398 49.5758 41.3156 49.6463 41.1096C49.3699 40.933 49.4464 40.5327 49.4699 40.309C48.9994 40.4385 48.9524 39.8263 48.6054 39.6968C48.5231 39.4201 48.2232 39.373 47.9821 39.3259C47.4058 39.6026 47.3058 38.8903 46.8765 38.7255C46.8295 38.596 46.7295 38.4017 46.8765 38.2957C47.0882 38.1132 47.3764 38.2722 47.6292 38.2604L47.4293 38.1544C47.2352 37.9366 46.8177 38.072 46.5707 38.1544C46.8059 38.3899 46.706 38.8196 46.853 39.1199Z" fill="#006EB5"/>
</svg>
