<svg width="115" height="115" viewBox="0 0 115 115" fill="none" xmlns="http://www.w3.org/2000/svg">
<circle cx="57.5" cy="57.5" r="57.5" fill="#FD97BE"/>
<path d="M56.7873 28.9872C56.4468 28.4713 55.8634 28.1692 55.2453 28.187C54.6273 28.2056 54.0631 28.5428 53.754 29.0783C53.754 29.0783 52.1416 31.8717 49.9323 35.6976C49.7883 35.9469 49.6489 36.1986 49.5132 36.4522L67.7297 45.5604L56.7873 28.9872Z" fill="#FA5915"/>
<path d="M89.5401 47.2912H88.3684L85.5816 44.504C83.0239 41.9465 78.8619 41.9468 76.3037 44.5041L70.0829 50.7254L33.0227 32.1956C32.4698 31.9191 31.8133 31.9486 31.2873 32.2737C30.7615 32.5986 30.4414 33.1727 30.4414 33.7909V41.4329C30.4414 54.8478 40.3203 65.8436 53.0534 67.7552L34.7849 86.0236C34.2747 86.5337 34.1222 87.301 34.3982 87.9674C34.6743 88.6339 35.3247 89.0686 36.046 89.0686H47.509C47.9822 89.0686 48.4357 88.8806 48.7702 88.5461L55.8899 81.4265H61.8378C74.9359 81.4265 85.5922 70.7703 85.5922 57.6721V53.6346L88.3684 50.8584H89.5401C90.5251 50.8584 91.3237 50.0598 91.3237 49.0747C91.3237 48.0897 90.5251 47.2912 89.5401 47.2912Z" fill="#FA5915"/>
</svg>
