<svg width="103" height="106" viewBox="0 0 103 106" fill="none" xmlns="http://www.w3.org/2000/svg">
                                <path d="M51.5597 2.99597e-05C80.0738 0.0303156 103.256 23.4043 102.998 51.849C102.898 64.5339 98.0799 76.7298 89.4781 86.0718C88.7311 86.8854 88.2304 87.8934 88.0339 88.9791C87.8374 90.0649 87.9532 91.184 88.3679 92.2068L88.383 92.2457C89.7168 95.528 91.6382 98.5408 94.0533 101.137C95.788 103.004 94.4566 106.034 91.9066 106C87.3986 105.939 81.5895 105.057 75.7393 101.874C74.9717 101.457 74.2453 101.022 73.5579 100.576C72.7975 100.08 71.9332 99.7627 71.0312 99.6503C70.1292 99.5378 69.2134 99.6326 68.3538 99.9274C63.0264 101.764 57.4325 102.714 51.7961 102.74C23.269 102.902 -0.077858 79.6815 0.000198364 51.2217C0.0891037 22.9046 23.1432 -0.0302557 51.5597 2.99597e-05ZM51.5055 81.0919C52.7098 81.0919 53.887 80.7357 54.8883 80.0682C55.8896 79.4007 56.67 78.4521 57.1308 77.3421C57.5917 76.2321 57.7123 75.0108 57.4773 73.8325C57.2424 72.6541 56.6625 71.5718 55.811 70.7222C54.9594 69.8727 53.8745 69.2942 52.6934 69.0598C51.5123 68.8254 50.288 68.9457 49.1755 69.4055C48.0629 69.8652 47.1119 70.6438 46.4429 71.6427C45.7739 72.6417 45.4168 73.8161 45.4168 75.0175C45.4168 76.6286 46.0582 78.1736 47.2001 79.3128C48.342 80.452 49.8907 81.0919 51.5055 81.0919ZM40.6442 25.3513L43.1703 58.9705C43.2359 59.8351 43.6264 60.6431 44.2637 61.2328C44.901 61.8224 45.738 62.1502 46.6072 62.1505H55.9811C56.8433 62.1505 57.6743 61.8282 58.3101 61.2472C58.9459 60.6661 59.3404 59.8685 59.4158 59.0116L62.3626 25.3924C62.4047 24.9173 62.3473 24.4388 62.1939 23.9871C62.0405 23.5355 61.7945 23.1206 61.4716 22.769C61.1488 22.4174 60.756 22.1367 60.3184 21.9447C59.8809 21.7528 59.408 21.6539 58.93 21.6542H44.081C43.6066 21.6544 43.1374 21.7522 42.7026 21.9416C42.2678 22.131 41.8769 22.4079 41.5543 22.7549C41.2317 23.1019 40.9844 23.5116 40.8278 23.9584C40.6712 24.4051 40.6087 24.8793 40.6442 25.3513Z" fill="#7B61FF"/>
                                </svg>