<svg xmlns="http://www.w3.org/2000/svg" xmlns:xlink="http://www.w3.org/1999/xlink" version="1.1" id="Layer_1" x="0px" y="0px" viewBox="0 0 111 111" style="enable-background:new 0 0 111 111;" xml:space="preserve" width="111" height="111">
                                <style type="text/css">
                                    .st0{fill:#23C3E2;}
                                    .st1{fill:#F9EEE5;}
                                </style>
                                <path class="st0" d="M55.5,0l8.2,3.4l8.9-0.7l6.8,5.8l8.7,2.1l4.7,7.6l7.6,4.7l2.1,8.7l5.8,6.8l-0.7,8.9l3.4,8.2l-3.4,8.2l0.7,8.9  l-5.8,6.8l-2.1,8.7l-7.6,4.7l-4.7,7.6l-8.7,2.1l-6.8,5.8l-8.9-0.7l-8.2,3.4l-8.2-3.4l-8.9,0.7l-6.8-5.8l-8.7-2.1l-4.7-7.6l-7.6-4.7  l-2.1-8.7l-5.8-6.8l0.7-8.9L0,55.5l3.4-8.2l-0.7-8.9l5.8-6.8l2.1-8.7l7.6-4.7l4.7-7.6l8.7-2.1l6.8-5.8l8.9,0.7L55.5,0z"></path>
                                <path class="st1" d="M38.1,69.2c-0.7,3.8-2.2,7.8-4.5,11.7c-0.7,1.3-0.5,2.8,0.5,3.9c0.8,0.8,1.9,1.1,2.9,0.9  c0.3-0.1,0.6-0.1,0.9-0.3c5.9-3.1,19.3-12.5,15.5-33.5c-1.5-8.1-8.7-13.8-16.5-13.1c-4.3,0.4-8.3,2.6-10.9,6.1  c-2.6,3.5-3.6,7.9-2.7,12.1C24.6,64.1,30.9,69.3,38.1,69.2z"></path>
                                <path class="st1" d="M70.9,32.1c-4.3,0.4-8.3,2.6-10.8,6.1c-2.6,3.5-3.6,7.9-2.7,12.1c1.4,7,7.6,12.2,14.8,12.1  c-0.7,3.8-2.2,7.8-4.5,11.7c-0.7,1.3-0.5,2.8,0.5,3.9c0.8,0.8,1.9,1.1,2.9,0.9c0.3-0.1,0.6-0.1,0.9-0.3c5.9-3.1,19.3-12.5,15.5-33.5  l-0.1-0.3C85.8,36.9,78.6,31.4,70.9,32.1z"></path>
                                </svg>