<svg width="1149" height="406" viewBox="0 0 1149 406" fill="none" xmlns="http://www.w3.org/2000/svg">
<path d="M32.6651 7.78745H44.3745L52.1046 20H59.8346L51.4642 7.1471C56.1297 5.86638 59.057 2.52737 59.057 -2.50402C59.057 -9.27352 54.0256 -12.8412 46.57 -12.8412H25.9414V20H32.6651V7.78745ZM32.6651 2.16145V-7.12375H46.2041C50.1378 -7.12375 52.379 -5.43137 52.379 -2.45828C52.379 0.469074 50.1378 2.16145 46.2041 2.16145H32.6651ZM79.0236 20.4574C90.5043 20.4574 95.9016 14.0538 95.9016 4.49418V-12.8412H89.1321V4.12826C89.1321 10.3031 86.4792 14.557 79.0236 14.557C71.5222 14.557 68.8693 10.3031 68.8693 4.12826V-12.8412H62.1455V4.49418C62.1455 14.0538 67.4971 20.4574 79.0236 20.4574ZM100.76 20H130.582V14.191H107.484V-12.8412H100.76V20ZM134.44 -12.8412V20H166.229V14.191H141.072V6.04934H163.622V0.286114H141.072V-7.03227H166.229V-12.8412H134.44ZM200.334 -13.3444C189.082 -13.3444 180.941 -6.16321 180.941 3.57938C180.941 13.322 189.082 20.5031 200.334 20.5031C211.541 20.5031 219.728 13.322 219.728 3.57938C219.728 -6.16321 211.541 -13.3444 200.334 -13.3444ZM200.334 -7.44392C207.698 -7.44392 212.821 -3.0529 212.821 3.57938C212.821 10.2117 207.698 14.6027 200.334 14.6027C192.97 14.6027 187.847 10.2117 187.847 3.57938C187.847 -3.0529 192.97 -7.44392 200.334 -7.44392ZM230.274 20V6.96414H252.32V1.15517H230.274V-7.03227H254.927V-12.8412H223.641V20H230.274ZM271.079 20H300.901V14.191H277.802V-12.8412H271.079V20ZM318.114 -12.8412L301.556 20H308.737L312.58 12.3614H331.15L334.946 20H342.219L325.661 -12.8412H318.114ZM321.865 -6.20895L328.268 6.64396H315.415L321.865 -6.20895ZM361.346 -12.8412L353.113 12.5901L344.468 -12.8412H337.425L348.905 20H356.681L364.777 -5.11119L372.781 20H380.603L392.084 -12.8412H385.177L376.532 12.5901L368.345 -12.8412H361.346ZM446.962 -12.8412V0.240375H425.876V-12.8412H419.152V20H425.876V6.04934H446.962V20H453.732V-12.8412H446.962ZM475.406 20.4574C486.887 20.4574 492.284 14.0538 492.284 4.49418V-12.8412H485.515V4.12826C485.515 10.3031 482.862 14.557 475.406 14.557C467.905 14.557 465.252 10.3031 465.252 4.12826V-12.8412H458.528V4.49418C458.528 14.0538 463.88 20.4574 475.406 20.4574ZM521.064 20L532.957 -6.43765V20H539.543V-12.8412H529.435L518.411 11.7668L507.388 -12.8412H497.142V20H503.683V-6.43765L515.621 20H521.064ZM558.65 -12.8412L542.093 20H549.274L553.116 12.3614H571.686L575.483 20H582.755L566.198 -12.8412H558.65ZM562.401 -6.20895L568.805 6.64396H555.952L562.401 -6.20895ZM619.255 -12.8412H612.714V10.3489L592.222 -12.8412H585.361V20H591.856V-4.28787L613.308 20H619.255V-12.8412ZM643.945 7.78745H655.654L663.384 20H671.114L662.744 7.1471C667.409 5.86638 670.336 2.52737 670.336 -2.50402C670.336 -9.27352 665.305 -12.8412 657.849 -12.8412H637.221V20H643.945V7.78745ZM643.945 2.16145V-7.12375H657.484C661.417 -7.12375 663.658 -5.43137 663.658 -2.45828C663.658 0.469074 661.417 2.16145 657.484 2.16145H643.945ZM680.885 -12.8412H674.161V20H680.885V-12.8412ZM704.599 -13.3444C693.118 -13.3444 684.794 -6.25469 684.794 3.4879C684.794 13.322 692.936 20.5031 704.325 20.5031C709.814 20.5031 714.479 18.5363 716.354 16.1579V20H722.666V2.02423H701.626V7.69597H716.4C715.943 11.7668 710.454 14.6484 704.371 14.6484C697.052 14.6484 691.701 10.2117 691.701 3.57938C691.701 -3.09864 697.144 -7.44392 704.553 -7.44392C710.362 -7.44392 714.388 -4.83675 716.263 -0.354244L722.163 -3.19012C719.648 -9.50222 713.198 -13.3444 704.599 -13.3444ZM755.483 -12.8412V0.240375H734.397V-12.8412H727.673V20H734.397V6.04934H755.483V20H762.253V-12.8412H755.483ZM801.674 -7.03227V-12.8412H765.905V-7.03227H780.405V20H787.174V-7.03227H801.674ZM800.669 12.8646C803.871 17.4843 811.647 20.5031 819.468 20.5031C828.754 20.5031 835.935 16.8897 835.935 9.70853C835.935 2.61885 829.348 1.38387 820.017 0.331855C811.693 -0.628684 809.497 -1.17756 809.497 -3.55604C809.497 -5.75155 812.15 -7.62688 818.005 -7.62688C823.585 -7.62688 828.251 -5.75155 830.766 -2.50402L835.249 -6.80357C832.276 -10.7372 825.689 -13.3444 818.371 -13.3444C809.04 -13.3444 802.956 -9.09056 802.956 -2.86994C802.956 3.62513 809.131 5.13454 817.181 6.04934C826.421 7.05562 829.12 7.33006 829.12 10.4404C829.12 13.0933 825.232 14.7399 819.743 14.7399C814.894 14.7399 808.948 13.1848 805.198 8.15337L800.669 12.8646ZM870.813 7.78745H882.522L890.252 20H897.982L889.612 7.1471C894.277 5.86638 897.204 2.52737 897.204 -2.50402C897.204 -9.27352 892.173 -12.8412 884.717 -12.8412H864.089V20H870.813V7.78745ZM870.813 2.16145V-7.12375H884.352C888.285 -7.12375 890.526 -5.43137 890.526 -2.45828C890.526 0.469074 888.285 2.16145 884.352 2.16145H870.813ZM917.171 20.4574C928.652 20.4574 934.049 14.0538 934.049 4.49418V-12.8412H927.28V4.12826C927.28 10.3031 924.627 14.557 917.171 14.557C909.67 14.557 907.017 10.3031 907.017 4.12826V-12.8412H900.293V4.49418C900.293 14.0538 905.645 20.4574 917.171 20.4574ZM938.907 20H968.73V14.191H945.631V-12.8412H938.907V20ZM972.587 -12.8412V20H1004.38V14.191H979.219V6.04934H1001.77V0.286114H979.219V-7.03227H1004.38V-12.8412H972.587ZM1038.48 -13.3444C1027.23 -13.3444 1019.09 -6.16321 1019.09 3.57938C1019.09 13.322 1027.23 20.5031 1038.48 20.5031C1049.69 20.5031 1057.88 13.322 1057.88 3.57938C1057.88 -6.16321 1049.69 -13.3444 1038.48 -13.3444ZM1038.48 -7.44392C1045.85 -7.44392 1050.97 -3.0529 1050.97 3.57938C1050.97 10.2117 1045.85 14.6027 1038.48 14.6027C1031.12 14.6027 1025.99 10.2117 1025.99 3.57938C1025.99 -3.0529 1031.12 -7.44392 1038.48 -7.44392ZM1068.42 20V6.96414H1090.47V1.15517H1068.42V-7.03227H1093.07V-12.8412H1061.79V20H1068.42ZM1109.23 20H1139.05V14.191H1115.95V-12.8412H1109.23V20ZM1156.26 -12.8412L1139.7 20H1146.88L1150.73 12.3614H1169.3L1173.09 20H1180.37L1163.81 -12.8412H1156.26ZM1160.01 -6.20895L1166.42 6.64396H1153.56L1160.01 -6.20895ZM1199.49 -12.8412L1191.26 12.5901L1182.62 -12.8412H1175.57L1187.05 20H1194.83L1202.92 -5.11119L1210.93 20H1218.75L1230.23 -12.8412H1223.32L1214.68 12.5901L1206.49 -12.8412H1199.49ZM27.8885 37.1588V50.2404H6.80246V37.1588H0.0786945V70H6.80246V56.0493H27.8885V70H34.658V37.1588H27.8885ZM56.3323 70.4574C67.813 70.4574 73.2103 64.0538 73.2103 54.4942V37.1588H66.4408V54.1283C66.4408 60.3031 63.7879 64.557 56.3323 64.557C48.831 64.557 46.1781 60.3031 46.1781 54.1283V37.1588H39.4543V54.4942C39.4543 64.0538 44.8059 70.4574 56.3323 70.4574ZM101.991 70L113.883 43.5624V70H120.47V37.1588H110.361L99.3378 61.7668L88.3145 37.1588H78.0687V70H84.6095V43.5624L96.5477 70H101.991ZM139.577 37.1588L123.019 70H130.2L134.042 62.3614H152.613L156.409 70H163.682L147.124 37.1588H139.577ZM143.327 43.7911L149.731 56.644H136.878L143.327 43.7911ZM200.181 37.1588H193.64V60.3489L173.149 37.1588H166.288V70H172.783V45.7121L194.235 70H200.181V37.1588ZM224.871 57.7875H236.58L244.31 70H252.04L243.67 57.1471C248.335 55.8664 251.263 52.5274 251.263 47.496C251.263 40.7265 246.231 37.1588 238.776 37.1588H218.147V70H224.871V57.7875ZM224.871 52.1614V42.8763H238.41C242.343 42.8763 244.585 44.5686 244.585 47.5417C244.585 50.4691 242.343 52.1614 238.41 52.1614H224.871ZM261.811 37.1588H255.087V70H261.811V37.1588ZM285.526 36.6556C274.045 36.6556 265.72 43.7453 265.72 53.4879C265.72 63.322 273.862 70.5031 285.251 70.5031C290.74 70.5031 295.405 68.5363 297.281 66.1579V70H303.593V52.0242H282.552V57.696H297.326C296.869 61.7668 291.38 64.6484 285.297 64.6484C277.978 64.6484 272.627 60.2117 272.627 53.5794C272.627 46.9014 278.07 42.5561 285.48 42.5561C291.289 42.5561 295.314 45.1632 297.189 49.6458L303.09 46.8099C300.574 40.4978 294.125 36.6556 285.526 36.6556ZM336.409 37.1588V50.2404H315.323V37.1588H308.599V70H315.323V56.0493H336.409V70H343.179V37.1588H336.409ZM382.6 42.9677V37.1588H346.832V42.9677H361.331V70H368.101V42.9677H382.6ZM381.596 62.8646C384.797 67.4843 392.573 70.5031 400.395 70.5031C409.68 70.5031 416.861 66.8897 416.861 59.7085C416.861 52.6188 410.275 51.3839 400.944 50.3319C392.619 49.3713 390.423 48.8224 390.423 46.444C390.423 44.2485 393.076 42.3731 398.931 42.3731C404.511 42.3731 409.177 44.2485 411.693 47.496L416.175 43.1964C413.202 39.2628 406.615 36.6556 399.297 36.6556C389.966 36.6556 383.883 40.9094 383.883 47.1301C383.883 53.6251 390.058 55.1345 398.108 56.0493C407.347 57.0556 410.046 57.3301 410.046 60.4404C410.046 63.0933 406.158 64.7399 400.669 64.7399C395.821 64.7399 389.875 63.1848 386.124 58.1534L381.596 62.8646ZM451.739 57.7875H463.448L471.178 70H478.908L470.538 57.1471C475.203 55.8664 478.131 52.5274 478.131 47.496C478.131 40.7265 473.099 37.1588 465.644 37.1588H445.015V70H451.739V57.7875ZM451.739 52.1614V42.8763H465.278C469.211 42.8763 471.453 44.5686 471.453 47.5417C471.453 50.4691 469.211 52.1614 465.278 52.1614H451.739ZM498.097 70.4574C509.578 70.4574 514.975 64.0538 514.975 54.4942V37.1588H508.206V54.1283C508.206 60.3031 505.553 64.557 498.097 64.557C490.596 64.557 487.943 60.3031 487.943 54.1283V37.1588H481.219V54.4942C481.219 64.0538 486.571 70.4574 498.097 70.4574ZM519.834 70H549.656V64.191H526.557V37.1588H519.834V70ZM553.513 37.1588V70H585.302V64.191H560.146V56.0493H582.695V50.2861H560.146V42.9677H585.302V37.1588H553.513ZM619.408 36.6556C608.156 36.6556 600.014 43.8368 600.014 53.5794C600.014 63.322 608.156 70.5031 619.408 70.5031C630.614 70.5031 638.802 63.322 638.802 53.5794C638.802 43.8368 630.614 36.6556 619.408 36.6556ZM619.408 42.5561C626.772 42.5561 631.895 46.9471 631.895 53.5794C631.895 60.2117 626.772 64.6027 619.408 64.6027C612.044 64.6027 606.921 60.2117 606.921 53.5794C606.921 46.9471 612.044 42.5561 619.408 42.5561ZM649.347 70V56.9641H671.394V51.1552H649.347V42.9677H674.001V37.1588H642.715V70H649.347ZM690.152 70H719.975V64.191H696.876V37.1588H690.152V70ZM737.188 37.1588L720.63 70H727.811L731.653 62.3614H750.224L754.02 70H761.293L744.735 37.1588H737.188ZM740.938 43.7911L747.342 56.644H734.489L740.938 43.7911ZM780.42 37.1588L772.187 62.5901L763.542 37.1588H756.498L767.979 70H775.755L783.851 44.8888L791.855 70H799.677L811.157 37.1588H804.251L795.606 62.5901L787.418 37.1588H780.42ZM866.036 37.1588V50.2404H844.95V37.1588H838.226V70H844.95V56.0493H866.036V70H872.805V37.1588H866.036ZM894.48 70.4574C905.96 70.4574 911.358 64.0538 911.358 54.4942V37.1588H904.588V54.1283C904.588 60.3031 901.935 64.557 894.48 64.557C886.978 64.557 884.325 60.3031 884.325 54.1283V37.1588H877.602V54.4942C877.602 64.0538 882.953 70.4574 894.48 70.4574ZM940.138 70L952.03 43.5624V70H958.617V37.1588H948.508L937.485 61.7668L926.462 37.1588H916.216V70H922.757V43.5624L934.695 70H940.138ZM977.724 37.1588L961.166 70H968.347L972.19 62.3614H990.76L994.556 70H1001.83L985.271 37.1588H977.724ZM981.475 43.7911L987.878 56.644H975.026L981.475 43.7911ZM1038.33 37.1588H1031.79V60.3489L1011.3 37.1588H1004.44V70H1010.93V45.7121L1032.38 70H1038.33V37.1588ZM1063.02 57.7875H1074.73L1082.46 70H1090.19L1081.82 57.1471C1086.48 55.8664 1089.41 52.5274 1089.41 47.496C1089.41 40.7265 1084.38 37.1588 1076.92 37.1588H1056.29V70H1063.02V57.7875ZM1063.02 52.1614V42.8763H1076.56C1080.49 42.8763 1082.73 44.5686 1082.73 47.5417C1082.73 50.4691 1080.49 52.1614 1076.56 52.1614H1063.02ZM1099.96 37.1588H1093.23V70H1099.96V37.1588ZM1123.67 36.6556C1112.19 36.6556 1103.87 43.7453 1103.87 53.4879C1103.87 63.322 1112.01 70.5031 1123.4 70.5031C1128.89 70.5031 1133.55 68.5363 1135.43 66.1579V70H1141.74V52.0242H1120.7V57.696H1135.47C1135.02 61.7668 1129.53 64.6484 1123.44 64.6484C1116.13 64.6484 1110.77 60.2117 1110.77 53.5794C1110.77 46.9014 1116.22 42.5561 1123.63 42.5561C1129.44 42.5561 1133.46 45.1632 1135.34 49.6458L1141.24 46.8099C1138.72 40.4978 1132.27 36.6556 1123.67 36.6556ZM1174.56 37.1588V50.2404H1153.47V37.1588H1146.75V70H1153.47V56.0493H1174.56V70H1181.33V37.1588H1174.56ZM1220.75 42.9677V37.1588H1184.98V42.9677H1199.48V70H1206.25V42.9677H1220.75ZM1219.74 62.8646C1222.94 67.4843 1230.72 70.5031 1238.54 70.5031C1247.83 70.5031 1255.01 66.8897 1255.01 59.7085C1255.01 52.6188 1248.42 51.3839 1239.09 50.3319C1230.77 49.3713 1228.57 48.8224 1228.57 46.444C1228.57 44.2485 1231.22 42.3731 1237.08 42.3731C1242.66 42.3731 1247.32 44.2485 1249.84 47.496L1254.32 43.1964C1251.35 39.2628 1244.76 36.6556 1237.44 36.6556C1228.11 36.6556 1222.03 40.9094 1222.03 47.1301C1222.03 53.6251 1228.2 55.1345 1236.26 56.0493C1245.49 57.0556 1248.19 57.3301 1248.19 60.4404C1248.19 63.0933 1244.31 64.7399 1238.82 64.7399C1233.97 64.7399 1228.02 63.1848 1224.27 58.1534L1219.74 62.8646ZM32.6651 107.787H44.3745L52.1046 120H59.8346L51.4642 107.147C56.1297 105.866 59.057 102.527 59.057 97.496C59.057 90.7265 54.0256 87.1588 46.57 87.1588H25.9414V120H32.6651V107.787ZM32.6651 102.161V92.8763H46.2041C50.1378 92.8763 52.379 94.5686 52.379 97.5417C52.379 100.469 50.1378 102.161 46.2041 102.161H32.6651ZM79.0236 120.457C90.5043 120.457 95.9016 114.054 95.9016 104.494V87.1588H89.1321V104.128C89.1321 110.303 86.4792 114.557 79.0236 114.557C71.5222 114.557 68.8693 110.303 68.8693 104.128V87.1588H62.1455V104.494C62.1455 114.054 67.4971 120.457 79.0236 120.457ZM100.76 120H130.582V114.191H107.484V87.1588H100.76V120ZM134.44 87.1588V120H166.229V114.191H141.072V106.049H163.622V100.286H141.072V92.9677H166.229V87.1588H134.44ZM200.334 86.6556C189.082 86.6556 180.941 93.8368 180.941 103.579C180.941 113.322 189.082 120.503 200.334 120.503C211.541 120.503 219.728 113.322 219.728 103.579C219.728 93.8368 211.541 86.6556 200.334 86.6556ZM200.334 92.5561C207.698 92.5561 212.821 96.9471 212.821 103.579C212.821 110.212 207.698 114.603 200.334 114.603C192.97 114.603 187.847 110.212 187.847 103.579C187.847 96.9471 192.97 92.5561 200.334 92.5561ZM230.274 120V106.964H252.32V101.155H230.274V92.9677H254.927V87.1588H223.641V120H230.274ZM271.079 120H300.901V114.191H277.802V87.1588H271.079V120ZM318.114 87.1588L301.556 120H308.737L312.58 112.361H331.15L334.946 120H342.219L325.661 87.1588H318.114ZM321.865 93.7911L328.268 106.644H315.415L321.865 93.7911ZM361.346 87.1588L353.113 112.59L344.468 87.1588H337.425L348.905 120H356.681L364.777 94.8888L372.781 120H380.603L392.084 87.1588H385.177L376.532 112.59L368.345 87.1588H361.346ZM446.962 87.1588V100.24H425.876V87.1588H419.152V120H425.876V106.049H446.962V120H453.732V87.1588H446.962ZM475.406 120.457C486.887 120.457 492.284 114.054 492.284 104.494V87.1588H485.515V104.128C485.515 110.303 482.862 114.557 475.406 114.557C467.905 114.557 465.252 110.303 465.252 104.128V87.1588H458.528V104.494C458.528 114.054 463.88 120.457 475.406 120.457ZM521.064 120L532.957 93.5624V120H539.543V87.1588H529.435L518.411 111.767L507.388 87.1588H497.142V120H503.683V93.5624L515.621 120H521.064ZM558.65 87.1588L542.093 120H549.274L553.116 112.361H571.686L575.483 120H582.755L566.198 87.1588H558.65ZM562.401 93.7911L568.805 106.644H555.952L562.401 93.7911ZM619.255 87.1588H612.714V110.349L592.222 87.1588H585.361V120H591.856V95.7121L613.308 120H619.255V87.1588ZM643.945 107.787H655.654L663.384 120H671.114L662.744 107.147C667.409 105.866 670.336 102.527 670.336 97.496C670.336 90.7265 665.305 87.1588 657.849 87.1588H637.221V120H643.945V107.787ZM643.945 102.161V92.8763H657.484C661.417 92.8763 663.658 94.5686 663.658 97.5417C663.658 100.469 661.417 102.161 657.484 102.161H643.945ZM680.885 87.1588H674.161V120H680.885V87.1588ZM704.599 86.6556C693.118 86.6556 684.794 93.7453 684.794 103.488C684.794 113.322 692.936 120.503 704.325 120.503C709.814 120.503 714.479 118.536 716.354 116.158V120H722.666V102.024H701.626V107.696H716.4C715.943 111.767 710.454 114.648 704.371 114.648C697.052 114.648 691.701 110.212 691.701 103.579C691.701 96.9014 697.144 92.5561 704.553 92.5561C710.362 92.5561 714.388 95.1632 716.263 99.6458L722.163 96.8099C719.648 90.4978 713.198 86.6556 704.599 86.6556ZM755.483 87.1588V100.24H734.397V87.1588H727.673V120H734.397V106.049H755.483V120H762.253V87.1588H755.483ZM801.674 92.9677V87.1588H765.905V92.9677H780.405V120H787.174V92.9677H801.674ZM800.669 112.865C803.871 117.484 811.647 120.503 819.468 120.503C828.754 120.503 835.935 116.89 835.935 109.709C835.935 102.619 829.348 101.384 820.017 100.332C811.693 99.3713 809.497 98.8224 809.497 96.444C809.497 94.2485 812.15 92.3731 818.005 92.3731C823.585 92.3731 828.251 94.2485 830.766 97.496L835.249 93.1964C832.276 89.2628 825.689 86.6556 818.371 86.6556C809.04 86.6556 802.956 90.9094 802.956 97.1301C802.956 103.625 809.131 105.135 817.181 106.049C826.421 107.056 829.12 107.33 829.12 110.44C829.12 113.093 825.232 114.74 819.743 114.74C814.894 114.74 808.948 113.185 805.198 108.153L800.669 112.865ZM870.813 107.787H882.522L890.252 120H897.982L889.612 107.147C894.277 105.866 897.204 102.527 897.204 97.496C897.204 90.7265 892.173 87.1588 884.717 87.1588H864.089V120H870.813V107.787ZM870.813 102.161V92.8763H884.352C888.285 92.8763 890.526 94.5686 890.526 97.5417C890.526 100.469 888.285 102.161 884.352 102.161H870.813ZM917.171 120.457C928.652 120.457 934.049 114.054 934.049 104.494V87.1588H927.28V104.128C927.28 110.303 924.627 114.557 917.171 114.557C909.67 114.557 907.017 110.303 907.017 104.128V87.1588H900.293V104.494C900.293 114.054 905.645 120.457 917.171 120.457ZM938.907 120H968.73V114.191H945.631V87.1588H938.907V120ZM972.587 87.1588V120H1004.38V114.191H979.219V106.049H1001.77V100.286H979.219V92.9677H1004.38V87.1588H972.587ZM1038.48 86.6556C1027.23 86.6556 1019.09 93.8368 1019.09 103.579C1019.09 113.322 1027.23 120.503 1038.48 120.503C1049.69 120.503 1057.88 113.322 1057.88 103.579C1057.88 93.8368 1049.69 86.6556 1038.48 86.6556ZM1038.48 92.5561C1045.85 92.5561 1050.97 96.9471 1050.97 103.579C1050.97 110.212 1045.85 114.603 1038.48 114.603C1031.12 114.603 1025.99 110.212 1025.99 103.579C1025.99 96.9471 1031.12 92.5561 1038.48 92.5561ZM1068.42 120V106.964H1090.47V101.155H1068.42V92.9677H1093.07V87.1588H1061.79V120H1068.42ZM1109.23 120H1139.05V114.191H1115.95V87.1588H1109.23V120ZM1156.26 87.1588L1139.7 120H1146.88L1150.73 112.361H1169.3L1173.09 120H1180.37L1163.81 87.1588H1156.26ZM1160.01 93.7911L1166.42 106.644H1153.56L1160.01 93.7911ZM1199.49 87.1588L1191.26 112.59L1182.62 87.1588H1175.57L1187.05 120H1194.83L1202.92 94.8888L1210.93 120H1218.75L1230.23 87.1588H1223.32L1214.68 112.59L1206.49 87.1588H1199.49ZM27.8885 137.159V150.24H6.80246V137.159H0.0786945V170H6.80246V156.049H27.8885V170H34.658V137.159H27.8885ZM56.3323 170.457C67.813 170.457 73.2103 164.054 73.2103 154.494V137.159H66.4408V154.128C66.4408 160.303 63.7879 164.557 56.3323 164.557C48.831 164.557 46.1781 160.303 46.1781 154.128V137.159H39.4543V154.494C39.4543 164.054 44.8059 170.457 56.3323 170.457ZM101.991 170L113.883 143.562V170H120.47V137.159H110.361L99.3378 161.767L88.3145 137.159H78.0687V170H84.6095V143.562L96.5477 170H101.991ZM139.577 137.159L123.019 170H130.2L134.042 162.361H152.613L156.409 170H163.682L147.124 137.159H139.577ZM143.327 143.791L149.731 156.644H136.878L143.327 143.791ZM200.181 137.159H193.64V160.349L173.149 137.159H166.288V170H172.783V145.712L194.235 170H200.181V137.159ZM224.871 157.787H236.58L244.31 170H252.04L243.67 157.147C248.335 155.866 251.263 152.527 251.263 147.496C251.263 140.726 246.231 137.159 238.776 137.159H218.147V170H224.871V157.787ZM224.871 152.161V142.876H238.41C242.343 142.876 244.585 144.569 244.585 147.542C244.585 150.469 242.343 152.161 238.41 152.161H224.871ZM261.811 137.159H255.087V170H261.811V137.159ZM285.526 136.656C274.045 136.656 265.72 143.745 265.72 153.488C265.72 163.322 273.862 170.503 285.251 170.503C290.74 170.503 295.405 168.536 297.281 166.158V170H303.593V152.024H282.552V157.696H297.326C296.869 161.767 291.38 164.648 285.297 164.648C277.978 164.648 272.627 160.212 272.627 153.579C272.627 146.901 278.07 142.556 285.48 142.556C291.289 142.556 295.314 145.163 297.189 149.646L303.09 146.81C300.574 140.498 294.125 136.656 285.526 136.656ZM336.409 137.159V150.24H315.323V137.159H308.599V170H315.323V156.049H336.409V170H343.179V137.159H336.409ZM382.6 142.968V137.159H346.832V142.968H361.331V170H368.101V142.968H382.6ZM381.596 162.865C384.797 167.484 392.573 170.503 400.395 170.503C409.68 170.503 416.861 166.89 416.861 159.709C416.861 152.619 410.275 151.384 400.944 150.332C392.619 149.371 390.423 148.822 390.423 146.444C390.423 144.248 393.076 142.373 398.931 142.373C404.511 142.373 409.177 144.248 411.693 147.496L416.175 143.196C413.202 139.263 406.615 136.656 399.297 136.656C389.966 136.656 383.883 140.909 383.883 147.13C383.883 153.625 390.058 155.135 398.108 156.049C407.347 157.056 410.046 157.33 410.046 160.44C410.046 163.093 406.158 164.74 400.669 164.74C395.821 164.74 389.875 163.185 386.124 158.153L381.596 162.865ZM451.739 157.787H463.448L471.178 170H478.908L470.538 157.147C475.203 155.866 478.131 152.527 478.131 147.496C478.131 140.726 473.099 137.159 465.644 137.159H445.015V170H451.739V157.787ZM451.739 152.161V142.876H465.278C469.211 142.876 471.453 144.569 471.453 147.542C471.453 150.469 469.211 152.161 465.278 152.161H451.739ZM498.097 170.457C509.578 170.457 514.975 164.054 514.975 154.494V137.159H508.206V154.128C508.206 160.303 505.553 164.557 498.097 164.557C490.596 164.557 487.943 160.303 487.943 154.128V137.159H481.219V154.494C481.219 164.054 486.571 170.457 498.097 170.457ZM519.834 170H549.656V164.191H526.557V137.159H519.834V170ZM553.513 137.159V170H585.302V164.191H560.146V156.049H582.695V150.286H560.146V142.968H585.302V137.159H553.513ZM619.408 136.656C608.156 136.656 600.014 143.837 600.014 153.579C600.014 163.322 608.156 170.503 619.408 170.503C630.614 170.503 638.802 163.322 638.802 153.579C638.802 143.837 630.614 136.656 619.408 136.656ZM619.408 142.556C626.772 142.556 631.895 146.947 631.895 153.579C631.895 160.212 626.772 164.603 619.408 164.603C612.044 164.603 606.921 160.212 606.921 153.579C606.921 146.947 612.044 142.556 619.408 142.556ZM649.347 170V156.964H671.394V151.155H649.347V142.968H674.001V137.159H642.715V170H649.347ZM690.152 170H719.975V164.191H696.876V137.159H690.152V170ZM737.188 137.159L720.63 170H727.811L731.653 162.361H750.224L754.02 170H761.293L744.735 137.159H737.188ZM740.938 143.791L747.342 156.644H734.489L740.938 143.791ZM780.42 137.159L772.187 162.59L763.542 137.159H756.498L767.979 170H775.755L783.851 144.889L791.855 170H799.677L811.157 137.159H804.251L795.606 162.59L787.418 137.159H780.42ZM866.036 137.159V150.24H844.95V137.159H838.226V170H844.95V156.049H866.036V170H872.805V137.159H866.036ZM894.48 170.457C905.96 170.457 911.358 164.054 911.358 154.494V137.159H904.588V154.128C904.588 160.303 901.935 164.557 894.48 164.557C886.978 164.557 884.325 160.303 884.325 154.128V137.159H877.602V154.494C877.602 164.054 882.953 170.457 894.48 170.457ZM940.138 170L952.03 143.562V170H958.617V137.159H948.508L937.485 161.767L926.462 137.159H916.216V170H922.757V143.562L934.695 170H940.138ZM977.724 137.159L961.166 170H968.347L972.19 162.361H990.76L994.556 170H1001.83L985.271 137.159H977.724ZM981.475 143.791L987.878 156.644H975.026L981.475 143.791ZM1038.33 137.159H1031.79V160.349L1011.3 137.159H1004.44V170H1010.93V145.712L1032.38 170H1038.33V137.159ZM1063.02 157.787H1074.73L1082.46 170H1090.19L1081.82 157.147C1086.48 155.866 1089.41 152.527 1089.41 147.496C1089.41 140.726 1084.38 137.159 1076.92 137.159H1056.29V170H1063.02V157.787ZM1063.02 152.161V142.876H1076.56C1080.49 142.876 1082.73 144.569 1082.73 147.542C1082.73 150.469 1080.49 152.161 1076.56 152.161H1063.02ZM1099.96 137.159H1093.23V170H1099.96V137.159ZM1123.67 136.656C1112.19 136.656 1103.87 143.745 1103.87 153.488C1103.87 163.322 1112.01 170.503 1123.4 170.503C1128.89 170.503 1133.55 168.536 1135.43 166.158V170H1141.74V152.024H1120.7V157.696H1135.47C1135.02 161.767 1129.53 164.648 1123.44 164.648C1116.13 164.648 1110.77 160.212 1110.77 153.579C1110.77 146.901 1116.22 142.556 1123.63 142.556C1129.44 142.556 1133.46 145.163 1135.34 149.646L1141.24 146.81C1138.72 140.498 1132.27 136.656 1123.67 136.656ZM1174.56 137.159V150.24H1153.47V137.159H1146.75V170H1153.47V156.049H1174.56V170H1181.33V137.159H1174.56ZM1220.75 142.968V137.159H1184.98V142.968H1199.48V170H1206.25V142.968H1220.75ZM1219.74 162.865C1222.94 167.484 1230.72 170.503 1238.54 170.503C1247.83 170.503 1255.01 166.89 1255.01 159.709C1255.01 152.619 1248.42 151.384 1239.09 150.332C1230.77 149.371 1228.57 148.822 1228.57 146.444C1228.57 144.248 1231.22 142.373 1237.08 142.373C1242.66 142.373 1247.32 144.248 1249.84 147.496L1254.32 143.196C1251.35 139.263 1244.76 136.656 1237.44 136.656C1228.11 136.656 1222.03 140.909 1222.03 147.13C1222.03 153.625 1228.2 155.135 1236.26 156.049C1245.49 157.056 1248.19 157.33 1248.19 160.44C1248.19 163.093 1244.31 164.74 1238.82 164.74C1233.97 164.74 1228.02 163.185 1224.27 158.153L1219.74 162.865ZM32.6651 207.787H44.3745L52.1046 220H59.8346L51.4642 207.147C56.1297 205.866 59.057 202.527 59.057 197.496C59.057 190.726 54.0256 187.159 46.57 187.159H25.9414V220H32.6651V207.787ZM32.6651 202.161V192.876H46.2041C50.1378 192.876 52.379 194.569 52.379 197.542C52.379 200.469 50.1378 202.161 46.2041 202.161H32.6651ZM79.0236 220.457C90.5043 220.457 95.9016 214.054 95.9016 204.494V187.159H89.1321V204.128C89.1321 210.303 86.4792 214.557 79.0236 214.557C71.5222 214.557 68.8693 210.303 68.8693 204.128V187.159H62.1455V204.494C62.1455 214.054 67.4971 220.457 79.0236 220.457ZM100.76 220H130.582V214.191H107.484V187.159H100.76V220ZM134.44 187.159V220H166.229V214.191H141.072V206.049H163.622V200.286H141.072V192.968H166.229V187.159H134.44ZM200.334 186.656C189.082 186.656 180.941 193.837 180.941 203.579C180.941 213.322 189.082 220.503 200.334 220.503C211.541 220.503 219.728 213.322 219.728 203.579C219.728 193.837 211.541 186.656 200.334 186.656ZM200.334 192.556C207.698 192.556 212.821 196.947 212.821 203.579C212.821 210.212 207.698 214.603 200.334 214.603C192.97 214.603 187.847 210.212 187.847 203.579C187.847 196.947 192.97 192.556 200.334 192.556ZM230.274 220V206.964H252.32V201.155H230.274V192.968H254.927V187.159H223.641V220H230.274ZM271.079 220H300.901V214.191H277.802V187.159H271.079V220ZM318.114 187.159L301.556 220H308.737L312.58 212.361H331.15L334.946 220H342.219L325.661 187.159H318.114ZM321.865 193.791L328.268 206.644H315.415L321.865 193.791ZM361.346 187.159L353.113 212.59L344.468 187.159H337.425L348.905 220H356.681L364.777 194.889L372.781 220H380.603L392.084 187.159H385.177L376.532 212.59L368.345 187.159H361.346ZM446.962 187.159V200.24H425.876V187.159H419.152V220H425.876V206.049H446.962V220H453.732V187.159H446.962ZM475.406 220.457C486.887 220.457 492.284 214.054 492.284 204.494V187.159H485.515V204.128C485.515 210.303 482.862 214.557 475.406 214.557C467.905 214.557 465.252 210.303 465.252 204.128V187.159H458.528V204.494C458.528 214.054 463.88 220.457 475.406 220.457ZM521.064 220L532.957 193.562V220H539.543V187.159H529.435L518.411 211.767L507.388 187.159H497.142V220H503.683V193.562L515.621 220H521.064ZM558.65 187.159L542.093 220H549.274L553.116 212.361H571.686L575.483 220H582.755L566.198 187.159H558.65ZM562.401 193.791L568.805 206.644H555.952L562.401 193.791ZM619.255 187.159H612.714V210.349L592.222 187.159H585.361V220H591.856V195.712L613.308 220H619.255V187.159ZM643.945 207.787H655.654L663.384 220H671.114L662.744 207.147C667.409 205.866 670.336 202.527 670.336 197.496C670.336 190.726 665.305 187.159 657.849 187.159H637.221V220H643.945V207.787ZM643.945 202.161V192.876H657.484C661.417 192.876 663.658 194.569 663.658 197.542C663.658 200.469 661.417 202.161 657.484 202.161H643.945ZM680.885 187.159H674.161V220H680.885V187.159ZM704.599 186.656C693.118 186.656 684.794 193.745 684.794 203.488C684.794 213.322 692.936 220.503 704.325 220.503C709.814 220.503 714.479 218.536 716.354 216.158V220H722.666V202.024H701.626V207.696H716.4C715.943 211.767 710.454 214.648 704.371 214.648C697.052 214.648 691.701 210.212 691.701 203.579C691.701 196.901 697.144 192.556 704.553 192.556C710.362 192.556 714.388 195.163 716.263 199.646L722.163 196.81C719.648 190.498 713.198 186.656 704.599 186.656ZM755.483 187.159V200.24H734.397V187.159H727.673V220H734.397V206.049H755.483V220H762.253V187.159H755.483ZM801.674 192.968V187.159H765.905V192.968H780.405V220H787.174V192.968H801.674ZM800.669 212.865C803.871 217.484 811.647 220.503 819.468 220.503C828.754 220.503 835.935 216.89 835.935 209.709C835.935 202.619 829.348 201.384 820.017 200.332C811.693 199.371 809.497 198.822 809.497 196.444C809.497 194.248 812.15 192.373 818.005 192.373C823.585 192.373 828.251 194.248 830.766 197.496L835.249 193.196C832.276 189.263 825.689 186.656 818.371 186.656C809.04 186.656 802.956 190.909 802.956 197.13C802.956 203.625 809.131 205.135 817.181 206.049C826.421 207.056 829.12 207.33 829.12 210.44C829.12 213.093 825.232 214.74 819.743 214.74C814.894 214.74 808.948 213.185 805.198 208.153L800.669 212.865ZM870.813 207.787H882.522L890.252 220H897.982L889.612 207.147C894.277 205.866 897.204 202.527 897.204 197.496C897.204 190.726 892.173 187.159 884.717 187.159H864.089V220H870.813V207.787ZM870.813 202.161V192.876H884.352C888.285 192.876 890.526 194.569 890.526 197.542C890.526 200.469 888.285 202.161 884.352 202.161H870.813ZM917.171 220.457C928.652 220.457 934.049 214.054 934.049 204.494V187.159H927.28V204.128C927.28 210.303 924.627 214.557 917.171 214.557C909.67 214.557 907.017 210.303 907.017 204.128V187.159H900.293V204.494C900.293 214.054 905.645 220.457 917.171 220.457ZM938.907 220H968.73V214.191H945.631V187.159H938.907V220ZM972.587 187.159V220H1004.38V214.191H979.219V206.049H1001.77V200.286H979.219V192.968H1004.38V187.159H972.587ZM1038.48 186.656C1027.23 186.656 1019.09 193.837 1019.09 203.579C1019.09 213.322 1027.23 220.503 1038.48 220.503C1049.69 220.503 1057.88 213.322 1057.88 203.579C1057.88 193.837 1049.69 186.656 1038.48 186.656ZM1038.48 192.556C1045.85 192.556 1050.97 196.947 1050.97 203.579C1050.97 210.212 1045.85 214.603 1038.48 214.603C1031.12 214.603 1025.99 210.212 1025.99 203.579C1025.99 196.947 1031.12 192.556 1038.48 192.556ZM1068.42 220V206.964H1090.47V201.155H1068.42V192.968H1093.07V187.159H1061.79V220H1068.42ZM1109.23 220H1139.05V214.191H1115.95V187.159H1109.23V220ZM1156.26 187.159L1139.7 220H1146.88L1150.73 212.361H1169.3L1173.09 220H1180.37L1163.81 187.159H1156.26ZM1160.01 193.791L1166.42 206.644H1153.56L1160.01 193.791ZM1199.49 187.159L1191.26 212.59L1182.62 187.159H1175.57L1187.05 220H1194.83L1202.92 194.889L1210.93 220H1218.75L1230.23 187.159H1223.32L1214.68 212.59L1206.49 187.159H1199.49ZM27.8885 237.159V250.24H6.80246V237.159H0.0786945V270H6.80246V256.049H27.8885V270H34.658V237.159H27.8885ZM56.3323 270.457C67.813 270.457 73.2103 264.054 73.2103 254.494V237.159H66.4408V254.128C66.4408 260.303 63.7879 264.557 56.3323 264.557C48.831 264.557 46.1781 260.303 46.1781 254.128V237.159H39.4543V254.494C39.4543 264.054 44.8059 270.457 56.3323 270.457ZM101.991 270L113.883 243.562V270H120.47V237.159H110.361L99.3378 261.767L88.3145 237.159H78.0687V270H84.6095V243.562L96.5477 270H101.991ZM139.577 237.159L123.019 270H130.2L134.042 262.361H152.613L156.409 270H163.682L147.124 237.159H139.577ZM143.327 243.791L149.731 256.644H136.878L143.327 243.791ZM200.181 237.159H193.64V260.349L173.149 237.159H166.288V270H172.783V245.712L194.235 270H200.181V237.159ZM224.871 257.787H236.58L244.31 270H252.04L243.67 257.147C248.335 255.866 251.263 252.527 251.263 247.496C251.263 240.726 246.231 237.159 238.776 237.159H218.147V270H224.871V257.787ZM224.871 252.161V242.876H238.41C242.343 242.876 244.585 244.569 244.585 247.542C244.585 250.469 242.343 252.161 238.41 252.161H224.871ZM261.811 237.159H255.087V270H261.811V237.159ZM285.526 236.656C274.045 236.656 265.72 243.745 265.72 253.488C265.72 263.322 273.862 270.503 285.251 270.503C290.74 270.503 295.405 268.536 297.281 266.158V270H303.593V252.024H282.552V257.696H297.326C296.869 261.767 291.38 264.648 285.297 264.648C277.978 264.648 272.627 260.212 272.627 253.579C272.627 246.901 278.07 242.556 285.48 242.556C291.289 242.556 295.314 245.163 297.189 249.646L303.09 246.81C300.574 240.498 294.125 236.656 285.526 236.656ZM336.409 237.159V250.24H315.323V237.159H308.599V270H315.323V256.049H336.409V270H343.179V237.159H336.409ZM382.6 242.968V237.159H346.832V242.968H361.331V270H368.101V242.968H382.6ZM381.596 262.865C384.797 267.484 392.573 270.503 400.395 270.503C409.68 270.503 416.861 266.89 416.861 259.709C416.861 252.619 410.275 251.384 400.944 250.332C392.619 249.371 390.423 248.822 390.423 246.444C390.423 244.248 393.076 242.373 398.931 242.373C404.511 242.373 409.177 244.248 411.693 247.496L416.175 243.196C413.202 239.263 406.615 236.656 399.297 236.656C389.966 236.656 383.883 240.909 383.883 247.13C383.883 253.625 390.058 255.135 398.108 256.049C407.347 257.056 410.046 257.33 410.046 260.44C410.046 263.093 406.158 264.74 400.669 264.74C395.821 264.74 389.875 263.185 386.124 258.153L381.596 262.865ZM451.739 257.787H463.448L471.178 270H478.908L470.538 257.147C475.203 255.866 478.131 252.527 478.131 247.496C478.131 240.726 473.099 237.159 465.644 237.159H445.015V270H451.739V257.787ZM451.739 252.161V242.876H465.278C469.211 242.876 471.453 244.569 471.453 247.542C471.453 250.469 469.211 252.161 465.278 252.161H451.739ZM498.097 270.457C509.578 270.457 514.975 264.054 514.975 254.494V237.159H508.206V254.128C508.206 260.303 505.553 264.557 498.097 264.557C490.596 264.557 487.943 260.303 487.943 254.128V237.159H481.219V254.494C481.219 264.054 486.571 270.457 498.097 270.457ZM519.834 270H549.656V264.191H526.557V237.159H519.834V270ZM553.513 237.159V270H585.302V264.191H560.146V256.049H582.695V250.286H560.146V242.968H585.302V237.159H553.513ZM619.408 236.656C608.156 236.656 600.014 243.837 600.014 253.579C600.014 263.322 608.156 270.503 619.408 270.503C630.614 270.503 638.802 263.322 638.802 253.579C638.802 243.837 630.614 236.656 619.408 236.656ZM619.408 242.556C626.772 242.556 631.895 246.947 631.895 253.579C631.895 260.212 626.772 264.603 619.408 264.603C612.044 264.603 606.921 260.212 606.921 253.579C606.921 246.947 612.044 242.556 619.408 242.556ZM649.347 270V256.964H671.394V251.155H649.347V242.968H674.001V237.159H642.715V270H649.347ZM690.152 270H719.975V264.191H696.876V237.159H690.152V270ZM737.188 237.159L720.63 270H727.811L731.653 262.361H750.224L754.02 270H761.293L744.735 237.159H737.188ZM740.938 243.791L747.342 256.644H734.489L740.938 243.791ZM780.42 237.159L772.187 262.59L763.542 237.159H756.498L767.979 270H775.755L783.851 244.889L791.855 270H799.677L811.157 237.159H804.251L795.606 262.59L787.418 237.159H780.42ZM866.036 237.159V250.24H844.95V237.159H838.226V270H844.95V256.049H866.036V270H872.805V237.159H866.036ZM894.48 270.457C905.96 270.457 911.358 264.054 911.358 254.494V237.159H904.588V254.128C904.588 260.303 901.935 264.557 894.48 264.557C886.978 264.557 884.325 260.303 884.325 254.128V237.159H877.602V254.494C877.602 264.054 882.953 270.457 894.48 270.457ZM940.138 270L952.03 243.562V270H958.617V237.159H948.508L937.485 261.767L926.462 237.159H916.216V270H922.757V243.562L934.695 270H940.138ZM977.724 237.159L961.166 270H968.347L972.19 262.361H990.76L994.556 270H1001.83L985.271 237.159H977.724ZM981.475 243.791L987.878 256.644H975.026L981.475 243.791ZM1038.33 237.159H1031.79V260.349L1011.3 237.159H1004.44V270H1010.93V245.712L1032.38 270H1038.33V237.159ZM1063.02 257.787H1074.73L1082.46 270H1090.19L1081.82 257.147C1086.48 255.866 1089.41 252.527 1089.41 247.496C1089.41 240.726 1084.38 237.159 1076.92 237.159H1056.29V270H1063.02V257.787ZM1063.02 252.161V242.876H1076.56C1080.49 242.876 1082.73 244.569 1082.73 247.542C1082.73 250.469 1080.49 252.161 1076.56 252.161H1063.02ZM1099.96 237.159H1093.23V270H1099.96V237.159ZM1123.67 236.656C1112.19 236.656 1103.87 243.745 1103.87 253.488C1103.87 263.322 1112.01 270.503 1123.4 270.503C1128.89 270.503 1133.55 268.536 1135.43 266.158V270H1141.74V252.024H1120.7V257.696H1135.47C1135.02 261.767 1129.53 264.648 1123.44 264.648C1116.13 264.648 1110.77 260.212 1110.77 253.579C1110.77 246.901 1116.22 242.556 1123.63 242.556C1129.44 242.556 1133.46 245.163 1135.34 249.646L1141.24 246.81C1138.72 240.498 1132.27 236.656 1123.67 236.656ZM1174.56 237.159V250.24H1153.47V237.159H1146.75V270H1153.47V256.049H1174.56V270H1181.33V237.159H1174.56ZM1220.75 242.968V237.159H1184.98V242.968H1199.48V270H1206.25V242.968H1220.75ZM1219.74 262.865C1222.94 267.484 1230.72 270.503 1238.54 270.503C1247.83 270.503 1255.01 266.89 1255.01 259.709C1255.01 252.619 1248.42 251.384 1239.09 250.332C1230.77 249.371 1228.57 248.822 1228.57 246.444C1228.57 244.248 1231.22 242.373 1237.08 242.373C1242.66 242.373 1247.32 244.248 1249.84 247.496L1254.32 243.196C1251.35 239.263 1244.76 236.656 1237.44 236.656C1228.11 236.656 1222.03 240.909 1222.03 247.13C1222.03 253.625 1228.2 255.135 1236.26 256.049C1245.49 257.056 1248.19 257.33 1248.19 260.44C1248.19 263.093 1244.31 264.74 1238.82 264.74C1233.97 264.74 1228.02 263.185 1224.27 258.153L1219.74 262.865ZM32.6651 307.787H44.3745L52.1046 320H59.8346L51.4642 307.147C56.1297 305.866 59.057 302.527 59.057 297.496C59.057 290.726 54.0256 287.159 46.57 287.159H25.9414V320H32.6651V307.787ZM32.6651 302.161V292.876H46.2041C50.1378 292.876 52.379 294.569 52.379 297.542C52.379 300.469 50.1378 302.161 46.2041 302.161H32.6651ZM79.0236 320.457C90.5043 320.457 95.9016 314.054 95.9016 304.494V287.159H89.1321V304.128C89.1321 310.303 86.4792 314.557 79.0236 314.557C71.5222 314.557 68.8693 310.303 68.8693 304.128V287.159H62.1455V304.494C62.1455 314.054 67.4971 320.457 79.0236 320.457ZM100.76 320H130.582V314.191H107.484V287.159H100.76V320ZM134.44 287.159V320H166.229V314.191H141.072V306.049H163.622V300.286H141.072V292.968H166.229V287.159H134.44ZM200.334 286.656C189.082 286.656 180.941 293.837 180.941 303.579C180.941 313.322 189.082 320.503 200.334 320.503C211.541 320.503 219.728 313.322 219.728 303.579C219.728 293.837 211.541 286.656 200.334 286.656ZM200.334 292.556C207.698 292.556 212.821 296.947 212.821 303.579C212.821 310.212 207.698 314.603 200.334 314.603C192.97 314.603 187.847 310.212 187.847 303.579C187.847 296.947 192.97 292.556 200.334 292.556ZM230.274 320V306.964H252.32V301.155H230.274V292.968H254.927V287.159H223.641V320H230.274ZM271.079 320H300.901V314.191H277.802V287.159H271.079V320ZM318.114 287.159L301.556 320H308.737L312.58 312.361H331.15L334.946 320H342.219L325.661 287.159H318.114ZM321.865 293.791L328.268 306.644H315.415L321.865 293.791ZM361.346 287.159L353.113 312.59L344.468 287.159H337.425L348.905 320H356.681L364.777 294.889L372.781 320H380.603L392.084 287.159H385.177L376.532 312.59L368.345 287.159H361.346ZM446.962 287.159V300.24H425.876V287.159H419.152V320H425.876V306.049H446.962V320H453.732V287.159H446.962ZM475.406 320.457C486.887 320.457 492.284 314.054 492.284 304.494V287.159H485.515V304.128C485.515 310.303 482.862 314.557 475.406 314.557C467.905 314.557 465.252 310.303 465.252 304.128V287.159H458.528V304.494C458.528 314.054 463.88 320.457 475.406 320.457ZM521.064 320L532.957 293.562V320H539.543V287.159H529.435L518.411 311.767L507.388 287.159H497.142V320H503.683V293.562L515.621 320H521.064ZM558.65 287.159L542.093 320H549.274L553.116 312.361H571.686L575.483 320H582.755L566.198 287.159H558.65ZM562.401 293.791L568.805 306.644H555.952L562.401 293.791ZM619.255 287.159H612.714V310.349L592.222 287.159H585.361V320H591.856V295.712L613.308 320H619.255V287.159ZM643.945 307.787H655.654L663.384 320H671.114L662.744 307.147C667.409 305.866 670.336 302.527 670.336 297.496C670.336 290.726 665.305 287.159 657.849 287.159H637.221V320H643.945V307.787ZM643.945 302.161V292.876H657.484C661.417 292.876 663.658 294.569 663.658 297.542C663.658 300.469 661.417 302.161 657.484 302.161H643.945ZM680.885 287.159H674.161V320H680.885V287.159ZM704.599 286.656C693.118 286.656 684.794 293.745 684.794 303.488C684.794 313.322 692.936 320.503 704.325 320.503C709.814 320.503 714.479 318.536 716.354 316.158V320H722.666V302.024H701.626V307.696H716.4C715.943 311.767 710.454 314.648 704.371 314.648C697.052 314.648 691.701 310.212 691.701 303.579C691.701 296.901 697.144 292.556 704.553 292.556C710.362 292.556 714.388 295.163 716.263 299.646L722.163 296.81C719.648 290.498 713.198 286.656 704.599 286.656ZM755.483 287.159V300.24H734.397V287.159H727.673V320H734.397V306.049H755.483V320H762.253V287.159H755.483ZM801.674 292.968V287.159H765.905V292.968H780.405V320H787.174V292.968H801.674ZM800.669 312.865C803.871 317.484 811.647 320.503 819.468 320.503C828.754 320.503 835.935 316.89 835.935 309.709C835.935 302.619 829.348 301.384 820.017 300.332C811.693 299.371 809.497 298.822 809.497 296.444C809.497 294.248 812.15 292.373 818.005 292.373C823.585 292.373 828.251 294.248 830.766 297.496L835.249 293.196C832.276 289.263 825.689 286.656 818.371 286.656C809.04 286.656 802.956 290.909 802.956 297.13C802.956 303.625 809.131 305.135 817.181 306.049C826.421 307.056 829.12 307.33 829.12 310.44C829.12 313.093 825.232 314.74 819.743 314.74C814.894 314.74 808.948 313.185 805.198 308.153L800.669 312.865ZM870.813 307.787H882.522L890.252 320H897.982L889.612 307.147C894.277 305.866 897.204 302.527 897.204 297.496C897.204 290.726 892.173 287.159 884.717 287.159H864.089V320H870.813V307.787ZM870.813 302.161V292.876H884.352C888.285 292.876 890.526 294.569 890.526 297.542C890.526 300.469 888.285 302.161 884.352 302.161H870.813ZM917.171 320.457C928.652 320.457 934.049 314.054 934.049 304.494V287.159H927.28V304.128C927.28 310.303 924.627 314.557 917.171 314.557C909.67 314.557 907.017 310.303 907.017 304.128V287.159H900.293V304.494C900.293 314.054 905.645 320.457 917.171 320.457ZM938.907 320H968.73V314.191H945.631V287.159H938.907V320ZM972.587 287.159V320H1004.38V314.191H979.219V306.049H1001.77V300.286H979.219V292.968H1004.38V287.159H972.587ZM1038.48 286.656C1027.23 286.656 1019.09 293.837 1019.09 303.579C1019.09 313.322 1027.23 320.503 1038.48 320.503C1049.69 320.503 1057.88 313.322 1057.88 303.579C1057.88 293.837 1049.69 286.656 1038.48 286.656ZM1038.48 292.556C1045.85 292.556 1050.97 296.947 1050.97 303.579C1050.97 310.212 1045.85 314.603 1038.48 314.603C1031.12 314.603 1025.99 310.212 1025.99 303.579C1025.99 296.947 1031.12 292.556 1038.48 292.556ZM1068.42 320V306.964H1090.47V301.155H1068.42V292.968H1093.07V287.159H1061.79V320H1068.42ZM1109.23 320H1139.05V314.191H1115.95V287.159H1109.23V320ZM1156.26 287.159L1139.7 320H1146.88L1150.73 312.361H1169.3L1173.09 320H1180.37L1163.81 287.159H1156.26ZM1160.01 293.791L1166.42 306.644H1153.56L1160.01 293.791ZM1199.49 287.159L1191.26 312.59L1182.62 287.159H1175.57L1187.05 320H1194.83L1202.92 294.889L1210.93 320H1218.75L1230.23 287.159H1223.32L1214.68 312.59L1206.49 287.159H1199.49ZM27.8885 337.159V350.24H6.80246V337.159H0.0786945V370H6.80246V356.049H27.8885V370H34.658V337.159H27.8885ZM56.3323 370.457C67.813 370.457 73.2103 364.054 73.2103 354.494V337.159H66.4408V354.128C66.4408 360.303 63.7879 364.557 56.3323 364.557C48.831 364.557 46.1781 360.303 46.1781 354.128V337.159H39.4543V354.494C39.4543 364.054 44.8059 370.457 56.3323 370.457ZM101.991 370L113.883 343.562V370H120.47V337.159H110.361L99.3378 361.767L88.3145 337.159H78.0687V370H84.6095V343.562L96.5477 370H101.991ZM139.577 337.159L123.019 370H130.2L134.042 362.361H152.613L156.409 370H163.682L147.124 337.159H139.577ZM143.327 343.791L149.731 356.644H136.878L143.327 343.791ZM200.181 337.159H193.64V360.349L173.149 337.159H166.288V370H172.783V345.712L194.235 370H200.181V337.159ZM224.871 357.787H236.58L244.31 370H252.04L243.67 357.147C248.335 355.866 251.263 352.527 251.263 347.496C251.263 340.726 246.231 337.159 238.776 337.159H218.147V370H224.871V357.787ZM224.871 352.161V342.876H238.41C242.343 342.876 244.585 344.569 244.585 347.542C244.585 350.469 242.343 352.161 238.41 352.161H224.871ZM261.811 337.159H255.087V370H261.811V337.159ZM285.526 336.656C274.045 336.656 265.72 343.745 265.72 353.488C265.72 363.322 273.862 370.503 285.251 370.503C290.74 370.503 295.405 368.536 297.281 366.158V370H303.593V352.024H282.552V357.696H297.326C296.869 361.767 291.38 364.648 285.297 364.648C277.978 364.648 272.627 360.212 272.627 353.579C272.627 346.901 278.07 342.556 285.48 342.556C291.289 342.556 295.314 345.163 297.189 349.646L303.09 346.81C300.574 340.498 294.125 336.656 285.526 336.656ZM336.409 337.159V350.24H315.323V337.159H308.599V370H315.323V356.049H336.409V370H343.179V337.159H336.409ZM382.6 342.968V337.159H346.832V342.968H361.331V370H368.101V342.968H382.6ZM381.596 362.865C384.797 367.484 392.573 370.503 400.395 370.503C409.68 370.503 416.861 366.89 416.861 359.709C416.861 352.619 410.275 351.384 400.944 350.332C392.619 349.371 390.423 348.822 390.423 346.444C390.423 344.248 393.076 342.373 398.931 342.373C404.511 342.373 409.177 344.248 411.693 347.496L416.175 343.196C413.202 339.263 406.615 336.656 399.297 336.656C389.966 336.656 383.883 340.909 383.883 347.13C383.883 353.625 390.058 355.135 398.108 356.049C407.347 357.056 410.046 357.33 410.046 360.44C410.046 363.093 406.158 364.74 400.669 364.74C395.821 364.74 389.875 363.185 386.124 358.153L381.596 362.865ZM451.739 357.787H463.448L471.178 370H478.908L470.538 357.147C475.203 355.866 478.131 352.527 478.131 347.496C478.131 340.726 473.099 337.159 465.644 337.159H445.015V370H451.739V357.787ZM451.739 352.161V342.876H465.278C469.211 342.876 471.453 344.569 471.453 347.542C471.453 350.469 469.211 352.161 465.278 352.161H451.739ZM498.097 370.457C509.578 370.457 514.975 364.054 514.975 354.494V337.159H508.206V354.128C508.206 360.303 505.553 364.557 498.097 364.557C490.596 364.557 487.943 360.303 487.943 354.128V337.159H481.219V354.494C481.219 364.054 486.571 370.457 498.097 370.457ZM519.834 370H549.656V364.191H526.557V337.159H519.834V370ZM553.513 337.159V370H585.302V364.191H560.146V356.049H582.695V350.286H560.146V342.968H585.302V337.159H553.513ZM619.408 336.656C608.156 336.656 600.014 343.837 600.014 353.579C600.014 363.322 608.156 370.503 619.408 370.503C630.614 370.503 638.802 363.322 638.802 353.579C638.802 343.837 630.614 336.656 619.408 336.656ZM619.408 342.556C626.772 342.556 631.895 346.947 631.895 353.579C631.895 360.212 626.772 364.603 619.408 364.603C612.044 364.603 606.921 360.212 606.921 353.579C606.921 346.947 612.044 342.556 619.408 342.556ZM649.347 370V356.964H671.394V351.155H649.347V342.968H674.001V337.159H642.715V370H649.347ZM690.152 370H719.975V364.191H696.876V337.159H690.152V370ZM737.188 337.159L720.63 370H727.811L731.653 362.361H750.224L754.02 370H761.293L744.735 337.159H737.188ZM740.938 343.791L747.342 356.644H734.489L740.938 343.791ZM780.42 337.159L772.187 362.59L763.542 337.159H756.498L767.979 370H775.755L783.851 344.889L791.855 370H799.677L811.157 337.159H804.251L795.606 362.59L787.418 337.159H780.42ZM866.036 337.159V350.24H844.95V337.159H838.226V370H844.95V356.049H866.036V370H872.805V337.159H866.036ZM894.48 370.457C905.96 370.457 911.358 364.054 911.358 354.494V337.159H904.588V354.128C904.588 360.303 901.935 364.557 894.48 364.557C886.978 364.557 884.325 360.303 884.325 354.128V337.159H877.602V354.494C877.602 364.054 882.953 370.457 894.48 370.457ZM940.138 370L952.03 343.562V370H958.617V337.159H948.508L937.485 361.767L926.462 337.159H916.216V370H922.757V343.562L934.695 370H940.138ZM977.724 337.159L961.166 370H968.347L972.19 362.361H990.76L994.556 370H1001.83L985.271 337.159H977.724ZM981.475 343.791L987.878 356.644H975.026L981.475 343.791ZM1038.33 337.159H1031.79V360.349L1011.3 337.159H1004.44V370H1010.93V345.712L1032.38 370H1038.33V337.159ZM1063.02 357.787H1074.73L1082.46 370H1090.19L1081.82 357.147C1086.48 355.866 1089.41 352.527 1089.41 347.496C1089.41 340.726 1084.38 337.159 1076.92 337.159H1056.29V370H1063.02V357.787ZM1063.02 352.161V342.876H1076.56C1080.49 342.876 1082.73 344.569 1082.73 347.542C1082.73 350.469 1080.49 352.161 1076.56 352.161H1063.02ZM1099.96 337.159H1093.23V370H1099.96V337.159ZM1123.67 336.656C1112.19 336.656 1103.87 343.745 1103.87 353.488C1103.87 363.322 1112.01 370.503 1123.4 370.503C1128.89 370.503 1133.55 368.536 1135.43 366.158V370H1141.74V352.024H1120.7V357.696H1135.47C1135.02 361.767 1129.53 364.648 1123.44 364.648C1116.13 364.648 1110.77 360.212 1110.77 353.579C1110.77 346.901 1116.22 342.556 1123.63 342.556C1129.44 342.556 1133.46 345.163 1135.34 349.646L1141.24 346.81C1138.72 340.498 1132.27 336.656 1123.67 336.656ZM1174.56 337.159V350.24H1153.47V337.159H1146.75V370H1153.47V356.049H1174.56V370H1181.33V337.159H1174.56ZM1220.75 342.968V337.159H1184.98V342.968H1199.48V370H1206.25V342.968H1220.75ZM1219.74 362.865C1222.94 367.484 1230.72 370.503 1238.54 370.503C1247.83 370.503 1255.01 366.89 1255.01 359.709C1255.01 352.619 1248.42 351.384 1239.09 350.332C1230.77 349.371 1228.57 348.822 1228.57 346.444C1228.57 344.248 1231.22 342.373 1237.08 342.373C1242.66 342.373 1247.32 344.248 1249.84 347.496L1254.32 343.196C1251.35 339.263 1244.76 336.656 1237.44 336.656C1228.11 336.656 1222.03 340.909 1222.03 347.13C1222.03 353.625 1228.2 355.135 1236.26 356.049C1245.49 357.056 1248.19 357.33 1248.19 360.44C1248.19 363.093 1244.31 364.74 1238.82 364.74C1233.97 364.74 1228.02 363.185 1224.27 358.153L1219.74 362.865ZM32.6651 407.787H44.3745L52.1046 420H59.8346L51.4642 407.147C56.1297 405.866 59.057 402.527 59.057 397.496C59.057 390.726 54.0256 387.159 46.57 387.159H25.9414V420H32.6651V407.787ZM32.6651 402.161V392.876H46.2041C50.1378 392.876 52.379 394.569 52.379 397.542C52.379 400.469 50.1378 402.161 46.2041 402.161H32.6651ZM79.0236 420.457C90.5043 420.457 95.9016 414.054 95.9016 404.494V387.159H89.1321V404.128C89.1321 410.303 86.4792 414.557 79.0236 414.557C71.5222 414.557 68.8693 410.303 68.8693 404.128V387.159H62.1455V404.494C62.1455 414.054 67.4971 420.457 79.0236 420.457ZM100.76 420H130.582V414.191H107.484V387.159H100.76V420ZM134.44 387.159V420H166.229V414.191H141.072V406.049H163.622V400.286H141.072V392.968H166.229V387.159H134.44ZM200.334 386.656C189.082 386.656 180.941 393.837 180.941 403.579C180.941 413.322 189.082 420.503 200.334 420.503C211.541 420.503 219.728 413.322 219.728 403.579C219.728 393.837 211.541 386.656 200.334 386.656ZM200.334 392.556C207.698 392.556 212.821 396.947 212.821 403.579C212.821 410.212 207.698 414.603 200.334 414.603C192.97 414.603 187.847 410.212 187.847 403.579C187.847 396.947 192.97 392.556 200.334 392.556ZM230.274 420V406.964H252.32V401.155H230.274V392.968H254.927V387.159H223.641V420H230.274ZM271.079 420H300.901V414.191H277.802V387.159H271.079V420ZM318.114 387.159L301.556 420H308.737L312.58 412.361H331.15L334.946 420H342.219L325.661 387.159H318.114ZM321.865 393.791L328.268 406.644H315.415L321.865 393.791ZM361.346 387.159L353.113 412.59L344.468 387.159H337.425L348.905 420H356.681L364.777 394.889L372.781 420H380.603L392.084 387.159H385.177L376.532 412.59L368.345 387.159H361.346ZM446.962 387.159V400.24H425.876V387.159H419.152V420H425.876V406.049H446.962V420H453.732V387.159H446.962ZM475.406 420.457C486.887 420.457 492.284 414.054 492.284 404.494V387.159H485.515V404.128C485.515 410.303 482.862 414.557 475.406 414.557C467.905 414.557 465.252 410.303 465.252 404.128V387.159H458.528V404.494C458.528 414.054 463.88 420.457 475.406 420.457ZM521.064 420L532.957 393.562V420H539.543V387.159H529.435L518.411 411.767L507.388 387.159H497.142V420H503.683V393.562L515.621 420H521.064ZM558.65 387.159L542.093 420H549.274L553.116 412.361H571.686L575.483 420H582.755L566.198 387.159H558.65ZM562.401 393.791L568.805 406.644H555.952L562.401 393.791ZM619.255 387.159H612.714V410.349L592.222 387.159H585.361V420H591.856V395.712L613.308 420H619.255V387.159ZM643.945 407.787H655.654L663.384 420H671.114L662.744 407.147C667.409 405.866 670.336 402.527 670.336 397.496C670.336 390.726 665.305 387.159 657.849 387.159H637.221V420H643.945V407.787ZM643.945 402.161V392.876H657.484C661.417 392.876 663.658 394.569 663.658 397.542C663.658 400.469 661.417 402.161 657.484 402.161H643.945ZM680.885 387.159H674.161V420H680.885V387.159ZM704.599 386.656C693.118 386.656 684.794 393.745 684.794 403.488C684.794 413.322 692.936 420.503 704.325 420.503C709.814 420.503 714.479 418.536 716.354 416.158V420H722.666V402.024H701.626V407.696H716.4C715.943 411.767 710.454 414.648 704.371 414.648C697.052 414.648 691.701 410.212 691.701 403.579C691.701 396.901 697.144 392.556 704.553 392.556C710.362 392.556 714.388 395.163 716.263 399.646L722.163 396.81C719.648 390.498 713.198 386.656 704.599 386.656ZM755.483 387.159V400.24H734.397V387.159H727.673V420H734.397V406.049H755.483V420H762.253V387.159H755.483ZM801.674 392.968V387.159H765.905V392.968H780.405V420H787.174V392.968H801.674ZM800.669 412.865C803.871 417.484 811.647 420.503 819.468 420.503C828.754 420.503 835.935 416.89 835.935 409.709C835.935 402.619 829.348 401.384 820.017 400.332C811.693 399.371 809.497 398.822 809.497 396.444C809.497 394.248 812.15 392.373 818.005 392.373C823.585 392.373 828.251 394.248 830.766 397.496L835.249 393.196C832.276 389.263 825.689 386.656 818.371 386.656C809.04 386.656 802.956 390.909 802.956 397.13C802.956 403.625 809.131 405.135 817.181 406.049C826.421 407.056 829.12 407.33 829.12 410.44C829.12 413.093 825.232 414.74 819.743 414.74C814.894 414.74 808.948 413.185 805.198 408.153L800.669 412.865ZM870.813 407.787H882.522L890.252 420H897.982L889.612 407.147C894.277 405.866 897.204 402.527 897.204 397.496C897.204 390.726 892.173 387.159 884.717 387.159H864.089V420H870.813V407.787ZM870.813 402.161V392.876H884.352C888.285 392.876 890.526 394.569 890.526 397.542C890.526 400.469 888.285 402.161 884.352 402.161H870.813ZM917.171 420.457C928.652 420.457 934.049 414.054 934.049 404.494V387.159H927.28V404.128C927.28 410.303 924.627 414.557 917.171 414.557C909.67 414.557 907.017 410.303 907.017 404.128V387.159H900.293V404.494C900.293 414.054 905.645 420.457 917.171 420.457ZM938.907 420H968.73V414.191H945.631V387.159H938.907V420ZM972.587 387.159V420H1004.38V414.191H979.219V406.049H1001.77V400.286H979.219V392.968H1004.38V387.159H972.587ZM1038.48 386.656C1027.23 386.656 1019.09 393.837 1019.09 403.579C1019.09 413.322 1027.23 420.503 1038.48 420.503C1049.69 420.503 1057.88 413.322 1057.88 403.579C1057.88 393.837 1049.69 386.656 1038.48 386.656ZM1038.48 392.556C1045.85 392.556 1050.97 396.947 1050.97 403.579C1050.97 410.212 1045.85 414.603 1038.48 414.603C1031.12 414.603 1025.99 410.212 1025.99 403.579C1025.99 396.947 1031.12 392.556 1038.48 392.556ZM1068.42 420V406.964H1090.47V401.155H1068.42V392.968H1093.07V387.159H1061.79V420H1068.42ZM1109.23 420H1139.05V414.191H1115.95V387.159H1109.23V420ZM1156.26 387.159L1139.7 420H1146.88L1150.73 412.361H1169.3L1173.09 420H1180.37L1163.81 387.159H1156.26ZM1160.01 393.791L1166.42 406.644H1153.56L1160.01 393.791ZM1199.49 387.159L1191.26 412.59L1182.62 387.159H1175.57L1187.05 420H1194.83L1202.92 394.889L1210.93 420H1218.75L1230.23 387.159H1223.32L1214.68 412.59L1206.49 387.159H1199.49ZM27.8885 437.159V450.24H6.80246V437.159H0.0786945V470H6.80246V456.049H27.8885V470H34.658V437.159H27.8885ZM56.3323 470.457C67.813 470.457 73.2103 464.054 73.2103 454.494V437.159H66.4408V454.128C66.4408 460.303 63.7879 464.557 56.3323 464.557C48.831 464.557 46.1781 460.303 46.1781 454.128V437.159H39.4543V454.494C39.4543 464.054 44.8059 470.457 56.3323 470.457ZM101.991 470L113.883 443.562V470H120.47V437.159H110.361L99.3378 461.767L88.3145 437.159H78.0687V470H84.6095V443.562L96.5477 470H101.991ZM139.577 437.159L123.019 470H130.2L134.042 462.361H152.613L156.409 470H163.682L147.124 437.159H139.577ZM143.327 443.791L149.731 456.644H136.878L143.327 443.791ZM200.181 437.159H193.64V460.349L173.149 437.159H166.288V470H172.783V445.712L194.235 470H200.181V437.159ZM224.871 457.787H236.58L244.31 470H252.04L243.67 457.147C248.335 455.866 251.263 452.527 251.263 447.496C251.263 440.726 246.231 437.159 238.776 437.159H218.147V470H224.871V457.787ZM224.871 452.161V442.876H238.41C242.343 442.876 244.585 444.569 244.585 447.542C244.585 450.469 242.343 452.161 238.41 452.161H224.871ZM261.811 437.159H255.087V470H261.811V437.159ZM285.526 436.656C274.045 436.656 265.72 443.745 265.72 453.488C265.72 463.322 273.862 470.503 285.251 470.503C290.74 470.503 295.405 468.536 297.281 466.158V470H303.593V452.024H282.552V457.696H297.326C296.869 461.767 291.38 464.648 285.297 464.648C277.978 464.648 272.627 460.212 272.627 453.579C272.627 446.901 278.07 442.556 285.48 442.556C291.289 442.556 295.314 445.163 297.189 449.646L303.09 446.81C300.574 440.498 294.125 436.656 285.526 436.656ZM336.409 437.159V450.24H315.323V437.159H308.599V470H315.323V456.049H336.409V470H343.179V437.159H336.409ZM382.6 442.968V437.159H346.832V442.968H361.331V470H368.101V442.968H382.6ZM381.596 462.865C384.797 467.484 392.573 470.503 400.395 470.503C409.68 470.503 416.861 466.89 416.861 459.709C416.861 452.619 410.275 451.384 400.944 450.332C392.619 449.371 390.423 448.822 390.423 446.444C390.423 444.248 393.076 442.373 398.931 442.373C404.511 442.373 409.177 444.248 411.693 447.496L416.175 443.196C413.202 439.263 406.615 436.656 399.297 436.656C389.966 436.656 383.883 440.909 383.883 447.13C383.883 453.625 390.058 455.135 398.108 456.049C407.347 457.056 410.046 457.33 410.046 460.44C410.046 463.093 406.158 464.74 400.669 464.74C395.821 464.74 389.875 463.185 386.124 458.153L381.596 462.865ZM451.739 457.787H463.448L471.178 470H478.908L470.538 457.147C475.203 455.866 478.131 452.527 478.131 447.496C478.131 440.726 473.099 437.159 465.644 437.159H445.015V470H451.739V457.787ZM451.739 452.161V442.876H465.278C469.211 442.876 471.453 444.569 471.453 447.542C471.453 450.469 469.211 452.161 465.278 452.161H451.739ZM498.097 470.457C509.578 470.457 514.975 464.054 514.975 454.494V437.159H508.206V454.128C508.206 460.303 505.553 464.557 498.097 464.557C490.596 464.557 487.943 460.303 487.943 454.128V437.159H481.219V454.494C481.219 464.054 486.571 470.457 498.097 470.457ZM519.834 470H549.656V464.191H526.557V437.159H519.834V470ZM553.513 437.159V470H585.302V464.191H560.146V456.049H582.695V450.286H560.146V442.968H585.302V437.159H553.513ZM619.408 436.656C608.156 436.656 600.014 443.837 600.014 453.579C600.014 463.322 608.156 470.503 619.408 470.503C630.614 470.503 638.802 463.322 638.802 453.579C638.802 443.837 630.614 436.656 619.408 436.656ZM619.408 442.556C626.772 442.556 631.895 446.947 631.895 453.579C631.895 460.212 626.772 464.603 619.408 464.603C612.044 464.603 606.921 460.212 606.921 453.579C606.921 446.947 612.044 442.556 619.408 442.556ZM649.347 470V456.964H671.394V451.155H649.347V442.968H674.001V437.159H642.715V470H649.347ZM690.152 470H719.975V464.191H696.876V437.159H690.152V470ZM737.188 437.159L720.63 470H727.811L731.653 462.361H750.224L754.02 470H761.293L744.735 437.159H737.188ZM740.938 443.791L747.342 456.644H734.489L740.938 443.791ZM780.42 437.159L772.187 462.59L763.542 437.159H756.498L767.979 470H775.755L783.851 444.889L791.855 470H799.677L811.157 437.159H804.251L795.606 462.59L787.418 437.159H780.42ZM866.036 437.159V450.24H844.95V437.159H838.226V470H844.95V456.049H866.036V470H872.805V437.159H866.036ZM894.48 470.457C905.96 470.457 911.358 464.054 911.358 454.494V437.159H904.588V454.128C904.588 460.303 901.935 464.557 894.48 464.557C886.978 464.557 884.325 460.303 884.325 454.128V437.159H877.602V454.494C877.602 464.054 882.953 470.457 894.48 470.457ZM940.138 470L952.03 443.562V470H958.617V437.159H948.508L937.485 461.767L926.462 437.159H916.216V470H922.757V443.562L934.695 470H940.138ZM977.724 437.159L961.166 470H968.347L972.19 462.361H990.76L994.556 470H1001.83L985.271 437.159H977.724ZM981.475 443.791L987.878 456.644H975.026L981.475 443.791ZM1038.33 437.159H1031.79V460.349L1011.3 437.159H1004.44V470H1010.93V445.712L1032.38 470H1038.33V437.159ZM1063.02 457.787H1074.73L1082.46 470H1090.19L1081.82 457.147C1086.48 455.866 1089.41 452.527 1089.41 447.496C1089.41 440.726 1084.38 437.159 1076.92 437.159H1056.29V470H1063.02V457.787ZM1063.02 452.161V442.876H1076.56C1080.49 442.876 1082.73 444.569 1082.73 447.542C1082.73 450.469 1080.49 452.161 1076.56 452.161H1063.02ZM1099.96 437.159H1093.23V470H1099.96V437.159ZM1123.67 436.656C1112.19 436.656 1103.87 443.745 1103.87 453.488C1103.87 463.322 1112.01 470.503 1123.4 470.503C1128.89 470.503 1133.55 468.536 1135.43 466.158V470H1141.74V452.024H1120.7V457.696H1135.47C1135.02 461.767 1129.53 464.648 1123.44 464.648C1116.13 464.648 1110.77 460.212 1110.77 453.579C1110.77 446.901 1116.22 442.556 1123.63 442.556C1129.44 442.556 1133.46 445.163 1135.34 449.646L1141.24 446.81C1138.72 440.498 1132.27 436.656 1123.67 436.656ZM1174.56 437.159V450.24H1153.47V437.159H1146.75V470H1153.47V456.049H1174.56V470H1181.33V437.159H1174.56ZM1220.75 442.968V437.159H1184.98V442.968H1199.48V470H1206.25V442.968H1220.75ZM1219.74 462.865C1222.94 467.484 1230.72 470.503 1238.54 470.503C1247.83 470.503 1255.01 466.89 1255.01 459.709C1255.01 452.619 1248.42 451.384 1239.09 450.332C1230.77 449.371 1228.57 448.822 1228.57 446.444C1228.57 444.248 1231.22 442.373 1237.08 442.373C1242.66 442.373 1247.32 444.248 1249.84 447.496L1254.32 443.196C1251.35 439.263 1244.76 436.656 1237.44 436.656C1228.11 436.656 1222.03 440.909 1222.03 447.13C1222.03 453.625 1228.2 455.135 1236.26 456.049C1245.49 457.056 1248.19 457.33 1248.19 460.44C1248.19 463.093 1244.31 464.74 1238.82 464.74C1233.97 464.74 1228.02 463.185 1224.27 458.153L1219.74 462.865Z" fill="#44D7F4"/>
</svg>
