<?xml version="1.0" encoding="utf-8"?>
<!-- Generator: Adobe Illustrator 26.3.1, SVG Export Plug-In . SVG Version: 6.00 Build 0)  -->
<svg version="1.1" id="Layer_1" xmlns="http://www.w3.org/2000/svg" width="219" height="219"
	 viewBox="0 0 219 219" style="enable-background:new 0 0 219 219;">
<style type="text/css">
	.st0{fill:#1CD681;}
	.st1{fill:#0968B1;}
</style>
<path class="st0" d="M109.5,0l16.27,6.76l17.56-1.4l13.39,11.45l17.14,4.1l9.2,15.03l15.03,9.19l4.1,17.14l11.45,13.39l-1.4,17.56
	L219,109.5l-6.76,16.27l1.4,17.56l-11.45,13.39l-4.1,17.14l-15.03,9.2l-9.2,15.03l-17.14,4.1l-13.39,11.45l-17.56-1.4L109.5,219
	l-16.27-6.76l-17.56,1.4l-13.39-11.45l-17.14-4.1l-9.19-15.03l-15.03-9.2l-4.1-17.14L5.36,143.34l1.4-17.56L0,109.5l6.76-16.27
	l-1.4-17.56l11.45-13.39l4.1-17.14l15.03-9.19l9.19-15.03l17.14-4.1L75.66,5.36l17.56,1.4L109.5,0z"/>
<path class="st1" d="M82.68,79.01c3.05,2.17,5.04,5.68,5.08,9.65l0.11,3.86l33.34-33.4c2.35-2.31,2.71-6.02,0.65-8.58
	c-1.3-1.61-3.19-2.42-5.09-2.42c-1.66,0-3.32,0.62-4.58,1.86L82.68,79.01z"/>
<path class="st1" d="M55.31,132.79l2.16-2.47l5.88-42.03c0.21-5.54,4.24-10.12,9.57-11.28l-0.17-5.9c0-3.47-2.88-6.3-6.41-6.3
	c-3.52,0-6.41,2.84-6.41,6.3l-6.15,44.02c0,0,0,0.01-0.01,0.01l-5.94,6.8c-0.93,1.06-0.87,2.65,0.14,3.64L55.31,132.79z"/>
<path class="st1" d="M128.83,60.36c2.66,0.62,5.05,2.1,6.8,4.26c1.16,1.44,1.93,3.08,2.31,4.79l3.46-3.4
	c2.35-2.31,2.71-6.02,0.65-8.58c-1.3-1.61-3.19-2.42-5.09-2.42c-1.66,0-3.32,0.62-4.58,1.86L128.83,60.36z"/>
<path class="st1" d="M169.73,62.82c0.58,0,1.17-0.17,1.68-0.53l7.25-5.05c1.31-0.91,1.62-2.69,0.69-3.98
	c-0.93-1.29-2.74-1.59-4.05-0.68l-7.25,5.05c-1.31,0.91-1.62,2.69-0.69,3.98C167.92,62.4,168.82,62.82,169.73,62.82z"/>
<path class="st1" d="M159.45,55.61c0.34,0.12,0.68,0.18,1.02,0.18c1.18,0,2.28-0.71,2.72-1.85l3.13-8.18
	c0.56-1.48-0.19-3.12-1.7-3.68c-1.5-0.56-3.17,0.19-3.74,1.67l-3.12,8.18C157.19,53.41,157.95,55.06,159.45,55.61z"/>
<path class="st1" d="M182.26,68.09c-0.02,0-0.04,0-0.06,0l-8.88,0.07c-1.6,0.03-2.88,1.24-2.84,2.82c0.03,1.56,1.32,2.82,2.9,2.82
	c0.02,0,0.04,0,0.06,0l8.88-0.15c1.6-0.03,2.88-1.3,2.84-2.88C185.13,69.22,183.84,68.09,182.26,68.09z"/>
<path class="st1" d="M162.29,125.65c2.7-2.65,2.51-7.11-0.57-9.51c-1.15-0.9-2.54-1.33-3.92-1.33c-1.74,0-3.49,0.68-4.8,1.97
	l-14.5,14.27c-0.58,0.57-1.35,0.86-2.11,0.86c-0.77,0-1.53-0.29-2.11-0.86l-0.04-0.04c-1.26-1.24-1.26-3.26,0-4.5l23.39-23.01
	c2.35-2.31,2.71-6.02,0.65-8.58c-1.3-1.61-3.19-2.42-5.09-2.42c-1.66,0-3.32,0.62-4.58,1.86l-23.61,23.23
	c-0.61,0.6-1.41,0.9-2.2,0.9c-0.8,0-1.6-0.3-2.2-0.9c-1.24-1.22-1.24-3.19,0-4.4l30.03-29.55c2.35-2.31,2.71-6.02,0.65-8.58
	c-1.3-1.61-3.19-2.42-5.09-2.42c-1.66,0-3.32,0.62-4.58,1.86l-30.18,29.69c-0.62,0.61-1.43,0.91-2.23,0.91
	c-0.81,0-1.62-0.3-2.23-0.91c-1.22-1.2-1.22-3.14,0-4.34l23.47-23.09c2.35-2.31,2.71-6.02,0.65-8.58c-1.3-1.61-3.19-2.42-5.09-2.42
	c-1.66,0-3.32,0.62-4.58,1.86l-34.07,33.52c-0.61,0.6-1.35,0.86-2.08,0.86c-1.5,0-2.95-1.12-3-2.85l-0.3-10.39
	c0-3.47-2.88-6.31-6.41-6.31c-3.52,0-6.41,2.84-6.41,6.31l-6.15,44.02c0,0.01,0,0.01-0.01,0.01l-5.94,6.79
	c-0.93,1.06-0.87,2.65,0.14,3.64l33.71,33.11c0.53,0.52,1.22,0.78,1.92,0.78c0.58,0,1.16-0.18,1.65-0.55l7.57-5.72
	c0.32-0.24,0.7-0.41,1.1-0.5c13.14-2.82,28.1-14.12,42.41-28.19L162.29,125.65z"/>
</svg>
