<svg width="230" height="490" viewBox="0 0 230 490" fill="none" xmlns="http://www.w3.org/2000/svg">
<path d="M6.984 21V7.32H30.12V1.224H6.984V-7.368H32.856V-13.464H0.024V21H6.984ZM36.0585 -7.224H42.9225V-13.464H36.0585V-7.224ZM42.8745 -4.248H36.1545V21H42.8745V-4.248ZM48.0139 21H54.7339V8.616C54.7339 4.104 57.2299 1.32 61.7419 1.32C66.0619 1.32 68.2219 4.2 68.2219 8.52V21H74.9419V6.936C74.9419 -0.0720005 70.7659 -4.728 63.9499 -4.728C59.7259 -4.728 56.5579 -3.144 54.7339 -1.08V-4.248H48.0139V21ZM89.0078 21.528C93.5198 21.528 97.3118 20.04 99.6158 17.88C100.672 20.328 103.408 22.104 108.928 21V15.96C106.048 16.584 105.424 15.96 105.424 14.568V4.632C105.424 -1.512 100.816 -4.728 92.8958 -4.728C86.4158 -4.728 80.8478 -1.848 79.2638 2.568L85.0718 4.536C85.9358 2.328 88.9598 0.696 92.6558 0.696C97.0718 0.696 98.9438 2.424 98.9438 4.536V4.728L88.4318 5.832C82.3838 6.456 78.3998 9.048 78.3998 13.704C78.3998 18.792 82.9598 21.528 89.0078 21.528ZM98.9438 11.256C98.9438 14.616 94.0478 16.392 89.9198 16.392C86.7998 16.392 84.9278 15.432 84.9278 13.512C84.9278 11.64 86.4638 10.92 89.4398 10.584L98.9438 9.528V11.256ZM111.764 21H118.484V8.616C118.484 4.104 120.98 1.32 125.492 1.32C129.812 1.32 131.972 4.2 131.972 8.52V21H138.692V6.936C138.692 -0.0720005 134.516 -4.728 127.7 -4.728C123.476 -4.728 120.308 -3.144 118.484 -1.08V-4.248H111.764V21ZM142.198 8.376C142.198 16.2 148.63 21.528 157.174 21.528C164.23 21.528 168.934 17.592 170.422 13.56L164.854 10.728C163.942 13.512 161.014 15.96 157.126 15.96C152.326 15.96 148.726 13.128 148.726 8.376C148.726 3.672 152.326 0.839999 157.126 0.839999C161.014 0.839999 163.942 3.288 164.854 6.072L170.47 3.336C168.982 -0.744 164.23 -4.728 157.174 -4.728C148.63 -4.728 142.198 0.599999 142.198 8.376ZM186.985 16.056C182.665 16.056 179.353 13.896 178.537 10.248H200.905V8.136C200.905 0.935999 195.673 -4.728 186.937 -4.728C178.201 -4.728 172.057 0.935999 172.057 8.376C172.057 16.2 178.297 21.528 186.985 21.528C193.657 21.528 198.793 18.072 200.473 13.896L194.761 11.448C193.609 14.232 190.729 16.056 186.985 16.056ZM186.697 0.647999C191.065 0.647999 193.897 3.336 194.281 5.688H178.777C179.833 2.376 183.001 0.647999 186.697 0.647999ZM202.027 16.248C204.907 19.608 210.475 21.528 216.571 21.528C223.771 21.528 229.675 18.696 229.675 12.936C229.675 7.128 223.963 6.168 217.339 5.4C211.867 4.728 210.091 4.536 210.091 2.952C210.091 1.464 211.915 0.455998 215.659 0.455998C219.739 0.455998 223.099 1.8 225.211 4.104L229.051 0.0239997C226.699 -2.664 221.995 -4.728 215.995 -4.728C208.315 -4.728 203.515 -1.32 203.515 3.672C203.515 9.048 208.555 10.152 214.891 10.968C220.699 11.688 223.003 11.688 223.003 13.608C223.003 15.48 220.555 16.296 216.859 16.296C212.491 16.296 208.699 14.904 205.867 11.832L202.027 16.248ZM6.984 69V55.32H30.12V49.224H6.984V40.632H32.856V34.536H0.024V69H6.984ZM36.0585 40.776H42.9225V34.536H36.0585V40.776ZM42.8745 43.752H36.1545V69H42.8745V43.752ZM48.0139 69H54.7339V56.616C54.7339 52.104 57.2299 49.32 61.7419 49.32C66.0619 49.32 68.2219 52.2 68.2219 56.52V69H74.9419V54.936C74.9419 47.928 70.7659 43.272 63.9499 43.272C59.7259 43.272 56.5579 44.856 54.7339 46.92V43.752H48.0139V69ZM89.0078 69.528C93.5198 69.528 97.3118 68.04 99.6158 65.88C100.672 68.328 103.408 70.104 108.928 69V63.96C106.048 64.584 105.424 63.96 105.424 62.568V52.632C105.424 46.488 100.816 43.272 92.8958 43.272C86.4158 43.272 80.8478 46.152 79.2638 50.568L85.0718 52.536C85.9358 50.328 88.9598 48.696 92.6558 48.696C97.0718 48.696 98.9438 50.424 98.9438 52.536V52.728L88.4318 53.832C82.3838 54.456 78.3998 57.048 78.3998 61.704C78.3998 66.792 82.9598 69.528 89.0078 69.528ZM98.9438 59.256C98.9438 62.616 94.0478 64.392 89.9198 64.392C86.7998 64.392 84.9278 63.432 84.9278 61.512C84.9278 59.64 86.4638 58.92 89.4398 58.584L98.9438 57.528V59.256ZM111.764 69H118.484V56.616C118.484 52.104 120.98 49.32 125.492 49.32C129.812 49.32 131.972 52.2 131.972 56.52V69H138.692V54.936C138.692 47.928 134.516 43.272 127.7 43.272C123.476 43.272 120.308 44.856 118.484 46.92V43.752H111.764V69ZM142.198 56.376C142.198 64.2 148.63 69.528 157.174 69.528C164.23 69.528 168.934 65.592 170.422 61.56L164.854 58.728C163.942 61.512 161.014 63.96 157.126 63.96C152.326 63.96 148.726 61.128 148.726 56.376C148.726 51.672 152.326 48.84 157.126 48.84C161.014 48.84 163.942 51.288 164.854 54.072L170.47 51.336C168.982 47.256 164.23 43.272 157.174 43.272C148.63 43.272 142.198 48.6 142.198 56.376ZM186.985 64.056C182.665 64.056 179.353 61.896 178.537 58.248H200.905V56.136C200.905 48.936 195.673 43.272 186.937 43.272C178.201 43.272 172.057 48.936 172.057 56.376C172.057 64.2 178.297 69.528 186.985 69.528C193.657 69.528 198.793 66.072 200.473 61.896L194.761 59.448C193.609 62.232 190.729 64.056 186.985 64.056ZM186.697 48.648C191.065 48.648 193.897 51.336 194.281 53.688H178.777C179.833 50.376 183.001 48.648 186.697 48.648ZM202.027 64.248C204.907 67.608 210.475 69.528 216.571 69.528C223.771 69.528 229.675 66.696 229.675 60.936C229.675 55.128 223.963 54.168 217.339 53.4C211.867 52.728 210.091 52.536 210.091 50.952C210.091 49.464 211.915 48.456 215.659 48.456C219.739 48.456 223.099 49.8 225.211 52.104L229.051 48.024C226.699 45.336 221.995 43.272 215.995 43.272C208.315 43.272 203.515 46.68 203.515 51.672C203.515 57.048 208.555 58.152 214.891 58.968C220.699 59.688 223.003 59.688 223.003 61.608C223.003 63.48 220.555 64.296 216.859 64.296C212.491 64.296 208.699 62.904 205.867 59.832L202.027 64.248ZM6.984 117V103.32H30.12V97.224H6.984V88.632H32.856V82.536H0.024V117H6.984ZM36.0585 88.776H42.9225V82.536H36.0585V88.776ZM42.8745 91.752H36.1545V117H42.8745V91.752ZM48.0139 117H54.7339V104.616C54.7339 100.104 57.2299 97.32 61.7419 97.32C66.0619 97.32 68.2219 100.2 68.2219 104.52V117H74.9419V102.936C74.9419 95.928 70.7659 91.272 63.9499 91.272C59.7259 91.272 56.5579 92.856 54.7339 94.92V91.752H48.0139V117ZM89.0078 117.528C93.5198 117.528 97.3118 116.04 99.6158 113.88C100.672 116.328 103.408 118.104 108.928 117V111.96C106.048 112.584 105.424 111.96 105.424 110.568V100.632C105.424 94.488 100.816 91.272 92.8958 91.272C86.4158 91.272 80.8478 94.152 79.2638 98.568L85.0718 100.536C85.9358 98.328 88.9598 96.696 92.6558 96.696C97.0718 96.696 98.9438 98.424 98.9438 100.536V100.728L88.4318 101.832C82.3838 102.456 78.3998 105.048 78.3998 109.704C78.3998 114.792 82.9598 117.528 89.0078 117.528ZM98.9438 107.256C98.9438 110.616 94.0478 112.392 89.9198 112.392C86.7998 112.392 84.9278 111.432 84.9278 109.512C84.9278 107.64 86.4638 106.92 89.4398 106.584L98.9438 105.528V107.256ZM111.764 117H118.484V104.616C118.484 100.104 120.98 97.32 125.492 97.32C129.812 97.32 131.972 100.2 131.972 104.52V117H138.692V102.936C138.692 95.928 134.516 91.272 127.7 91.272C123.476 91.272 120.308 92.856 118.484 94.92V91.752H111.764V117ZM142.198 104.376C142.198 112.2 148.63 117.528 157.174 117.528C164.23 117.528 168.934 113.592 170.422 109.56L164.854 106.728C163.942 109.512 161.014 111.96 157.126 111.96C152.326 111.96 148.726 109.128 148.726 104.376C148.726 99.672 152.326 96.84 157.126 96.84C161.014 96.84 163.942 99.288 164.854 102.072L170.47 99.336C168.982 95.256 164.23 91.272 157.174 91.272C148.63 91.272 142.198 96.6 142.198 104.376ZM186.985 112.056C182.665 112.056 179.353 109.896 178.537 106.248H200.905V104.136C200.905 96.936 195.673 91.272 186.937 91.272C178.201 91.272 172.057 96.936 172.057 104.376C172.057 112.2 178.297 117.528 186.985 117.528C193.657 117.528 198.793 114.072 200.473 109.896L194.761 107.448C193.609 110.232 190.729 112.056 186.985 112.056ZM186.697 96.648C191.065 96.648 193.897 99.336 194.281 101.688H178.777C179.833 98.376 183.001 96.648 186.697 96.648ZM202.027 112.248C204.907 115.608 210.475 117.528 216.571 117.528C223.771 117.528 229.675 114.696 229.675 108.936C229.675 103.128 223.963 102.168 217.339 101.4C211.867 100.728 210.091 100.536 210.091 98.952C210.091 97.464 211.915 96.456 215.659 96.456C219.739 96.456 223.099 97.8 225.211 100.104L229.051 96.024C226.699 93.336 221.995 91.272 215.995 91.272C208.315 91.272 203.515 94.68 203.515 99.672C203.515 105.048 208.555 106.152 214.891 106.968C220.699 107.688 223.003 107.688 223.003 109.608C223.003 111.48 220.555 112.296 216.859 112.296C212.491 112.296 208.699 110.904 205.867 107.832L202.027 112.248ZM6.984 165V151.32H30.12V145.224H6.984V136.632H32.856V130.536H0.024V165H6.984ZM36.0585 136.776H42.9225V130.536H36.0585V136.776ZM42.8745 139.752H36.1545V165H42.8745V139.752ZM48.0139 165H54.7339V152.616C54.7339 148.104 57.2299 145.32 61.7419 145.32C66.0619 145.32 68.2219 148.2 68.2219 152.52V165H74.9419V150.936C74.9419 143.928 70.7659 139.272 63.9499 139.272C59.7259 139.272 56.5579 140.856 54.7339 142.92V139.752H48.0139V165ZM89.0078 165.528C93.5198 165.528 97.3118 164.04 99.6158 161.88C100.672 164.328 103.408 166.104 108.928 165V159.96C106.048 160.584 105.424 159.96 105.424 158.568V148.632C105.424 142.488 100.816 139.272 92.8958 139.272C86.4158 139.272 80.8478 142.152 79.2638 146.568L85.0718 148.536C85.9358 146.328 88.9598 144.696 92.6558 144.696C97.0718 144.696 98.9438 146.424 98.9438 148.536V148.728L88.4318 149.832C82.3838 150.456 78.3998 153.048 78.3998 157.704C78.3998 162.792 82.9598 165.528 89.0078 165.528ZM98.9438 155.256C98.9438 158.616 94.0478 160.392 89.9198 160.392C86.7998 160.392 84.9278 159.432 84.9278 157.512C84.9278 155.64 86.4638 154.92 89.4398 154.584L98.9438 153.528V155.256ZM111.764 165H118.484V152.616C118.484 148.104 120.98 145.32 125.492 145.32C129.812 145.32 131.972 148.2 131.972 152.52V165H138.692V150.936C138.692 143.928 134.516 139.272 127.7 139.272C123.476 139.272 120.308 140.856 118.484 142.92V139.752H111.764V165ZM142.198 152.376C142.198 160.2 148.63 165.528 157.174 165.528C164.23 165.528 168.934 161.592 170.422 157.56L164.854 154.728C163.942 157.512 161.014 159.96 157.126 159.96C152.326 159.96 148.726 157.128 148.726 152.376C148.726 147.672 152.326 144.84 157.126 144.84C161.014 144.84 163.942 147.288 164.854 150.072L170.47 147.336C168.982 143.256 164.23 139.272 157.174 139.272C148.63 139.272 142.198 144.6 142.198 152.376ZM186.985 160.056C182.665 160.056 179.353 157.896 178.537 154.248H200.905V152.136C200.905 144.936 195.673 139.272 186.937 139.272C178.201 139.272 172.057 144.936 172.057 152.376C172.057 160.2 178.297 165.528 186.985 165.528C193.657 165.528 198.793 162.072 200.473 157.896L194.761 155.448C193.609 158.232 190.729 160.056 186.985 160.056ZM186.697 144.648C191.065 144.648 193.897 147.336 194.281 149.688H178.777C179.833 146.376 183.001 144.648 186.697 144.648ZM202.027 160.248C204.907 163.608 210.475 165.528 216.571 165.528C223.771 165.528 229.675 162.696 229.675 156.936C229.675 151.128 223.963 150.168 217.339 149.4C211.867 148.728 210.091 148.536 210.091 146.952C210.091 145.464 211.915 144.456 215.659 144.456C219.739 144.456 223.099 145.8 225.211 148.104L229.051 144.024C226.699 141.336 221.995 139.272 215.995 139.272C208.315 139.272 203.515 142.68 203.515 147.672C203.515 153.048 208.555 154.152 214.891 154.968C220.699 155.688 223.003 155.688 223.003 157.608C223.003 159.48 220.555 160.296 216.859 160.296C212.491 160.296 208.699 158.904 205.867 155.832L202.027 160.248ZM6.984 213V199.32H30.12V193.224H6.984V184.632H32.856V178.536H0.024V213H6.984ZM36.0585 184.776H42.9225V178.536H36.0585V184.776ZM42.8745 187.752H36.1545V213H42.8745V187.752ZM48.0139 213H54.7339V200.616C54.7339 196.104 57.2299 193.32 61.7419 193.32C66.0619 193.32 68.2219 196.2 68.2219 200.52V213H74.9419V198.936C74.9419 191.928 70.7659 187.272 63.9499 187.272C59.7259 187.272 56.5579 188.856 54.7339 190.92V187.752H48.0139V213ZM89.0078 213.528C93.5198 213.528 97.3118 212.04 99.6158 209.88C100.672 212.328 103.408 214.104 108.928 213V207.96C106.048 208.584 105.424 207.96 105.424 206.568V196.632C105.424 190.488 100.816 187.272 92.8958 187.272C86.4158 187.272 80.8478 190.152 79.2638 194.568L85.0718 196.536C85.9358 194.328 88.9598 192.696 92.6558 192.696C97.0718 192.696 98.9438 194.424 98.9438 196.536V196.728L88.4318 197.832C82.3838 198.456 78.3998 201.048 78.3998 205.704C78.3998 210.792 82.9598 213.528 89.0078 213.528ZM98.9438 203.256C98.9438 206.616 94.0478 208.392 89.9198 208.392C86.7998 208.392 84.9278 207.432 84.9278 205.512C84.9278 203.64 86.4638 202.92 89.4398 202.584L98.9438 201.528V203.256ZM111.764 213H118.484V200.616C118.484 196.104 120.98 193.32 125.492 193.32C129.812 193.32 131.972 196.2 131.972 200.52V213H138.692V198.936C138.692 191.928 134.516 187.272 127.7 187.272C123.476 187.272 120.308 188.856 118.484 190.92V187.752H111.764V213ZM142.198 200.376C142.198 208.2 148.63 213.528 157.174 213.528C164.23 213.528 168.934 209.592 170.422 205.56L164.854 202.728C163.942 205.512 161.014 207.96 157.126 207.96C152.326 207.96 148.726 205.128 148.726 200.376C148.726 195.672 152.326 192.84 157.126 192.84C161.014 192.84 163.942 195.288 164.854 198.072L170.47 195.336C168.982 191.256 164.23 187.272 157.174 187.272C148.63 187.272 142.198 192.6 142.198 200.376ZM186.985 208.056C182.665 208.056 179.353 205.896 178.537 202.248H200.905V200.136C200.905 192.936 195.673 187.272 186.937 187.272C178.201 187.272 172.057 192.936 172.057 200.376C172.057 208.2 178.297 213.528 186.985 213.528C193.657 213.528 198.793 210.072 200.473 205.896L194.761 203.448C193.609 206.232 190.729 208.056 186.985 208.056ZM186.697 192.648C191.065 192.648 193.897 195.336 194.281 197.688H178.777C179.833 194.376 183.001 192.648 186.697 192.648ZM202.027 208.248C204.907 211.608 210.475 213.528 216.571 213.528C223.771 213.528 229.675 210.696 229.675 204.936C229.675 199.128 223.963 198.168 217.339 197.4C211.867 196.728 210.091 196.536 210.091 194.952C210.091 193.464 211.915 192.456 215.659 192.456C219.739 192.456 223.099 193.8 225.211 196.104L229.051 192.024C226.699 189.336 221.995 187.272 215.995 187.272C208.315 187.272 203.515 190.68 203.515 195.672C203.515 201.048 208.555 202.152 214.891 202.968C220.699 203.688 223.003 203.688 223.003 205.608C223.003 207.48 220.555 208.296 216.859 208.296C212.491 208.296 208.699 206.904 205.867 203.832L202.027 208.248ZM6.984 261V247.32H30.12V241.224H6.984V232.632H32.856V226.536H0.024V261H6.984ZM36.0585 232.776H42.9225V226.536H36.0585V232.776ZM42.8745 235.752H36.1545V261H42.8745V235.752ZM48.0139 261H54.7339V248.616C54.7339 244.104 57.2299 241.32 61.7419 241.32C66.0619 241.32 68.2219 244.2 68.2219 248.52V261H74.9419V246.936C74.9419 239.928 70.7659 235.272 63.9499 235.272C59.7259 235.272 56.5579 236.856 54.7339 238.92V235.752H48.0139V261ZM89.0078 261.528C93.5198 261.528 97.3118 260.04 99.6158 257.88C100.672 260.328 103.408 262.104 108.928 261V255.96C106.048 256.584 105.424 255.96 105.424 254.568V244.632C105.424 238.488 100.816 235.272 92.8958 235.272C86.4158 235.272 80.8478 238.152 79.2638 242.568L85.0718 244.536C85.9358 242.328 88.9598 240.696 92.6558 240.696C97.0718 240.696 98.9438 242.424 98.9438 244.536V244.728L88.4318 245.832C82.3838 246.456 78.3998 249.048 78.3998 253.704C78.3998 258.792 82.9598 261.528 89.0078 261.528ZM98.9438 251.256C98.9438 254.616 94.0478 256.392 89.9198 256.392C86.7998 256.392 84.9278 255.432 84.9278 253.512C84.9278 251.64 86.4638 250.92 89.4398 250.584L98.9438 249.528V251.256ZM111.764 261H118.484V248.616C118.484 244.104 120.98 241.32 125.492 241.32C129.812 241.32 131.972 244.2 131.972 248.52V261H138.692V246.936C138.692 239.928 134.516 235.272 127.7 235.272C123.476 235.272 120.308 236.856 118.484 238.92V235.752H111.764V261ZM142.198 248.376C142.198 256.2 148.63 261.528 157.174 261.528C164.23 261.528 168.934 257.592 170.422 253.56L164.854 250.728C163.942 253.512 161.014 255.96 157.126 255.96C152.326 255.96 148.726 253.128 148.726 248.376C148.726 243.672 152.326 240.84 157.126 240.84C161.014 240.84 163.942 243.288 164.854 246.072L170.47 243.336C168.982 239.256 164.23 235.272 157.174 235.272C148.63 235.272 142.198 240.6 142.198 248.376ZM186.985 256.056C182.665 256.056 179.353 253.896 178.537 250.248H200.905V248.136C200.905 240.936 195.673 235.272 186.937 235.272C178.201 235.272 172.057 240.936 172.057 248.376C172.057 256.2 178.297 261.528 186.985 261.528C193.657 261.528 198.793 258.072 200.473 253.896L194.761 251.448C193.609 254.232 190.729 256.056 186.985 256.056ZM186.697 240.648C191.065 240.648 193.897 243.336 194.281 245.688H178.777C179.833 242.376 183.001 240.648 186.697 240.648ZM202.027 256.248C204.907 259.608 210.475 261.528 216.571 261.528C223.771 261.528 229.675 258.696 229.675 252.936C229.675 247.128 223.963 246.168 217.339 245.4C211.867 244.728 210.091 244.536 210.091 242.952C210.091 241.464 211.915 240.456 215.659 240.456C219.739 240.456 223.099 241.8 225.211 244.104L229.051 240.024C226.699 237.336 221.995 235.272 215.995 235.272C208.315 235.272 203.515 238.68 203.515 243.672C203.515 249.048 208.555 250.152 214.891 250.968C220.699 251.688 223.003 251.688 223.003 253.608C223.003 255.48 220.555 256.296 216.859 256.296C212.491 256.296 208.699 254.904 205.867 251.832L202.027 256.248ZM6.984 309V295.32H30.12V289.224H6.984V280.632H32.856V274.536H0.024V309H6.984ZM36.0585 280.776H42.9225V274.536H36.0585V280.776ZM42.8745 283.752H36.1545V309H42.8745V283.752ZM48.0139 309H54.7339V296.616C54.7339 292.104 57.2299 289.32 61.7419 289.32C66.0619 289.32 68.2219 292.2 68.2219 296.52V309H74.9419V294.936C74.9419 287.928 70.7659 283.272 63.9499 283.272C59.7259 283.272 56.5579 284.856 54.7339 286.92V283.752H48.0139V309ZM89.0078 309.528C93.5198 309.528 97.3118 308.04 99.6158 305.88C100.672 308.328 103.408 310.104 108.928 309V303.96C106.048 304.584 105.424 303.96 105.424 302.568V292.632C105.424 286.488 100.816 283.272 92.8958 283.272C86.4158 283.272 80.8478 286.152 79.2638 290.568L85.0718 292.536C85.9358 290.328 88.9598 288.696 92.6558 288.696C97.0718 288.696 98.9438 290.424 98.9438 292.536V292.728L88.4318 293.832C82.3838 294.456 78.3998 297.048 78.3998 301.704C78.3998 306.792 82.9598 309.528 89.0078 309.528ZM98.9438 299.256C98.9438 302.616 94.0478 304.392 89.9198 304.392C86.7998 304.392 84.9278 303.432 84.9278 301.512C84.9278 299.64 86.4638 298.92 89.4398 298.584L98.9438 297.528V299.256ZM111.764 309H118.484V296.616C118.484 292.104 120.98 289.32 125.492 289.32C129.812 289.32 131.972 292.2 131.972 296.52V309H138.692V294.936C138.692 287.928 134.516 283.272 127.7 283.272C123.476 283.272 120.308 284.856 118.484 286.92V283.752H111.764V309ZM142.198 296.376C142.198 304.2 148.63 309.528 157.174 309.528C164.23 309.528 168.934 305.592 170.422 301.56L164.854 298.728C163.942 301.512 161.014 303.96 157.126 303.96C152.326 303.96 148.726 301.128 148.726 296.376C148.726 291.672 152.326 288.84 157.126 288.84C161.014 288.84 163.942 291.288 164.854 294.072L170.47 291.336C168.982 287.256 164.23 283.272 157.174 283.272C148.63 283.272 142.198 288.6 142.198 296.376ZM186.985 304.056C182.665 304.056 179.353 301.896 178.537 298.248H200.905V296.136C200.905 288.936 195.673 283.272 186.937 283.272C178.201 283.272 172.057 288.936 172.057 296.376C172.057 304.2 178.297 309.528 186.985 309.528C193.657 309.528 198.793 306.072 200.473 301.896L194.761 299.448C193.609 302.232 190.729 304.056 186.985 304.056ZM186.697 288.648C191.065 288.648 193.897 291.336 194.281 293.688H178.777C179.833 290.376 183.001 288.648 186.697 288.648ZM202.027 304.248C204.907 307.608 210.475 309.528 216.571 309.528C223.771 309.528 229.675 306.696 229.675 300.936C229.675 295.128 223.963 294.168 217.339 293.4C211.867 292.728 210.091 292.536 210.091 290.952C210.091 289.464 211.915 288.456 215.659 288.456C219.739 288.456 223.099 289.8 225.211 292.104L229.051 288.024C226.699 285.336 221.995 283.272 215.995 283.272C208.315 283.272 203.515 286.68 203.515 291.672C203.515 297.048 208.555 298.152 214.891 298.968C220.699 299.688 223.003 299.688 223.003 301.608C223.003 303.48 220.555 304.296 216.859 304.296C212.491 304.296 208.699 302.904 205.867 299.832L202.027 304.248ZM6.984 357V343.32H30.12V337.224H6.984V328.632H32.856V322.536H0.024V357H6.984ZM36.0585 328.776H42.9225V322.536H36.0585V328.776ZM42.8745 331.752H36.1545V357H42.8745V331.752ZM48.0139 357H54.7339V344.616C54.7339 340.104 57.2299 337.32 61.7419 337.32C66.0619 337.32 68.2219 340.2 68.2219 344.52V357H74.9419V342.936C74.9419 335.928 70.7659 331.272 63.9499 331.272C59.7259 331.272 56.5579 332.856 54.7339 334.92V331.752H48.0139V357ZM89.0078 357.528C93.5198 357.528 97.3118 356.04 99.6158 353.88C100.672 356.328 103.408 358.104 108.928 357V351.96C106.048 352.584 105.424 351.96 105.424 350.568V340.632C105.424 334.488 100.816 331.272 92.8958 331.272C86.4158 331.272 80.8478 334.152 79.2638 338.568L85.0718 340.536C85.9358 338.328 88.9598 336.696 92.6558 336.696C97.0718 336.696 98.9438 338.424 98.9438 340.536V340.728L88.4318 341.832C82.3838 342.456 78.3998 345.048 78.3998 349.704C78.3998 354.792 82.9598 357.528 89.0078 357.528ZM98.9438 347.256C98.9438 350.616 94.0478 352.392 89.9198 352.392C86.7998 352.392 84.9278 351.432 84.9278 349.512C84.9278 347.64 86.4638 346.92 89.4398 346.584L98.9438 345.528V347.256ZM111.764 357H118.484V344.616C118.484 340.104 120.98 337.32 125.492 337.32C129.812 337.32 131.972 340.2 131.972 344.52V357H138.692V342.936C138.692 335.928 134.516 331.272 127.7 331.272C123.476 331.272 120.308 332.856 118.484 334.92V331.752H111.764V357ZM142.198 344.376C142.198 352.2 148.63 357.528 157.174 357.528C164.23 357.528 168.934 353.592 170.422 349.56L164.854 346.728C163.942 349.512 161.014 351.96 157.126 351.96C152.326 351.96 148.726 349.128 148.726 344.376C148.726 339.672 152.326 336.84 157.126 336.84C161.014 336.84 163.942 339.288 164.854 342.072L170.47 339.336C168.982 335.256 164.23 331.272 157.174 331.272C148.63 331.272 142.198 336.6 142.198 344.376ZM186.985 352.056C182.665 352.056 179.353 349.896 178.537 346.248H200.905V344.136C200.905 336.936 195.673 331.272 186.937 331.272C178.201 331.272 172.057 336.936 172.057 344.376C172.057 352.2 178.297 357.528 186.985 357.528C193.657 357.528 198.793 354.072 200.473 349.896L194.761 347.448C193.609 350.232 190.729 352.056 186.985 352.056ZM186.697 336.648C191.065 336.648 193.897 339.336 194.281 341.688H178.777C179.833 338.376 183.001 336.648 186.697 336.648ZM202.027 352.248C204.907 355.608 210.475 357.528 216.571 357.528C223.771 357.528 229.675 354.696 229.675 348.936C229.675 343.128 223.963 342.168 217.339 341.4C211.867 340.728 210.091 340.536 210.091 338.952C210.091 337.464 211.915 336.456 215.659 336.456C219.739 336.456 223.099 337.8 225.211 340.104L229.051 336.024C226.699 333.336 221.995 331.272 215.995 331.272C208.315 331.272 203.515 334.68 203.515 339.672C203.515 345.048 208.555 346.152 214.891 346.968C220.699 347.688 223.003 347.688 223.003 349.608C223.003 351.48 220.555 352.296 216.859 352.296C212.491 352.296 208.699 350.904 205.867 347.832L202.027 352.248ZM6.984 405V391.32H30.12V385.224H6.984V376.632H32.856V370.536H0.024V405H6.984ZM36.0585 376.776H42.9225V370.536H36.0585V376.776ZM42.8745 379.752H36.1545V405H42.8745V379.752ZM48.0139 405H54.7339V392.616C54.7339 388.104 57.2299 385.32 61.7419 385.32C66.0619 385.32 68.2219 388.2 68.2219 392.52V405H74.9419V390.936C74.9419 383.928 70.7659 379.272 63.9499 379.272C59.7259 379.272 56.5579 380.856 54.7339 382.92V379.752H48.0139V405ZM89.0078 405.528C93.5198 405.528 97.3118 404.04 99.6158 401.88C100.672 404.328 103.408 406.104 108.928 405V399.96C106.048 400.584 105.424 399.96 105.424 398.568V388.632C105.424 382.488 100.816 379.272 92.8958 379.272C86.4158 379.272 80.8478 382.152 79.2638 386.568L85.0718 388.536C85.9358 386.328 88.9598 384.696 92.6558 384.696C97.0718 384.696 98.9438 386.424 98.9438 388.536V388.728L88.4318 389.832C82.3838 390.456 78.3998 393.048 78.3998 397.704C78.3998 402.792 82.9598 405.528 89.0078 405.528ZM98.9438 395.256C98.9438 398.616 94.0478 400.392 89.9198 400.392C86.7998 400.392 84.9278 399.432 84.9278 397.512C84.9278 395.64 86.4638 394.92 89.4398 394.584L98.9438 393.528V395.256ZM111.764 405H118.484V392.616C118.484 388.104 120.98 385.32 125.492 385.32C129.812 385.32 131.972 388.2 131.972 392.52V405H138.692V390.936C138.692 383.928 134.516 379.272 127.7 379.272C123.476 379.272 120.308 380.856 118.484 382.92V379.752H111.764V405ZM142.198 392.376C142.198 400.2 148.63 405.528 157.174 405.528C164.23 405.528 168.934 401.592 170.422 397.56L164.854 394.728C163.942 397.512 161.014 399.96 157.126 399.96C152.326 399.96 148.726 397.128 148.726 392.376C148.726 387.672 152.326 384.84 157.126 384.84C161.014 384.84 163.942 387.288 164.854 390.072L170.47 387.336C168.982 383.256 164.23 379.272 157.174 379.272C148.63 379.272 142.198 384.6 142.198 392.376ZM186.985 400.056C182.665 400.056 179.353 397.896 178.537 394.248H200.905V392.136C200.905 384.936 195.673 379.272 186.937 379.272C178.201 379.272 172.057 384.936 172.057 392.376C172.057 400.2 178.297 405.528 186.985 405.528C193.657 405.528 198.793 402.072 200.473 397.896L194.761 395.448C193.609 398.232 190.729 400.056 186.985 400.056ZM186.697 384.648C191.065 384.648 193.897 387.336 194.281 389.688H178.777C179.833 386.376 183.001 384.648 186.697 384.648ZM202.027 400.248C204.907 403.608 210.475 405.528 216.571 405.528C223.771 405.528 229.675 402.696 229.675 396.936C229.675 391.128 223.963 390.168 217.339 389.4C211.867 388.728 210.091 388.536 210.091 386.952C210.091 385.464 211.915 384.456 215.659 384.456C219.739 384.456 223.099 385.8 225.211 388.104L229.051 384.024C226.699 381.336 221.995 379.272 215.995 379.272C208.315 379.272 203.515 382.68 203.515 387.672C203.515 393.048 208.555 394.152 214.891 394.968C220.699 395.688 223.003 395.688 223.003 397.608C223.003 399.48 220.555 400.296 216.859 400.296C212.491 400.296 208.699 398.904 205.867 395.832L202.027 400.248ZM6.984 453V439.32H30.12V433.224H6.984V424.632H32.856V418.536H0.024V453H6.984ZM36.0585 424.776H42.9225V418.536H36.0585V424.776ZM42.8745 427.752H36.1545V453H42.8745V427.752ZM48.0139 453H54.7339V440.616C54.7339 436.104 57.2299 433.32 61.7419 433.32C66.0619 433.32 68.2219 436.2 68.2219 440.52V453H74.9419V438.936C74.9419 431.928 70.7659 427.272 63.9499 427.272C59.7259 427.272 56.5579 428.856 54.7339 430.92V427.752H48.0139V453ZM89.0078 453.528C93.5198 453.528 97.3118 452.04 99.6158 449.88C100.672 452.328 103.408 454.104 108.928 453V447.96C106.048 448.584 105.424 447.96 105.424 446.568V436.632C105.424 430.488 100.816 427.272 92.8958 427.272C86.4158 427.272 80.8478 430.152 79.2638 434.568L85.0718 436.536C85.9358 434.328 88.9598 432.696 92.6558 432.696C97.0718 432.696 98.9438 434.424 98.9438 436.536V436.728L88.4318 437.832C82.3838 438.456 78.3998 441.048 78.3998 445.704C78.3998 450.792 82.9598 453.528 89.0078 453.528ZM98.9438 443.256C98.9438 446.616 94.0478 448.392 89.9198 448.392C86.7998 448.392 84.9278 447.432 84.9278 445.512C84.9278 443.64 86.4638 442.92 89.4398 442.584L98.9438 441.528V443.256ZM111.764 453H118.484V440.616C118.484 436.104 120.98 433.32 125.492 433.32C129.812 433.32 131.972 436.2 131.972 440.52V453H138.692V438.936C138.692 431.928 134.516 427.272 127.7 427.272C123.476 427.272 120.308 428.856 118.484 430.92V427.752H111.764V453ZM142.198 440.376C142.198 448.2 148.63 453.528 157.174 453.528C164.23 453.528 168.934 449.592 170.422 445.56L164.854 442.728C163.942 445.512 161.014 447.96 157.126 447.96C152.326 447.96 148.726 445.128 148.726 440.376C148.726 435.672 152.326 432.84 157.126 432.84C161.014 432.84 163.942 435.288 164.854 438.072L170.47 435.336C168.982 431.256 164.23 427.272 157.174 427.272C148.63 427.272 142.198 432.6 142.198 440.376ZM186.985 448.056C182.665 448.056 179.353 445.896 178.537 442.248H200.905V440.136C200.905 432.936 195.673 427.272 186.937 427.272C178.201 427.272 172.057 432.936 172.057 440.376C172.057 448.2 178.297 453.528 186.985 453.528C193.657 453.528 198.793 450.072 200.473 445.896L194.761 443.448C193.609 446.232 190.729 448.056 186.985 448.056ZM186.697 432.648C191.065 432.648 193.897 435.336 194.281 437.688H178.777C179.833 434.376 183.001 432.648 186.697 432.648ZM202.027 448.248C204.907 451.608 210.475 453.528 216.571 453.528C223.771 453.528 229.675 450.696 229.675 444.936C229.675 439.128 223.963 438.168 217.339 437.4C211.867 436.728 210.091 436.536 210.091 434.952C210.091 433.464 211.915 432.456 215.659 432.456C219.739 432.456 223.099 433.8 225.211 436.104L229.051 432.024C226.699 429.336 221.995 427.272 215.995 427.272C208.315 427.272 203.515 430.68 203.515 435.672C203.515 441.048 208.555 442.152 214.891 442.968C220.699 443.688 223.003 443.688 223.003 445.608C223.003 447.48 220.555 448.296 216.859 448.296C212.491 448.296 208.699 446.904 205.867 443.832L202.027 448.248ZM6.984 501V487.32H30.12V481.224H6.984V472.632H32.856V466.536H0.024V501H6.984ZM36.0585 472.776H42.9225V466.536H36.0585V472.776ZM42.8745 475.752H36.1545V501H42.8745V475.752ZM48.0139 501H54.7339V488.616C54.7339 484.104 57.2299 481.32 61.7419 481.32C66.0619 481.32 68.2219 484.2 68.2219 488.52V501H74.9419V486.936C74.9419 479.928 70.7659 475.272 63.9499 475.272C59.7259 475.272 56.5579 476.856 54.7339 478.92V475.752H48.0139V501ZM89.0078 501.528C93.5198 501.528 97.3118 500.04 99.6158 497.88C100.672 500.328 103.408 502.104 108.928 501V495.96C106.048 496.584 105.424 495.96 105.424 494.568V484.632C105.424 478.488 100.816 475.272 92.8958 475.272C86.4158 475.272 80.8478 478.152 79.2638 482.568L85.0718 484.536C85.9358 482.328 88.9598 480.696 92.6558 480.696C97.0718 480.696 98.9438 482.424 98.9438 484.536V484.728L88.4318 485.832C82.3838 486.456 78.3998 489.048 78.3998 493.704C78.3998 498.792 82.9598 501.528 89.0078 501.528ZM98.9438 491.256C98.9438 494.616 94.0478 496.392 89.9198 496.392C86.7998 496.392 84.9278 495.432 84.9278 493.512C84.9278 491.64 86.4638 490.92 89.4398 490.584L98.9438 489.528V491.256ZM111.764 501H118.484V488.616C118.484 484.104 120.98 481.32 125.492 481.32C129.812 481.32 131.972 484.2 131.972 488.52V501H138.692V486.936C138.692 479.928 134.516 475.272 127.7 475.272C123.476 475.272 120.308 476.856 118.484 478.92V475.752H111.764V501ZM142.198 488.376C142.198 496.2 148.63 501.528 157.174 501.528C164.23 501.528 168.934 497.592 170.422 493.56L164.854 490.728C163.942 493.512 161.014 495.96 157.126 495.96C152.326 495.96 148.726 493.128 148.726 488.376C148.726 483.672 152.326 480.84 157.126 480.84C161.014 480.84 163.942 483.288 164.854 486.072L170.47 483.336C168.982 479.256 164.23 475.272 157.174 475.272C148.63 475.272 142.198 480.6 142.198 488.376ZM186.985 496.056C182.665 496.056 179.353 493.896 178.537 490.248H200.905V488.136C200.905 480.936 195.673 475.272 186.937 475.272C178.201 475.272 172.057 480.936 172.057 488.376C172.057 496.2 178.297 501.528 186.985 501.528C193.657 501.528 198.793 498.072 200.473 493.896L194.761 491.448C193.609 494.232 190.729 496.056 186.985 496.056ZM186.697 480.648C191.065 480.648 193.897 483.336 194.281 485.688H178.777C179.833 482.376 183.001 480.648 186.697 480.648ZM202.027 496.248C204.907 499.608 210.475 501.528 216.571 501.528C223.771 501.528 229.675 498.696 229.675 492.936C229.675 487.128 223.963 486.168 217.339 485.4C211.867 484.728 210.091 484.536 210.091 482.952C210.091 481.464 211.915 480.456 215.659 480.456C219.739 480.456 223.099 481.8 225.211 484.104L229.051 480.024C226.699 477.336 221.995 475.272 215.995 475.272C208.315 475.272 203.515 478.68 203.515 483.672C203.515 489.048 208.555 490.152 214.891 490.968C220.699 491.688 223.003 491.688 223.003 493.608C223.003 495.48 220.555 496.296 216.859 496.296C212.491 496.296 208.699 494.904 205.867 491.832L202.027 496.248Z" fill="#F9EEE5"/>
</svg>
