<svg width="230" height="406" viewBox="0 0 230 406" fill="none" xmlns="http://www.w3.org/2000/svg">
<path d="M6.984 25V11.32H30.12V5.224H6.984V-3.368H32.856V-9.464H0.024V25H6.984ZM36.0585 -3.224H42.9225V-9.464H36.0585V-3.224ZM42.8745 -0.248001H36.1545V25H42.8745V-0.248001ZM48.0139 25H54.7339V12.616C54.7339 8.104 57.2299 5.32 61.7419 5.32C66.0619 5.32 68.2219 8.2 68.2219 12.52V25H74.9419V10.936C74.9419 3.928 70.7659 -0.728001 63.9499 -0.728001C59.7259 -0.728001 56.5579 0.855999 54.7339 2.92V-0.248001H48.0139V25ZM89.0078 25.528C93.5198 25.528 97.3118 24.04 99.6158 21.88C100.672 24.328 103.408 26.104 108.928 25V19.96C106.048 20.584 105.424 19.96 105.424 18.568V8.632C105.424 2.488 100.816 -0.728001 92.8958 -0.728001C86.4158 -0.728001 80.8478 2.152 79.2638 6.568L85.0718 8.536C85.9358 6.328 88.9598 4.696 92.6558 4.696C97.0718 4.696 98.9438 6.424 98.9438 8.536V8.728L88.4318 9.832C82.3838 10.456 78.3998 13.048 78.3998 17.704C78.3998 22.792 82.9598 25.528 89.0078 25.528ZM98.9438 15.256C98.9438 18.616 94.0478 20.392 89.9198 20.392C86.7998 20.392 84.9278 19.432 84.9278 17.512C84.9278 15.64 86.4638 14.92 89.4398 14.584L98.9438 13.528V15.256ZM111.764 25H118.484V12.616C118.484 8.104 120.98 5.32 125.492 5.32C129.812 5.32 131.972 8.2 131.972 12.52V25H138.692V10.936C138.692 3.928 134.516 -0.728001 127.7 -0.728001C123.476 -0.728001 120.308 0.855999 118.484 2.92V-0.248001H111.764V25ZM142.198 12.376C142.198 20.2 148.63 25.528 157.174 25.528C164.23 25.528 168.934 21.592 170.422 17.56L164.854 14.728C163.942 17.512 161.014 19.96 157.126 19.96C152.326 19.96 148.726 17.128 148.726 12.376C148.726 7.672 152.326 4.84 157.126 4.84C161.014 4.84 163.942 7.288 164.854 10.072L170.47 7.336C168.982 3.256 164.23 -0.728001 157.174 -0.728001C148.63 -0.728001 142.198 4.6 142.198 12.376ZM186.985 20.056C182.665 20.056 179.353 17.896 178.537 14.248H200.905V12.136C200.905 4.936 195.673 -0.728001 186.937 -0.728001C178.201 -0.728001 172.057 4.936 172.057 12.376C172.057 20.2 178.297 25.528 186.985 25.528C193.657 25.528 198.793 22.072 200.473 17.896L194.761 15.448C193.609 18.232 190.729 20.056 186.985 20.056ZM186.697 4.648C191.065 4.648 193.897 7.336 194.281 9.688H178.777C179.833 6.376 183.001 4.648 186.697 4.648ZM202.027 20.248C204.907 23.608 210.475 25.528 216.571 25.528C223.771 25.528 229.675 22.696 229.675 16.936C229.675 11.128 223.963 10.168 217.339 9.4C211.867 8.728 210.091 8.536 210.091 6.952C210.091 5.464 211.915 4.456 215.659 4.456C219.739 4.456 223.099 5.8 225.211 8.104L229.051 4.024C226.699 1.336 221.995 -0.728001 215.995 -0.728001C208.315 -0.728001 203.515 2.68 203.515 7.672C203.515 13.048 208.555 14.152 214.891 14.968C220.699 15.688 223.003 15.688 223.003 17.608C223.003 19.48 220.555 20.296 216.859 20.296C212.491 20.296 208.699 18.904 205.867 15.832L202.027 20.248ZM6.984 73V59.32H30.12V53.224H6.984V44.632H32.856V38.536H0.024V73H6.984ZM36.0585 44.776H42.9225V38.536H36.0585V44.776ZM42.8745 47.752H36.1545V73H42.8745V47.752ZM48.0139 73H54.7339V60.616C54.7339 56.104 57.2299 53.32 61.7419 53.32C66.0619 53.32 68.2219 56.2 68.2219 60.52V73H74.9419V58.936C74.9419 51.928 70.7659 47.272 63.9499 47.272C59.7259 47.272 56.5579 48.856 54.7339 50.92V47.752H48.0139V73ZM89.0078 73.528C93.5198 73.528 97.3118 72.04 99.6158 69.88C100.672 72.328 103.408 74.104 108.928 73V67.96C106.048 68.584 105.424 67.96 105.424 66.568V56.632C105.424 50.488 100.816 47.272 92.8958 47.272C86.4158 47.272 80.8478 50.152 79.2638 54.568L85.0718 56.536C85.9358 54.328 88.9598 52.696 92.6558 52.696C97.0718 52.696 98.9438 54.424 98.9438 56.536V56.728L88.4318 57.832C82.3838 58.456 78.3998 61.048 78.3998 65.704C78.3998 70.792 82.9598 73.528 89.0078 73.528ZM98.9438 63.256C98.9438 66.616 94.0478 68.392 89.9198 68.392C86.7998 68.392 84.9278 67.432 84.9278 65.512C84.9278 63.64 86.4638 62.92 89.4398 62.584L98.9438 61.528V63.256ZM111.764 73H118.484V60.616C118.484 56.104 120.98 53.32 125.492 53.32C129.812 53.32 131.972 56.2 131.972 60.52V73H138.692V58.936C138.692 51.928 134.516 47.272 127.7 47.272C123.476 47.272 120.308 48.856 118.484 50.92V47.752H111.764V73ZM142.198 60.376C142.198 68.2 148.63 73.528 157.174 73.528C164.23 73.528 168.934 69.592 170.422 65.56L164.854 62.728C163.942 65.512 161.014 67.96 157.126 67.96C152.326 67.96 148.726 65.128 148.726 60.376C148.726 55.672 152.326 52.84 157.126 52.84C161.014 52.84 163.942 55.288 164.854 58.072L170.47 55.336C168.982 51.256 164.23 47.272 157.174 47.272C148.63 47.272 142.198 52.6 142.198 60.376ZM186.985 68.056C182.665 68.056 179.353 65.896 178.537 62.248H200.905V60.136C200.905 52.936 195.673 47.272 186.937 47.272C178.201 47.272 172.057 52.936 172.057 60.376C172.057 68.2 178.297 73.528 186.985 73.528C193.657 73.528 198.793 70.072 200.473 65.896L194.761 63.448C193.609 66.232 190.729 68.056 186.985 68.056ZM186.697 52.648C191.065 52.648 193.897 55.336 194.281 57.688H178.777C179.833 54.376 183.001 52.648 186.697 52.648ZM202.027 68.248C204.907 71.608 210.475 73.528 216.571 73.528C223.771 73.528 229.675 70.696 229.675 64.936C229.675 59.128 223.963 58.168 217.339 57.4C211.867 56.728 210.091 56.536 210.091 54.952C210.091 53.464 211.915 52.456 215.659 52.456C219.739 52.456 223.099 53.8 225.211 56.104L229.051 52.024C226.699 49.336 221.995 47.272 215.995 47.272C208.315 47.272 203.515 50.68 203.515 55.672C203.515 61.048 208.555 62.152 214.891 62.968C220.699 63.688 223.003 63.688 223.003 65.608C223.003 67.48 220.555 68.296 216.859 68.296C212.491 68.296 208.699 66.904 205.867 63.832L202.027 68.248ZM6.984 121V107.32H30.12V101.224H6.984V92.632H32.856V86.536H0.024V121H6.984ZM36.0585 92.776H42.9225V86.536H36.0585V92.776ZM42.8745 95.752H36.1545V121H42.8745V95.752ZM48.0139 121H54.7339V108.616C54.7339 104.104 57.2299 101.32 61.7419 101.32C66.0619 101.32 68.2219 104.2 68.2219 108.52V121H74.9419V106.936C74.9419 99.928 70.7659 95.272 63.9499 95.272C59.7259 95.272 56.5579 96.856 54.7339 98.92V95.752H48.0139V121ZM89.0078 121.528C93.5198 121.528 97.3118 120.04 99.6158 117.88C100.672 120.328 103.408 122.104 108.928 121V115.96C106.048 116.584 105.424 115.96 105.424 114.568V104.632C105.424 98.488 100.816 95.272 92.8958 95.272C86.4158 95.272 80.8478 98.152 79.2638 102.568L85.0718 104.536C85.9358 102.328 88.9598 100.696 92.6558 100.696C97.0718 100.696 98.9438 102.424 98.9438 104.536V104.728L88.4318 105.832C82.3838 106.456 78.3998 109.048 78.3998 113.704C78.3998 118.792 82.9598 121.528 89.0078 121.528ZM98.9438 111.256C98.9438 114.616 94.0478 116.392 89.9198 116.392C86.7998 116.392 84.9278 115.432 84.9278 113.512C84.9278 111.64 86.4638 110.92 89.4398 110.584L98.9438 109.528V111.256ZM111.764 121H118.484V108.616C118.484 104.104 120.98 101.32 125.492 101.32C129.812 101.32 131.972 104.2 131.972 108.52V121H138.692V106.936C138.692 99.928 134.516 95.272 127.7 95.272C123.476 95.272 120.308 96.856 118.484 98.92V95.752H111.764V121ZM142.198 108.376C142.198 116.2 148.63 121.528 157.174 121.528C164.23 121.528 168.934 117.592 170.422 113.56L164.854 110.728C163.942 113.512 161.014 115.96 157.126 115.96C152.326 115.96 148.726 113.128 148.726 108.376C148.726 103.672 152.326 100.84 157.126 100.84C161.014 100.84 163.942 103.288 164.854 106.072L170.47 103.336C168.982 99.256 164.23 95.272 157.174 95.272C148.63 95.272 142.198 100.6 142.198 108.376ZM186.985 116.056C182.665 116.056 179.353 113.896 178.537 110.248H200.905V108.136C200.905 100.936 195.673 95.272 186.937 95.272C178.201 95.272 172.057 100.936 172.057 108.376C172.057 116.2 178.297 121.528 186.985 121.528C193.657 121.528 198.793 118.072 200.473 113.896L194.761 111.448C193.609 114.232 190.729 116.056 186.985 116.056ZM186.697 100.648C191.065 100.648 193.897 103.336 194.281 105.688H178.777C179.833 102.376 183.001 100.648 186.697 100.648ZM202.027 116.248C204.907 119.608 210.475 121.528 216.571 121.528C223.771 121.528 229.675 118.696 229.675 112.936C229.675 107.128 223.963 106.168 217.339 105.4C211.867 104.728 210.091 104.536 210.091 102.952C210.091 101.464 211.915 100.456 215.659 100.456C219.739 100.456 223.099 101.8 225.211 104.104L229.051 100.024C226.699 97.336 221.995 95.272 215.995 95.272C208.315 95.272 203.515 98.68 203.515 103.672C203.515 109.048 208.555 110.152 214.891 110.968C220.699 111.688 223.003 111.688 223.003 113.608C223.003 115.48 220.555 116.296 216.859 116.296C212.491 116.296 208.699 114.904 205.867 111.832L202.027 116.248ZM6.984 169V155.32H30.12V149.224H6.984V140.632H32.856V134.536H0.024V169H6.984ZM36.0585 140.776H42.9225V134.536H36.0585V140.776ZM42.8745 143.752H36.1545V169H42.8745V143.752ZM48.0139 169H54.7339V156.616C54.7339 152.104 57.2299 149.32 61.7419 149.32C66.0619 149.32 68.2219 152.2 68.2219 156.52V169H74.9419V154.936C74.9419 147.928 70.7659 143.272 63.9499 143.272C59.7259 143.272 56.5579 144.856 54.7339 146.92V143.752H48.0139V169ZM89.0078 169.528C93.5198 169.528 97.3118 168.04 99.6158 165.88C100.672 168.328 103.408 170.104 108.928 169V163.96C106.048 164.584 105.424 163.96 105.424 162.568V152.632C105.424 146.488 100.816 143.272 92.8958 143.272C86.4158 143.272 80.8478 146.152 79.2638 150.568L85.0718 152.536C85.9358 150.328 88.9598 148.696 92.6558 148.696C97.0718 148.696 98.9438 150.424 98.9438 152.536V152.728L88.4318 153.832C82.3838 154.456 78.3998 157.048 78.3998 161.704C78.3998 166.792 82.9598 169.528 89.0078 169.528ZM98.9438 159.256C98.9438 162.616 94.0478 164.392 89.9198 164.392C86.7998 164.392 84.9278 163.432 84.9278 161.512C84.9278 159.64 86.4638 158.92 89.4398 158.584L98.9438 157.528V159.256ZM111.764 169H118.484V156.616C118.484 152.104 120.98 149.32 125.492 149.32C129.812 149.32 131.972 152.2 131.972 156.52V169H138.692V154.936C138.692 147.928 134.516 143.272 127.7 143.272C123.476 143.272 120.308 144.856 118.484 146.92V143.752H111.764V169ZM142.198 156.376C142.198 164.2 148.63 169.528 157.174 169.528C164.23 169.528 168.934 165.592 170.422 161.56L164.854 158.728C163.942 161.512 161.014 163.96 157.126 163.96C152.326 163.96 148.726 161.128 148.726 156.376C148.726 151.672 152.326 148.84 157.126 148.84C161.014 148.84 163.942 151.288 164.854 154.072L170.47 151.336C168.982 147.256 164.23 143.272 157.174 143.272C148.63 143.272 142.198 148.6 142.198 156.376ZM186.985 164.056C182.665 164.056 179.353 161.896 178.537 158.248H200.905V156.136C200.905 148.936 195.673 143.272 186.937 143.272C178.201 143.272 172.057 148.936 172.057 156.376C172.057 164.2 178.297 169.528 186.985 169.528C193.657 169.528 198.793 166.072 200.473 161.896L194.761 159.448C193.609 162.232 190.729 164.056 186.985 164.056ZM186.697 148.648C191.065 148.648 193.897 151.336 194.281 153.688H178.777C179.833 150.376 183.001 148.648 186.697 148.648ZM202.027 164.248C204.907 167.608 210.475 169.528 216.571 169.528C223.771 169.528 229.675 166.696 229.675 160.936C229.675 155.128 223.963 154.168 217.339 153.4C211.867 152.728 210.091 152.536 210.091 150.952C210.091 149.464 211.915 148.456 215.659 148.456C219.739 148.456 223.099 149.8 225.211 152.104L229.051 148.024C226.699 145.336 221.995 143.272 215.995 143.272C208.315 143.272 203.515 146.68 203.515 151.672C203.515 157.048 208.555 158.152 214.891 158.968C220.699 159.688 223.003 159.688 223.003 161.608C223.003 163.48 220.555 164.296 216.859 164.296C212.491 164.296 208.699 162.904 205.867 159.832L202.027 164.248ZM6.984 217V203.32H30.12V197.224H6.984V188.632H32.856V182.536H0.024V217H6.984ZM36.0585 188.776H42.9225V182.536H36.0585V188.776ZM42.8745 191.752H36.1545V217H42.8745V191.752ZM48.0139 217H54.7339V204.616C54.7339 200.104 57.2299 197.32 61.7419 197.32C66.0619 197.32 68.2219 200.2 68.2219 204.52V217H74.9419V202.936C74.9419 195.928 70.7659 191.272 63.9499 191.272C59.7259 191.272 56.5579 192.856 54.7339 194.92V191.752H48.0139V217ZM89.0078 217.528C93.5198 217.528 97.3118 216.04 99.6158 213.88C100.672 216.328 103.408 218.104 108.928 217V211.96C106.048 212.584 105.424 211.96 105.424 210.568V200.632C105.424 194.488 100.816 191.272 92.8958 191.272C86.4158 191.272 80.8478 194.152 79.2638 198.568L85.0718 200.536C85.9358 198.328 88.9598 196.696 92.6558 196.696C97.0718 196.696 98.9438 198.424 98.9438 200.536V200.728L88.4318 201.832C82.3838 202.456 78.3998 205.048 78.3998 209.704C78.3998 214.792 82.9598 217.528 89.0078 217.528ZM98.9438 207.256C98.9438 210.616 94.0478 212.392 89.9198 212.392C86.7998 212.392 84.9278 211.432 84.9278 209.512C84.9278 207.64 86.4638 206.92 89.4398 206.584L98.9438 205.528V207.256ZM111.764 217H118.484V204.616C118.484 200.104 120.98 197.32 125.492 197.32C129.812 197.32 131.972 200.2 131.972 204.52V217H138.692V202.936C138.692 195.928 134.516 191.272 127.7 191.272C123.476 191.272 120.308 192.856 118.484 194.92V191.752H111.764V217ZM142.198 204.376C142.198 212.2 148.63 217.528 157.174 217.528C164.23 217.528 168.934 213.592 170.422 209.56L164.854 206.728C163.942 209.512 161.014 211.96 157.126 211.96C152.326 211.96 148.726 209.128 148.726 204.376C148.726 199.672 152.326 196.84 157.126 196.84C161.014 196.84 163.942 199.288 164.854 202.072L170.47 199.336C168.982 195.256 164.23 191.272 157.174 191.272C148.63 191.272 142.198 196.6 142.198 204.376ZM186.985 212.056C182.665 212.056 179.353 209.896 178.537 206.248H200.905V204.136C200.905 196.936 195.673 191.272 186.937 191.272C178.201 191.272 172.057 196.936 172.057 204.376C172.057 212.2 178.297 217.528 186.985 217.528C193.657 217.528 198.793 214.072 200.473 209.896L194.761 207.448C193.609 210.232 190.729 212.056 186.985 212.056ZM186.697 196.648C191.065 196.648 193.897 199.336 194.281 201.688H178.777C179.833 198.376 183.001 196.648 186.697 196.648ZM202.027 212.248C204.907 215.608 210.475 217.528 216.571 217.528C223.771 217.528 229.675 214.696 229.675 208.936C229.675 203.128 223.963 202.168 217.339 201.4C211.867 200.728 210.091 200.536 210.091 198.952C210.091 197.464 211.915 196.456 215.659 196.456C219.739 196.456 223.099 197.8 225.211 200.104L229.051 196.024C226.699 193.336 221.995 191.272 215.995 191.272C208.315 191.272 203.515 194.68 203.515 199.672C203.515 205.048 208.555 206.152 214.891 206.968C220.699 207.688 223.003 207.688 223.003 209.608C223.003 211.48 220.555 212.296 216.859 212.296C212.491 212.296 208.699 210.904 205.867 207.832L202.027 212.248ZM6.984 265V251.32H30.12V245.224H6.984V236.632H32.856V230.536H0.024V265H6.984ZM36.0585 236.776H42.9225V230.536H36.0585V236.776ZM42.8745 239.752H36.1545V265H42.8745V239.752ZM48.0139 265H54.7339V252.616C54.7339 248.104 57.2299 245.32 61.7419 245.32C66.0619 245.32 68.2219 248.2 68.2219 252.52V265H74.9419V250.936C74.9419 243.928 70.7659 239.272 63.9499 239.272C59.7259 239.272 56.5579 240.856 54.7339 242.92V239.752H48.0139V265ZM89.0078 265.528C93.5198 265.528 97.3118 264.04 99.6158 261.88C100.672 264.328 103.408 266.104 108.928 265V259.96C106.048 260.584 105.424 259.96 105.424 258.568V248.632C105.424 242.488 100.816 239.272 92.8958 239.272C86.4158 239.272 80.8478 242.152 79.2638 246.568L85.0718 248.536C85.9358 246.328 88.9598 244.696 92.6558 244.696C97.0718 244.696 98.9438 246.424 98.9438 248.536V248.728L88.4318 249.832C82.3838 250.456 78.3998 253.048 78.3998 257.704C78.3998 262.792 82.9598 265.528 89.0078 265.528ZM98.9438 255.256C98.9438 258.616 94.0478 260.392 89.9198 260.392C86.7998 260.392 84.9278 259.432 84.9278 257.512C84.9278 255.64 86.4638 254.92 89.4398 254.584L98.9438 253.528V255.256ZM111.764 265H118.484V252.616C118.484 248.104 120.98 245.32 125.492 245.32C129.812 245.32 131.972 248.2 131.972 252.52V265H138.692V250.936C138.692 243.928 134.516 239.272 127.7 239.272C123.476 239.272 120.308 240.856 118.484 242.92V239.752H111.764V265ZM142.198 252.376C142.198 260.2 148.63 265.528 157.174 265.528C164.23 265.528 168.934 261.592 170.422 257.56L164.854 254.728C163.942 257.512 161.014 259.96 157.126 259.96C152.326 259.96 148.726 257.128 148.726 252.376C148.726 247.672 152.326 244.84 157.126 244.84C161.014 244.84 163.942 247.288 164.854 250.072L170.47 247.336C168.982 243.256 164.23 239.272 157.174 239.272C148.63 239.272 142.198 244.6 142.198 252.376ZM186.985 260.056C182.665 260.056 179.353 257.896 178.537 254.248H200.905V252.136C200.905 244.936 195.673 239.272 186.937 239.272C178.201 239.272 172.057 244.936 172.057 252.376C172.057 260.2 178.297 265.528 186.985 265.528C193.657 265.528 198.793 262.072 200.473 257.896L194.761 255.448C193.609 258.232 190.729 260.056 186.985 260.056ZM186.697 244.648C191.065 244.648 193.897 247.336 194.281 249.688H178.777C179.833 246.376 183.001 244.648 186.697 244.648ZM202.027 260.248C204.907 263.608 210.475 265.528 216.571 265.528C223.771 265.528 229.675 262.696 229.675 256.936C229.675 251.128 223.963 250.168 217.339 249.4C211.867 248.728 210.091 248.536 210.091 246.952C210.091 245.464 211.915 244.456 215.659 244.456C219.739 244.456 223.099 245.8 225.211 248.104L229.051 244.024C226.699 241.336 221.995 239.272 215.995 239.272C208.315 239.272 203.515 242.68 203.515 247.672C203.515 253.048 208.555 254.152 214.891 254.968C220.699 255.688 223.003 255.688 223.003 257.608C223.003 259.48 220.555 260.296 216.859 260.296C212.491 260.296 208.699 258.904 205.867 255.832L202.027 260.248ZM6.984 313V299.32H30.12V293.224H6.984V284.632H32.856V278.536H0.024V313H6.984ZM36.0585 284.776H42.9225V278.536H36.0585V284.776ZM42.8745 287.752H36.1545V313H42.8745V287.752ZM48.0139 313H54.7339V300.616C54.7339 296.104 57.2299 293.32 61.7419 293.32C66.0619 293.32 68.2219 296.2 68.2219 300.52V313H74.9419V298.936C74.9419 291.928 70.7659 287.272 63.9499 287.272C59.7259 287.272 56.5579 288.856 54.7339 290.92V287.752H48.0139V313ZM89.0078 313.528C93.5198 313.528 97.3118 312.04 99.6158 309.88C100.672 312.328 103.408 314.104 108.928 313V307.96C106.048 308.584 105.424 307.96 105.424 306.568V296.632C105.424 290.488 100.816 287.272 92.8958 287.272C86.4158 287.272 80.8478 290.152 79.2638 294.568L85.0718 296.536C85.9358 294.328 88.9598 292.696 92.6558 292.696C97.0718 292.696 98.9438 294.424 98.9438 296.536V296.728L88.4318 297.832C82.3838 298.456 78.3998 301.048 78.3998 305.704C78.3998 310.792 82.9598 313.528 89.0078 313.528ZM98.9438 303.256C98.9438 306.616 94.0478 308.392 89.9198 308.392C86.7998 308.392 84.9278 307.432 84.9278 305.512C84.9278 303.64 86.4638 302.92 89.4398 302.584L98.9438 301.528V303.256ZM111.764 313H118.484V300.616C118.484 296.104 120.98 293.32 125.492 293.32C129.812 293.32 131.972 296.2 131.972 300.52V313H138.692V298.936C138.692 291.928 134.516 287.272 127.7 287.272C123.476 287.272 120.308 288.856 118.484 290.92V287.752H111.764V313ZM142.198 300.376C142.198 308.2 148.63 313.528 157.174 313.528C164.23 313.528 168.934 309.592 170.422 305.56L164.854 302.728C163.942 305.512 161.014 307.96 157.126 307.96C152.326 307.96 148.726 305.128 148.726 300.376C148.726 295.672 152.326 292.84 157.126 292.84C161.014 292.84 163.942 295.288 164.854 298.072L170.47 295.336C168.982 291.256 164.23 287.272 157.174 287.272C148.63 287.272 142.198 292.6 142.198 300.376ZM186.985 308.056C182.665 308.056 179.353 305.896 178.537 302.248H200.905V300.136C200.905 292.936 195.673 287.272 186.937 287.272C178.201 287.272 172.057 292.936 172.057 300.376C172.057 308.2 178.297 313.528 186.985 313.528C193.657 313.528 198.793 310.072 200.473 305.896L194.761 303.448C193.609 306.232 190.729 308.056 186.985 308.056ZM186.697 292.648C191.065 292.648 193.897 295.336 194.281 297.688H178.777C179.833 294.376 183.001 292.648 186.697 292.648ZM202.027 308.248C204.907 311.608 210.475 313.528 216.571 313.528C223.771 313.528 229.675 310.696 229.675 304.936C229.675 299.128 223.963 298.168 217.339 297.4C211.867 296.728 210.091 296.536 210.091 294.952C210.091 293.464 211.915 292.456 215.659 292.456C219.739 292.456 223.099 293.8 225.211 296.104L229.051 292.024C226.699 289.336 221.995 287.272 215.995 287.272C208.315 287.272 203.515 290.68 203.515 295.672C203.515 301.048 208.555 302.152 214.891 302.968C220.699 303.688 223.003 303.688 223.003 305.608C223.003 307.48 220.555 308.296 216.859 308.296C212.491 308.296 208.699 306.904 205.867 303.832L202.027 308.248ZM6.984 361V347.32H30.12V341.224H6.984V332.632H32.856V326.536H0.024V361H6.984ZM36.0585 332.776H42.9225V326.536H36.0585V332.776ZM42.8745 335.752H36.1545V361H42.8745V335.752ZM48.0139 361H54.7339V348.616C54.7339 344.104 57.2299 341.32 61.7419 341.32C66.0619 341.32 68.2219 344.2 68.2219 348.52V361H74.9419V346.936C74.9419 339.928 70.7659 335.272 63.9499 335.272C59.7259 335.272 56.5579 336.856 54.7339 338.92V335.752H48.0139V361ZM89.0078 361.528C93.5198 361.528 97.3118 360.04 99.6158 357.88C100.672 360.328 103.408 362.104 108.928 361V355.96C106.048 356.584 105.424 355.96 105.424 354.568V344.632C105.424 338.488 100.816 335.272 92.8958 335.272C86.4158 335.272 80.8478 338.152 79.2638 342.568L85.0718 344.536C85.9358 342.328 88.9598 340.696 92.6558 340.696C97.0718 340.696 98.9438 342.424 98.9438 344.536V344.728L88.4318 345.832C82.3838 346.456 78.3998 349.048 78.3998 353.704C78.3998 358.792 82.9598 361.528 89.0078 361.528ZM98.9438 351.256C98.9438 354.616 94.0478 356.392 89.9198 356.392C86.7998 356.392 84.9278 355.432 84.9278 353.512C84.9278 351.64 86.4638 350.92 89.4398 350.584L98.9438 349.528V351.256ZM111.764 361H118.484V348.616C118.484 344.104 120.98 341.32 125.492 341.32C129.812 341.32 131.972 344.2 131.972 348.52V361H138.692V346.936C138.692 339.928 134.516 335.272 127.7 335.272C123.476 335.272 120.308 336.856 118.484 338.92V335.752H111.764V361ZM142.198 348.376C142.198 356.2 148.63 361.528 157.174 361.528C164.23 361.528 168.934 357.592 170.422 353.56L164.854 350.728C163.942 353.512 161.014 355.96 157.126 355.96C152.326 355.96 148.726 353.128 148.726 348.376C148.726 343.672 152.326 340.84 157.126 340.84C161.014 340.84 163.942 343.288 164.854 346.072L170.47 343.336C168.982 339.256 164.23 335.272 157.174 335.272C148.63 335.272 142.198 340.6 142.198 348.376ZM186.985 356.056C182.665 356.056 179.353 353.896 178.537 350.248H200.905V348.136C200.905 340.936 195.673 335.272 186.937 335.272C178.201 335.272 172.057 340.936 172.057 348.376C172.057 356.2 178.297 361.528 186.985 361.528C193.657 361.528 198.793 358.072 200.473 353.896L194.761 351.448C193.609 354.232 190.729 356.056 186.985 356.056ZM186.697 340.648C191.065 340.648 193.897 343.336 194.281 345.688H178.777C179.833 342.376 183.001 340.648 186.697 340.648ZM202.027 356.248C204.907 359.608 210.475 361.528 216.571 361.528C223.771 361.528 229.675 358.696 229.675 352.936C229.675 347.128 223.963 346.168 217.339 345.4C211.867 344.728 210.091 344.536 210.091 342.952C210.091 341.464 211.915 340.456 215.659 340.456C219.739 340.456 223.099 341.8 225.211 344.104L229.051 340.024C226.699 337.336 221.995 335.272 215.995 335.272C208.315 335.272 203.515 338.68 203.515 343.672C203.515 349.048 208.555 350.152 214.891 350.968C220.699 351.688 223.003 351.688 223.003 353.608C223.003 355.48 220.555 356.296 216.859 356.296C212.491 356.296 208.699 354.904 205.867 351.832L202.027 356.248ZM6.984 409V395.32H30.12V389.224H6.984V380.632H32.856V374.536H0.024V409H6.984ZM36.0585 380.776H42.9225V374.536H36.0585V380.776ZM42.8745 383.752H36.1545V409H42.8745V383.752ZM48.0139 409H54.7339V396.616C54.7339 392.104 57.2299 389.32 61.7419 389.32C66.0619 389.32 68.2219 392.2 68.2219 396.52V409H74.9419V394.936C74.9419 387.928 70.7659 383.272 63.9499 383.272C59.7259 383.272 56.5579 384.856 54.7339 386.92V383.752H48.0139V409ZM89.0078 409.528C93.5198 409.528 97.3118 408.04 99.6158 405.88C100.672 408.328 103.408 410.104 108.928 409V403.96C106.048 404.584 105.424 403.96 105.424 402.568V392.632C105.424 386.488 100.816 383.272 92.8958 383.272C86.4158 383.272 80.8478 386.152 79.2638 390.568L85.0718 392.536C85.9358 390.328 88.9598 388.696 92.6558 388.696C97.0718 388.696 98.9438 390.424 98.9438 392.536V392.728L88.4318 393.832C82.3838 394.456 78.3998 397.048 78.3998 401.704C78.3998 406.792 82.9598 409.528 89.0078 409.528ZM98.9438 399.256C98.9438 402.616 94.0478 404.392 89.9198 404.392C86.7998 404.392 84.9278 403.432 84.9278 401.512C84.9278 399.64 86.4638 398.92 89.4398 398.584L98.9438 397.528V399.256ZM111.764 409H118.484V396.616C118.484 392.104 120.98 389.32 125.492 389.32C129.812 389.32 131.972 392.2 131.972 396.52V409H138.692V394.936C138.692 387.928 134.516 383.272 127.7 383.272C123.476 383.272 120.308 384.856 118.484 386.92V383.752H111.764V409ZM142.198 396.376C142.198 404.2 148.63 409.528 157.174 409.528C164.23 409.528 168.934 405.592 170.422 401.56L164.854 398.728C163.942 401.512 161.014 403.96 157.126 403.96C152.326 403.96 148.726 401.128 148.726 396.376C148.726 391.672 152.326 388.84 157.126 388.84C161.014 388.84 163.942 391.288 164.854 394.072L170.47 391.336C168.982 387.256 164.23 383.272 157.174 383.272C148.63 383.272 142.198 388.6 142.198 396.376ZM186.985 404.056C182.665 404.056 179.353 401.896 178.537 398.248H200.905V396.136C200.905 388.936 195.673 383.272 186.937 383.272C178.201 383.272 172.057 388.936 172.057 396.376C172.057 404.2 178.297 409.528 186.985 409.528C193.657 409.528 198.793 406.072 200.473 401.896L194.761 399.448C193.609 402.232 190.729 404.056 186.985 404.056ZM186.697 388.648C191.065 388.648 193.897 391.336 194.281 393.688H178.777C179.833 390.376 183.001 388.648 186.697 388.648ZM202.027 404.248C204.907 407.608 210.475 409.528 216.571 409.528C223.771 409.528 229.675 406.696 229.675 400.936C229.675 395.128 223.963 394.168 217.339 393.4C211.867 392.728 210.091 392.536 210.091 390.952C210.091 389.464 211.915 388.456 215.659 388.456C219.739 388.456 223.099 389.8 225.211 392.104L229.051 388.024C226.699 385.336 221.995 383.272 215.995 383.272C208.315 383.272 203.515 386.68 203.515 391.672C203.515 397.048 208.555 398.152 214.891 398.968C220.699 399.688 223.003 399.688 223.003 401.608C223.003 403.48 220.555 404.296 216.859 404.296C212.491 404.296 208.699 402.904 205.867 399.832L202.027 404.248ZM6.984 457V443.32H30.12V437.224H6.984V428.632H32.856V422.536H0.024V457H6.984ZM36.0585 428.776H42.9225V422.536H36.0585V428.776ZM42.8745 431.752H36.1545V457H42.8745V431.752ZM48.0139 457H54.7339V444.616C54.7339 440.104 57.2299 437.32 61.7419 437.32C66.0619 437.32 68.2219 440.2 68.2219 444.52V457H74.9419V442.936C74.9419 435.928 70.7659 431.272 63.9499 431.272C59.7259 431.272 56.5579 432.856 54.7339 434.92V431.752H48.0139V457ZM89.0078 457.528C93.5198 457.528 97.3118 456.04 99.6158 453.88C100.672 456.328 103.408 458.104 108.928 457V451.96C106.048 452.584 105.424 451.96 105.424 450.568V440.632C105.424 434.488 100.816 431.272 92.8958 431.272C86.4158 431.272 80.8478 434.152 79.2638 438.568L85.0718 440.536C85.9358 438.328 88.9598 436.696 92.6558 436.696C97.0718 436.696 98.9438 438.424 98.9438 440.536V440.728L88.4318 441.832C82.3838 442.456 78.3998 445.048 78.3998 449.704C78.3998 454.792 82.9598 457.528 89.0078 457.528ZM98.9438 447.256C98.9438 450.616 94.0478 452.392 89.9198 452.392C86.7998 452.392 84.9278 451.432 84.9278 449.512C84.9278 447.64 86.4638 446.92 89.4398 446.584L98.9438 445.528V447.256ZM111.764 457H118.484V444.616C118.484 440.104 120.98 437.32 125.492 437.32C129.812 437.32 131.972 440.2 131.972 444.52V457H138.692V442.936C138.692 435.928 134.516 431.272 127.7 431.272C123.476 431.272 120.308 432.856 118.484 434.92V431.752H111.764V457ZM142.198 444.376C142.198 452.2 148.63 457.528 157.174 457.528C164.23 457.528 168.934 453.592 170.422 449.56L164.854 446.728C163.942 449.512 161.014 451.96 157.126 451.96C152.326 451.96 148.726 449.128 148.726 444.376C148.726 439.672 152.326 436.84 157.126 436.84C161.014 436.84 163.942 439.288 164.854 442.072L170.47 439.336C168.982 435.256 164.23 431.272 157.174 431.272C148.63 431.272 142.198 436.6 142.198 444.376ZM186.985 452.056C182.665 452.056 179.353 449.896 178.537 446.248H200.905V444.136C200.905 436.936 195.673 431.272 186.937 431.272C178.201 431.272 172.057 436.936 172.057 444.376C172.057 452.2 178.297 457.528 186.985 457.528C193.657 457.528 198.793 454.072 200.473 449.896L194.761 447.448C193.609 450.232 190.729 452.056 186.985 452.056ZM186.697 436.648C191.065 436.648 193.897 439.336 194.281 441.688H178.777C179.833 438.376 183.001 436.648 186.697 436.648ZM202.027 452.248C204.907 455.608 210.475 457.528 216.571 457.528C223.771 457.528 229.675 454.696 229.675 448.936C229.675 443.128 223.963 442.168 217.339 441.4C211.867 440.728 210.091 440.536 210.091 438.952C210.091 437.464 211.915 436.456 215.659 436.456C219.739 436.456 223.099 437.8 225.211 440.104L229.051 436.024C226.699 433.336 221.995 431.272 215.995 431.272C208.315 431.272 203.515 434.68 203.515 439.672C203.515 445.048 208.555 446.152 214.891 446.968C220.699 447.688 223.003 447.688 223.003 449.608C223.003 451.48 220.555 452.296 216.859 452.296C212.491 452.296 208.699 450.904 205.867 447.832L202.027 452.248Z" fill="#F9EEE5"/>
</svg>
