<svg width="524" height="635" viewBox="0 0 524 635" fill="none" xmlns="http://www.w3.org/2000/svg">
<path id="technical_capacity" d="M208 0L238.911 12.8328L272.276 10.1803L297.709 31.9371L330.259 39.7245L347.724 68.2757L376.276 85.7407L384.063 118.291L405.82 143.724L403.167 177.089L416 208L403.167 238.911L405.82 272.276L384.063 297.709L376.276 330.259L347.724 347.724L330.259 376.276L297.709 384.063L272.276 405.82L238.911 403.167L208 416L177.089 403.167L143.724 405.82L118.291 384.063L85.7407 376.276L68.2757 347.724L39.7245 330.259L31.9371 297.709L10.1803 272.276L12.8328 238.911L0 208L12.8328 177.089L10.1803 143.724L31.9371 118.291L39.7245 85.7407L68.2757 68.2757L85.7407 39.7245L118.291 31.9371L143.724 10.1803L177.089 12.8328L208 0Z" fill="#FD97BE"/>
<path id="support_costs" d="M443.5 385L448.627 387.159L454.161 386.713L458.38 390.374L463.779 391.684L466.675 396.489L471.411 399.428L472.703 404.905L476.311 409.184L475.871 414.799L478 420L475.871 425.201L476.311 430.816L472.703 435.095L471.411 440.572L466.675 443.511L463.779 448.316L458.38 449.626L454.161 453.287L448.627 452.841L443.5 455L438.373 452.841L432.839 453.287L428.62 449.626L423.221 448.316L420.325 443.511L415.589 440.572L414.297 435.095L410.689 430.816L411.129 425.201L409 420L411.129 414.799L410.689 409.184L414.297 404.905L415.589 399.428L420.325 396.489L423.221 391.684L428.62 390.374L432.839 386.713L438.373 387.159L443.5 385Z" fill="#009A54"/>
<path id="policy_development_human" d="M316.908 436.163C321.637 433.57 327.363 433.57 332.092 436.163C334.92 437.713 338.154 438.361 341.36 438.018C346.712 437.446 352.007 439.666 355.374 443.864C357.395 446.383 360.148 448.241 363.243 449.162C368.405 450.697 372.45 454.791 373.964 459.959C374.874 463.065 376.713 465.849 379.223 467.893C383.412 471.304 385.593 476.632 385.028 482.005C384.688 485.23 385.329 488.501 386.87 491.354C389.447 496.126 389.447 501.874 386.87 506.646C385.329 509.499 384.688 512.77 385.028 515.995C385.593 521.368 383.412 526.696 379.223 530.107C376.713 532.151 374.874 534.935 373.964 538.041C372.45 543.209 368.405 547.303 363.243 548.838C360.148 549.759 357.395 551.617 355.374 554.136C352.007 558.334 346.712 560.554 341.36 559.982C338.154 559.639 334.92 560.287 332.092 561.837C327.363 564.43 321.637 564.43 316.908 561.837C314.08 560.287 310.846 559.639 307.64 559.982C302.288 560.554 296.993 558.334 293.626 554.136C291.605 551.617 288.852 549.759 285.757 548.838C280.595 547.303 276.55 543.209 275.036 538.041C274.126 534.935 272.287 532.151 269.777 530.107C265.588 526.696 263.407 521.368 263.972 515.995C264.312 512.77 263.671 509.499 262.13 506.646C259.553 501.874 259.553 496.126 262.13 491.354C263.671 488.501 264.312 485.23 263.972 482.005C263.407 476.632 265.588 471.304 269.777 467.893C272.287 465.849 274.126 463.065 275.036 459.959C276.55 454.791 280.595 450.697 285.757 449.162C288.852 448.241 291.605 446.383 293.626 443.864C296.993 439.666 302.288 437.446 307.64 438.018C310.846 438.361 314.08 437.713 316.908 436.163Z" fill="#1CD681"/>
<path id="policy_development_gfp" d="M176.231 509.082C178.576 507.787 181.424 507.787 183.769 509.082C185.17 509.856 186.777 510.18 188.369 510.009C191.021 509.723 193.657 510.842 195.318 512.928C196.319 514.185 197.692 515.121 199.23 515.582C201.789 516.349 203.785 518.361 204.531 520.926L204.552 520.998C205.002 522.548 205.911 523.925 207.159 524.949C209.237 526.654 210.316 529.322 210.037 531.996C209.869 533.607 210.186 535.25 210.951 536.678C212.231 539.065 212.231 541.935 210.951 544.322C210.186 545.75 209.869 547.393 210.037 549.004C210.316 551.678 209.237 554.346 207.159 556.051C205.911 557.075 205.002 558.452 204.552 560.002L204.531 560.074C203.785 562.639 201.789 564.651 199.23 565.418C197.692 565.879 196.319 566.815 195.318 568.072C193.657 570.158 191.021 571.277 188.369 570.991C186.777 570.82 185.17 571.144 183.769 571.918C181.424 573.213 178.576 573.213 176.231 571.918C174.83 571.144 173.223 570.82 171.631 570.991C168.979 571.277 166.343 570.158 164.682 568.072C163.681 566.815 162.308 565.879 160.77 565.418C158.211 564.651 156.215 562.639 155.469 560.074L155.448 560.002C154.998 558.452 154.089 557.075 152.841 556.051C150.763 554.346 149.684 551.678 149.963 549.004C150.131 547.393 149.814 545.75 149.049 544.322C147.769 541.935 147.769 539.065 149.049 536.678C149.814 535.25 150.131 533.607 149.963 531.996C149.684 529.322 150.763 526.654 152.841 524.949C154.089 523.925 154.998 522.548 155.448 520.998L155.469 520.926C156.215 518.361 158.211 516.349 160.77 515.582C162.308 515.121 163.681 514.185 164.682 512.928C166.343 510.842 168.979 509.723 171.631 510.009C173.223 510.18 174.83 509.856 176.231 509.082Z" fill="#FA5915"/>
<path id="policy_development_business_human" d="M494.654 323.005C495.846 321.478 498.154 321.478 499.346 323.005C500.169 324.058 501.592 324.434 502.827 323.925L503.067 323.826C504.792 323.115 506.72 324.246 506.943 326.099C507.1 327.403 508.136 328.427 509.442 328.567L509.722 328.598C511.557 328.795 512.658 330.734 511.888 332.412C511.344 333.598 511.731 335.008 512.8 335.757C514.35 336.844 514.35 339.156 512.8 340.243C511.731 340.992 511.344 342.402 511.888 343.588C512.658 345.266 511.557 347.205 509.722 347.402L509.442 347.433C508.136 347.573 507.1 348.597 506.943 349.901C506.72 351.754 504.792 352.885 503.067 352.174L502.827 352.075C501.592 351.566 500.169 351.942 499.346 352.995C498.154 354.522 495.846 354.522 494.654 352.995C493.831 351.942 492.408 351.566 491.173 352.075L490.933 352.174C489.208 352.885 487.28 351.754 487.057 349.901C486.9 348.597 485.864 347.573 484.558 347.433L484.278 347.402C482.443 347.205 481.342 345.266 482.112 343.588C482.656 342.402 482.269 340.992 481.2 340.243C479.65 339.156 479.65 336.844 481.2 335.757C482.269 335.008 482.656 333.598 482.112 332.412C481.342 330.734 482.443 328.795 484.278 328.598L484.558 328.567C485.864 328.427 486.9 327.403 487.057 326.099C487.28 324.246 489.208 323.115 490.933 323.826L491.173 323.925C492.408 324.434 493.831 324.058 494.654 323.005Z" fill="#7B61FF"/>
<path id="knowledge_management" d="M502.263 207.817C506.328 203.988 512.672 203.988 516.737 207.817C518.242 209.235 519.297 211.062 519.772 213.074C521.056 218.509 517.884 224.003 512.535 225.609C510.555 226.203 508.445 226.203 506.465 225.609C501.116 224.003 497.944 218.509 499.228 213.074C499.703 211.062 500.758 209.235 502.263 207.817Z" fill="#F3C316"/>
<path id="global_capacity" d="M386.014 599.055C392.729 592.862 403.271 592.862 409.986 599.055C412.45 601.328 414.216 604.309 415.002 607.568C417.12 616.351 411.976 625.252 403.307 627.8L402.904 627.918C399.702 628.86 396.298 628.86 393.096 627.918L392.693 627.8C384.024 625.252 378.88 616.351 380.998 607.568C381.784 604.309 383.55 601.328 386.014 599.055Z" fill="#006EB5"/>
<path id="programme_support" d="M443.789 536.452C455.984 524.964 475.016 524.964 487.211 536.452C491.725 540.704 494.891 546.187 496.316 552.222C500.167 568.526 490.651 585.009 474.605 589.827C468.666 591.61 462.334 591.61 456.395 589.827C440.349 585.009 430.833 568.526 434.684 552.222C436.109 546.187 439.275 540.704 443.789 536.452Z" fill="#D02E27"/>
<path id="policy_development" d="M88.0159 488.996C95.2911 482.274 106.709 482.274 113.984 488.996C116.655 491.464 118.567 494.697 119.419 498.233C121.714 507.766 116.132 517.424 106.726 520.194L106.323 520.313C102.848 521.336 99.152 521.336 95.6774 520.313L95.2742 520.194C85.868 517.424 80.2857 507.766 82.5814 498.233C83.4329 494.697 85.3445 491.464 88.0159 488.996Z" fill="#23C3E2"/>
</svg>