<svg width="67" height="67" viewBox="0 0 67 67" fill="none" xmlns="http://www.w3.org/2000/svg">
<circle cx="33.5" cy="33.5" r="33.5" fill="#7B61FF"/>
<path d="M21.0706 21.9622C19.4845 20.376 12.7435 19.9796 10.5626 19.7812C10.3643 19.7812 10.166 19.7813 9.96776 19.9795C9.76952 20.1778 9.57129 20.5744 9.57129 20.7726V38.6165C9.57129 39.2113 9.96785 39.6078 10.5626 39.6078H16.5106C16.9072 39.6078 17.3036 39.4096 17.502 39.013C17.502 38.4182 21.0707 27.9102 21.4673 22.7553C21.4672 22.557 21.4672 22.1605 21.0706 21.9622Z" fill="white"/>
<path d="M42.2849 26.721C40.3023 26.1262 38.5179 25.3332 36.9318 24.7384C33.363 23.1522 31.7769 23.9454 28.6046 27.1176C27.2168 28.5054 26.2255 30.4881 26.4237 31.2811C26.4237 31.4794 26.4237 31.4794 26.8203 31.6777C27.8116 32.0743 29.1994 32.2725 30.5873 30.0915C30.7855 29.8933 30.9838 29.695 31.3803 29.695C31.9751 29.695 32.1733 29.4967 32.7681 29.2984C33.1647 29.1002 33.5612 28.9019 34.1559 28.7036C34.3542 28.7036 34.3542 28.7036 34.5525 28.7036C34.7507 28.7036 35.1473 28.9019 35.3455 28.9019C36.337 29.8933 38.1214 31.2811 39.9058 32.8673C42.6815 35.0482 45.4572 37.4274 46.8451 39.2118H47.0433C45.6555 35.2465 43.2763 28.5054 42.2849 26.721Z" fill="white"/>
<path d="M56.1627 21.7656C48.4303 21.7656 44.0685 23.7482 43.8702 23.7482C43.672 23.9465 43.4736 24.1448 43.2754 24.343C43.2754 24.5413 43.2754 24.9378 43.4736 25.1361C44.6632 27.1187 48.6286 38.0233 49.2233 40.799C49.4216 41.1956 49.8181 41.592 50.2147 41.592H56.1627C56.7575 41.592 57.154 41.1955 57.154 40.6007V22.7568C57.154 22.1622 56.7575 21.7656 56.1627 21.7656Z" fill="white"/>
<path d="M45.457 41.1952C44.664 39.4108 41.2934 36.8334 38.3194 34.4542C36.7334 33.0663 35.1472 31.8767 33.9576 30.8853C33.7594 31.0835 33.3628 31.0835 33.3628 31.2819C32.768 31.4801 32.5698 31.6784 31.7767 31.6784C30.1906 33.661 28.2079 34.4541 26.0271 33.661C25.0357 33.4628 24.4409 32.6697 24.2427 31.8767C23.8461 29.894 25.6305 27.1183 27.0184 25.7305H23.0531C22.26 29.6958 20.8721 34.8506 19.8809 37.6264C20.6739 38.4194 21.467 39.4108 22.0618 39.8073C25.8288 42.9795 30.1907 46.1519 30.9837 46.7466C31.5785 47.1432 32.7681 47.5397 33.3629 47.5397C33.5612 47.5397 33.7595 47.5397 33.9577 47.5397L30.7854 44.3674C30.3889 43.9708 30.3889 43.376 30.7854 42.9795C31.182 42.5831 31.7768 42.583 32.1732 42.9795L36.1386 46.9449C36.5351 47.3414 36.9316 47.1431 37.3282 47.1431C37.923 46.9449 38.1212 46.5483 38.3195 45.9535L33.7594 41.3934C33.3628 40.9968 33.3628 40.402 33.7594 40.0056C34.156 39.6091 34.7508 39.609 35.1472 40.0056L40.1038 44.9622C40.3021 45.1604 41.0952 45.1604 41.69 44.9622C41.8882 44.7639 42.2848 44.5656 42.483 44.1691L36.9316 38.6176C36.535 38.2211 36.535 37.6263 36.9316 37.2298C37.3282 36.8334 37.923 36.8333 38.3194 37.2298L44.0692 42.9795C44.4657 43.1778 44.8622 42.9795 45.2588 42.7813C45.457 42.583 45.8535 41.9882 45.457 41.1952Z" fill="white"/>
</svg>
