<svg width="67" height="67" viewBox="0 0 67 67" fill="none" xmlns="http://www.w3.org/2000/svg">
<circle cx="33.5" cy="33.5" r="33.5" fill="#7B61FF"/>
<path d="M33.6865 9.57031C32.9398 9.57031 32.334 10.1757 32.334 10.9228V13.6278C32.334 14.3749 32.9398 14.9803 33.6865 14.9803C34.4331 14.9803 35.039 14.3749 35.039 13.6278V10.9228C35.039 10.1757 34.4331 9.57031 33.6865 9.57031Z" fill="white"/>
<path d="M17.4569 28.5039H14.7519C14.0053 28.5039 13.3994 29.1098 13.3994 29.8564C13.3994 30.6031 14.0053 31.2089 14.7519 31.2089H17.4569C18.2035 31.2089 18.8094 30.6031 18.8094 29.8564C18.8094 29.1098 18.2035 28.5039 17.4569 28.5039Z" fill="white"/>
<path d="M52.6219 28.5039H49.917C49.1703 28.5039 48.5645 29.1098 48.5645 29.8564C48.5645 30.6031 49.1703 31.2089 49.917 31.2089H52.6219C53.3685 31.2089 53.9744 30.6031 53.9744 29.8564C53.9744 29.1098 53.3685 28.5039 52.6219 28.5039Z" fill="white"/>
<path d="M48.0316 15.5133C47.5033 14.985 46.6474 14.9855 46.1191 15.5128L44.2058 17.4253C43.6775 17.9536 43.6775 18.8099 44.2058 19.3383C44.4699 19.6024 44.816 19.7346 45.162 19.7346C45.508 19.7346 45.8541 19.6024 46.1182 19.3388L48.0316 17.4262C48.5599 16.898 48.5599 16.0416 48.0316 15.5133Z" fill="white"/>
<path d="M23.1663 17.4253L21.253 15.5128C20.7247 14.9854 19.8688 14.9851 19.3405 15.5133C18.8123 16.0416 18.8123 16.8979 19.3405 17.4262L21.2539 19.3388C21.5181 19.6025 21.8642 19.7346 22.2101 19.7346C22.5561 19.7346 22.9023 19.6024 23.1664 19.3383C23.6945 18.81 23.6945 17.9538 23.1663 17.4253Z" fill="white"/>
<path d="M47.2117 44.7344H20.1621C19.4152 44.7344 18.8096 45.3399 18.8096 46.0869V49.6935C18.8096 50.4404 19.4151 51.046 20.1621 51.046H47.2117C47.9586 51.046 48.5642 50.4405 48.5642 49.6935V46.0869C48.5641 45.3399 47.9586 44.7344 47.2117 44.7344Z" fill="white"/>
<path d="M33.688 17.6836C26.9758 17.6836 21.5156 23.1438 21.5156 29.8559V42.0282H45.8603V29.8559C45.8603 23.1437 40.4001 17.6836 33.688 17.6836ZM39.0979 31.2083C38.3513 31.2083 37.7454 30.6025 37.7454 29.8558C37.7454 27.6185 35.9253 25.7984 33.688 25.7984C32.9413 25.7984 32.3354 25.1925 32.3354 24.4459C32.3354 23.6992 32.9413 23.0934 33.688 23.0934C37.4169 23.0934 40.4503 26.1268 40.4503 29.8558C40.4503 30.6026 39.8446 31.2083 39.0979 31.2083Z" fill="white"/>
</svg>
