<svg width="67" height="67" viewBox="0 0 67 67" fill="none" xmlns="http://www.w3.org/2000/svg">
<circle cx="33.5" cy="33.5" r="33.5" fill="#7B61FF"/>
<path d="M46.119 54.6593C46.119 52.3363 44.2358 50.4531 41.9128 50.4531H25.088C22.765 50.4531 20.8818 52.3363 20.8818 54.6593V56.1549H46.119V54.6593Z" fill="white"/>
<path d="M54.6243 19.6069V16.8027H37.4478C37.0242 15.6149 36.0898 14.6805 34.9019 14.2569V8.29688H32.0978V14.2569C30.91 14.6805 29.9755 15.6149 29.5519 16.8027H12.3754V19.6069H15.881L9.57129 35.0296C9.57129 38.8949 12.7163 42.0399 16.5816 42.0399H19.3857C23.251 42.0399 26.3961 38.8949 26.3961 35.0296L20.0579 19.6069H29.552C29.9756 20.7947 30.9101 21.7291 32.0979 22.1527V42.1936C29.3578 42.7543 27.1902 44.907 26.6315 47.6482H40.3684C39.8097 44.907 37.6421 42.7543 34.902 42.1936V22.1527C36.0898 21.7291 37.0243 20.7947 37.4479 19.6069H46.9134L40.6037 35.0296C40.6037 38.8949 43.7487 42.0399 47.614 42.0399H50.4181C54.2834 42.0399 57.4284 38.8949 57.4284 35.0296L51.0903 19.6069H54.6243ZM22.8905 33.6275H13.0768L17.9837 21.8496L22.8905 33.6275ZM53.9229 33.6275H44.1092L49.016 21.8496L53.9229 33.6275Z" fill="white"/>
</svg>
