<svg width="67" height="67" viewBox="0 0 67 67" fill="none" xmlns="http://www.w3.org/2000/svg">
<circle cx="33.5" cy="33.5" r="33.5" fill="#7B61FF"/>
<path d="M11.267 52.2777H35.322C36.0547 52.2777 36.6486 51.6838 36.6486 50.9511V49.5361C36.6486 48.0707 35.4609 46.883 33.9955 46.883V45.297C33.9955 43.1969 32.2868 41.4883 30.1868 41.4883H16.4022C14.3022 41.4883 12.5936 43.1969 12.5936 45.297V46.883C11.1281 46.883 9.94043 48.0707 9.94043 49.5361V50.9511C9.94043 51.6835 10.5346 52.2777 11.267 52.2777Z" fill="white"/>
<path d="M26.5434 36.2118C27.425 37.3819 29.0888 37.6158 30.2588 36.7338C31.4292 35.8522 31.6628 34.1884 30.7812 33.018L22.7976 22.4238C21.9156 21.2534 20.2523 21.0199 19.0822 21.9015C17.9118 22.7835 17.6779 24.4468 18.5598 25.6173L26.5434 36.2118Z" fill="white"/>
<path d="M45.6134 21.8405C46.4954 23.0106 48.1588 23.2445 49.3292 22.3625C50.4992 21.4809 50.7331 19.8175 49.8512 18.6471L41.8676 8.05288C40.986 6.88247 39.3222 6.64859 38.1522 7.53055C36.9821 8.41251 36.7482 10.0759 37.6302 11.2463L45.6134 21.8405Z" fill="white"/>
<path d="M39.7932 29.548C41.754 28.0705 43.226 26.2357 44.1466 24.3039L34.8572 11.9766C32.7465 12.3293 30.5773 13.2382 28.6162 14.7161C26.6553 16.1936 25.1833 18.0283 24.2627 19.9598L33.5521 32.2878C35.6629 31.9351 37.832 31.0259 39.7932 29.548Z" fill="white"/>
<path d="M43.3761 29.8945C42.7584 30.524 42.1079 31.1275 41.3907 31.6681C40.6732 32.2084 39.9135 32.6675 39.1387 33.088L40.8684 35.3835L45.1061 32.1905L43.3761 29.8945Z" fill="white"/>
<path d="M46.7026 34.3086L42.4648 37.5017L50.4484 48.0962C51.3304 49.2666 52.9938 49.5002 54.1638 48.6186C55.3342 47.7366 55.5678 46.0732 54.6862 44.9028L46.7026 34.3086Z" fill="white"/>
</svg>
