<svg width="360" height="415" viewBox="0 0 360 415" fill="none" xmlns="http://www.w3.org/2000/svg">
<mask id="mask0_34_91" style="mask-type:alpha" maskUnits="userSpaceOnUse" x="0" y="0" width="360" height="415">
<rect width="360" height="415" fill="#6720C1"/>
</mask>
<g mask="url(#mask0_34_91)">
<path d="M-0.880649 -35.2125H10.8288L18.5588 -23H26.2888L17.9184 -35.8529C22.5839 -37.1336 25.5113 -40.4726 25.5113 -45.504C25.5113 -52.2735 20.4799 -55.8412 13.0243 -55.8412H-7.60441V-23H-0.880649V-35.2125ZM-0.880649 -40.8386V-50.1237H12.6584C16.592 -50.1237 18.8332 -48.4314 18.8332 -45.4583C18.8332 -42.5309 16.592 -40.8386 12.6584 -40.8386H-0.880649ZM45.4778 -22.5426C56.9585 -22.5426 62.3558 -28.9462 62.3558 -38.5058V-55.8412H55.5863V-38.8717C55.5863 -32.6969 52.9334 -28.443 45.4778 -28.443C37.9764 -28.443 35.3235 -32.6969 35.3235 -38.8717V-55.8412H28.5998V-38.5058C28.5998 -28.9462 33.9513 -22.5426 45.4778 -22.5426ZM67.2142 -23H97.0366V-28.809H73.938V-55.8412H67.2142V-23ZM100.894 -55.8412V-23H132.683V-28.809H107.526V-36.9507H130.076V-42.7139H107.526V-50.0323H132.683V-55.8412H100.894ZM166.788 -56.3444C155.536 -56.3444 147.395 -49.1632 147.395 -39.4206C147.395 -29.678 155.536 -22.4969 166.788 -22.4969C177.995 -22.4969 186.182 -29.678 186.182 -39.4206C186.182 -49.1632 177.995 -56.3444 166.788 -56.3444ZM166.788 -50.4439C174.153 -50.4439 179.275 -46.0529 179.275 -39.4206C179.275 -32.7883 174.153 -28.3973 166.788 -28.3973C159.424 -28.3973 154.302 -32.7883 154.302 -39.4206C154.302 -46.0529 159.424 -50.4439 166.788 -50.4439ZM196.728 -23V-36.0359H218.774V-41.8448H196.728V-50.0323H221.382V-55.8412H190.095V-23H196.728ZM237.533 -23H267.355V-28.809H244.256V-55.8412H237.533V-23ZM284.568 -55.8412L268.01 -23H275.192L279.034 -30.6386H297.604L301.401 -23H308.673L292.115 -55.8412H284.568ZM288.319 -49.2089L294.723 -36.356H281.87L288.319 -49.2089ZM327.801 -55.8412L319.568 -30.4099L310.923 -55.8412H303.879L315.359 -23H323.135L331.231 -48.1112L339.236 -23H347.057L358.538 -55.8412H351.631L342.986 -30.4099L334.799 -55.8412H327.801ZM0.462252 -5.84123V7.24037H-20.6238V-5.84123H-27.3476V27H-20.6238V13.0493H0.462252V27H7.23176V-5.84123H0.462252ZM28.906 27.4574C40.3867 27.4574 45.784 21.0538 45.784 11.4942V-5.84123H39.0145V11.1283C39.0145 17.3031 36.3616 21.557 28.906 21.557C21.4047 21.557 18.7518 17.3031 18.7518 11.1283V-5.84123H12.028V11.4942C12.028 21.0538 17.3796 27.4574 28.906 27.4574ZM74.5644 27L86.4568 0.562354V27H93.0433V-5.84123H82.9348L71.9115 18.7668L60.8882 -5.84123H50.6425V27H57.1833V0.562354L69.1214 27H74.5644ZM112.15 -5.84123L95.5926 27H102.774L106.616 19.3614H125.186L128.983 27H136.255L119.698 -5.84123H112.15ZM115.901 0.791053L122.305 13.644H109.452L115.901 0.791053ZM172.755 -5.84123H166.214V17.3489L145.722 -5.84123H138.861V27H145.357V2.71213L166.809 27H172.755V-5.84123ZM197.445 14.7875H209.154L216.884 27H224.614L216.244 14.1471C220.909 12.8664 223.836 9.52737 223.836 4.49598C223.836 -2.27352 218.805 -5.84123 211.349 -5.84123H190.721V27H197.445V14.7875ZM197.445 9.16145V-0.123747H210.984C214.917 -0.123747 217.158 1.56863 217.158 4.54172C217.158 7.46907 214.917 9.16145 210.984 9.16145H197.445ZM234.385 -5.84123H227.661V27H234.385V-5.84123ZM258.099 -6.34437C246.618 -6.34437 238.294 0.745313 238.294 10.4879C238.294 20.322 246.436 27.5031 257.825 27.5031C263.314 27.5031 267.979 25.5363 269.854 23.1579V27H276.166V9.02423H255.126V14.696H269.9C269.443 18.7668 263.954 21.6484 257.871 21.6484C250.552 21.6484 245.201 17.2117 245.201 10.5794C245.201 3.90136 250.644 -0.443924 258.053 -0.443924C263.862 -0.443924 267.888 2.16325 269.763 6.64576L275.663 3.80988C273.148 -2.50222 266.698 -6.34437 258.099 -6.34437ZM308.983 -5.84123V7.24037H287.897V-5.84123H281.173V27H287.897V13.0493H308.983V27H315.753V-5.84123H308.983ZM355.174 -0.0322653V-5.84123H319.405V-0.0322653H333.905V27H340.674V-0.0322653H355.174ZM354.169 19.8646C357.371 24.4843 365.147 27.5031 372.968 27.5031C382.254 27.5031 389.435 23.8897 389.435 16.7085C389.435 9.61885 382.848 8.38387 373.517 7.33185C365.193 6.37132 362.997 5.82244 362.997 3.44396C362.997 1.24845 365.65 -0.626884 371.505 -0.626884C377.085 -0.626884 381.751 1.24845 384.266 4.49598L388.749 0.196434C385.776 -3.7372 379.189 -6.34437 371.871 -6.34437C362.54 -6.34437 356.456 -2.09056 356.456 4.13006C356.456 10.6251 362.631 12.1345 370.681 13.0493C379.921 14.0556 382.62 14.3301 382.62 17.4404C382.62 20.0933 378.732 21.7399 373.243 21.7399C368.394 21.7399 362.448 20.1848 358.698 15.1534L354.169 19.8646ZM-0.880649 64.7875H10.8288L18.5588 77H26.2888L17.9184 64.1471C22.5839 62.8664 25.5113 59.5274 25.5113 54.496C25.5113 47.7265 20.4799 44.1588 13.0243 44.1588H-7.60441V77H-0.880649V64.7875ZM-0.880649 59.1614V49.8763H12.6584C16.592 49.8763 18.8332 51.5686 18.8332 54.5417C18.8332 57.4691 16.592 59.1614 12.6584 59.1614H-0.880649ZM45.4778 77.4574C56.9585 77.4574 62.3558 71.0538 62.3558 61.4942V44.1588H55.5863V61.1283C55.5863 67.3031 52.9334 71.557 45.4778 71.557C37.9764 71.557 35.3235 67.3031 35.3235 61.1283V44.1588H28.5998V61.4942C28.5998 71.0538 33.9513 77.4574 45.4778 77.4574ZM67.2142 77H97.0366V71.191H73.938V44.1588H67.2142V77ZM100.894 44.1588V77H132.683V71.191H107.526V63.0493H130.076V57.2861H107.526V49.9677H132.683V44.1588H100.894ZM166.788 43.6556C155.536 43.6556 147.395 50.8368 147.395 60.5794C147.395 70.322 155.536 77.5031 166.788 77.5031C177.995 77.5031 186.182 70.322 186.182 60.5794C186.182 50.8368 177.995 43.6556 166.788 43.6556ZM166.788 49.5561C174.153 49.5561 179.275 53.9471 179.275 60.5794C179.275 67.2117 174.153 71.6027 166.788 71.6027C159.424 71.6027 154.302 67.2117 154.302 60.5794C154.302 53.9471 159.424 49.5561 166.788 49.5561ZM196.728 77V63.9641H218.774V58.1552H196.728V49.9677H221.382V44.1588H190.095V77H196.728ZM237.533 77H267.355V71.191H244.256V44.1588H237.533V77ZM284.568 44.1588L268.01 77H275.192L279.034 69.3614H297.604L301.401 77H308.673L292.115 44.1588H284.568ZM288.319 50.7911L294.723 63.644H281.87L288.319 50.7911ZM327.801 44.1588L319.568 69.5901L310.923 44.1588H303.879L315.359 77H323.135L331.231 51.8888L339.236 77H347.057L358.538 44.1588H351.631L342.986 69.5901L334.799 44.1588H327.801ZM18.8207 94.1588V107.24H-2.26535V94.1588H-8.98912V127H-2.26535V113.049H18.8207V127H25.5902V94.1588H18.8207ZM47.2645 127.457C58.7452 127.457 64.1425 121.054 64.1425 111.494V94.1588H57.373V111.128C57.373 117.303 54.7201 121.557 47.2645 121.557C39.7632 121.557 37.1102 117.303 37.1102 111.128V94.1588H30.3865V111.494C30.3865 121.054 35.7381 127.457 47.2645 127.457ZM92.9229 127L104.815 100.562V127H111.402V94.1588H101.293L90.27 118.767L79.2467 94.1588H69.0009V127H75.5417V100.562L87.4799 127H92.9229ZM130.509 94.1588L113.951 127H121.132L124.974 119.361H143.545L147.341 127H154.614L138.056 94.1588H130.509ZM134.26 100.791L140.663 113.644H127.81L134.26 100.791ZM191.113 94.1588H184.572V117.349L164.081 94.1588H157.22V127H163.715V102.712L185.167 127H191.113V94.1588ZM215.803 114.787H227.512L235.243 127H242.973L234.602 114.147C239.268 112.866 242.195 109.527 242.195 104.496C242.195 97.7265 237.164 94.1588 229.708 94.1588H209.079V127H215.803V114.787ZM215.803 109.161V99.8763H229.342C233.276 99.8763 235.517 101.569 235.517 104.542C235.517 107.469 233.276 109.161 229.342 109.161H215.803ZM252.743 94.1588H246.02V127H252.743V94.1588ZM276.458 93.6556C264.977 93.6556 256.652 100.745 256.652 110.488C256.652 120.322 264.794 127.503 276.183 127.503C281.672 127.503 286.338 125.536 288.213 123.158V127H294.525V109.024H273.485V114.696H288.259C287.801 118.767 282.312 121.648 276.229 121.648C268.911 121.648 263.559 117.212 263.559 110.579C263.559 103.901 269.002 99.5561 276.412 99.5561C282.221 99.5561 286.246 102.163 288.121 106.646L294.022 103.81C291.506 97.4978 285.057 93.6556 276.458 93.6556ZM327.342 94.1588V107.24H306.255V94.1588H299.532V127H306.255V113.049H327.342V127H334.111V94.1588H327.342ZM373.532 99.9677V94.1588H337.764V99.9677H352.263V127H359.033V99.9677H373.532ZM372.528 119.865C375.73 124.484 383.505 127.503 391.327 127.503C400.612 127.503 407.793 123.89 407.793 116.709C407.793 109.619 401.207 108.384 391.876 107.332C383.551 106.371 381.356 105.822 381.356 103.444C381.356 101.248 384.009 99.3731 389.863 99.3731C395.444 99.3731 400.109 101.248 402.625 104.496L407.107 100.196C404.134 96.2628 397.548 93.6556 390.229 93.6556C380.898 93.6556 374.815 97.9094 374.815 104.13C374.815 110.625 380.99 112.135 389.04 113.049C398.279 114.056 400.978 114.33 400.978 117.44C400.978 120.093 397.09 121.74 391.601 121.74C386.753 121.74 380.807 120.185 377.056 115.153L372.528 119.865ZM-0.880649 164.787H10.8288L18.5588 177H26.2888L17.9184 164.147C22.5839 162.866 25.5113 159.527 25.5113 154.496C25.5113 147.726 20.4799 144.159 13.0243 144.159H-7.60441V177H-0.880649V164.787ZM-0.880649 159.161V149.876H12.6584C16.592 149.876 18.8332 151.569 18.8332 154.542C18.8332 157.469 16.592 159.161 12.6584 159.161H-0.880649ZM45.4778 177.457C56.9585 177.457 62.3558 171.054 62.3558 161.494V144.159H55.5863V161.128C55.5863 167.303 52.9334 171.557 45.4778 171.557C37.9764 171.557 35.3235 167.303 35.3235 161.128V144.159H28.5998V161.494C28.5998 171.054 33.9513 177.457 45.4778 177.457ZM67.2142 177H97.0366V171.191H73.938V144.159H67.2142V177ZM100.894 144.159V177H132.683V171.191H107.526V163.049H130.076V157.286H107.526V149.968H132.683V144.159H100.894ZM166.788 143.656C155.536 143.656 147.395 150.837 147.395 160.579C147.395 170.322 155.536 177.503 166.788 177.503C177.995 177.503 186.182 170.322 186.182 160.579C186.182 150.837 177.995 143.656 166.788 143.656ZM166.788 149.556C174.153 149.556 179.275 153.947 179.275 160.579C179.275 167.212 174.153 171.603 166.788 171.603C159.424 171.603 154.302 167.212 154.302 160.579C154.302 153.947 159.424 149.556 166.788 149.556ZM196.728 177V163.964H218.774V158.155H196.728V149.968H221.382V144.159H190.095V177H196.728ZM237.533 177H267.355V171.191H244.256V144.159H237.533V177ZM284.568 144.159L268.01 177H275.192L279.034 169.361H297.604L301.401 177H308.673L292.115 144.159H284.568ZM288.319 150.791L294.723 163.644H281.87L288.319 150.791ZM327.801 144.159L319.568 169.59L310.923 144.159H303.879L315.359 177H323.135L331.231 151.889L339.236 177H347.057L358.538 144.159H351.631L342.986 169.59L334.799 144.159H327.801ZM8.76081 227.457C20.2415 227.457 25.6388 221.054 25.6388 211.494V194.159H18.8693V211.128C18.8693 217.303 16.2164 221.557 8.76081 221.557C1.25947 221.557 -1.39344 217.303 -1.39344 211.128V194.159H-8.1172V211.494C-8.1172 221.054 -2.76563 227.457 8.76081 227.457ZM54.4192 227L66.3116 200.562V227H72.8981V194.159H62.7896L51.7663 218.767L40.743 194.159H30.4973V227H37.0381V200.562L48.9762 227H54.4192ZM92.0052 194.159L75.4474 227H82.6286L86.4707 219.361H105.041L108.838 227H116.11L99.5523 194.159H92.0052ZM95.7559 200.791L102.159 213.644H89.3066L95.7559 200.791ZM152.609 194.159H146.069V217.349L125.577 194.159H118.716V227H125.211V202.712L146.663 227H152.609V194.159ZM177.299 214.787H189.009L196.739 227H204.469L196.098 214.147C200.764 212.866 203.691 209.527 203.691 204.496C203.691 197.726 198.66 194.159 191.204 194.159H170.576V227H177.299V214.787ZM177.299 209.161V199.876H190.838C194.772 199.876 197.013 201.569 197.013 204.542C197.013 207.469 194.772 209.161 190.838 209.161H177.299ZM214.24 194.159H207.516V227H214.24V194.159ZM237.954 193.656C226.473 193.656 218.149 200.745 218.149 210.488C218.149 220.322 226.29 227.503 237.68 227.503C243.168 227.503 247.834 225.536 249.709 223.158V227H256.021V209.024H234.981V214.696H249.755C249.297 218.767 243.809 221.648 237.725 221.648C230.407 221.648 225.055 217.212 225.055 210.579C225.055 203.901 230.498 199.556 237.908 199.556C243.717 199.556 247.742 202.163 249.618 206.646L255.518 203.81C253.002 197.498 246.553 193.656 237.954 193.656ZM288.838 194.159V207.24H267.752V194.159H261.028V227H267.752V213.049H288.838V227H295.607V194.159H288.838ZM335.029 199.968V194.159H299.26V199.968H313.76V227H320.529V199.968H335.029ZM334.024 219.865C337.226 224.484 345.002 227.503 352.823 227.503C362.108 227.503 369.29 223.89 369.29 216.709C369.29 209.619 362.703 208.384 353.372 207.332C345.047 206.371 342.852 205.822 342.852 203.444C342.852 201.248 345.505 199.373 351.36 199.373C356.94 199.373 361.605 201.248 364.121 204.496L368.604 200.196C365.63 196.263 359.044 193.656 351.726 193.656C342.395 193.656 336.311 197.909 336.311 204.13C336.311 210.625 342.486 212.135 350.536 213.049C359.776 214.056 362.474 214.33 362.474 217.44C362.474 220.093 358.586 221.74 353.098 221.74C348.249 221.74 342.303 220.185 338.552 215.153L334.024 219.865ZM-0.880649 264.787H10.8288L18.5588 277H26.2888L17.9184 264.147C22.5839 262.866 25.5113 259.527 25.5113 254.496C25.5113 247.726 20.4799 244.159 13.0243 244.159H-7.60441V277H-0.880649V264.787ZM-0.880649 259.161V249.876H12.6584C16.592 249.876 18.8332 251.569 18.8332 254.542C18.8332 257.469 16.592 259.161 12.6584 259.161H-0.880649ZM45.4778 277.457C56.9585 277.457 62.3558 271.054 62.3558 261.494V244.159H55.5863V261.128C55.5863 267.303 52.9334 271.557 45.4778 271.557C37.9764 271.557 35.3235 267.303 35.3235 261.128V244.159H28.5998V261.494C28.5998 271.054 33.9513 277.457 45.4778 277.457ZM67.2142 277H97.0366V271.191H73.938V244.159H67.2142V277ZM100.894 244.159V277H132.683V271.191H107.526V263.049H130.076V257.286H107.526V249.968H132.683V244.159H100.894ZM166.788 243.656C155.536 243.656 147.395 250.837 147.395 260.579C147.395 270.322 155.536 277.503 166.788 277.503C177.995 277.503 186.182 270.322 186.182 260.579C186.182 250.837 177.995 243.656 166.788 243.656ZM166.788 249.556C174.153 249.556 179.275 253.947 179.275 260.579C179.275 267.212 174.153 271.603 166.788 271.603C159.424 271.603 154.302 267.212 154.302 260.579C154.302 253.947 159.424 249.556 166.788 249.556ZM196.728 277V263.964H218.774V258.155H196.728V249.968H221.382V244.159H190.095V277H196.728ZM237.533 277H267.355V271.191H244.256V244.159H237.533V277ZM284.568 244.159L268.01 277H275.192L279.034 269.361H297.604L301.401 277H308.673L292.115 244.159H284.568ZM288.319 250.791L294.723 263.644H281.87L288.319 250.791ZM327.801 244.159L319.568 269.59L310.923 244.159H303.879L315.359 277H323.135L331.231 251.889L339.236 277H347.057L358.538 244.159H351.631L342.986 269.59L334.799 244.159H327.801ZM11.4505 294.159V307.24H-9.63555V294.159H-16.3593V327H-9.63555V313.049H11.4505V327H18.22V294.159H11.4505ZM39.8943 327.457C51.375 327.457 56.7723 321.054 56.7723 311.494V294.159H50.0028V311.128C50.0028 317.303 47.3499 321.557 39.8943 321.557C32.393 321.557 29.74 317.303 29.74 311.128V294.159H23.0163V311.494C23.0163 321.054 28.3678 327.457 39.8943 327.457ZM85.5527 327L97.4451 300.562V327H104.032V294.159H93.9231L82.8998 318.767L71.8765 294.159H61.6307V327H68.1715V300.562L80.1097 327H85.5527ZM123.139 294.159L106.581 327H113.762L117.604 319.361H136.175L139.971 327H147.244L130.686 294.159H123.139ZM126.889 300.791L133.293 313.644H120.44L126.889 300.791ZM183.743 294.159H177.202V317.349L156.711 294.159H149.85V327H156.345V302.712L177.797 327H183.743V294.159ZM208.433 314.787H220.142L227.872 327H235.602L227.232 314.147C231.897 312.866 234.825 309.527 234.825 304.496C234.825 297.726 229.793 294.159 222.338 294.159H201.709V327H208.433V314.787ZM208.433 309.161V299.876H221.972C225.905 299.876 228.147 301.569 228.147 304.542C228.147 307.469 225.905 309.161 221.972 309.161H208.433ZM245.373 294.159H238.649V327H245.373V294.159ZM269.087 293.656C257.607 293.656 249.282 300.745 249.282 310.488C249.282 320.322 257.424 327.503 268.813 327.503C274.302 327.503 278.967 325.536 280.843 323.158V327H287.155V309.024H266.114V314.696H280.888C280.431 318.767 274.942 321.648 268.859 321.648C261.54 321.648 256.189 317.212 256.189 310.579C256.189 303.901 261.632 299.556 269.042 299.556C274.851 299.556 278.876 302.163 280.751 306.646L286.652 303.81C284.136 297.498 277.687 293.656 269.087 293.656ZM319.971 294.159V307.24H298.885V294.159H292.161V327H298.885V313.049H319.971V327H326.741V294.159H319.971ZM366.162 299.968V294.159H330.394V299.968H344.893V327H351.663V299.968H366.162ZM-0.880649 364.787H10.8288L18.5588 377H26.2888L17.9184 364.147C22.5839 362.866 25.5113 359.527 25.5113 354.496C25.5113 347.726 20.4799 344.159 13.0243 344.159H-7.60441V377H-0.880649V364.787ZM-0.880649 359.161V349.876H12.6584C16.592 349.876 18.8332 351.569 18.8332 354.542C18.8332 357.469 16.592 359.161 12.6584 359.161H-0.880649ZM45.4778 377.457C56.9585 377.457 62.3558 371.054 62.3558 361.494V344.159H55.5863V361.128C55.5863 367.303 52.9334 371.557 45.4778 371.557C37.9764 371.557 35.3235 367.303 35.3235 361.128V344.159H28.5998V361.494C28.5998 371.054 33.9513 377.457 45.4778 377.457ZM67.2142 377H97.0366V371.191H73.938V344.159H67.2142V377ZM100.894 344.159V377H132.683V371.191H107.526V363.049H130.076V357.286H107.526V349.968H132.683V344.159H100.894ZM166.788 343.656C155.536 343.656 147.395 350.837 147.395 360.579C147.395 370.322 155.536 377.503 166.788 377.503C177.995 377.503 186.182 370.322 186.182 360.579C186.182 350.837 177.995 343.656 166.788 343.656ZM166.788 349.556C174.153 349.556 179.275 353.947 179.275 360.579C179.275 367.212 174.153 371.603 166.788 371.603C159.424 371.603 154.302 367.212 154.302 360.579C154.302 353.947 159.424 349.556 166.788 349.556ZM196.728 377V363.964H218.774V358.155H196.728V349.968H221.382V344.159H190.095V377H196.728ZM237.533 377H267.355V371.191H244.256V344.159H237.533V377ZM284.568 344.159L268.01 377H275.192L279.034 369.361H297.604L301.401 377H308.673L292.115 344.159H284.568ZM288.319 350.791L294.723 363.644H281.87L288.319 350.791ZM327.801 344.159L319.568 369.59L310.923 344.159H303.879L315.359 377H323.135L331.231 351.889L339.236 377H347.057L358.538 344.159H351.631L342.986 369.59L334.799 344.159H327.801ZM0.462252 394.159V407.24H-20.6238V394.159H-27.3476V427H-20.6238V413.049H0.462252V427H7.23176V394.159H0.462252ZM28.906 427.457C40.3867 427.457 45.784 421.054 45.784 411.494V394.159H39.0145V411.128C39.0145 417.303 36.3616 421.557 28.906 421.557C21.4047 421.557 18.7518 417.303 18.7518 411.128V394.159H12.028V411.494C12.028 421.054 17.3796 427.457 28.906 427.457ZM74.5644 427L86.4568 400.562V427H93.0433V394.159H82.9348L71.9115 418.767L60.8882 394.159H50.6425V427H57.1833V400.562L69.1214 427H74.5644ZM112.15 394.159L95.5926 427H102.774L106.616 419.361H125.186L128.983 427H136.255L119.698 394.159H112.15ZM115.901 400.791L122.305 413.644H109.452L115.901 400.791ZM172.755 394.159H166.214V417.349L145.722 394.159H138.861V427H145.357V402.712L166.809 427H172.755V394.159ZM197.445 414.787H209.154L216.884 427H224.614L216.244 414.147C220.909 412.866 223.836 409.527 223.836 404.496C223.836 397.726 218.805 394.159 211.349 394.159H190.721V427H197.445V414.787ZM197.445 409.161V399.876H210.984C214.917 399.876 217.158 401.569 217.158 404.542C217.158 407.469 214.917 409.161 210.984 409.161H197.445ZM234.385 394.159H227.661V427H234.385V394.159ZM258.099 393.656C246.618 393.656 238.294 400.745 238.294 410.488C238.294 420.322 246.436 427.503 257.825 427.503C263.314 427.503 267.979 425.536 269.854 423.158V427H276.166V409.024H255.126V414.696H269.9C269.443 418.767 263.954 421.648 257.871 421.648C250.552 421.648 245.201 417.212 245.201 410.579C245.201 403.901 250.644 399.556 258.053 399.556C263.862 399.556 267.888 402.163 269.763 406.646L275.663 403.81C273.148 397.498 266.698 393.656 258.099 393.656ZM308.983 394.159V407.24H287.897V394.159H281.173V427H287.897V413.049H308.983V427H315.753V394.159H308.983ZM355.174 399.968V394.159H319.405V399.968H333.905V427H340.674V399.968H355.174ZM354.169 419.865C357.371 424.484 365.147 427.503 372.968 427.503C382.254 427.503 389.435 423.89 389.435 416.709C389.435 409.619 382.848 408.384 373.517 407.332C365.193 406.371 362.997 405.822 362.997 403.444C362.997 401.248 365.65 399.373 371.505 399.373C377.085 399.373 381.751 401.248 384.266 404.496L388.749 400.196C385.776 396.263 379.189 393.656 371.871 393.656C362.54 393.656 356.456 397.909 356.456 404.13C356.456 410.625 362.631 412.135 370.681 413.049C379.921 414.056 382.62 414.33 382.62 417.44C382.62 420.093 378.732 421.74 373.243 421.74C368.394 421.74 362.448 420.185 358.698 415.153L354.169 419.865Z" fill="#7B61FF"/>
</g>
</svg>
