<svg width="178" height="178" viewBox="0 0 178 178" fill="none" xmlns="http://www.w3.org/2000/svg">
<circle cx="89" cy="89" r="89" fill="#FD97BE"/>
<path d="M89 0L101.912 32.4269L127.616 8.81377L125.18 43.6319L158.583 33.5094L141.281 63.8226L175.769 69.1956L147.028 89L175.769 108.804L141.281 114.177L158.583 144.491L125.18 134.368L127.616 169.186L101.912 145.573L89 178L76.0876 145.573L50.3843 169.186L52.8201 134.368L19.417 144.491L36.7186 114.177L2.23141 108.804L30.972 89L2.23141 69.1956L36.7186 63.8226L19.417 33.5094L52.8201 43.6319L50.3843 8.81377L76.0876 32.4269L89 0Z" fill="#F1CFDC"/>
</svg>
