<svg width="178" height="178" viewBox="0 0 178 178" fill="none" xmlns="http://www.w3.org/2000/svg">
<circle cx="89" cy="89" r="89" fill="#1CD681"/>
<path d="M89 0L96.982 13.0563L107.504 1.94486L112.597 16.3754L125.2 7.69446L127.181 22.8686L141.313 16.9975L140.096 32.252L155.14 29.4474L150.778 44.1155L166.076 44.5L158.76 57.9408L173.644 61.4975L163.693 73.1234L177.512 79.697L165.362 89L177.512 98.303L163.693 104.877L173.644 116.503L158.76 120.059L166.076 133.5L150.778 133.884L155.14 148.553L140.096 145.748L141.313 161.003L127.181 155.131L125.2 170.306L112.597 161.625L107.504 176.055L96.982 164.944L89 178L81.018 164.944L70.4959 176.055L65.4028 161.625L52.8004 170.306L50.819 155.131L36.6871 161.003L37.9039 145.748L22.8601 148.553L27.2218 133.884L11.9237 133.5L19.2398 120.059L4.35597 116.503L14.3067 104.877L0.487549 98.303L12.638 89L0.487549 79.697L14.3067 73.1234L4.35597 61.4975L19.2398 57.9408L11.9237 44.5L27.2218 44.1155L22.8601 29.4474L37.9039 32.252L36.6871 16.9975L50.819 22.8686L52.8004 7.69446L65.4028 16.3754L70.4959 1.94486L81.018 13.0563L89 0Z" fill="#33EE99"/>
</svg>
