<svg width="186" height="186" viewBox="0 0 186 186" fill="none" xmlns="http://www.w3.org/2000/svg">
<circle cx="93" cy="93" r="89" fill="#FBC412"/>
<path d="M89.3598 7.99152C90.7822 4.86899 95.2178 4.86898 96.6402 7.99151L101.896 19.5309C103.073 22.1136 106.49 22.6838 108.441 20.623L117.159 11.4156C119.518 8.92404 123.714 10.3643 124.045 13.7795L125.27 26.4003C125.544 29.225 128.591 30.8738 131.105 29.5583L142.341 23.6805C145.381 22.09 148.881 24.8145 148.086 28.1522L145.146 40.4868C144.488 43.2475 146.834 45.7962 149.64 45.3685L162.175 43.4574C165.567 42.9402 167.993 46.6536 166.157 49.5522L159.372 60.2639C157.853 62.6614 159.245 65.8339 162.037 66.3403L174.514 68.6029C177.89 69.2151 178.979 73.5151 176.301 75.6604L166.405 83.5885C164.19 85.363 164.476 88.8154 166.953 90.2011L178.019 96.3922C181.013 98.0675 180.647 102.488 177.418 103.648L165.484 107.933C162.813 108.892 161.962 112.25 163.855 114.365L172.311 123.814C174.599 126.371 172.817 130.433 169.386 130.481L156.707 130.659C153.87 130.699 151.975 133.599 153.078 136.214L158.008 147.897C159.342 151.058 156.338 154.321 153.077 153.253L141.028 149.305C138.331 148.421 135.597 150.549 135.792 153.38L136.661 166.03C136.896 169.453 132.995 171.564 130.258 169.495L120.143 161.848C117.879 160.137 114.603 161.262 113.868 164.003L110.582 176.25C109.693 179.564 105.318 180.294 103.401 177.448L96.3176 166.931C94.7321 164.578 91.2679 164.578 89.6824 166.931L82.5986 177.448C80.6817 180.294 76.3065 179.564 75.4176 176.25L72.1324 164.003C71.3971 161.262 68.1205 160.137 65.8567 161.848L55.7418 169.495C53.0048 171.564 49.1037 169.453 49.339 166.03L50.2085 153.38C50.403 150.549 47.6693 148.421 44.9724 149.305L32.9226 153.253C29.662 154.321 26.6578 151.058 27.9918 147.897L32.9217 136.214C34.0251 133.599 32.1303 130.699 29.2926 130.659L16.6137 130.481C13.1829 130.433 11.4011 126.371 13.6893 123.814L22.1453 114.365C24.0379 112.25 23.1875 108.892 20.5165 107.933L8.58246 103.648C5.35313 102.488 4.98685 98.0675 7.98126 96.3922L19.0472 90.2011C21.5239 88.8154 21.81 85.363 19.5951 83.5885L9.69914 75.6604C7.02131 73.5151 8.11021 69.2151 11.4864 68.6029L23.963 66.3403C26.7554 65.8339 28.147 62.6614 26.6283 60.2639L19.8428 49.5522C18.0066 46.6536 20.4327 42.9402 23.8247 43.4574L36.36 45.3685C39.1656 45.7962 41.5118 43.2475 40.8539 40.4868L37.9141 28.1522C37.1186 24.8145 40.619 22.09 43.6593 23.6805L54.8948 29.5583C57.4095 30.8738 60.4562 29.225 60.7303 26.4003L61.9549 13.7795C62.2862 10.3643 66.4816 8.92403 68.8407 11.4156L77.5589 20.623C79.5102 22.6838 82.9272 22.1136 84.1036 19.5309L89.3598 7.99152Z" fill="#FBDD53"/>
</svg>
